M48
; DRILL file {KiCad 9.0.0-9.0.0-2~ubuntu24.04.1} date 2025-03-20T03:38:17-0400
; FORMAT={-:-/ absolute / inch / decimal}
; #@! TF.CreationDate,2025-03-20T03:38:17-04:00
; #@! TF.GenerationSoftware,Kicad,Pcbnew,9.0.0-9.0.0-2~ubuntu24.04.1
; #@! TF.FileFunction,Plated,1,4,PTH
FMAT,2
INCH
; #@! TA.AperFunction,Plated,PTH,ViaDrill
T1C0.0160
; #@! TA.AperFunction,Plated,PTH,ComponentDrill
T2C0.0370
; #@! TA.AperFunction,Plated,PTH,ComponentDrill
T3C0.0394
%
G90
G05
T1
X2.544Y-2.544
X2.552Y-4.748
X2.572Y-2.942
X2.62Y-4.296
X2.65Y-2.8
X2.65Y-4.725
X2.7Y-4.4
X2.714Y-4.594
X2.726Y-2.678
X2.7485Y-4.725
X2.774Y-2.728
X2.8Y-4.4
X2.82Y-4.594
X2.825Y-2.8573
X2.8485Y-4.725
X2.8625Y-2.775
X2.9Y-4.4
X2.914Y-4.594
X2.925Y-2.8
X2.942Y-2.702
X2.9485Y-4.725
X2.9754Y-3.994
X2.998Y-2.684
X2.998Y-4.608
X3.0Y-4.4
X3.0126Y-3.994
X3.0485Y-4.725
X3.1Y-2.8573
X3.1Y-4.4
X3.132Y-2.918
X3.1375Y-2.775
X3.14Y-4.6154
X3.1485Y-4.725
X3.1927Y-3.2
X3.1927Y-3.525
X3.2Y-4.4
X3.248Y-2.754
X3.2485Y-4.725
X3.25Y-3.025
X3.25Y-3.35
X3.2875Y-3.2375
X3.2875Y-3.5625
X3.3Y-4.4
X3.3485Y-4.725
X3.356Y-3.426
X3.358Y-4.212
X3.4Y-4.4
X3.4375Y-3.9
X3.4375Y-3.95
X3.452Y-4.1
X3.468Y-3.714
X3.48Y-4.734
X3.516Y-4.668
X3.558Y-4.572
X4.238Y-3.684
X4.238Y-4.344
X4.24Y-3.356
X4.242Y-3.83
X4.244Y-3.52
X4.244Y-4.178
X4.244Y-4.516
X4.246Y-4.0
X4.3272Y-3.42
X4.3272Y-3.5821
X4.3272Y-3.9067
X4.329Y-3.7435
X4.329Y-4.0771
X4.3293Y-4.2407
X4.3293Y-4.4075
X4.3308Y-4.5786
X4.3772Y-3.42
X4.3772Y-3.5821
X4.3772Y-3.9067
X4.379Y-3.7435
X4.379Y-4.0771
X4.3793Y-4.2407
X4.3793Y-4.4075
X4.3808Y-4.5786
X4.448Y-2.548
X4.454Y-4.752
T2
X2.7299Y-3.1898
X2.7299Y-3.2698
X2.7299Y-3.3498
X2.7299Y-3.4298
X2.7299Y-3.8099
X2.7299Y-3.8899
X2.7299Y-3.9699
X2.7299Y-4.0499
X2.8Y-3.1498
X2.8Y-3.2298
X2.8Y-3.3098
X2.8Y-3.3898
X2.8Y-3.7699
X2.8Y-3.8499
X2.8Y-3.9299
X2.8Y-4.0099
T3
X3.8883Y-2.7012
X3.8883Y-2.8012
X3.8883Y-2.9012
X3.8883Y-3.0012
X3.8883Y-3.1012
X3.8883Y-3.2012
X3.8883Y-3.3012
X3.8883Y-3.4012
X3.8883Y-3.5012
X3.8883Y-3.6012
X3.8883Y-3.7012
X3.8883Y-3.8012
X3.8883Y-3.9012
X3.8883Y-4.0012
X3.8883Y-4.1012
X3.8883Y-4.2012
X3.8883Y-4.3012
X3.8883Y-4.4012
X3.8883Y-4.5012
X3.8883Y-4.6012
X3.9883Y-2.7012
X3.9883Y-2.8012
X3.9883Y-2.9012
X3.9883Y-3.0012
X3.9883Y-3.1012
X3.9883Y-3.2012
X3.9883Y-3.3012
X3.9883Y-3.4012
X3.9883Y-3.5012
X3.9883Y-3.6012
X3.9883Y-3.7012
X3.9883Y-3.8012
X3.9883Y-3.9012
X3.9883Y-4.0012
X3.9883Y-4.1012
X3.9883Y-4.2012
X3.9883Y-4.3012
X3.9883Y-4.4012
X3.9883Y-4.5012
X3.9883Y-4.6012
M30
