<?xml version="1.0" standalone="no"?>
 <!DOCTYPE svg PUBLIC "-//W3C//DTD SVG 1.1//EN" 
 "http://www.w3.org/Graphics/SVG/1.1/DTD/svg11.dtd"> 
<svg
  xmlns:svg="http://www.w3.org/2000/svg"
  xmlns="http://www.w3.org/2000/svg"
  xmlns:xlink="http://www.w3.org/1999/xlink"
  version="1.1"
  width="297.0022mm" height="210.0072mm" viewBox="0.0000 0.0000 297.0022 210.0072">
<title>SVG Image created as LVDS_RasPi_Hat-B_Cu.svg date 2025/03/20 03:38:31 </title>
  <desc>Image generated by PCBNEW </desc>
<g style="fill:#000000; fill-opacity:1.0000;stroke:#000000; stroke-opacity:1.0000;
stroke-linecap:round; stroke-linejoin:round;"
 transform="translate(0 0) scale(1 1)">
<path style="fill:#000000; fill-opacity:1.0000; stroke:none;fill-rule:evenodd;"
d="M 99.6125,67.7600
99.6125,69.4600
97.9125,69.4600
97.9125,67.7600
Z" /> 
</g>
<g style="fill:#000000; fill-opacity:1.0000; stroke:none;">
<circle cx="101.3025" cy="68.6100" r="0.8500" /> 
<circle cx="98.7625" cy="71.1500" r="0.8500" /> 
<circle cx="101.3025" cy="71.1500" r="0.8500" /> 
<circle cx="98.7625" cy="73.6900" r="0.8500" /> 
<circle cx="101.3025" cy="73.6900" r="0.8500" /> 
<circle cx="98.7625" cy="76.2300" r="0.8500" /> 
<circle cx="101.3025" cy="76.2300" r="0.8500" /> 
<circle cx="98.7625" cy="78.7700" r="0.8500" /> 
<circle cx="101.3025" cy="78.7700" r="0.8500" /> 
<circle cx="98.7625" cy="81.3100" r="0.8500" /> 
<circle cx="101.3025" cy="81.3100" r="0.8500" /> 
<circle cx="98.7625" cy="83.8500" r="0.8500" /> 
<circle cx="101.3025" cy="83.8500" r="0.8500" /> 
<circle cx="98.7625" cy="86.3900" r="0.8500" /> 
<circle cx="101.3025" cy="86.3900" r="0.8500" /> 
<circle cx="98.7625" cy="88.9300" r="0.8500" /> 
<circle cx="101.3025" cy="88.9300" r="0.8500" /> 
<circle cx="98.7625" cy="91.4700" r="0.8500" /> 
<circle cx="101.3025" cy="91.4700" r="0.8500" /> 
<circle cx="98.7625" cy="94.0100" r="0.8500" /> 
<circle cx="101.3025" cy="94.0100" r="0.8500" /> 
<circle cx="98.7625" cy="96.5500" r="0.8500" /> 
<circle cx="101.3025" cy="96.5500" r="0.8500" /> 
<circle cx="98.7625" cy="99.0900" r="0.8500" /> 
<circle cx="101.3025" cy="99.0900" r="0.8500" /> 
<circle cx="98.7625" cy="101.6300" r="0.8500" /> 
<circle cx="101.3025" cy="101.6300" r="0.8500" /> 
<circle cx="98.7625" cy="104.1700" r="0.8500" /> 
<circle cx="101.3025" cy="104.1700" r="0.8500" /> 
<circle cx="98.7625" cy="106.7100" r="0.8500" /> 
<circle cx="101.3025" cy="106.7100" r="0.8500" /> 
<circle cx="98.7625" cy="109.2500" r="0.8500" /> 
<circle cx="101.3025" cy="109.2500" r="0.8500" /> 
<circle cx="98.7625" cy="111.7900" r="0.8500" /> 
<circle cx="101.3025" cy="111.7900" r="0.8500" /> 
<circle cx="98.7625" cy="114.3300" r="0.8500" /> 
<circle cx="101.3025" cy="114.3300" r="0.8500" /> 
<circle cx="98.7625" cy="116.8700" r="0.8500" /> 
<circle cx="101.3025" cy="116.8700" r="0.8500" /> 
<circle cx="69.3400" cy="87.1170" r="0.7240" /> 
</g>
<g style="fill:#000000; fill-opacity:1.0000; stroke:none;">
<circle cx="71.1200" cy="86.1010" r="0.7240" /> 
</g>
<g style="fill:#000000; fill-opacity:1.0000; stroke:none;">
<circle cx="69.3400" cy="85.0850" r="0.7240" /> 
</g>
<g style="fill:#000000; fill-opacity:1.0000; stroke:none;">
<circle cx="71.1200" cy="84.0690" r="0.7240" /> 
</g>
<g style="fill:#000000; fill-opacity:1.0000; stroke:none;">
<circle cx="69.3400" cy="83.0530" r="0.7240" /> 
</g>
<g style="fill:#000000; fill-opacity:1.0000; stroke:none;">
<circle cx="71.1200" cy="82.0370" r="0.7240" /> 
</g>
<g style="fill:#000000; fill-opacity:1.0000; stroke:none;">
<circle cx="69.3400" cy="81.0210" r="0.7240" /> 
</g>
<g style="fill:#000000; fill-opacity:1.0000; stroke:none;">
<circle cx="71.1200" cy="80.0050" r="0.7240" /> 
</g>
<g style="fill:#000000; fill-opacity:1.0000; stroke:none;">
<circle cx="69.3400" cy="102.8670" r="0.7240" /> 
</g>
<g style="fill:#000000; fill-opacity:1.0000; stroke:none;">
<circle cx="71.1200" cy="101.8510" r="0.7240" /> 
</g>
<g style="fill:#000000; fill-opacity:1.0000; stroke:none;">
<circle cx="69.3400" cy="100.8350" r="0.7240" /> 
</g>
<g style="fill:#000000; fill-opacity:1.0000; stroke:none;">
<circle cx="71.1200" cy="99.8190" r="0.7240" /> 
</g>
<g style="fill:#000000; fill-opacity:1.0000; stroke:none;">
<circle cx="69.3400" cy="98.8030" r="0.7240" /> 
</g>
<g style="fill:#000000; fill-opacity:1.0000; stroke:none;">
<circle cx="71.1200" cy="97.7870" r="0.7240" /> 
</g>
<g style="fill:#000000; fill-opacity:1.0000; stroke:none;">
<circle cx="69.3400" cy="96.7710" r="0.7240" /> 
</g>
<g style="fill:#000000; fill-opacity:1.0000; stroke:none;">
<circle cx="71.1200" cy="95.7550" r="0.7240" /> 
</g>
<g style="fill:#000000; fill-opacity:1.0000; stroke:none;">
<circle cx="85.2424" cy="87.0204" r="0.4064" /> 
</g>
<g style="fill:#000000; fill-opacity:1.0000; stroke:none;">
<circle cx="90.3732" cy="116.1288" r="0.4064" /> 
</g>
<g style="fill:#000000; fill-opacity:1.0000; stroke:none;">
<circle cx="79.7560" cy="117.2305" r="0.4064" /> 
</g>
<g style="fill:#000000; fill-opacity:1.0000; stroke:none;">
<circle cx="74.7268" cy="68.6308" r="0.4064" /> 
</g>
<g style="fill:#000000; fill-opacity:1.0000; stroke:none;">
<circle cx="70.4596" cy="69.2912" r="0.4064" /> 
</g>
<g style="fill:#000000; fill-opacity:1.0000; stroke:none;">
<circle cx="82.5500" cy="85.0900" r="0.4064" /> 
</g>
<g style="fill:#000000; fill-opacity:1.0000; stroke:none;">
<circle cx="82.5500" cy="76.8350" r="0.4064" /> 
</g>
<g style="fill:#000000; fill-opacity:1.0000; stroke:none;">
<circle cx="107.7976" cy="114.7064" r="0.4064" /> 
</g>
<g style="fill:#000000; fill-opacity:1.0000; stroke:none;">
<circle cx="107.6452" cy="110.3376" r="0.4064" /> 
</g>
<g style="fill:#000000; fill-opacity:1.0000; stroke:none;">
<circle cx="107.7976" cy="106.1212" r="0.4064" /> 
</g>
<g style="fill:#000000; fill-opacity:1.0000; stroke:none;">
<circle cx="107.8484" cy="101.6000" r="0.4064" /> 
</g>
<g style="fill:#000000; fill-opacity:1.0000; stroke:none;">
<circle cx="107.7468" cy="97.2820" r="0.4064" /> 
</g>
<g style="fill:#000000; fill-opacity:1.0000; stroke:none;">
<circle cx="76.1492" cy="117.0432" r="0.4064" /> 
</g>
<g style="fill:#000000; fill-opacity:1.0000; stroke:none;">
<circle cx="74.0156" cy="116.6876" r="0.4064" /> 
</g>
<g style="fill:#000000; fill-opacity:1.0000; stroke:none;">
<circle cx="107.6452" cy="93.5736" r="0.4064" /> 
</g>
<g style="fill:#000000; fill-opacity:1.0000; stroke:none;">
<circle cx="107.7976" cy="89.4080" r="0.4064" /> 
</g>
<g style="fill:#000000; fill-opacity:1.0000; stroke:none;">
<circle cx="107.6960" cy="85.2424" r="0.4064" /> 
</g>
<g style="fill:#000000; fill-opacity:1.0000; stroke:none;">
<circle cx="76.1492" cy="68.1736" r="0.4064" /> 
</g>
<g style="fill:#000000; fill-opacity:1.0000; stroke:none;">
<circle cx="69.2404" cy="68.0212" r="0.4064" /> 
</g>
<g style="fill:#000000; fill-opacity:1.0000; stroke:none;">
<circle cx="89.3064" cy="118.5672" r="0.4064" /> 
</g>
<g style="fill:#000000; fill-opacity:1.0000; stroke:none;">
<circle cx="88.3920" cy="120.2436" r="0.4064" /> 
</g>
<g style="fill:#000000; fill-opacity:1.0000; stroke:none;">
<circle cx="64.8208" cy="120.5992" r="0.4064" /> 
</g>
<g style="fill:#000000; fill-opacity:1.0000; stroke:none;">
<circle cx="113.1316" cy="120.7008" r="0.4064" /> 
</g>
<g style="fill:#000000; fill-opacity:1.0000; stroke:none;">
<circle cx="112.9792" cy="64.7192" r="0.4064" /> 
</g>
<g style="fill:#000000; fill-opacity:1.0000; stroke:none;">
<circle cx="64.6176" cy="64.6176" r="0.4064" /> 
</g>
<g style="fill:#000000; fill-opacity:1.0000; stroke:none;">
<circle cx="79.5528" cy="74.1172" r="0.4064" /> 
</g>
<g style="fill:#000000; fill-opacity:1.0000; stroke:none;">
<circle cx="85.2932" cy="106.9848" r="0.4064" /> 
</g>
<g style="fill:#000000; fill-opacity:1.0000; stroke:none;">
<circle cx="66.5480" cy="109.1184" r="0.4064" /> 
</g>
<g style="fill:#000000; fill-opacity:1.0000; stroke:none;">
<circle cx="65.3288" cy="74.7268" r="0.4064" /> 
</g>
<g style="fill:#000000; fill-opacity:1.0000; stroke:none;">
<circle cx="82.4992" cy="69.9516" r="0.4064" /> 
</g>
<g style="fill:#000000; fill-opacity:1.0000; stroke:none;">
<circle cx="71.6280" cy="116.6876" r="0.4064" /> 
</g>
<g style="fill:#000000; fill-opacity:1.0000; stroke:none;">
<circle cx="68.9356" cy="116.6876" r="0.4064" /> 
</g>
<g style="fill:#000000; fill-opacity:1.0000; stroke:none;">
<circle cx="75.5764" cy="101.4476" r="0.4064" /> 
</g>
<g style="fill:#000000; fill-opacity:1.0000; stroke:none;">
<circle cx="76.5188" cy="101.4476" r="0.4064" /> 
</g>
<g style="fill:#000000; fill-opacity:1.0000; stroke:none;">
<circle cx="85.0525" cy="120.0150" r="0.4064" /> 
</g>
<g style="fill:#000000; fill-opacity:1.0000; stroke:none;">
<circle cx="82.5125" cy="120.0150" r="0.4064" /> 
</g>
<g style="fill:#000000; fill-opacity:1.0000; stroke:none;">
<circle cx="79.9725" cy="120.0150" r="0.4064" /> 
</g>
<g style="fill:#000000; fill-opacity:1.0000; stroke:none;">
<circle cx="77.4325" cy="120.0150" r="0.4064" /> 
</g>
<g style="fill:#000000; fill-opacity:1.0000; stroke:none;">
<circle cx="74.8925" cy="120.0150" r="0.4064" /> 
</g>
<g style="fill:#000000; fill-opacity:1.0000; stroke:none;">
<circle cx="72.3525" cy="120.0150" r="0.4064" /> 
</g>
<g style="fill:#000000; fill-opacity:1.0000; stroke:none;">
<circle cx="69.8125" cy="120.0150" r="0.4064" /> 
</g>
<g style="fill:#000000; fill-opacity:1.0000; stroke:none;">
<circle cx="67.3100" cy="120.0150" r="0.4064" /> 
</g>
<g style="fill:#000000; fill-opacity:1.0000; stroke:none;">
<circle cx="111.1800" cy="90.9847" r="0.4064" /> 
</g>
<g style="fill:#000000; fill-opacity:1.0000; stroke:none;">
<circle cx="109.9100" cy="90.9847" r="0.4064" /> 
</g>
<g style="fill:#000000; fill-opacity:1.0000; stroke:none;">
<circle cx="111.2272" cy="95.0849" r="0.4064" /> 
</g>
<g style="fill:#000000; fill-opacity:1.0000; stroke:none;">
<circle cx="109.9572" cy="95.0849" r="0.4064" /> 
</g>
<g style="fill:#000000; fill-opacity:1.0000; stroke:none;">
<circle cx="111.1800" cy="99.2311" r="0.4064" /> 
</g>
<g style="fill:#000000; fill-opacity:1.0000; stroke:none;">
<circle cx="109.9100" cy="99.2311" r="0.4064" /> 
</g>
<g style="fill:#000000; fill-opacity:1.0000; stroke:none;">
<circle cx="111.2272" cy="103.5583" r="0.4064" /> 
</g>
<g style="fill:#000000; fill-opacity:1.0000; stroke:none;">
<circle cx="109.9572" cy="103.5583" r="0.4064" /> 
</g>
<g style="fill:#000000; fill-opacity:1.0000; stroke:none;">
<circle cx="111.2347" cy="107.7131" r="0.4064" /> 
</g>
<g style="fill:#000000; fill-opacity:1.0000; stroke:none;">
<circle cx="109.9647" cy="107.7131" r="0.4064" /> 
</g>
<g style="fill:#000000; fill-opacity:1.0000; stroke:none;">
<circle cx="111.2347" cy="111.9508" r="0.4064" /> 
</g>
<g style="fill:#000000; fill-opacity:1.0000; stroke:none;">
<circle cx="109.9647" cy="111.9508" r="0.4064" /> 
</g>
<g style="fill:#000000; fill-opacity:1.0000; stroke:none;">
<circle cx="111.2722" cy="116.2958" r="0.4064" /> 
</g>
<g style="fill:#000000; fill-opacity:1.0000; stroke:none;">
<circle cx="110.0022" cy="116.2958" r="0.4064" /> 
</g>
<g style="fill:#000000; fill-opacity:1.0000; stroke:none;">
<circle cx="109.9100" cy="86.8674" r="0.4064" /> 
</g>
<g style="fill:#000000; fill-opacity:1.0000; stroke:none;">
<circle cx="111.1800" cy="86.8674" r="0.4064" /> 
</g>
<g style="fill:#000000; fill-opacity:1.0000; stroke:none;">
<circle cx="74.2950" cy="71.1200" r="0.4064" /> 
</g>
<g style="fill:#000000; fill-opacity:1.0000; stroke:none;">
<circle cx="67.3100" cy="71.1200" r="0.4064" /> 
</g>
<g style="fill:#000000; fill-opacity:1.0000; stroke:none;">
<circle cx="71.7550" cy="72.5750" r="0.4064" /> 
</g>
<g style="fill:#000000; fill-opacity:1.0000; stroke:none;">
<circle cx="72.7075" cy="70.4850" r="0.4064" /> 
</g>
<g style="fill:#000000; fill-opacity:1.0000; stroke:none;">
<circle cx="79.6925" cy="70.4850" r="0.4064" /> 
</g>
<g style="fill:#000000; fill-opacity:1.0000; stroke:none;">
<circle cx="78.7400" cy="72.5750" r="0.4064" /> 
</g>
<g style="fill:#000000; fill-opacity:1.0000; stroke:none;">
<circle cx="81.0950" cy="81.2800" r="0.4064" /> 
</g>
<g style="fill:#000000; fill-opacity:1.0000; stroke:none;">
<circle cx="83.5025" cy="82.2325" r="0.4064" /> 
</g>
<g style="fill:#000000; fill-opacity:1.0000; stroke:none;">
<circle cx="83.5025" cy="90.4875" r="0.4064" /> 
</g>
<g style="fill:#000000; fill-opacity:1.0000; stroke:none;">
<circle cx="81.0950" cy="89.5350" r="0.4064" /> 
</g>
<g style="fill:#000000; fill-opacity:1.0000; stroke:none;">
<circle cx="88.0872" cy="94.3356" r="0.4064" /> 
</g>
<g style="fill:#000000; fill-opacity:1.0000; stroke:none;">
<circle cx="87.3125" cy="99.0600" r="0.4064" /> 
</g>
<g style="fill:#000000; fill-opacity:1.0000; stroke:none;">
<circle cx="87.3125" cy="100.3300" r="0.4064" /> 
</g>
<g style="fill:#000000; fill-opacity:1.0000; stroke:none;">
<circle cx="87.6808" cy="104.1400" r="0.4064" /> 
</g>
<g style="fill:#000000; fill-opacity:1.0000; stroke:none;">
<circle cx="68.5800" cy="111.7600" r="0.4064" /> 
</g>
<g style="fill:#000000; fill-opacity:1.0000; stroke:none;">
<circle cx="71.1200" cy="111.7600" r="0.4064" /> 
</g>
<g style="fill:#000000; fill-opacity:1.0000; stroke:none;">
<circle cx="73.6600" cy="111.7600" r="0.4064" /> 
</g>
<g style="fill:#000000; fill-opacity:1.0000; stroke:none;">
<circle cx="76.2000" cy="111.7600" r="0.4064" /> 
</g>
<g style="fill:#000000; fill-opacity:1.0000; stroke:none;">
<circle cx="78.7400" cy="111.7600" r="0.4064" /> 
</g>
<g style="fill:#000000; fill-opacity:1.0000; stroke:none;">
<circle cx="81.2800" cy="111.7600" r="0.4064" /> 
</g>
<g style="fill:#000000; fill-opacity:1.0000; stroke:none;">
<circle cx="83.8200" cy="111.7600" r="0.4064" /> 
</g>
<g style="fill:#000000; fill-opacity:1.0000; stroke:none;">
<circle cx="86.3600" cy="111.7600" r="0.4064" /> 
</g>
<g style="fill:none; 
stroke:#000000; stroke-width:0.3810; stroke-opacity:1; 
stroke-linecap:round; stroke-linejoin:round;">
<path d="M107.7976 89.4080
L107.7976 87.8051
" />
<path d="M107.7976 87.8051
L101.3025 81.3100
" />
<path d="M107.7468 97.2820
L106.6800 96.2152
" />
<path d="M106.6800 96.2152
L106.6800 91.7675
" />
<path d="M106.6800 91.7675
L101.3025 86.3900
" />
<path d="M101.3025 88.9300
L105.2852 92.9127
" />
<path d="M105.2852 92.9127
L105.2852 105.2344
" />
<path d="M105.2852 105.2344
L106.1720 106.1212
" />
<path d="M107.8484 101.6000
L108.1024 101.3460
" />
<path d="M104.6480 83.3228
L104.6480 82.1155
" />
<path d="M108.1024 101.3460
L111.7600 101.3460
" />
<path d="M111.7600 101.3460
L112.5728 100.5332
" />
<path d="M104.6480 82.1155
L101.3025 78.7700
" />
<path d="M112.5728 100.5332
L112.5728 87.1317
" />
<path d="M111.5106 86.0695
L107.3947 86.0695
" />
<path d="M112.5728 87.1317
L111.5106 86.0695
" />
<path d="M107.3947 86.0695
L104.6480 83.3228
" />
<path d="M107.6452 110.3376
L103.8584 106.5508
" />
<path d="M103.8584 106.5508
L103.8584 96.5659
" />
<path d="M103.8584 96.5659
L101.3025 94.0100
" />
<path d="M103.2764 101.0639
L103.2764 111.1504
" />
<path d="M101.3025 99.0900
L103.2764 101.0639
" />
<path d="M103.2764 111.1504
L106.8324 114.7064
" />
<path d="M106.8324 114.7064
L107.7976 114.7064
" />
<path d="M85.2424 87.0204
L85.2424 72.6948
" />
<path d="M85.2424 72.6948
L82.4992 69.9516
" />
<path d="M95.1992 100.1133
L98.7625 96.5500
" />
<path d="M98.2483 105.4115
L99.3337 105.4115
" />
<path d="M100.0610 102.8715
L101.3025 101.6300
" />
<path d="M90.3732 116.1288
L97.5210 108.9810
" />
<path d="M97.5210 108.9810
L97.5210 106.1388
" />
<path d="M100.0610 104.6842
L100.0610 102.8715
" />
<path d="M97.5210 106.1388
L98.2483 105.4115
" />
<path d="M99.3337 105.4115
L100.0610 104.6842
" />
<path d="M87.4371 117.1956
L79.7560 117.1956
" />
<path d="M95.1992 100.1133
L95.1992 109.4335
" />
<path d="M95.1992 109.4335
L87.4371 117.1956
" />
<path d="M79.7560 117.1956
L79.7560 117.2305
" />
<path d="M106.1720 106.1212
L107.7976 106.1212
" />
<path d="M76.1492 117.0432
L76.7588 116.4336
" />
<path d="M76.7588 116.4336
L87.3760 116.4336
" />
<path d="M87.3760 116.4336
L94.5388 109.2708
" />
<path d="M94.5388 98.2337
L98.7625 94.0100
" />
<path d="M94.5388 109.2708
L94.5388 98.2337
" />
<path d="M98.7625 91.4700
L93.4720 96.7605
" />
<path d="M92.6592 109.0168
L92.6592 91.6432
" />
<path d="M92.6592 91.6432
L97.9124 86.3900
" />
<path d="M97.9124 86.3900
L98.7625 86.3900
" />
<path d="M98.7625 83.8500
L91.5924 91.0201
" />
<path d="M91.5924 91.0201
L91.5924 108.4072
" />
<path d="M101.3025 76.2300
L107.6960 82.6235
" />
<path d="M107.6960 82.6235
L107.6960 85.2424
" />
<path d="M89.3064 118.5672
L97.3251 110.5485
" />
<path d="M97.3251 110.5485
L99.2197 110.5485
" />
<path d="M99.2197 110.5485
L100.0610 109.7072
" />
<path d="M100.0610 109.7072
L100.0610 107.9515
" />
<path d="M100.0610 107.9515
L101.3025 106.7100
" />
<path d="M92.8489 120.2436
L97.5210 115.5715
" />
<path d="M97.5210 115.5715
L100.0610 115.5715
" />
<path d="M100.0610 115.5715
L101.3025 114.3300
" />
<path d="M105.8672 101.5492
L106.8832 102.5652
" />
<path d="M106.8832 102.5652
L112.1156 102.5652
" />
<path d="M109.7788 120.5992
L105.0317 120.5992
" />
<path d="M105.0317 120.5992
L101.3025 116.8700
" />
<path d="M76.1492 68.1736
L75.1332 67.1576
" />
<path d="M70.1040 67.1576
L69.2404 68.0212
" />
<path d="M75.1332 67.1576
L70.1040 67.1576
" />
<path d="M113.1316 117.2464
L113.1316 103.5812
" />
<path d="M113.1316 103.5812
L112.1156 102.5652
" />
<path d="M109.7788 120.5992
L113.1316 117.2464
" />
<path d="M108.5447 94.4731
L107.6452 93.5736
" />
<path d="M108.5447 97.7033
L108.5447 94.4731
" />
<path d="M105.8672 100.3808
L108.5447 97.7033
" />
<path d="M105.8672 101.5492
L105.8672 100.3808
" />
<path d="M93.4720 109.2200
L87.1220 115.5700
" />
<path d="M75.1332 115.5700
L87.1220 115.5700
" />
<path d="M75.1332 115.5700
L74.0156 116.6876
" />
<path d="M93.4720 96.7605
L93.4720 109.2200
" />
<path d="M68.9356 116.6876
L72.5932 113.0300
" />
<path d="M72.5932 113.0300
L86.9696 113.0300
" />
<path d="M86.9696 113.0300
L91.5924 108.4072
" />
<path d="M76.1492 68.1736
L80.7212 68.1736
" />
<path d="M80.7212 68.1736
L82.4992 69.9516
" />
<path d="M88.3920 120.2436
L92.8489 120.2436
" />
<path d="M87.3760 114.3000
L92.6592 109.0168
" />
<path d="M73.9140 114.3000
L87.3760 114.3000
" />
<path d="M73.9140 114.4016
L73.9140 114.3000
" />
<path d="M71.6280 116.6876
L73.9140 114.4016
" />
</g>
<g style="fill:none; 
stroke:#000000; stroke-width:0.1753; stroke-opacity:1; 
stroke-linecap:round; stroke-linejoin:round;">
<path d="M76.0279 99.5022
L75.9430 99.4174
" />
<path d="M74.9518 99.7298 A0.2400 0.2400 0.0 0 0 75.2912 99.7298" />
<path d="M75.6036 99.4174
L75.2912 99.7298
" />
<path d="M74.8669 99.3056
L75.1793 98.9931
" />
<path d="M76.2000 100.9781
L75.7154 100.4935
" />
<path d="M76.5188 101.4476
L76.2000 101.1288
" />
<path d="M75.0945 98.5689 A0.2400 0.2400 0.0 0 0 74.7551 98.5689" />
<path d="M75.9430 99.4174 A0.2400 0.2400 0.0 0 0 75.6036 99.4174" />
<path d="M76.2000 101.1288
L76.2000 100.9781
" />
<path d="M75.1793 98.9931 A0.2400 0.2400 0.0 0 0 75.1794 98.6537" />
<path d="M75.7154 100.1541 A0.2400 0.2400 0.0 0 0 75.7154 100.4935" />
<path d="M74.8669 99.3056 A0.2400 0.2400 0.0 0 0 74.8669 99.6450" />
<path d="M75.1793 98.6537
L75.0945 98.5689
" />
<path d="M74.1032 98.8813 A0.2400 0.2400 0.0 0 0 74.4426 98.8813" />
<path d="M75.7154 100.1541
L76.0279 99.8417
" />
<path d="M76.0279 99.8417 A0.2400 0.2400 0.0 0 0 76.0279 99.5022" />
<path d="M74.9518 99.7298
L74.8669 99.6450
" />
<path d="M71.6016 98.2686
L71.1200 97.7870
" />
<path d="M74.7551 98.5689
L74.4426 98.8813
" />
<path d="M71.6016 98.2686
L73.4905 98.2686
" />
<path d="M73.4905 98.2686
L74.1032 98.8813
" />
<path d="M70.1804 99.4298
L70.8835 98.7266
" />
<path d="M69.3400 100.8350
L70.1804 99.9946
" />
<path d="M71.5092 98.7266
L71.6624 98.5734
" />
<path d="M70.8835 98.7266
L71.5092 98.7266
" />
<path d="M70.1804 99.9946
L70.1804 99.4298
" />
<path d="M71.6624 98.5734
L73.3643 98.5734
" />
<path d="M73.3643 98.5734
L75.8952 101.1043
" />
<path d="M75.8952 101.1043
L75.8952 101.1288
" />
<path d="M75.8952 101.1288
L75.5764 101.4476
" />
</g> 
</svg>
