%TF.GenerationSoftware,KiCad,Pcbnew,8.0.6*%
%TF.CreationDate,2025-01-14T13:26:05-05:00*%
%TF.ProjectId,LVDS_RasPi_Hat,4c564453-5f52-4617-9350-695f4861742e,rev?*%
%TF.SameCoordinates,Original*%
%TF.FileFunction,Paste,Top*%
%TF.FilePolarity,Positive*%
%FSLAX46Y46*%
G04 Gerber Fmt 4.6, Leading zero omitted, Abs format (unit mm)*
G04 Created by KiCad (PCBNEW 8.0.6) date 2025-01-14 13:26:05*
%MOMM*%
%LPD*%
G01*
G04 APERTURE LIST*
G04 Aperture macros list*
%AMRoundRect*
0 Rectangle with rounded corners*
0 $1 Rounding radius*
0 $2 $3 $4 $5 $6 $7 $8 $9 X,Y pos of 4 corners*
0 Add a 4 corners polygon primitive as box body*
4,1,4,$2,$3,$4,$5,$6,$7,$8,$9,$2,$3,0*
0 Add four circle primitives for the rounded corners*
1,1,$1+$1,$2,$3*
1,1,$1+$1,$4,$5*
1,1,$1+$1,$6,$7*
1,1,$1+$1,$8,$9*
0 Add four rect primitives between the rounded corners*
20,1,$1+$1,$2,$3,$4,$5,0*
20,1,$1+$1,$4,$5,$6,$7,0*
20,1,$1+$1,$6,$7,$8,$9,0*
20,1,$1+$1,$8,$9,$2,$3,0*%
G04 Aperture macros list end*
%ADD10R,0.558800X1.663700*%
%ADD11R,1.663700X0.558800*%
%ADD12RoundRect,0.160000X0.160000X-0.197500X0.160000X0.197500X-0.160000X0.197500X-0.160000X-0.197500X0*%
%ADD13RoundRect,0.155000X-0.155000X0.212500X-0.155000X-0.212500X0.155000X-0.212500X0.155000X0.212500X0*%
%ADD14O,0.599999X1.450000*%
%ADD15RoundRect,0.160000X-0.160000X0.197500X-0.160000X-0.197500X0.160000X-0.197500X0.160000X0.197500X0*%
%ADD16RoundRect,0.155000X-0.212500X-0.155000X0.212500X-0.155000X0.212500X0.155000X-0.212500X0.155000X0*%
%ADD17RoundRect,0.160000X-0.197500X-0.160000X0.197500X-0.160000X0.197500X0.160000X-0.197500X0.160000X0*%
G04 APERTURE END LIST*
D10*
%TO.C,U8*%
X60957500Y-76075750D03*
X62227500Y-76075750D03*
X63497500Y-76075750D03*
X64767500Y-76075750D03*
X66037500Y-76075750D03*
X67307500Y-76075750D03*
X68577500Y-76075750D03*
X69847500Y-76075750D03*
X69847500Y-70424250D03*
X68577500Y-70424250D03*
X67307500Y-70424250D03*
X66037500Y-70424250D03*
X64767500Y-70424250D03*
X63497500Y-70424250D03*
X62227500Y-70424250D03*
X60957500Y-70424250D03*
%TD*%
D11*
%TO.C,U5*%
X57326750Y-52055000D03*
X57326750Y-53325000D03*
X57326750Y-54595000D03*
X57326750Y-55865000D03*
X57326750Y-57135000D03*
X57326750Y-58405000D03*
X57326750Y-59675000D03*
X57326750Y-60945000D03*
X62978250Y-60945000D03*
X62978250Y-59675000D03*
X62978250Y-58405000D03*
X62978250Y-57135000D03*
X62978250Y-55865000D03*
X62978250Y-54595000D03*
X62978250Y-53325000D03*
X62978250Y-52055000D03*
%TD*%
D10*
%TO.C,U9*%
X72707500Y-76075750D03*
X73977500Y-76075750D03*
X75247500Y-76075750D03*
X76517500Y-76075750D03*
X77787500Y-76075750D03*
X79057500Y-76075750D03*
X80327500Y-76075750D03*
X81597500Y-76075750D03*
X81597500Y-70424250D03*
X80327500Y-70424250D03*
X79057500Y-70424250D03*
X77787500Y-70424250D03*
X76517500Y-70424250D03*
X75247500Y-70424250D03*
X73977500Y-70424250D03*
X72707500Y-70424250D03*
%TD*%
D12*
%TO.C,R2*%
X36152500Y-40847500D03*
X36152500Y-39652500D03*
%TD*%
D13*
%TO.C,C3*%
X65652500Y-38182500D03*
X65652500Y-39317500D03*
%TD*%
D14*
%TO.C,U4*%
X74747500Y-43725001D03*
X76017500Y-43725001D03*
X77287500Y-43725001D03*
X78557500Y-43725001D03*
X78557500Y-38275002D03*
X77287500Y-38275002D03*
X76017500Y-38275002D03*
X74747500Y-38275002D03*
%TD*%
D13*
%TO.C,C4*%
X73402500Y-38182500D03*
X73402500Y-39317500D03*
%TD*%
D15*
%TO.C,R4*%
X36152500Y-63402500D03*
X36152500Y-64597500D03*
%TD*%
D16*
%TO.C,C7*%
X53152500Y-68250000D03*
X54287500Y-68250000D03*
%TD*%
D17*
%TO.C,R8*%
X40055000Y-62000000D03*
X41250000Y-62000000D03*
%TD*%
D16*
%TO.C,C9*%
X76585000Y-68250000D03*
X77720000Y-68250000D03*
%TD*%
%TO.C,C8*%
X64835000Y-68250000D03*
X65970000Y-68250000D03*
%TD*%
D17*
%TO.C,R5*%
X40055000Y-26750000D03*
X41250000Y-26750000D03*
%TD*%
D16*
%TO.C,C6*%
X41402500Y-68250000D03*
X42537500Y-68250000D03*
%TD*%
D13*
%TO.C,C5*%
X65152500Y-55932500D03*
X65152500Y-57067500D03*
%TD*%
D15*
%TO.C,R1*%
X36152500Y-27652500D03*
X36152500Y-28847500D03*
%TD*%
D14*
%TO.C,U3*%
X66997500Y-43725001D03*
X68267500Y-43725001D03*
X69537500Y-43725001D03*
X70807500Y-43725001D03*
X70807500Y-38275002D03*
X69537500Y-38275002D03*
X68267500Y-38275002D03*
X66997500Y-38275002D03*
%TD*%
D17*
%TO.C,R7*%
X40055000Y-54250000D03*
X41250000Y-54250000D03*
%TD*%
D10*
%TO.C,U7*%
X49207500Y-76075750D03*
X50477500Y-76075750D03*
X51747500Y-76075750D03*
X53017500Y-76075750D03*
X54287500Y-76075750D03*
X55557500Y-76075750D03*
X56827500Y-76075750D03*
X58097500Y-76075750D03*
X58097500Y-70424250D03*
X56827500Y-70424250D03*
X55557500Y-70424250D03*
X54287500Y-70424250D03*
X53017500Y-70424250D03*
X51747500Y-70424250D03*
X50477500Y-70424250D03*
X49207500Y-70424250D03*
%TD*%
D14*
%TO.C,U1*%
X51497500Y-43725001D03*
X52767500Y-43725001D03*
X54037500Y-43725001D03*
X55307500Y-43725001D03*
X55307500Y-38275002D03*
X54037500Y-38275002D03*
X52767500Y-38275002D03*
X51497500Y-38275002D03*
%TD*%
D17*
%TO.C,R6*%
X40055000Y-41750000D03*
X41250000Y-41750000D03*
%TD*%
D13*
%TO.C,C1*%
X50152500Y-38182500D03*
X50152500Y-39317500D03*
%TD*%
D12*
%TO.C,R3*%
X36152500Y-52847500D03*
X36152500Y-51652500D03*
%TD*%
D14*
%TO.C,U2*%
X59247500Y-43725001D03*
X60517500Y-43725001D03*
X61787500Y-43725001D03*
X63057500Y-43725001D03*
X63057500Y-38275002D03*
X61787500Y-38275002D03*
X60517500Y-38275002D03*
X59247500Y-38275002D03*
%TD*%
D10*
%TO.C,U6*%
X37457500Y-76075750D03*
X38727500Y-76075750D03*
X39997500Y-76075750D03*
X41267500Y-76075750D03*
X42537500Y-76075750D03*
X43807500Y-76075750D03*
X45077500Y-76075750D03*
X46347500Y-76075750D03*
X46347500Y-70424250D03*
X45077500Y-70424250D03*
X43807500Y-70424250D03*
X42537500Y-70424250D03*
X41267500Y-70424250D03*
X39997500Y-70424250D03*
X38727500Y-70424250D03*
X37457500Y-70424250D03*
%TD*%
D13*
%TO.C,C2*%
X57902500Y-38182500D03*
X57902500Y-39317500D03*
%TD*%
M02*
