%TF.GenerationSoftware,KiCad,Pcbnew,9.0.0-9.0.0-2~ubuntu24.04.1*%
%TF.CreationDate,2025-03-20T03:38:20-04:00*%
%TF.ProjectId,LVDS_RasPi_Hat,4c564453-5f52-4617-9350-695f4861742e,2*%
%TF.SameCoordinates,Original*%
%TF.FileFunction,Soldermask,Bot*%
%TF.FilePolarity,Negative*%
%FSLAX46Y46*%
G04 Gerber Fmt 4.6, Leading zero omitted, Abs format (unit mm)*
G04 Created by KiCad (PCBNEW 9.0.0-9.0.0-2~ubuntu24.04.1) date 2025-03-20 03:38:20*
%MOMM*%
%LPD*%
G01*
G04 APERTURE LIST*
%ADD10R,1.700000X1.700000*%
%ADD11O,1.700000X1.700000*%
%ADD12C,3.300000*%
%ADD13C,1.448000*%
G04 APERTURE END LIST*
D10*
%TO.C,J1*%
X98762500Y-68610000D03*
D11*
X101302500Y-68610000D03*
X98762500Y-71150000D03*
X101302500Y-71150000D03*
X98762500Y-73690000D03*
X101302500Y-73690000D03*
X98762500Y-76230000D03*
X101302500Y-76230000D03*
X98762500Y-78770000D03*
X101302500Y-78770000D03*
X98762500Y-81310000D03*
X101302500Y-81310000D03*
X98762500Y-83850000D03*
X101302500Y-83850000D03*
X98762500Y-86390000D03*
X101302500Y-86390000D03*
X98762500Y-88930000D03*
X101302500Y-88930000D03*
X98762500Y-91470000D03*
X101302500Y-91470000D03*
X98762500Y-94010000D03*
X101302500Y-94010000D03*
X98762500Y-96550000D03*
X101302500Y-96550000D03*
X98762500Y-99090000D03*
X101302500Y-99090000D03*
X98762500Y-101630000D03*
X101302500Y-101630000D03*
X98762500Y-104170000D03*
X101302500Y-104170000D03*
X98762500Y-106710000D03*
X101302500Y-106710000D03*
X98762500Y-109250000D03*
X101302500Y-109250000D03*
X98762500Y-111790000D03*
X101302500Y-111790000D03*
X98762500Y-114330000D03*
X101302500Y-114330000D03*
X98762500Y-116870000D03*
X101302500Y-116870000D03*
%TD*%
D12*
%TO.C,J2*%
X66800000Y-77215000D03*
X66800000Y-105665000D03*
D13*
X69340000Y-87117000D03*
X71120000Y-86101000D03*
X69340000Y-85085000D03*
X71120000Y-84069000D03*
X69340000Y-83053000D03*
X71120000Y-82037000D03*
X69340000Y-81021000D03*
X71120000Y-80005000D03*
X69340000Y-102867000D03*
X71120000Y-101851000D03*
X69340000Y-100835000D03*
X71120000Y-99819000D03*
X69340000Y-98803000D03*
X71120000Y-97787000D03*
X69340000Y-96771000D03*
X71120000Y-95755000D03*
%TD*%
M02*
