%TF.GenerationSoftware,KiCad,Pcbnew,9.0.0-9.0.0-2~ubuntu24.04.1*%
%TF.CreationDate,2025-03-20T03:38:20-04:00*%
%TF.ProjectId,LVDS_RasPi_Hat,4c564453-5f52-4617-9350-695f4861742e,2*%
%TF.SameCoordinates,Original*%
%TF.FileFunction,Copper,L4,Bot*%
%TF.FilePolarity,Positive*%
%FSLAX46Y46*%
G04 Gerber Fmt 4.6, Leading zero omitted, Abs format (unit mm)*
G04 Created by KiCad (PCBNEW 9.0.0-9.0.0-2~ubuntu24.04.1) date 2025-03-20 03:38:20*
%MOMM*%
%LPD*%
G01*
G04 APERTURE LIST*
%TA.AperFunction,ComponentPad*%
%ADD10R,1.700000X1.700000*%
%TD*%
%TA.AperFunction,ComponentPad*%
%ADD11O,1.700000X1.700000*%
%TD*%
%TA.AperFunction,ComponentPad*%
%ADD12C,1.448000*%
%TD*%
%TA.AperFunction,ViaPad*%
%ADD13C,0.812800*%
%TD*%
%TA.AperFunction,Conductor*%
%ADD14C,0.381000*%
%TD*%
%TA.AperFunction,Conductor*%
%ADD15C,0.175260*%
%TD*%
G04 APERTURE END LIST*
D10*
%TO.P,J1,1,3V3*%
%TO.N,+3V3*%
X98762500Y-68610000D03*
D11*
%TO.P,J1,2,5V*%
%TO.N,+5V*%
X101302500Y-68610000D03*
%TO.P,J1,3,SDA/GPIO2*%
%TO.N,/TS_BUS_SEL*%
X98762500Y-71150000D03*
%TO.P,J1,4,5V*%
%TO.N,+5V*%
X101302500Y-71150000D03*
%TO.P,J1,5,SCL/GPIO3*%
%TO.N,unconnected-(J1-SCL{slash}GPIO3-Pad5)*%
X98762500Y-73690000D03*
%TO.P,J1,6,GND*%
%TO.N,GND*%
X101302500Y-73690000D03*
%TO.P,J1,7,GCLK0/GPIO4*%
%TO.N,unconnected-(J1-GCLK0{slash}GPIO4-Pad7)*%
X98762500Y-76230000D03*
%TO.P,J1,8,GPIO14/TXD*%
%TO.N,/CONFIG8*%
X101302500Y-76230000D03*
%TO.P,J1,9,GND*%
%TO.N,GND*%
X98762500Y-78770000D03*
%TO.P,J1,10,GPIO15/RXD*%
%TO.N,/CONFIG12*%
X101302500Y-78770000D03*
%TO.P,J1,11,GPIO17*%
%TO.N,unconnected-(J1-GPIO17-Pad11)*%
X98762500Y-81310000D03*
%TO.P,J1,12,GPIO18/PWM0*%
%TO.N,/CONFIG9*%
X101302500Y-81310000D03*
%TO.P,J1,13,GPIO27*%
%TO.N,/CONFIG7*%
X98762500Y-83850000D03*
%TO.P,J1,14,GND*%
%TO.N,GND*%
X101302500Y-83850000D03*
%TO.P,J1,15,GPIO22*%
%TO.N,/CONFIG6*%
X98762500Y-86390000D03*
%TO.P,J1,16,GPIO23*%
%TO.N,/CONFIG11*%
X101302500Y-86390000D03*
%TO.P,J1,17,3V3*%
%TO.N,+3V3*%
X98762500Y-88930000D03*
%TO.P,J1,18,GPIO24*%
%TO.N,/CONFIG13*%
X101302500Y-88930000D03*
%TO.P,J1,19,MOSI0/GPIO10*%
%TO.N,/CONFIG5*%
X98762500Y-91470000D03*
%TO.P,J1,20,GND*%
%TO.N,GND*%
X101302500Y-91470000D03*
%TO.P,J1,21,MISO0/GPIO9*%
%TO.N,/CONFIG4*%
X98762500Y-94010000D03*
%TO.P,J1,22,GPIO25*%
%TO.N,/CONFIG14*%
X101302500Y-94010000D03*
%TO.P,J1,23,SCLK0/GPIO11*%
%TO.N,/CONFIG3*%
X98762500Y-96550000D03*
%TO.P,J1,24,~{CE0}/GPIO8*%
%TO.N,/NIM2*%
X101302500Y-96550000D03*
%TO.P,J1,25,GND*%
%TO.N,GND*%
X98762500Y-99090000D03*
%TO.P,J1,26,~{CE1}/GPIO7*%
%TO.N,/CONFIG15*%
X101302500Y-99090000D03*
%TO.P,J1,27,ID_SD/GPIO0*%
%TO.N,/NIM1*%
X98762500Y-101630000D03*
%TO.P,J1,28,ID_SC/GPIO1*%
%TO.N,/CONFIG2*%
X101302500Y-101630000D03*
%TO.P,J1,29,GCLK1/GPIO5*%
%TO.N,/NIM3*%
X98762500Y-104170000D03*
%TO.P,J1,30,GND*%
%TO.N,GND*%
X101302500Y-104170000D03*
%TO.P,J1,31,GCLK2/GPIO6*%
%TO.N,/TS_BUS0*%
X98762500Y-106710000D03*
%TO.P,J1,32,PWM0/GPIO12*%
%TO.N,/CONFIG1*%
X101302500Y-106710000D03*
%TO.P,J1,33,PWM1/GPIO13*%
%TO.N,/TS_BUS1*%
X98762500Y-109250000D03*
%TO.P,J1,34,GND*%
%TO.N,GND*%
X101302500Y-109250000D03*
%TO.P,J1,35,GPIO19/MISO1*%
%TO.N,/TS_BUS2*%
X98762500Y-111790000D03*
%TO.P,J1,36,GPIO16*%
%TO.N,/NIM0*%
X101302500Y-111790000D03*
%TO.P,J1,37,GPIO26*%
%TO.N,/TS_BUS3*%
X98762500Y-114330000D03*
%TO.P,J1,38,GPIO20/MOSI1*%
%TO.N,/CONFIG0*%
X101302500Y-114330000D03*
%TO.P,J1,39,GND*%
%TO.N,GND*%
X98762500Y-116870000D03*
%TO.P,J1,40,GPIO21/SCLK1*%
%TO.N,/CONFIG10*%
X101302500Y-116870000D03*
%TD*%
D12*
%TO.P,J2,1_1,1_1*%
%TO.N,/Trigger Interface/D1+*%
X69340000Y-87117000D03*
%TO.P,J2,1_2,1_2*%
%TO.N,/Trigger Interface/D1-*%
X71120000Y-86101000D03*
%TO.P,J2,1_3,1_3*%
%TO.N,/Trigger Interface/D2+*%
X69340000Y-85085000D03*
%TO.P,J2,1_4,1_4*%
%TO.N,/Trigger Interface/D3-*%
X71120000Y-84069000D03*
%TO.P,J2,1_5,1_5*%
%TO.N,/Trigger Interface/D3+*%
X69340000Y-83053000D03*
%TO.P,J2,1_6,1_6*%
%TO.N,/Trigger Interface/D2-*%
X71120000Y-82037000D03*
%TO.P,J2,1_7,1_7*%
%TO.N,/Trigger Interface/D4+*%
X69340000Y-81021000D03*
%TO.P,J2,1_8,1_8*%
%TO.N,/Trigger Interface/D4-*%
X71120000Y-80005000D03*
%TO.P,J2,2_1,2_1*%
%TO.N,/Trigger Interface/S1-*%
X69340000Y-102867000D03*
%TO.P,J2,2_2,2_2*%
%TO.N,/Trigger Interface/S1+*%
X71120000Y-101851000D03*
%TO.P,J2,2_3,2_3*%
%TO.N,/Trigger Interface/S2-*%
X69340000Y-100835000D03*
%TO.P,J2,2_4,2_4*%
%TO.N,/Trigger Interface/S3+*%
X71120000Y-99819000D03*
%TO.P,J2,2_5,2_5*%
%TO.N,/Trigger Interface/S3-*%
X69340000Y-98803000D03*
%TO.P,J2,2_6,2_6*%
%TO.N,/Trigger Interface/S2+*%
X71120000Y-97787000D03*
%TO.P,J2,2_7,2_7*%
%TO.N,/Trigger Interface/S4-*%
X69340000Y-96771000D03*
%TO.P,J2,2_8,2_8*%
%TO.N,/Trigger Interface/S4+*%
X71120000Y-95755000D03*
%TD*%
D13*
%TO.N,/TS_BUS_SEL*%
X85242400Y-87020400D03*
%TO.N,/CONFIG2*%
X90373200Y-116128800D03*
%TO.N,/CONFIG3*%
X79756000Y-117230500D03*
%TO.N,GND*%
X74726800Y-68630800D03*
X70459600Y-69291200D03*
X82550000Y-85090000D03*
X82550000Y-76835000D03*
%TO.N,/CONFIG15*%
X107797600Y-114706400D03*
%TO.N,/CONFIG14*%
X107645200Y-110337600D03*
%TO.N,/CONFIG13*%
X107797600Y-106121200D03*
%TO.N,/CONFIG12*%
X107848400Y-101600000D03*
%TO.N,/CONFIG11*%
X107746800Y-97282000D03*
%TO.N,/CONFIG4*%
X76149200Y-117043200D03*
%TO.N,/CONFIG5*%
X74015600Y-116687600D03*
%TO.N,/CONFIG10*%
X107645200Y-93573600D03*
%TO.N,/CONFIG9*%
X107797600Y-89408000D03*
%TO.N,/CONFIG8*%
X107696000Y-85242400D03*
%TO.N,/TS_BUS_SEL*%
X76149200Y-68173600D03*
X69240400Y-68021200D03*
%TO.N,/CONFIG1*%
X89306400Y-118567200D03*
%TO.N,/CONFIG0*%
X88392000Y-120243600D03*
%TO.N,GND*%
X64820800Y-120599200D03*
X113131600Y-120700800D03*
X112979200Y-64719200D03*
X64617600Y-64617600D03*
X79552800Y-74117200D03*
X85293200Y-106984800D03*
X66548000Y-109118400D03*
X65328800Y-74726800D03*
%TO.N,/TS_BUS_SEL*%
X82499200Y-69951600D03*
%TO.N,/CONFIG6*%
X71628000Y-116687600D03*
%TO.N,/CONFIG7*%
X68935600Y-116687600D03*
%TO.N,/Trigger Interface/S2-*%
X75576430Y-101447600D03*
%TO.N,/Trigger Interface/S2+*%
X76518770Y-101447600D03*
%TO.N,+3V3*%
X85052500Y-120015000D03*
X82512500Y-120015000D03*
X79972500Y-120015000D03*
X77432500Y-120015000D03*
X74892500Y-120015000D03*
X72352500Y-120015000D03*
X69812500Y-120015000D03*
X67310000Y-120015000D03*
X111180050Y-90984700D03*
%TO.N,GND*%
X109910050Y-90984700D03*
%TO.N,+3V3*%
X111227200Y-95084900D03*
%TO.N,GND*%
X109957200Y-95084900D03*
%TO.N,+3V3*%
X111180050Y-99231150D03*
%TO.N,GND*%
X109910050Y-99231150D03*
%TO.N,+3V3*%
X111227200Y-103558300D03*
%TO.N,GND*%
X109957200Y-103558300D03*
%TO.N,+3V3*%
X111234700Y-107713100D03*
%TO.N,GND*%
X109964700Y-107713100D03*
%TO.N,+3V3*%
X111234700Y-111950800D03*
%TO.N,GND*%
X109964700Y-111950800D03*
%TO.N,+3V3*%
X111272200Y-116295800D03*
%TO.N,GND*%
X110002200Y-116295800D03*
X109910050Y-86867400D03*
%TO.N,+3V3*%
X111180050Y-86867400D03*
%TO.N,GND*%
X74295000Y-71120000D03*
X67310000Y-71120000D03*
%TO.N,+3V3*%
X71755000Y-72574998D03*
%TO.N,GND*%
X72707500Y-70485000D03*
X79692500Y-70485000D03*
%TO.N,+3V3*%
X78740000Y-72574998D03*
X81095002Y-81280000D03*
%TO.N,GND*%
X83502500Y-82232500D03*
X83502500Y-90487500D03*
%TO.N,+3V3*%
X81095002Y-89535000D03*
X88087200Y-94335600D03*
X87312500Y-99060000D03*
%TO.N,GND*%
X87312500Y-100330000D03*
X87680800Y-104140000D03*
X68580000Y-111760000D03*
X71120000Y-111760000D03*
X73660000Y-111760000D03*
X76200000Y-111760000D03*
X78740000Y-111760000D03*
X81280000Y-111760000D03*
X83820000Y-111760000D03*
X86360000Y-111760000D03*
%TD*%
D14*
%TO.N,/CONFIG9*%
X107797600Y-89408000D02*
X107797600Y-87805100D01*
X107797600Y-87805100D02*
X101302500Y-81310000D01*
%TO.N,/CONFIG11*%
X107746800Y-97282000D02*
X106680000Y-96215200D01*
X106680000Y-96215200D02*
X106680000Y-91767500D01*
X106680000Y-91767500D02*
X101302500Y-86390000D01*
%TO.N,/CONFIG13*%
X101302500Y-88930000D02*
X105285200Y-92912700D01*
X105285200Y-92912700D02*
X105285200Y-105234400D01*
X105285200Y-105234400D02*
X106172000Y-106121200D01*
%TO.N,/CONFIG12*%
X107848400Y-101600000D02*
X108102400Y-101346000D01*
X104648000Y-83322802D02*
X104648000Y-82115500D01*
X108102400Y-101346000D02*
X111760000Y-101346000D01*
X111760000Y-101346000D02*
X112572800Y-100533200D01*
X104648000Y-82115500D02*
X101302500Y-78770000D01*
X112572800Y-100533200D02*
X112572800Y-87131748D01*
X111510552Y-86069500D02*
X107394698Y-86069500D01*
X112572800Y-87131748D02*
X111510552Y-86069500D01*
X107394698Y-86069500D02*
X104648000Y-83322802D01*
%TO.N,/CONFIG14*%
X107645200Y-110337600D02*
X103858400Y-106550800D01*
X103858400Y-106550800D02*
X103858400Y-96565900D01*
X103858400Y-96565900D02*
X101302500Y-94010000D01*
%TO.N,/CONFIG15*%
X103276400Y-101063900D02*
X103276400Y-111150400D01*
X101302500Y-99090000D02*
X103276400Y-101063900D01*
X103276400Y-111150400D02*
X106832400Y-114706400D01*
X106832400Y-114706400D02*
X107797600Y-114706400D01*
%TO.N,/TS_BUS_SEL*%
X85242400Y-87020400D02*
X85242400Y-72694800D01*
X85242400Y-72694800D02*
X82499200Y-69951600D01*
%TO.N,/CONFIG3*%
X95199200Y-100113300D02*
X98762500Y-96550000D01*
%TO.N,/CONFIG2*%
X98248253Y-105411500D02*
X99333747Y-105411500D01*
X100061000Y-102871500D02*
X101302500Y-101630000D01*
X90373200Y-116128800D02*
X97521000Y-108981000D01*
X97521000Y-108981000D02*
X97521000Y-106138753D01*
X100061000Y-104684247D02*
X100061000Y-102871500D01*
X97521000Y-106138753D02*
X98248253Y-105411500D01*
X99333747Y-105411500D02*
X100061000Y-104684247D01*
%TO.N,/CONFIG3*%
X87437072Y-117195600D02*
X79756000Y-117195600D01*
X95199200Y-100113300D02*
X95199200Y-109433472D01*
X95199200Y-109433472D02*
X87437072Y-117195600D01*
X79756000Y-117195600D02*
X79756000Y-117230500D01*
%TO.N,/CONFIG13*%
X106172000Y-106121200D02*
X107797600Y-106121200D01*
%TO.N,/CONFIG4*%
X76149200Y-117043200D02*
X76758800Y-116433600D01*
X76758800Y-116433600D02*
X87376000Y-116433600D01*
X87376000Y-116433600D02*
X94538800Y-109270800D01*
X94538800Y-98233700D02*
X98762500Y-94010000D01*
X94538800Y-109270800D02*
X94538800Y-98233700D01*
%TO.N,/CONFIG5*%
X98762500Y-91470000D02*
X93472000Y-96760500D01*
%TO.N,/CONFIG6*%
X92659200Y-109016800D02*
X92659200Y-91643200D01*
X92659200Y-91643200D02*
X97912400Y-86390000D01*
X97912400Y-86390000D02*
X98762500Y-86390000D01*
%TO.N,/CONFIG7*%
X98762500Y-83850000D02*
X91592400Y-91020100D01*
X91592400Y-91020100D02*
X91592400Y-108407200D01*
%TO.N,/CONFIG8*%
X101302500Y-76230000D02*
X107696000Y-82623500D01*
X107696000Y-82623500D02*
X107696000Y-85242400D01*
%TO.N,/CONFIG1*%
X89306400Y-118567200D02*
X97325100Y-110548500D01*
X97325100Y-110548500D02*
X99219747Y-110548500D01*
X99219747Y-110548500D02*
X100061000Y-109707247D01*
X100061000Y-109707247D02*
X100061000Y-107951500D01*
X100061000Y-107951500D02*
X101302500Y-106710000D01*
%TO.N,/CONFIG0*%
X92848900Y-120243600D02*
X97521000Y-115571500D01*
X97521000Y-115571500D02*
X100061000Y-115571500D01*
X100061000Y-115571500D02*
X101302500Y-114330000D01*
%TO.N,/CONFIG10*%
X105867200Y-101549200D02*
X106883200Y-102565200D01*
X106883200Y-102565200D02*
X112115600Y-102565200D01*
X109778800Y-120599200D02*
X105031700Y-120599200D01*
X105031700Y-120599200D02*
X101302500Y-116870000D01*
%TO.N,/TS_BUS_SEL*%
X76149200Y-68173600D02*
X75133200Y-67157600D01*
X70104000Y-67157600D02*
X69240400Y-68021200D01*
X75133200Y-67157600D02*
X70104000Y-67157600D01*
%TO.N,/CONFIG10*%
X113131600Y-117246400D02*
X113131600Y-103581200D01*
X113131600Y-103581200D02*
X112115600Y-102565200D01*
X109778800Y-120599200D02*
X113131600Y-117246400D01*
X108544700Y-94473100D02*
X107645200Y-93573600D01*
X108544700Y-97703300D02*
X108544700Y-94473100D01*
X105867200Y-100380800D02*
X108544700Y-97703300D01*
X105867200Y-101549200D02*
X105867200Y-100380800D01*
%TO.N,/CONFIG5*%
X93472000Y-109220000D02*
X87122000Y-115570000D01*
X75133200Y-115570000D02*
X87122000Y-115570000D01*
X75133200Y-115570000D02*
X74015600Y-116687600D01*
X93472000Y-96760500D02*
X93472000Y-109220000D01*
%TO.N,/CONFIG7*%
X68935600Y-116687600D02*
X72593200Y-113030000D01*
X72593200Y-113030000D02*
X86969600Y-113030000D01*
X86969600Y-113030000D02*
X91592400Y-108407200D01*
%TO.N,/TS_BUS_SEL*%
X76149200Y-68173600D02*
X80721200Y-68173600D01*
X80721200Y-68173600D02*
X82499200Y-69951600D01*
%TO.N,/CONFIG0*%
X88392000Y-120243600D02*
X92848900Y-120243600D01*
%TO.N,/CONFIG6*%
X87376000Y-114300000D02*
X92659200Y-109016800D01*
X73914000Y-114300000D02*
X87376000Y-114300000D01*
X73914000Y-114401600D02*
X73914000Y-114300000D01*
X71628000Y-116687600D02*
X73914000Y-114401600D01*
D15*
%TO.N,/Trigger Interface/S2+*%
X76027877Y-99502241D02*
X75943024Y-99417388D01*
X75291168Y-99729831D02*
G75*
G02*
X74951756Y-99729832I-169706J169703D01*
G01*
X75603612Y-99417388D02*
X75291168Y-99729831D01*
X74866905Y-99305567D02*
X75179340Y-98993131D01*
X76200001Y-100978075D02*
X75715434Y-100493508D01*
X76518770Y-101447600D02*
X76200001Y-101128831D01*
X75094487Y-98568867D02*
G75*
G03*
X74755075Y-98568867I-169706J-169704D01*
G01*
X75943024Y-99417388D02*
G75*
G03*
X75603612Y-99417388I-169706J-169704D01*
G01*
X76200001Y-101128831D02*
X76200001Y-100978075D01*
X75179340Y-98993131D02*
G75*
G03*
X75179366Y-98653695I-169740J169731D01*
G01*
X75715434Y-100493508D02*
G75*
G02*
X75715432Y-100154094I169666J169708D01*
G01*
X74866905Y-99644979D02*
G75*
G02*
X74866932Y-99305594I169695J169679D01*
G01*
X75179340Y-98653720D02*
X75094487Y-98568867D01*
X74442639Y-98881302D02*
G75*
G02*
X74103227Y-98881303I-169706J169703D01*
G01*
X75715434Y-100154096D02*
X76027877Y-99841652D01*
X76027877Y-99841652D02*
G75*
G03*
X76027924Y-99502194I-169677J169752D01*
G01*
X74951757Y-99729831D02*
X74866905Y-99644979D01*
X71601599Y-98268599D02*
X71120000Y-97787000D01*
X74755075Y-98568867D02*
X74442639Y-98881302D01*
X71601599Y-98268599D02*
X73490525Y-98268599D01*
X73490525Y-98268599D02*
X74103228Y-98881302D01*
%TO.N,/Trigger Interface/S2-*%
X70180370Y-99429792D02*
X70883532Y-98726630D01*
X69340000Y-100835000D02*
X70180370Y-99994630D01*
X71509208Y-98726630D02*
X71662437Y-98573401D01*
X70883532Y-98726630D02*
X71509208Y-98726630D01*
X70180370Y-99994630D02*
X70180370Y-99429792D01*
X71662437Y-98573401D02*
X73364275Y-98573401D01*
X73364275Y-98573401D02*
X75895199Y-101104325D01*
X75895199Y-101104325D02*
X75895199Y-101128831D01*
X75895199Y-101128831D02*
X75576430Y-101447600D01*
%TD*%
M02*
