%TF.GenerationSoftware,KiCad,Pcbnew,9.0.0-9.0.0-2~ubuntu24.04.1*%
%TF.CreationDate,2025-03-20T03:38:19-04:00*%
%TF.ProjectId,LVDS_RasPi_Hat,4c564453-5f52-4617-9350-695f4861742e,2*%
%TF.SameCoordinates,Original*%
%TF.FileFunction,Copper,L2,Inr*%
%TF.FilePolarity,Positive*%
%FSLAX46Y46*%
G04 Gerber Fmt 4.6, Leading zero omitted, Abs format (unit mm)*
G04 Created by KiCad (PCBNEW 9.0.0-9.0.0-2~ubuntu24.04.1) date 2025-03-20 03:38:19*
%MOMM*%
%LPD*%
G01*
G04 APERTURE LIST*
%TA.AperFunction,ComponentPad*%
%ADD10R,1.700000X1.700000*%
%TD*%
%TA.AperFunction,ComponentPad*%
%ADD11O,1.700000X1.700000*%
%TD*%
%TA.AperFunction,ComponentPad*%
%ADD12C,1.448000*%
%TD*%
%TA.AperFunction,ViaPad*%
%ADD13C,0.812800*%
%TD*%
G04 APERTURE END LIST*
D10*
%TO.N,+3V3*%
%TO.C,J1*%
X98762500Y-68610000D03*
D11*
%TO.N,+5V*%
X101302500Y-68610000D03*
%TO.N,/TS_BUS_SEL*%
X98762500Y-71150000D03*
%TO.N,+5V*%
X101302500Y-71150000D03*
%TO.N,unconnected-(J1-SCL{slash}GPIO3-Pad5)*%
X98762500Y-73690000D03*
%TO.N,GND*%
X101302500Y-73690000D03*
%TO.N,unconnected-(J1-GCLK0{slash}GPIO4-Pad7)*%
X98762500Y-76230000D03*
%TO.N,/CONFIG8*%
X101302500Y-76230000D03*
%TO.N,GND*%
X98762500Y-78770000D03*
%TO.N,/CONFIG12*%
X101302500Y-78770000D03*
%TO.N,unconnected-(J1-GPIO17-Pad11)*%
X98762500Y-81310000D03*
%TO.N,/CONFIG9*%
X101302500Y-81310000D03*
%TO.N,/CONFIG7*%
X98762500Y-83850000D03*
%TO.N,GND*%
X101302500Y-83850000D03*
%TO.N,/CONFIG6*%
X98762500Y-86390000D03*
%TO.N,/CONFIG11*%
X101302500Y-86390000D03*
%TO.N,+3V3*%
X98762500Y-88930000D03*
%TO.N,/CONFIG13*%
X101302500Y-88930000D03*
%TO.N,/CONFIG5*%
X98762500Y-91470000D03*
%TO.N,GND*%
X101302500Y-91470000D03*
%TO.N,/CONFIG4*%
X98762500Y-94010000D03*
%TO.N,/CONFIG14*%
X101302500Y-94010000D03*
%TO.N,/CONFIG3*%
X98762500Y-96550000D03*
%TO.N,/NIM2*%
X101302500Y-96550000D03*
%TO.N,GND*%
X98762500Y-99090000D03*
%TO.N,/CONFIG15*%
X101302500Y-99090000D03*
%TO.N,/NIM1*%
X98762500Y-101630000D03*
%TO.N,/CONFIG2*%
X101302500Y-101630000D03*
%TO.N,/NIM3*%
X98762500Y-104170000D03*
%TO.N,GND*%
X101302500Y-104170000D03*
%TO.N,/TS_BUS0*%
X98762500Y-106710000D03*
%TO.N,/CONFIG1*%
X101302500Y-106710000D03*
%TO.N,/TS_BUS1*%
X98762500Y-109250000D03*
%TO.N,GND*%
X101302500Y-109250000D03*
%TO.N,/TS_BUS2*%
X98762500Y-111790000D03*
%TO.N,/NIM0*%
X101302500Y-111790000D03*
%TO.N,/TS_BUS3*%
X98762500Y-114330000D03*
%TO.N,/CONFIG0*%
X101302500Y-114330000D03*
%TO.N,GND*%
X98762500Y-116870000D03*
%TO.N,/CONFIG10*%
X101302500Y-116870000D03*
%TD*%
D12*
%TO.N,/Trigger Interface/D1+*%
%TO.C,J2*%
X69340000Y-87117000D03*
%TO.N,/Trigger Interface/D1-*%
X71120000Y-86101000D03*
%TO.N,/Trigger Interface/D2+*%
X69340000Y-85085000D03*
%TO.N,/Trigger Interface/D3-*%
X71120000Y-84069000D03*
%TO.N,/Trigger Interface/D3+*%
X69340000Y-83053000D03*
%TO.N,/Trigger Interface/D2-*%
X71120000Y-82037000D03*
%TO.N,/Trigger Interface/D4+*%
X69340000Y-81021000D03*
%TO.N,/Trigger Interface/D4-*%
X71120000Y-80005000D03*
%TO.N,/Trigger Interface/S1-*%
X69340000Y-102867000D03*
%TO.N,/Trigger Interface/S1+*%
X71120000Y-101851000D03*
%TO.N,/Trigger Interface/S2-*%
X69340000Y-100835000D03*
%TO.N,/Trigger Interface/S3+*%
X71120000Y-99819000D03*
%TO.N,/Trigger Interface/S3-*%
X69340000Y-98803000D03*
%TO.N,/Trigger Interface/S2+*%
X71120000Y-97787000D03*
%TO.N,/Trigger Interface/S4-*%
X69340000Y-96771000D03*
%TO.N,/Trigger Interface/S4+*%
X71120000Y-95755000D03*
%TD*%
D13*
%TO.N,/TS_BUS_SEL*%
X85242400Y-87020400D03*
%TO.N,/CONFIG2*%
X90373200Y-116128800D03*
%TO.N,/CONFIG3*%
X79756000Y-117230500D03*
%TO.N,GND*%
X74726800Y-68630800D03*
X70459600Y-69291200D03*
X82550000Y-85090000D03*
X82550000Y-76835000D03*
%TO.N,/CONFIG15*%
X107797600Y-114706400D03*
%TO.N,/CONFIG14*%
X107645200Y-110337600D03*
%TO.N,/CONFIG13*%
X107797600Y-106121200D03*
%TO.N,/CONFIG12*%
X107848400Y-101600000D03*
%TO.N,/CONFIG11*%
X107746800Y-97282000D03*
%TO.N,/CONFIG4*%
X76149200Y-117043200D03*
%TO.N,/CONFIG5*%
X74015600Y-116687600D03*
%TO.N,/CONFIG10*%
X107645200Y-93573600D03*
%TO.N,/CONFIG9*%
X107797600Y-89408000D03*
%TO.N,/CONFIG8*%
X107696000Y-85242400D03*
%TO.N,/TS_BUS_SEL*%
X76149200Y-68173600D03*
X69240400Y-68021200D03*
%TO.N,/CONFIG1*%
X89306400Y-118567200D03*
%TO.N,/CONFIG0*%
X88392000Y-120243600D03*
%TO.N,GND*%
X64820800Y-120599200D03*
X113131600Y-120700800D03*
X112979200Y-64719200D03*
X64617600Y-64617600D03*
X79552800Y-74117200D03*
X85293200Y-106984800D03*
X66548000Y-109118400D03*
X65328800Y-74726800D03*
%TO.N,/TS_BUS_SEL*%
X82499200Y-69951600D03*
%TO.N,/CONFIG6*%
X71628000Y-116687600D03*
%TO.N,/CONFIG7*%
X68935600Y-116687600D03*
%TO.N,/Trigger Interface/S2-*%
X75576430Y-101447600D03*
%TO.N,/Trigger Interface/S2+*%
X76518770Y-101447600D03*
%TO.N,+3V3*%
X85052500Y-120015000D03*
X82512500Y-120015000D03*
X79972500Y-120015000D03*
X77432500Y-120015000D03*
X74892500Y-120015000D03*
X72352500Y-120015000D03*
X69812500Y-120015000D03*
X67310000Y-120015000D03*
X111180050Y-90984700D03*
%TO.N,GND*%
X109910050Y-90984700D03*
%TO.N,+3V3*%
X111227200Y-95084900D03*
%TO.N,GND*%
X109957200Y-95084900D03*
%TO.N,+3V3*%
X111180050Y-99231150D03*
%TO.N,GND*%
X109910050Y-99231150D03*
%TO.N,+3V3*%
X111227200Y-103558300D03*
%TO.N,GND*%
X109957200Y-103558300D03*
%TO.N,+3V3*%
X111234700Y-107713100D03*
%TO.N,GND*%
X109964700Y-107713100D03*
%TO.N,+3V3*%
X111234700Y-111950800D03*
%TO.N,GND*%
X109964700Y-111950800D03*
%TO.N,+3V3*%
X111272200Y-116295800D03*
%TO.N,GND*%
X110002200Y-116295800D03*
X109910050Y-86867400D03*
%TO.N,+3V3*%
X111180050Y-86867400D03*
%TO.N,GND*%
X74295000Y-71120000D03*
X67310000Y-71120000D03*
%TO.N,+3V3*%
X71755000Y-72574998D03*
%TO.N,GND*%
X72707500Y-70485000D03*
X79692500Y-70485000D03*
%TO.N,+3V3*%
X78740000Y-72574998D03*
X81095002Y-81280000D03*
%TO.N,GND*%
X83502500Y-82232500D03*
X83502500Y-90487500D03*
%TO.N,+3V3*%
X81095002Y-89535000D03*
X88087200Y-94335600D03*
X87312500Y-99060000D03*
%TO.N,GND*%
X87312500Y-100330000D03*
X87680800Y-104140000D03*
X68580000Y-111760000D03*
X71120000Y-111760000D03*
X73660000Y-111760000D03*
X76200000Y-111760000D03*
X78740000Y-111760000D03*
X81280000Y-111760000D03*
X83820000Y-111760000D03*
X86360000Y-111760000D03*
%TD*%
%TA.AperFunction,Conductor*%
%TO.N,GND*%
G36*
X113861539Y-63901185D02*
G01*
X113907294Y-63953989D01*
X113918500Y-64005500D01*
X113918500Y-121414500D01*
X113898815Y-121481539D01*
X113846011Y-121527294D01*
X113794500Y-121538500D01*
X64005500Y-121538500D01*
X63938461Y-121518815D01*
X63892706Y-121466011D01*
X63881500Y-121414500D01*
X63881500Y-120079701D01*
X66653099Y-120079701D01*
X66678343Y-120206605D01*
X66678346Y-120206615D01*
X66727860Y-120326154D01*
X66727861Y-120326156D01*
X66799752Y-120433748D01*
X66799755Y-120433752D01*
X66891247Y-120525244D01*
X66891251Y-120525247D01*
X66998841Y-120597137D01*
X66998842Y-120597137D01*
X66998843Y-120597138D01*
X66998845Y-120597139D01*
X67118384Y-120646653D01*
X67118389Y-120646655D01*
X67118393Y-120646655D01*
X67118394Y-120646656D01*
X67245298Y-120671900D01*
X67245301Y-120671900D01*
X67374701Y-120671900D01*
X67460078Y-120654916D01*
X67501611Y-120646655D01*
X67621159Y-120597137D01*
X67728749Y-120525247D01*
X67820247Y-120433749D01*
X67892137Y-120326159D01*
X67941655Y-120206611D01*
X67966900Y-120079701D01*
X69155599Y-120079701D01*
X69180843Y-120206605D01*
X69180846Y-120206615D01*
X69230360Y-120326154D01*
X69230361Y-120326156D01*
X69302252Y-120433748D01*
X69302255Y-120433752D01*
X69393747Y-120525244D01*
X69393751Y-120525247D01*
X69501341Y-120597137D01*
X69501342Y-120597137D01*
X69501343Y-120597138D01*
X69501345Y-120597139D01*
X69620884Y-120646653D01*
X69620889Y-120646655D01*
X69620893Y-120646655D01*
X69620894Y-120646656D01*
X69747798Y-120671900D01*
X69747801Y-120671900D01*
X69877201Y-120671900D01*
X69962578Y-120654916D01*
X70004111Y-120646655D01*
X70123659Y-120597137D01*
X70231249Y-120525247D01*
X70322747Y-120433749D01*
X70394637Y-120326159D01*
X70444155Y-120206611D01*
X70469400Y-120079701D01*
X71695599Y-120079701D01*
X71720843Y-120206605D01*
X71720846Y-120206615D01*
X71770360Y-120326154D01*
X71770361Y-120326156D01*
X71842252Y-120433748D01*
X71842255Y-120433752D01*
X71933747Y-120525244D01*
X71933751Y-120525247D01*
X72041341Y-120597137D01*
X72041342Y-120597137D01*
X72041343Y-120597138D01*
X72041345Y-120597139D01*
X72160884Y-120646653D01*
X72160889Y-120646655D01*
X72160893Y-120646655D01*
X72160894Y-120646656D01*
X72287798Y-120671900D01*
X72287801Y-120671900D01*
X72417201Y-120671900D01*
X72502578Y-120654916D01*
X72544111Y-120646655D01*
X72663659Y-120597137D01*
X72771249Y-120525247D01*
X72862747Y-120433749D01*
X72934637Y-120326159D01*
X72984155Y-120206611D01*
X73009400Y-120079701D01*
X74235599Y-120079701D01*
X74260843Y-120206605D01*
X74260846Y-120206615D01*
X74310360Y-120326154D01*
X74310361Y-120326156D01*
X74382252Y-120433748D01*
X74382255Y-120433752D01*
X74473747Y-120525244D01*
X74473751Y-120525247D01*
X74581341Y-120597137D01*
X74581342Y-120597137D01*
X74581343Y-120597138D01*
X74581345Y-120597139D01*
X74700884Y-120646653D01*
X74700889Y-120646655D01*
X74700893Y-120646655D01*
X74700894Y-120646656D01*
X74827798Y-120671900D01*
X74827801Y-120671900D01*
X74957201Y-120671900D01*
X75042578Y-120654916D01*
X75084111Y-120646655D01*
X75203659Y-120597137D01*
X75311249Y-120525247D01*
X75402747Y-120433749D01*
X75474637Y-120326159D01*
X75524155Y-120206611D01*
X75549400Y-120079701D01*
X76775599Y-120079701D01*
X76800843Y-120206605D01*
X76800846Y-120206615D01*
X76850360Y-120326154D01*
X76850361Y-120326156D01*
X76922252Y-120433748D01*
X76922255Y-120433752D01*
X77013747Y-120525244D01*
X77013751Y-120525247D01*
X77121341Y-120597137D01*
X77121342Y-120597137D01*
X77121343Y-120597138D01*
X77121345Y-120597139D01*
X77240884Y-120646653D01*
X77240889Y-120646655D01*
X77240893Y-120646655D01*
X77240894Y-120646656D01*
X77367798Y-120671900D01*
X77367801Y-120671900D01*
X77497201Y-120671900D01*
X77582578Y-120654916D01*
X77624111Y-120646655D01*
X77743659Y-120597137D01*
X77851249Y-120525247D01*
X77942747Y-120433749D01*
X78014637Y-120326159D01*
X78064155Y-120206611D01*
X78089400Y-120079701D01*
X79315599Y-120079701D01*
X79340843Y-120206605D01*
X79340846Y-120206615D01*
X79390360Y-120326154D01*
X79390361Y-120326156D01*
X79462252Y-120433748D01*
X79462255Y-120433752D01*
X79553747Y-120525244D01*
X79553751Y-120525247D01*
X79661341Y-120597137D01*
X79661342Y-120597137D01*
X79661343Y-120597138D01*
X79661345Y-120597139D01*
X79780884Y-120646653D01*
X79780889Y-120646655D01*
X79780893Y-120646655D01*
X79780894Y-120646656D01*
X79907798Y-120671900D01*
X79907801Y-120671900D01*
X80037201Y-120671900D01*
X80122578Y-120654916D01*
X80164111Y-120646655D01*
X80283659Y-120597137D01*
X80391249Y-120525247D01*
X80482747Y-120433749D01*
X80554637Y-120326159D01*
X80604155Y-120206611D01*
X80629400Y-120079701D01*
X81855599Y-120079701D01*
X81880843Y-120206605D01*
X81880846Y-120206615D01*
X81930360Y-120326154D01*
X81930361Y-120326156D01*
X82002252Y-120433748D01*
X82002255Y-120433752D01*
X82093747Y-120525244D01*
X82093751Y-120525247D01*
X82201341Y-120597137D01*
X82201342Y-120597137D01*
X82201343Y-120597138D01*
X82201345Y-120597139D01*
X82320884Y-120646653D01*
X82320889Y-120646655D01*
X82320893Y-120646655D01*
X82320894Y-120646656D01*
X82447798Y-120671900D01*
X82447801Y-120671900D01*
X82577201Y-120671900D01*
X82662578Y-120654916D01*
X82704111Y-120646655D01*
X82823659Y-120597137D01*
X82931249Y-120525247D01*
X83022747Y-120433749D01*
X83094637Y-120326159D01*
X83144155Y-120206611D01*
X83169400Y-120079701D01*
X84395599Y-120079701D01*
X84420843Y-120206605D01*
X84420846Y-120206615D01*
X84470360Y-120326154D01*
X84470361Y-120326156D01*
X84542252Y-120433748D01*
X84542255Y-120433752D01*
X84633747Y-120525244D01*
X84633751Y-120525247D01*
X84741341Y-120597137D01*
X84741342Y-120597137D01*
X84741343Y-120597138D01*
X84741345Y-120597139D01*
X84860884Y-120646653D01*
X84860889Y-120646655D01*
X84860893Y-120646655D01*
X84860894Y-120646656D01*
X84987798Y-120671900D01*
X84987801Y-120671900D01*
X85117201Y-120671900D01*
X85202578Y-120654916D01*
X85244111Y-120646655D01*
X85363659Y-120597137D01*
X85471249Y-120525247D01*
X85562747Y-120433749D01*
X85634637Y-120326159D01*
X85642034Y-120308301D01*
X87735099Y-120308301D01*
X87760343Y-120435205D01*
X87760346Y-120435215D01*
X87809860Y-120554754D01*
X87809861Y-120554756D01*
X87881752Y-120662348D01*
X87881755Y-120662352D01*
X87973247Y-120753844D01*
X87973251Y-120753847D01*
X88080841Y-120825737D01*
X88080842Y-120825737D01*
X88080843Y-120825738D01*
X88080845Y-120825739D01*
X88200384Y-120875253D01*
X88200389Y-120875255D01*
X88200393Y-120875255D01*
X88200394Y-120875256D01*
X88327298Y-120900500D01*
X88327301Y-120900500D01*
X88456701Y-120900500D01*
X88542078Y-120883516D01*
X88583611Y-120875255D01*
X88703159Y-120825737D01*
X88810749Y-120753847D01*
X88902247Y-120662349D01*
X88974137Y-120554759D01*
X89023655Y-120435211D01*
X89031916Y-120393678D01*
X89048900Y-120308301D01*
X89048900Y-120178898D01*
X89023656Y-120051994D01*
X89023655Y-120051993D01*
X89023655Y-120051989D01*
X88974137Y-119932441D01*
X88902247Y-119824851D01*
X88902244Y-119824847D01*
X88810752Y-119733355D01*
X88810748Y-119733352D01*
X88703156Y-119661461D01*
X88703154Y-119661460D01*
X88583615Y-119611946D01*
X88583605Y-119611943D01*
X88456701Y-119586700D01*
X88456699Y-119586700D01*
X88327301Y-119586700D01*
X88327299Y-119586700D01*
X88200394Y-119611943D01*
X88200384Y-119611946D01*
X88080845Y-119661460D01*
X88080843Y-119661461D01*
X87973251Y-119733352D01*
X87973247Y-119733355D01*
X87881755Y-119824847D01*
X87881752Y-119824851D01*
X87809861Y-119932443D01*
X87809860Y-119932445D01*
X87760346Y-120051984D01*
X87760343Y-120051994D01*
X87735100Y-120178898D01*
X87735100Y-120178901D01*
X87735100Y-120308299D01*
X87735100Y-120308301D01*
X87735099Y-120308301D01*
X85642034Y-120308301D01*
X85684155Y-120206611D01*
X85709400Y-120079699D01*
X85709400Y-119950301D01*
X85709400Y-119950298D01*
X85684156Y-119823394D01*
X85684155Y-119823393D01*
X85684155Y-119823389D01*
X85634637Y-119703841D01*
X85562747Y-119596251D01*
X85562744Y-119596247D01*
X85471252Y-119504755D01*
X85471248Y-119504752D01*
X85363656Y-119432861D01*
X85363654Y-119432860D01*
X85244115Y-119383346D01*
X85244105Y-119383343D01*
X85117201Y-119358100D01*
X85117199Y-119358100D01*
X84987801Y-119358100D01*
X84987799Y-119358100D01*
X84860894Y-119383343D01*
X84860884Y-119383346D01*
X84741345Y-119432860D01*
X84741343Y-119432861D01*
X84633751Y-119504752D01*
X84633747Y-119504755D01*
X84542255Y-119596247D01*
X84542252Y-119596251D01*
X84470361Y-119703843D01*
X84470360Y-119703845D01*
X84420846Y-119823384D01*
X84420843Y-119823394D01*
X84395600Y-119950298D01*
X84395600Y-119950301D01*
X84395600Y-120079699D01*
X84395600Y-120079701D01*
X84395599Y-120079701D01*
X83169400Y-120079701D01*
X83169400Y-120079699D01*
X83169400Y-119950301D01*
X83169400Y-119950298D01*
X83144156Y-119823394D01*
X83144155Y-119823393D01*
X83144155Y-119823389D01*
X83094637Y-119703841D01*
X83022747Y-119596251D01*
X83022744Y-119596247D01*
X82931252Y-119504755D01*
X82931248Y-119504752D01*
X82823656Y-119432861D01*
X82823654Y-119432860D01*
X82704115Y-119383346D01*
X82704105Y-119383343D01*
X82577201Y-119358100D01*
X82577199Y-119358100D01*
X82447801Y-119358100D01*
X82447799Y-119358100D01*
X82320894Y-119383343D01*
X82320884Y-119383346D01*
X82201345Y-119432860D01*
X82201343Y-119432861D01*
X82093751Y-119504752D01*
X82093747Y-119504755D01*
X82002255Y-119596247D01*
X82002252Y-119596251D01*
X81930361Y-119703843D01*
X81930360Y-119703845D01*
X81880846Y-119823384D01*
X81880843Y-119823394D01*
X81855600Y-119950298D01*
X81855600Y-119950301D01*
X81855600Y-120079699D01*
X81855600Y-120079701D01*
X81855599Y-120079701D01*
X80629400Y-120079701D01*
X80629400Y-120079699D01*
X80629400Y-119950301D01*
X80629400Y-119950298D01*
X80604156Y-119823394D01*
X80604155Y-119823393D01*
X80604155Y-119823389D01*
X80554637Y-119703841D01*
X80482747Y-119596251D01*
X80482744Y-119596247D01*
X80391252Y-119504755D01*
X80391248Y-119504752D01*
X80283656Y-119432861D01*
X80283654Y-119432860D01*
X80164115Y-119383346D01*
X80164105Y-119383343D01*
X80037201Y-119358100D01*
X80037199Y-119358100D01*
X79907801Y-119358100D01*
X79907799Y-119358100D01*
X79780894Y-119383343D01*
X79780884Y-119383346D01*
X79661345Y-119432860D01*
X79661343Y-119432861D01*
X79553751Y-119504752D01*
X79553747Y-119504755D01*
X79462255Y-119596247D01*
X79462252Y-119596251D01*
X79390361Y-119703843D01*
X79390360Y-119703845D01*
X79340846Y-119823384D01*
X79340843Y-119823394D01*
X79315600Y-119950298D01*
X79315600Y-119950301D01*
X79315600Y-120079699D01*
X79315600Y-120079701D01*
X79315599Y-120079701D01*
X78089400Y-120079701D01*
X78089400Y-120079699D01*
X78089400Y-119950301D01*
X78089400Y-119950298D01*
X78064156Y-119823394D01*
X78064155Y-119823393D01*
X78064155Y-119823389D01*
X78014637Y-119703841D01*
X77942747Y-119596251D01*
X77942744Y-119596247D01*
X77851252Y-119504755D01*
X77851248Y-119504752D01*
X77743656Y-119432861D01*
X77743654Y-119432860D01*
X77624115Y-119383346D01*
X77624105Y-119383343D01*
X77497201Y-119358100D01*
X77497199Y-119358100D01*
X77367801Y-119358100D01*
X77367799Y-119358100D01*
X77240894Y-119383343D01*
X77240884Y-119383346D01*
X77121345Y-119432860D01*
X77121343Y-119432861D01*
X77013751Y-119504752D01*
X77013747Y-119504755D01*
X76922255Y-119596247D01*
X76922252Y-119596251D01*
X76850361Y-119703843D01*
X76850360Y-119703845D01*
X76800846Y-119823384D01*
X76800843Y-119823394D01*
X76775600Y-119950298D01*
X76775600Y-119950301D01*
X76775600Y-120079699D01*
X76775600Y-120079701D01*
X76775599Y-120079701D01*
X75549400Y-120079701D01*
X75549400Y-120079699D01*
X75549400Y-119950301D01*
X75549400Y-119950298D01*
X75524156Y-119823394D01*
X75524155Y-119823393D01*
X75524155Y-119823389D01*
X75474637Y-119703841D01*
X75402747Y-119596251D01*
X75402744Y-119596247D01*
X75311252Y-119504755D01*
X75311248Y-119504752D01*
X75203656Y-119432861D01*
X75203654Y-119432860D01*
X75084115Y-119383346D01*
X75084105Y-119383343D01*
X74957201Y-119358100D01*
X74957199Y-119358100D01*
X74827801Y-119358100D01*
X74827799Y-119358100D01*
X74700894Y-119383343D01*
X74700884Y-119383346D01*
X74581345Y-119432860D01*
X74581343Y-119432861D01*
X74473751Y-119504752D01*
X74473747Y-119504755D01*
X74382255Y-119596247D01*
X74382252Y-119596251D01*
X74310361Y-119703843D01*
X74310360Y-119703845D01*
X74260846Y-119823384D01*
X74260843Y-119823394D01*
X74235600Y-119950298D01*
X74235600Y-119950301D01*
X74235600Y-120079699D01*
X74235600Y-120079701D01*
X74235599Y-120079701D01*
X73009400Y-120079701D01*
X73009400Y-120079699D01*
X73009400Y-119950301D01*
X73009400Y-119950298D01*
X72984156Y-119823394D01*
X72984155Y-119823393D01*
X72984155Y-119823389D01*
X72934637Y-119703841D01*
X72862747Y-119596251D01*
X72862744Y-119596247D01*
X72771252Y-119504755D01*
X72771248Y-119504752D01*
X72663656Y-119432861D01*
X72663654Y-119432860D01*
X72544115Y-119383346D01*
X72544105Y-119383343D01*
X72417201Y-119358100D01*
X72417199Y-119358100D01*
X72287801Y-119358100D01*
X72287799Y-119358100D01*
X72160894Y-119383343D01*
X72160884Y-119383346D01*
X72041345Y-119432860D01*
X72041343Y-119432861D01*
X71933751Y-119504752D01*
X71933747Y-119504755D01*
X71842255Y-119596247D01*
X71842252Y-119596251D01*
X71770361Y-119703843D01*
X71770360Y-119703845D01*
X71720846Y-119823384D01*
X71720843Y-119823394D01*
X71695600Y-119950298D01*
X71695600Y-119950301D01*
X71695600Y-120079699D01*
X71695600Y-120079701D01*
X71695599Y-120079701D01*
X70469400Y-120079701D01*
X70469400Y-120079699D01*
X70469400Y-119950301D01*
X70469400Y-119950298D01*
X70444156Y-119823394D01*
X70444155Y-119823393D01*
X70444155Y-119823389D01*
X70394637Y-119703841D01*
X70322747Y-119596251D01*
X70322744Y-119596247D01*
X70231252Y-119504755D01*
X70231248Y-119504752D01*
X70123656Y-119432861D01*
X70123654Y-119432860D01*
X70004115Y-119383346D01*
X70004105Y-119383343D01*
X69877201Y-119358100D01*
X69877199Y-119358100D01*
X69747801Y-119358100D01*
X69747799Y-119358100D01*
X69620894Y-119383343D01*
X69620884Y-119383346D01*
X69501345Y-119432860D01*
X69501343Y-119432861D01*
X69393751Y-119504752D01*
X69393747Y-119504755D01*
X69302255Y-119596247D01*
X69302252Y-119596251D01*
X69230361Y-119703843D01*
X69230360Y-119703845D01*
X69180846Y-119823384D01*
X69180843Y-119823394D01*
X69155600Y-119950298D01*
X69155600Y-119950301D01*
X69155600Y-120079699D01*
X69155600Y-120079701D01*
X69155599Y-120079701D01*
X67966900Y-120079701D01*
X67966900Y-120079699D01*
X67966900Y-119950301D01*
X67966900Y-119950298D01*
X67941656Y-119823394D01*
X67941655Y-119823393D01*
X67941655Y-119823389D01*
X67892137Y-119703841D01*
X67820247Y-119596251D01*
X67820244Y-119596247D01*
X67728752Y-119504755D01*
X67728748Y-119504752D01*
X67621156Y-119432861D01*
X67621154Y-119432860D01*
X67501615Y-119383346D01*
X67501605Y-119383343D01*
X67374701Y-119358100D01*
X67374699Y-119358100D01*
X67245301Y-119358100D01*
X67245299Y-119358100D01*
X67118394Y-119383343D01*
X67118384Y-119383346D01*
X66998845Y-119432860D01*
X66998843Y-119432861D01*
X66891251Y-119504752D01*
X66891247Y-119504755D01*
X66799755Y-119596247D01*
X66799752Y-119596251D01*
X66727861Y-119703843D01*
X66727860Y-119703845D01*
X66678346Y-119823384D01*
X66678343Y-119823394D01*
X66653100Y-119950298D01*
X66653100Y-119950301D01*
X66653100Y-120079699D01*
X66653100Y-120079701D01*
X66653099Y-120079701D01*
X63881500Y-120079701D01*
X63881500Y-118631901D01*
X88649499Y-118631901D01*
X88674743Y-118758805D01*
X88674746Y-118758815D01*
X88724260Y-118878354D01*
X88724261Y-118878356D01*
X88796152Y-118985948D01*
X88796155Y-118985952D01*
X88887647Y-119077444D01*
X88887651Y-119077447D01*
X88995241Y-119149337D01*
X88995242Y-119149337D01*
X88995243Y-119149338D01*
X88995245Y-119149339D01*
X89114784Y-119198853D01*
X89114789Y-119198855D01*
X89114793Y-119198855D01*
X89114794Y-119198856D01*
X89241698Y-119224100D01*
X89241701Y-119224100D01*
X89371101Y-119224100D01*
X89456478Y-119207116D01*
X89498011Y-119198855D01*
X89617559Y-119149337D01*
X89725149Y-119077447D01*
X89816647Y-118985949D01*
X89888537Y-118878359D01*
X89938055Y-118758811D01*
X89963300Y-118631899D01*
X89963300Y-118502501D01*
X89963300Y-118502498D01*
X89938056Y-118375594D01*
X89938055Y-118375593D01*
X89938055Y-118375589D01*
X89888537Y-118256041D01*
X89816647Y-118148451D01*
X89816644Y-118148447D01*
X89725152Y-118056955D01*
X89725148Y-118056952D01*
X89617556Y-117985061D01*
X89617554Y-117985060D01*
X89498015Y-117935546D01*
X89498005Y-117935543D01*
X89371101Y-117910300D01*
X89371099Y-117910300D01*
X89241701Y-117910300D01*
X89241699Y-117910300D01*
X89114794Y-117935543D01*
X89114784Y-117935546D01*
X88995245Y-117985060D01*
X88995243Y-117985061D01*
X88887651Y-118056952D01*
X88887647Y-118056955D01*
X88796155Y-118148447D01*
X88796152Y-118148451D01*
X88724261Y-118256043D01*
X88724260Y-118256045D01*
X88674746Y-118375584D01*
X88674743Y-118375594D01*
X88649500Y-118502498D01*
X88649500Y-118502501D01*
X88649500Y-118631899D01*
X88649500Y-118631901D01*
X88649499Y-118631901D01*
X63881500Y-118631901D01*
X63881500Y-116752301D01*
X68278699Y-116752301D01*
X68303943Y-116879205D01*
X68303946Y-116879215D01*
X68353460Y-116998754D01*
X68353461Y-116998756D01*
X68425352Y-117106348D01*
X68425355Y-117106352D01*
X68516847Y-117197844D01*
X68516851Y-117197847D01*
X68624441Y-117269737D01*
X68624442Y-117269737D01*
X68624443Y-117269738D01*
X68624445Y-117269739D01*
X68679268Y-117292447D01*
X68743989Y-117319255D01*
X68743993Y-117319255D01*
X68743994Y-117319256D01*
X68870898Y-117344500D01*
X68870901Y-117344500D01*
X69000301Y-117344500D01*
X69085678Y-117327516D01*
X69127211Y-117319255D01*
X69246759Y-117269737D01*
X69354349Y-117197847D01*
X69445847Y-117106349D01*
X69517737Y-116998759D01*
X69567255Y-116879211D01*
X69586316Y-116783389D01*
X69592500Y-116752301D01*
X70971099Y-116752301D01*
X70996343Y-116879205D01*
X70996346Y-116879215D01*
X71045860Y-116998754D01*
X71045861Y-116998756D01*
X71117752Y-117106348D01*
X71117755Y-117106352D01*
X71209247Y-117197844D01*
X71209251Y-117197847D01*
X71316841Y-117269737D01*
X71316842Y-117269737D01*
X71316843Y-117269738D01*
X71316845Y-117269739D01*
X71371668Y-117292447D01*
X71436389Y-117319255D01*
X71436393Y-117319255D01*
X71436394Y-117319256D01*
X71563298Y-117344500D01*
X71563301Y-117344500D01*
X71692701Y-117344500D01*
X71778078Y-117327516D01*
X71819611Y-117319255D01*
X71939159Y-117269737D01*
X72046749Y-117197847D01*
X72138247Y-117106349D01*
X72210137Y-116998759D01*
X72259655Y-116879211D01*
X72278716Y-116783389D01*
X72284900Y-116752301D01*
X73358699Y-116752301D01*
X73383943Y-116879205D01*
X73383946Y-116879215D01*
X73433460Y-116998754D01*
X73433461Y-116998756D01*
X73505352Y-117106348D01*
X73505355Y-117106352D01*
X73596847Y-117197844D01*
X73596851Y-117197847D01*
X73704441Y-117269737D01*
X73704442Y-117269737D01*
X73704443Y-117269738D01*
X73704445Y-117269739D01*
X73759268Y-117292447D01*
X73823989Y-117319255D01*
X73823993Y-117319255D01*
X73823994Y-117319256D01*
X73950898Y-117344500D01*
X73950901Y-117344500D01*
X74080301Y-117344500D01*
X74165678Y-117327516D01*
X74207211Y-117319255D01*
X74326759Y-117269737D01*
X74434349Y-117197847D01*
X74524295Y-117107901D01*
X75492299Y-117107901D01*
X75517543Y-117234805D01*
X75517546Y-117234815D01*
X75567060Y-117354354D01*
X75567061Y-117354356D01*
X75638952Y-117461948D01*
X75638955Y-117461952D01*
X75730447Y-117553444D01*
X75730451Y-117553447D01*
X75838041Y-117625337D01*
X75838042Y-117625337D01*
X75838043Y-117625338D01*
X75838045Y-117625339D01*
X75895770Y-117649249D01*
X75957589Y-117674855D01*
X75957593Y-117674855D01*
X75957594Y-117674856D01*
X76084498Y-117700100D01*
X76084501Y-117700100D01*
X76213901Y-117700100D01*
X76299278Y-117683116D01*
X76340811Y-117674855D01*
X76460359Y-117625337D01*
X76567949Y-117553447D01*
X76659447Y-117461949D01*
X76731337Y-117354359D01*
X76755841Y-117295201D01*
X79099099Y-117295201D01*
X79124343Y-117422105D01*
X79124346Y-117422115D01*
X79173860Y-117541654D01*
X79173861Y-117541656D01*
X79245752Y-117649248D01*
X79245755Y-117649252D01*
X79337247Y-117740744D01*
X79337251Y-117740747D01*
X79444841Y-117812637D01*
X79444842Y-117812637D01*
X79444843Y-117812638D01*
X79444845Y-117812639D01*
X79564384Y-117862153D01*
X79564389Y-117862155D01*
X79564393Y-117862155D01*
X79564394Y-117862156D01*
X79691298Y-117887400D01*
X79691301Y-117887400D01*
X79820701Y-117887400D01*
X79906078Y-117870416D01*
X79947611Y-117862155D01*
X80067159Y-117812637D01*
X80174749Y-117740747D01*
X80266247Y-117649249D01*
X80338137Y-117541659D01*
X80387655Y-117422111D01*
X80408115Y-117319255D01*
X80412900Y-117295201D01*
X80412900Y-117165798D01*
X80401229Y-117107128D01*
X80401229Y-117107127D01*
X80387656Y-117038896D01*
X80387656Y-117038894D01*
X80387655Y-117038889D01*
X80362642Y-116978501D01*
X80338139Y-116919345D01*
X80338138Y-116919343D01*
X80266247Y-116811751D01*
X80266244Y-116811747D01*
X80174752Y-116720255D01*
X80174748Y-116720252D01*
X80067156Y-116648361D01*
X80067154Y-116648360D01*
X79947615Y-116598846D01*
X79947605Y-116598843D01*
X79820701Y-116573600D01*
X79820699Y-116573600D01*
X79691301Y-116573600D01*
X79691299Y-116573600D01*
X79564394Y-116598843D01*
X79564384Y-116598846D01*
X79444845Y-116648360D01*
X79444843Y-116648361D01*
X79337251Y-116720252D01*
X79337247Y-116720255D01*
X79245755Y-116811747D01*
X79245752Y-116811751D01*
X79173861Y-116919343D01*
X79173860Y-116919345D01*
X79124346Y-117038884D01*
X79124343Y-117038894D01*
X79099100Y-117165798D01*
X79099100Y-117165801D01*
X79099100Y-117295199D01*
X79099100Y-117295201D01*
X79099099Y-117295201D01*
X76755841Y-117295201D01*
X76780855Y-117234811D01*
X76788208Y-117197847D01*
X76800607Y-117135517D01*
X76800607Y-117135516D01*
X76806099Y-117107903D01*
X76806100Y-117107901D01*
X76806100Y-116978498D01*
X76780856Y-116851594D01*
X76780855Y-116851593D01*
X76780855Y-116851589D01*
X76743107Y-116760456D01*
X76731339Y-116732045D01*
X76731338Y-116732043D01*
X76723461Y-116720255D01*
X76659447Y-116624451D01*
X76659444Y-116624447D01*
X76567952Y-116532955D01*
X76567948Y-116532952D01*
X76460356Y-116461061D01*
X76460354Y-116461060D01*
X76340815Y-116411546D01*
X76340805Y-116411543D01*
X76213901Y-116386300D01*
X76213899Y-116386300D01*
X76084501Y-116386300D01*
X76084499Y-116386300D01*
X75957594Y-116411543D01*
X75957584Y-116411546D01*
X75838045Y-116461060D01*
X75838043Y-116461061D01*
X75730451Y-116532952D01*
X75730447Y-116532955D01*
X75638955Y-116624447D01*
X75638952Y-116624451D01*
X75567061Y-116732043D01*
X75567060Y-116732045D01*
X75517546Y-116851584D01*
X75517543Y-116851594D01*
X75492300Y-116978498D01*
X75492300Y-116978501D01*
X75492300Y-117107899D01*
X75492300Y-117107901D01*
X75492299Y-117107901D01*
X74524295Y-117107901D01*
X74525847Y-117106349D01*
X74597737Y-116998759D01*
X74621045Y-116942489D01*
X74628307Y-116924957D01*
X74639152Y-116898772D01*
X74647255Y-116879211D01*
X74666316Y-116783389D01*
X74672500Y-116752301D01*
X74672500Y-116622898D01*
X74647256Y-116495994D01*
X74647255Y-116495993D01*
X74647255Y-116495989D01*
X74643702Y-116487411D01*
X74597739Y-116376445D01*
X74597738Y-116376443D01*
X74581261Y-116351784D01*
X74525847Y-116268851D01*
X74525844Y-116268847D01*
X74450498Y-116193501D01*
X89716299Y-116193501D01*
X89741543Y-116320405D01*
X89741546Y-116320415D01*
X89791060Y-116439954D01*
X89791061Y-116439956D01*
X89862952Y-116547548D01*
X89862955Y-116547552D01*
X89954447Y-116639044D01*
X89954451Y-116639047D01*
X90062041Y-116710937D01*
X90062042Y-116710937D01*
X90062043Y-116710938D01*
X90062045Y-116710939D01*
X90161903Y-116752301D01*
X90181589Y-116760455D01*
X90181593Y-116760455D01*
X90181594Y-116760456D01*
X90308498Y-116785700D01*
X90308501Y-116785700D01*
X90437901Y-116785700D01*
X90523278Y-116768716D01*
X90564811Y-116760455D01*
X90684359Y-116710937D01*
X90791949Y-116639047D01*
X90810996Y-116620000D01*
X97435269Y-116620000D01*
X98329488Y-116620000D01*
X98296575Y-116677007D01*
X98262500Y-116804174D01*
X98262500Y-116935826D01*
X98296575Y-117062993D01*
X98329488Y-117120000D01*
X97435269Y-117120000D01*
X97445742Y-117186126D01*
X97445742Y-117186129D01*
X97511404Y-117388217D01*
X97607879Y-117577557D01*
X97732772Y-117749459D01*
X97732776Y-117749464D01*
X97883035Y-117899723D01*
X97883040Y-117899727D01*
X98054942Y-118024620D01*
X98244282Y-118121095D01*
X98446371Y-118186757D01*
X98512500Y-118197231D01*
X98512500Y-117303012D01*
X98569507Y-117335925D01*
X98696674Y-117370000D01*
X98828326Y-117370000D01*
X98955493Y-117335925D01*
X99012500Y-117303012D01*
X99012500Y-118197230D01*
X99078626Y-118186757D01*
X99078629Y-118186757D01*
X99280717Y-118121095D01*
X99470057Y-118024620D01*
X99641959Y-117899727D01*
X99641964Y-117899723D01*
X99792223Y-117749464D01*
X99792227Y-117749459D01*
X99917120Y-117577557D01*
X100013596Y-117388215D01*
X100045739Y-117289288D01*
X100085176Y-117231612D01*
X100149534Y-117204413D01*
X100218380Y-117216327D01*
X100269857Y-117263571D01*
X100281600Y-117289284D01*
X100282627Y-117292446D01*
X100348697Y-117422115D01*
X100361268Y-117446788D01*
X100463086Y-117586928D01*
X100585572Y-117709414D01*
X100725712Y-117811232D01*
X100880055Y-117889873D01*
X101044799Y-117943402D01*
X101215889Y-117970500D01*
X101215890Y-117970500D01*
X101389110Y-117970500D01*
X101389111Y-117970500D01*
X101560201Y-117943402D01*
X101724945Y-117889873D01*
X101879288Y-117811232D01*
X102019428Y-117709414D01*
X102141914Y-117586928D01*
X102243732Y-117446788D01*
X102322373Y-117292445D01*
X102375902Y-117127701D01*
X102403000Y-116956611D01*
X102403000Y-116783389D01*
X102375902Y-116612299D01*
X102322373Y-116447555D01*
X102278017Y-116360501D01*
X110615299Y-116360501D01*
X110640543Y-116487405D01*
X110640546Y-116487415D01*
X110690060Y-116606954D01*
X110690061Y-116606956D01*
X110761952Y-116714548D01*
X110761955Y-116714552D01*
X110853447Y-116806044D01*
X110853451Y-116806047D01*
X110961041Y-116877937D01*
X110961042Y-116877937D01*
X110961043Y-116877938D01*
X110961045Y-116877939D01*
X111074558Y-116924957D01*
X111080589Y-116927455D01*
X111080593Y-116927455D01*
X111080594Y-116927456D01*
X111207498Y-116952700D01*
X111207501Y-116952700D01*
X111336901Y-116952700D01*
X111422278Y-116935716D01*
X111463811Y-116927455D01*
X111583359Y-116877937D01*
X111690949Y-116806047D01*
X111782447Y-116714549D01*
X111854337Y-116606959D01*
X111903855Y-116487411D01*
X111918946Y-116411545D01*
X111929100Y-116360501D01*
X111929100Y-116231098D01*
X111903856Y-116104194D01*
X111903855Y-116104193D01*
X111903855Y-116104189D01*
X111873368Y-116030586D01*
X111854339Y-115984645D01*
X111854338Y-115984643D01*
X111822633Y-115937194D01*
X111782447Y-115877051D01*
X111782444Y-115877047D01*
X111690952Y-115785555D01*
X111690948Y-115785552D01*
X111583356Y-115713661D01*
X111583354Y-115713660D01*
X111463815Y-115664146D01*
X111463805Y-115664143D01*
X111336901Y-115638900D01*
X111336899Y-115638900D01*
X111207501Y-115638900D01*
X111207499Y-115638900D01*
X111080594Y-115664143D01*
X111080584Y-115664146D01*
X110961045Y-115713660D01*
X110961043Y-115713661D01*
X110853451Y-115785552D01*
X110853447Y-115785555D01*
X110761955Y-115877047D01*
X110761952Y-115877051D01*
X110690061Y-115984643D01*
X110690060Y-115984645D01*
X110640546Y-116104184D01*
X110640543Y-116104194D01*
X110615300Y-116231098D01*
X110615300Y-116231101D01*
X110615300Y-116360499D01*
X110615300Y-116360501D01*
X110615299Y-116360501D01*
X102278017Y-116360501D01*
X102243732Y-116293212D01*
X102141914Y-116153072D01*
X102019428Y-116030586D01*
X101879288Y-115928768D01*
X101724945Y-115850127D01*
X101560201Y-115796598D01*
X101560199Y-115796597D01*
X101560198Y-115796597D01*
X101428771Y-115775781D01*
X101389111Y-115769500D01*
X101215889Y-115769500D01*
X101176228Y-115775781D01*
X101044802Y-115796597D01*
X100880052Y-115850128D01*
X100725711Y-115928768D01*
X100648810Y-115984641D01*
X100585572Y-116030586D01*
X100585570Y-116030588D01*
X100585569Y-116030588D01*
X100463088Y-116153069D01*
X100463088Y-116153070D01*
X100463086Y-116153072D01*
X100433714Y-116193499D01*
X100361268Y-116293211D01*
X100282628Y-116447550D01*
X100281599Y-116450720D01*
X100280881Y-116451769D01*
X100280766Y-116452048D01*
X100280707Y-116452023D01*
X100242157Y-116508393D01*
X100177797Y-116535587D01*
X100108951Y-116523668D01*
X100057479Y-116476420D01*
X100045739Y-116450711D01*
X100013596Y-116351784D01*
X99917120Y-116162442D01*
X99792227Y-115990540D01*
X99792223Y-115990535D01*
X99641964Y-115840276D01*
X99641959Y-115840272D01*
X99470057Y-115715379D01*
X99280717Y-115618904D01*
X99181787Y-115586760D01*
X99124111Y-115547323D01*
X99096913Y-115482964D01*
X99108828Y-115414118D01*
X99156072Y-115362642D01*
X99181790Y-115350897D01*
X99184945Y-115349873D01*
X99339288Y-115271232D01*
X99479428Y-115169414D01*
X99601914Y-115046928D01*
X99703732Y-114906788D01*
X99782373Y-114752445D01*
X99835902Y-114587701D01*
X99863000Y-114416611D01*
X99863000Y-114243389D01*
X100202000Y-114243389D01*
X100202000Y-114416611D01*
X100229098Y-114587701D01*
X100282627Y-114752445D01*
X100361268Y-114906788D01*
X100463086Y-115046928D01*
X100585572Y-115169414D01*
X100725712Y-115271232D01*
X100880055Y-115349873D01*
X101044799Y-115403402D01*
X101215889Y-115430500D01*
X101215890Y-115430500D01*
X101389110Y-115430500D01*
X101389111Y-115430500D01*
X101560201Y-115403402D01*
X101724945Y-115349873D01*
X101879288Y-115271232D01*
X102019428Y-115169414D01*
X102141914Y-115046928D01*
X102243732Y-114906788D01*
X102312867Y-114771101D01*
X107140699Y-114771101D01*
X107165943Y-114898005D01*
X107165946Y-114898015D01*
X107215460Y-115017554D01*
X107215461Y-115017556D01*
X107287352Y-115125148D01*
X107287355Y-115125152D01*
X107378847Y-115216644D01*
X107378851Y-115216647D01*
X107486441Y-115288537D01*
X107486442Y-115288537D01*
X107486443Y-115288538D01*
X107486445Y-115288539D01*
X107605984Y-115338053D01*
X107605989Y-115338055D01*
X107605993Y-115338055D01*
X107605994Y-115338056D01*
X107732898Y-115363300D01*
X107732901Y-115363300D01*
X107862301Y-115363300D01*
X107947678Y-115346316D01*
X107989211Y-115338055D01*
X108108759Y-115288537D01*
X108216349Y-115216647D01*
X108307847Y-115125149D01*
X108379737Y-115017559D01*
X108429255Y-114898011D01*
X108454500Y-114771099D01*
X108454500Y-114641701D01*
X108454500Y-114641698D01*
X108429256Y-114514794D01*
X108429255Y-114514793D01*
X108429255Y-114514789D01*
X108388589Y-114416611D01*
X108379739Y-114395245D01*
X108379738Y-114395243D01*
X108307847Y-114287651D01*
X108307844Y-114287647D01*
X108216352Y-114196155D01*
X108216348Y-114196152D01*
X108108756Y-114124261D01*
X108108754Y-114124260D01*
X107989215Y-114074746D01*
X107989205Y-114074743D01*
X107862301Y-114049500D01*
X107862299Y-114049500D01*
X107732901Y-114049500D01*
X107732899Y-114049500D01*
X107605994Y-114074743D01*
X107605984Y-114074746D01*
X107486445Y-114124260D01*
X107486443Y-114124261D01*
X107378851Y-114196152D01*
X107378847Y-114196155D01*
X107287355Y-114287647D01*
X107287352Y-114287651D01*
X107215461Y-114395243D01*
X107215460Y-114395245D01*
X107165946Y-114514784D01*
X107165943Y-114514794D01*
X107140700Y-114641698D01*
X107140700Y-114641701D01*
X107140700Y-114771099D01*
X107140700Y-114771101D01*
X107140699Y-114771101D01*
X102312867Y-114771101D01*
X102322373Y-114752445D01*
X102375902Y-114587701D01*
X102403000Y-114416611D01*
X102403000Y-114243389D01*
X102375902Y-114072299D01*
X102322373Y-113907555D01*
X102243732Y-113753212D01*
X102141914Y-113613072D01*
X102019428Y-113490586D01*
X101879288Y-113388768D01*
X101724945Y-113310127D01*
X101560201Y-113256598D01*
X101560199Y-113256597D01*
X101560198Y-113256597D01*
X101428771Y-113235781D01*
X101389111Y-113229500D01*
X101215889Y-113229500D01*
X101176228Y-113235781D01*
X101044802Y-113256597D01*
X100880052Y-113310128D01*
X100725711Y-113388768D01*
X100645756Y-113446859D01*
X100585572Y-113490586D01*
X100585570Y-113490588D01*
X100585569Y-113490588D01*
X100463088Y-113613069D01*
X100463088Y-113613070D01*
X100463086Y-113613072D01*
X100419359Y-113673256D01*
X100361268Y-113753211D01*
X100282628Y-113907552D01*
X100229097Y-114072302D01*
X100209481Y-114196153D01*
X100202000Y-114243389D01*
X99863000Y-114243389D01*
X99835902Y-114072299D01*
X99782373Y-113907555D01*
X99703732Y-113753212D01*
X99601914Y-113613072D01*
X99479428Y-113490586D01*
X99339288Y-113388768D01*
X99184945Y-113310127D01*
X99020201Y-113256598D01*
X99020199Y-113256597D01*
X99020198Y-113256597D01*
X98888771Y-113235781D01*
X98849111Y-113229500D01*
X98675889Y-113229500D01*
X98636228Y-113235781D01*
X98504802Y-113256597D01*
X98340052Y-113310128D01*
X98185711Y-113388768D01*
X98105756Y-113446859D01*
X98045572Y-113490586D01*
X98045570Y-113490588D01*
X98045569Y-113490588D01*
X97923088Y-113613069D01*
X97923088Y-113613070D01*
X97923086Y-113613072D01*
X97879359Y-113673256D01*
X97821268Y-113753211D01*
X97742628Y-113907552D01*
X97689097Y-114072302D01*
X97669481Y-114196153D01*
X97662000Y-114243389D01*
X97662000Y-114416611D01*
X97689098Y-114587701D01*
X97742627Y-114752445D01*
X97821268Y-114906788D01*
X97923086Y-115046928D01*
X98045572Y-115169414D01*
X98185712Y-115271232D01*
X98340055Y-115349873D01*
X98343208Y-115350897D01*
X98344252Y-115351611D01*
X98344548Y-115351734D01*
X98344522Y-115351795D01*
X98400883Y-115390330D01*
X98428085Y-115454688D01*
X98416174Y-115523535D01*
X98368933Y-115575013D01*
X98343212Y-115586760D01*
X98244283Y-115618904D01*
X98054942Y-115715379D01*
X97883040Y-115840272D01*
X97883035Y-115840276D01*
X97732776Y-115990535D01*
X97732772Y-115990540D01*
X97607879Y-116162442D01*
X97511404Y-116351782D01*
X97445742Y-116553870D01*
X97445742Y-116553873D01*
X97435269Y-116620000D01*
X90810996Y-116620000D01*
X90824042Y-116606954D01*
X90861614Y-116569383D01*
X90883444Y-116547552D01*
X90883447Y-116547549D01*
X90955337Y-116439959D01*
X91004855Y-116320411D01*
X91015112Y-116268847D01*
X91030100Y-116193501D01*
X91030100Y-116064098D01*
X91004856Y-115937194D01*
X91004855Y-115937193D01*
X91004855Y-115937189D01*
X90979944Y-115877047D01*
X90955339Y-115817645D01*
X90955338Y-115817643D01*
X90941275Y-115796597D01*
X90883447Y-115710051D01*
X90883444Y-115710047D01*
X90791952Y-115618555D01*
X90791948Y-115618552D01*
X90684356Y-115546661D01*
X90684354Y-115546660D01*
X90564815Y-115497146D01*
X90564805Y-115497143D01*
X90437901Y-115471900D01*
X90437899Y-115471900D01*
X90308501Y-115471900D01*
X90308499Y-115471900D01*
X90181594Y-115497143D01*
X90181584Y-115497146D01*
X90062045Y-115546660D01*
X90062043Y-115546661D01*
X89954451Y-115618552D01*
X89954447Y-115618555D01*
X89862955Y-115710047D01*
X89862952Y-115710051D01*
X89791061Y-115817643D01*
X89791060Y-115817645D01*
X89741546Y-115937184D01*
X89741543Y-115937194D01*
X89716300Y-116064098D01*
X89716300Y-116064101D01*
X89716300Y-116193499D01*
X89716300Y-116193501D01*
X89716299Y-116193501D01*
X74450498Y-116193501D01*
X74434352Y-116177355D01*
X74434348Y-116177352D01*
X74410042Y-116161111D01*
X74326756Y-116105461D01*
X74326754Y-116105460D01*
X74207215Y-116055946D01*
X74207205Y-116055943D01*
X74080301Y-116030700D01*
X74080299Y-116030700D01*
X73950901Y-116030700D01*
X73950899Y-116030700D01*
X73823994Y-116055943D01*
X73823984Y-116055946D01*
X73704445Y-116105460D01*
X73704443Y-116105461D01*
X73596851Y-116177352D01*
X73596847Y-116177355D01*
X73505355Y-116268847D01*
X73505352Y-116268851D01*
X73433461Y-116376443D01*
X73433460Y-116376445D01*
X73383946Y-116495984D01*
X73383943Y-116495994D01*
X73358700Y-116622898D01*
X73358700Y-116622901D01*
X73358700Y-116752299D01*
X73358700Y-116752301D01*
X73358699Y-116752301D01*
X72284900Y-116752301D01*
X72284900Y-116622898D01*
X72259656Y-116495994D01*
X72259655Y-116495993D01*
X72259655Y-116495989D01*
X72256102Y-116487411D01*
X72210139Y-116376445D01*
X72210138Y-116376443D01*
X72193661Y-116351784D01*
X72138247Y-116268851D01*
X72138244Y-116268847D01*
X72046752Y-116177355D01*
X72046748Y-116177352D01*
X71939156Y-116105461D01*
X71939154Y-116105460D01*
X71819615Y-116055946D01*
X71819605Y-116055943D01*
X71692701Y-116030700D01*
X71692699Y-116030700D01*
X71563301Y-116030700D01*
X71563299Y-116030700D01*
X71436394Y-116055943D01*
X71436384Y-116055946D01*
X71316845Y-116105460D01*
X71316843Y-116105461D01*
X71209251Y-116177352D01*
X71209247Y-116177355D01*
X71117755Y-116268847D01*
X71117752Y-116268851D01*
X71045861Y-116376443D01*
X71045860Y-116376445D01*
X70996346Y-116495984D01*
X70996343Y-116495994D01*
X70971100Y-116622898D01*
X70971100Y-116622901D01*
X70971100Y-116752299D01*
X70971100Y-116752301D01*
X70971099Y-116752301D01*
X69592500Y-116752301D01*
X69592500Y-116622898D01*
X69567256Y-116495994D01*
X69567255Y-116495993D01*
X69567255Y-116495989D01*
X69563702Y-116487411D01*
X69517739Y-116376445D01*
X69517738Y-116376443D01*
X69501261Y-116351784D01*
X69445847Y-116268851D01*
X69445844Y-116268847D01*
X69354352Y-116177355D01*
X69354348Y-116177352D01*
X69246756Y-116105461D01*
X69246754Y-116105460D01*
X69127215Y-116055946D01*
X69127205Y-116055943D01*
X69000301Y-116030700D01*
X69000299Y-116030700D01*
X68870901Y-116030700D01*
X68870899Y-116030700D01*
X68743994Y-116055943D01*
X68743984Y-116055946D01*
X68624445Y-116105460D01*
X68624443Y-116105461D01*
X68516851Y-116177352D01*
X68516847Y-116177355D01*
X68425355Y-116268847D01*
X68425352Y-116268851D01*
X68353461Y-116376443D01*
X68353460Y-116376445D01*
X68303946Y-116495984D01*
X68303943Y-116495994D01*
X68278700Y-116622898D01*
X68278700Y-116622901D01*
X68278700Y-116752299D01*
X68278700Y-116752301D01*
X68278699Y-116752301D01*
X63881500Y-116752301D01*
X63881500Y-111703389D01*
X97662000Y-111703389D01*
X97662000Y-111876610D01*
X97683997Y-112015499D01*
X97689098Y-112047701D01*
X97742627Y-112212445D01*
X97821268Y-112366788D01*
X97923086Y-112506928D01*
X98045572Y-112629414D01*
X98185712Y-112731232D01*
X98340055Y-112809873D01*
X98504799Y-112863402D01*
X98675889Y-112890500D01*
X98675890Y-112890500D01*
X98849110Y-112890500D01*
X98849111Y-112890500D01*
X99020201Y-112863402D01*
X99184945Y-112809873D01*
X99339288Y-112731232D01*
X99479428Y-112629414D01*
X99601914Y-112506928D01*
X99703732Y-112366788D01*
X99782373Y-112212445D01*
X99835902Y-112047701D01*
X99863000Y-111876611D01*
X99863000Y-111703389D01*
X99835902Y-111532299D01*
X99782373Y-111367555D01*
X99703732Y-111213212D01*
X99601914Y-111073072D01*
X99479428Y-110950586D01*
X99339288Y-110848768D01*
X99184945Y-110770127D01*
X99020201Y-110716598D01*
X99020199Y-110716597D01*
X99020198Y-110716597D01*
X98888771Y-110695781D01*
X98849111Y-110689500D01*
X98675889Y-110689500D01*
X98636228Y-110695781D01*
X98504802Y-110716597D01*
X98504799Y-110716598D01*
X98345423Y-110768383D01*
X98340052Y-110770128D01*
X98185711Y-110848768D01*
X98105756Y-110906859D01*
X98045572Y-110950586D01*
X98045570Y-110950588D01*
X98045569Y-110950588D01*
X97923088Y-111073069D01*
X97923088Y-111073070D01*
X97923086Y-111073072D01*
X97879359Y-111133256D01*
X97821268Y-111213211D01*
X97742628Y-111367552D01*
X97689097Y-111532302D01*
X97662000Y-111703389D01*
X63881500Y-111703389D01*
X63881500Y-105535097D01*
X65149500Y-105535097D01*
X65149500Y-105794902D01*
X65190140Y-106051493D01*
X65270422Y-106298576D01*
X65388368Y-106530054D01*
X65399686Y-106545632D01*
X65541069Y-106740229D01*
X65724771Y-106923931D01*
X65934949Y-107076634D01*
X66044484Y-107132445D01*
X66166423Y-107194577D01*
X66166425Y-107194577D01*
X66166428Y-107194579D01*
X66413507Y-107274860D01*
X66536546Y-107294347D01*
X66670098Y-107315500D01*
X66670103Y-107315500D01*
X66929902Y-107315500D01*
X67043298Y-107297539D01*
X67186493Y-107274860D01*
X67433572Y-107194579D01*
X67665051Y-107076634D01*
X67875229Y-106923931D01*
X68058931Y-106740229D01*
X68143820Y-106623389D01*
X97662000Y-106623389D01*
X97662000Y-106796610D01*
X97682165Y-106923931D01*
X97689098Y-106967701D01*
X97742627Y-107132445D01*
X97821268Y-107286788D01*
X97923086Y-107426928D01*
X98045572Y-107549414D01*
X98185712Y-107651232D01*
X98340055Y-107729873D01*
X98504799Y-107783402D01*
X98675889Y-107810500D01*
X98675890Y-107810500D01*
X98849110Y-107810500D01*
X98849111Y-107810500D01*
X99020201Y-107783402D01*
X99184945Y-107729873D01*
X99339288Y-107651232D01*
X99479428Y-107549414D01*
X99601914Y-107426928D01*
X99703732Y-107286788D01*
X99782373Y-107132445D01*
X99835902Y-106967701D01*
X99863000Y-106796611D01*
X99863000Y-106623389D01*
X99835902Y-106452299D01*
X99782373Y-106287555D01*
X99703732Y-106133212D01*
X99601914Y-105993072D01*
X99479428Y-105870586D01*
X99339288Y-105768768D01*
X99184945Y-105690127D01*
X99020201Y-105636598D01*
X99020199Y-105636597D01*
X99020198Y-105636597D01*
X98888771Y-105615781D01*
X98849111Y-105609500D01*
X98675889Y-105609500D01*
X98636228Y-105615781D01*
X98504802Y-105636597D01*
X98504799Y-105636598D01*
X98345423Y-105688383D01*
X98340052Y-105690128D01*
X98185711Y-105768768D01*
X98128902Y-105810043D01*
X98045572Y-105870586D01*
X98045570Y-105870588D01*
X98045569Y-105870588D01*
X97923088Y-105993069D01*
X97923088Y-105993070D01*
X97923086Y-105993072D01*
X97880641Y-106051493D01*
X97821268Y-106133211D01*
X97742628Y-106287552D01*
X97689097Y-106452302D01*
X97662000Y-106623389D01*
X68143820Y-106623389D01*
X68211634Y-106530051D01*
X68329579Y-106298572D01*
X68409860Y-106051493D01*
X68438512Y-105870588D01*
X68450500Y-105794902D01*
X68450500Y-105535097D01*
X68417163Y-105324620D01*
X68409860Y-105278507D01*
X68329579Y-105031428D01*
X68329577Y-105031425D01*
X68329577Y-105031423D01*
X68255953Y-104886930D01*
X68211634Y-104799949D01*
X68058931Y-104589771D01*
X67875229Y-104406069D01*
X67723732Y-104296000D01*
X67665054Y-104253368D01*
X67665053Y-104253367D01*
X67665051Y-104253366D01*
X67532169Y-104185659D01*
X67433576Y-104135422D01*
X67273435Y-104083389D01*
X97662000Y-104083389D01*
X97662000Y-104256611D01*
X97689098Y-104427701D01*
X97742627Y-104592445D01*
X97821268Y-104746788D01*
X97923086Y-104886928D01*
X98045572Y-105009414D01*
X98185712Y-105111232D01*
X98340055Y-105189873D01*
X98504799Y-105243402D01*
X98675889Y-105270500D01*
X98675890Y-105270500D01*
X98849110Y-105270500D01*
X98849111Y-105270500D01*
X99020201Y-105243402D01*
X99184945Y-105189873D01*
X99339288Y-105111232D01*
X99479428Y-105009414D01*
X99601914Y-104886928D01*
X99703732Y-104746788D01*
X99782373Y-104592445D01*
X99783396Y-104589294D01*
X99784110Y-104588250D01*
X99784234Y-104587952D01*
X99784296Y-104587977D01*
X99822827Y-104531618D01*
X99887183Y-104504415D01*
X99956030Y-104516323D01*
X100007511Y-104563562D01*
X100019260Y-104589287D01*
X100051404Y-104688217D01*
X100147879Y-104877557D01*
X100272772Y-105049459D01*
X100272776Y-105049464D01*
X100423035Y-105199723D01*
X100423040Y-105199727D01*
X100594942Y-105324620D01*
X100784284Y-105421096D01*
X100883211Y-105453239D01*
X100940887Y-105492676D01*
X100968086Y-105557034D01*
X100956172Y-105625881D01*
X100908928Y-105677357D01*
X100883222Y-105689097D01*
X100882022Y-105689487D01*
X100880050Y-105690128D01*
X100725711Y-105768768D01*
X100668902Y-105810043D01*
X100585572Y-105870586D01*
X100585570Y-105870588D01*
X100585569Y-105870588D01*
X100463088Y-105993069D01*
X100463088Y-105993070D01*
X100463086Y-105993072D01*
X100420641Y-106051493D01*
X100361268Y-106133211D01*
X100282628Y-106287552D01*
X100229097Y-106452302D01*
X100202000Y-106623389D01*
X100202000Y-106796610D01*
X100222165Y-106923931D01*
X100229098Y-106967701D01*
X100282627Y-107132445D01*
X100361268Y-107286788D01*
X100463086Y-107426928D01*
X100585572Y-107549414D01*
X100725712Y-107651232D01*
X100880055Y-107729873D01*
X100883208Y-107730897D01*
X100884252Y-107731611D01*
X100884548Y-107731734D01*
X100884522Y-107731795D01*
X100940883Y-107770330D01*
X100968085Y-107834688D01*
X100956174Y-107903535D01*
X100908933Y-107955013D01*
X100883212Y-107966760D01*
X100784283Y-107998904D01*
X100594942Y-108095379D01*
X100423040Y-108220272D01*
X100423035Y-108220276D01*
X100272776Y-108370535D01*
X100272772Y-108370540D01*
X100147879Y-108542442D01*
X100051404Y-108731783D01*
X100019260Y-108830712D01*
X99979822Y-108888388D01*
X99915464Y-108915586D01*
X99846617Y-108903671D01*
X99795142Y-108856427D01*
X99783398Y-108830712D01*
X99782373Y-108827555D01*
X99703732Y-108673212D01*
X99601914Y-108533072D01*
X99479428Y-108410586D01*
X99339288Y-108308768D01*
X99184945Y-108230127D01*
X99020201Y-108176598D01*
X99020199Y-108176597D01*
X99020198Y-108176597D01*
X98888771Y-108155781D01*
X98849111Y-108149500D01*
X98675889Y-108149500D01*
X98636228Y-108155781D01*
X98504802Y-108176597D01*
X98340052Y-108230128D01*
X98185711Y-108308768D01*
X98136183Y-108344753D01*
X98045572Y-108410586D01*
X98045570Y-108410588D01*
X98045569Y-108410588D01*
X97923088Y-108533069D01*
X97923088Y-108533070D01*
X97923086Y-108533072D01*
X97879359Y-108593256D01*
X97821268Y-108673211D01*
X97742628Y-108827552D01*
X97689097Y-108992302D01*
X97662000Y-109163389D01*
X97662000Y-109336611D01*
X97689098Y-109507701D01*
X97742627Y-109672445D01*
X97821268Y-109826788D01*
X97923086Y-109966928D01*
X98045572Y-110089414D01*
X98185712Y-110191232D01*
X98340055Y-110269873D01*
X98504799Y-110323402D01*
X98675889Y-110350500D01*
X98675890Y-110350500D01*
X98849110Y-110350500D01*
X98849111Y-110350500D01*
X99020201Y-110323402D01*
X99184945Y-110269873D01*
X99339288Y-110191232D01*
X99479428Y-110089414D01*
X99601914Y-109966928D01*
X99703732Y-109826788D01*
X99782373Y-109672445D01*
X99783396Y-109669294D01*
X99784110Y-109668250D01*
X99784234Y-109667952D01*
X99784296Y-109667977D01*
X99822827Y-109611618D01*
X99887183Y-109584415D01*
X99956030Y-109596323D01*
X100007511Y-109643562D01*
X100019260Y-109669287D01*
X100051404Y-109768217D01*
X100147879Y-109957557D01*
X100272772Y-110129459D01*
X100272776Y-110129464D01*
X100423035Y-110279723D01*
X100423040Y-110279727D01*
X100594942Y-110404620D01*
X100784284Y-110501096D01*
X100883211Y-110533239D01*
X100940887Y-110572676D01*
X100968086Y-110637034D01*
X100956172Y-110705881D01*
X100908928Y-110757357D01*
X100883222Y-110769097D01*
X100882022Y-110769487D01*
X100880050Y-110770128D01*
X100725711Y-110848768D01*
X100645756Y-110906859D01*
X100585572Y-110950586D01*
X100585570Y-110950588D01*
X100585569Y-110950588D01*
X100463088Y-111073069D01*
X100463088Y-111073070D01*
X100463086Y-111073072D01*
X100419359Y-111133256D01*
X100361268Y-111213211D01*
X100282628Y-111367552D01*
X100229097Y-111532302D01*
X100202000Y-111703389D01*
X100202000Y-111876610D01*
X100223997Y-112015499D01*
X100229098Y-112047701D01*
X100282627Y-112212445D01*
X100361268Y-112366788D01*
X100463086Y-112506928D01*
X100585572Y-112629414D01*
X100725712Y-112731232D01*
X100880055Y-112809873D01*
X101044799Y-112863402D01*
X101215889Y-112890500D01*
X101215890Y-112890500D01*
X101389110Y-112890500D01*
X101389111Y-112890500D01*
X101560201Y-112863402D01*
X101724945Y-112809873D01*
X101879288Y-112731232D01*
X102019428Y-112629414D01*
X102141914Y-112506928D01*
X102243732Y-112366788D01*
X102322373Y-112212445D01*
X102375902Y-112047701D01*
X102381002Y-112015501D01*
X110577799Y-112015501D01*
X110603043Y-112142405D01*
X110603046Y-112142415D01*
X110652560Y-112261954D01*
X110652561Y-112261956D01*
X110724452Y-112369548D01*
X110724455Y-112369552D01*
X110815947Y-112461044D01*
X110815951Y-112461047D01*
X110923541Y-112532937D01*
X110923542Y-112532937D01*
X110923543Y-112532938D01*
X110923545Y-112532939D01*
X111043084Y-112582453D01*
X111043089Y-112582455D01*
X111043093Y-112582455D01*
X111043094Y-112582456D01*
X111169998Y-112607700D01*
X111170001Y-112607700D01*
X111299401Y-112607700D01*
X111384778Y-112590716D01*
X111426311Y-112582455D01*
X111545859Y-112532937D01*
X111653449Y-112461047D01*
X111744947Y-112369549D01*
X111816837Y-112261959D01*
X111866355Y-112142411D01*
X111874616Y-112100878D01*
X111891600Y-112015501D01*
X111891600Y-111886098D01*
X111866356Y-111759194D01*
X111866355Y-111759193D01*
X111866355Y-111759189D01*
X111816837Y-111639641D01*
X111744947Y-111532051D01*
X111744944Y-111532047D01*
X111653452Y-111440555D01*
X111653448Y-111440552D01*
X111545856Y-111368661D01*
X111545854Y-111368660D01*
X111426315Y-111319146D01*
X111426305Y-111319143D01*
X111299401Y-111293900D01*
X111299399Y-111293900D01*
X111170001Y-111293900D01*
X111169999Y-111293900D01*
X111043094Y-111319143D01*
X111043084Y-111319146D01*
X110923545Y-111368660D01*
X110923543Y-111368661D01*
X110815951Y-111440552D01*
X110815947Y-111440555D01*
X110724455Y-111532047D01*
X110724452Y-111532051D01*
X110652561Y-111639643D01*
X110652560Y-111639645D01*
X110603046Y-111759184D01*
X110603043Y-111759194D01*
X110577800Y-111886098D01*
X110577800Y-111886101D01*
X110577800Y-112015499D01*
X110577800Y-112015501D01*
X110577799Y-112015501D01*
X102381002Y-112015501D01*
X102403000Y-111876611D01*
X102403000Y-111703389D01*
X102375902Y-111532299D01*
X102322373Y-111367555D01*
X102243732Y-111213212D01*
X102141914Y-111073072D01*
X102019428Y-110950586D01*
X101879288Y-110848768D01*
X101877475Y-110847844D01*
X101724946Y-110770127D01*
X101721784Y-110769100D01*
X101720736Y-110768383D01*
X101720452Y-110768266D01*
X101720476Y-110768206D01*
X101664109Y-110729661D01*
X101636913Y-110665302D01*
X101648829Y-110596456D01*
X101696074Y-110544981D01*
X101721788Y-110533239D01*
X101820715Y-110501096D01*
X102010057Y-110404620D01*
X102013249Y-110402301D01*
X106988299Y-110402301D01*
X107013543Y-110529205D01*
X107013546Y-110529215D01*
X107063060Y-110648754D01*
X107063061Y-110648756D01*
X107134952Y-110756348D01*
X107134955Y-110756352D01*
X107226447Y-110847844D01*
X107226451Y-110847847D01*
X107334041Y-110919737D01*
X107334042Y-110919737D01*
X107334043Y-110919738D01*
X107334045Y-110919739D01*
X107453584Y-110969253D01*
X107453589Y-110969255D01*
X107453593Y-110969255D01*
X107453594Y-110969256D01*
X107580498Y-110994500D01*
X107580501Y-110994500D01*
X107709901Y-110994500D01*
X107795278Y-110977516D01*
X107836811Y-110969255D01*
X107956359Y-110919737D01*
X108063949Y-110847847D01*
X108155447Y-110756349D01*
X108227337Y-110648759D01*
X108276855Y-110529211D01*
X108285116Y-110487678D01*
X108302100Y-110402301D01*
X108302100Y-110272898D01*
X108276856Y-110145994D01*
X108276855Y-110145993D01*
X108276855Y-110145989D01*
X108227337Y-110026441D01*
X108155447Y-109918851D01*
X108155444Y-109918847D01*
X108063952Y-109827355D01*
X108063948Y-109827352D01*
X107956356Y-109755461D01*
X107956354Y-109755460D01*
X107836815Y-109705946D01*
X107836805Y-109705943D01*
X107709901Y-109680700D01*
X107709899Y-109680700D01*
X107580501Y-109680700D01*
X107580499Y-109680700D01*
X107453594Y-109705943D01*
X107453584Y-109705946D01*
X107334045Y-109755460D01*
X107334043Y-109755461D01*
X107226451Y-109827352D01*
X107226447Y-109827355D01*
X107134955Y-109918847D01*
X107134952Y-109918851D01*
X107063061Y-110026443D01*
X107063060Y-110026445D01*
X107013546Y-110145984D01*
X107013543Y-110145994D01*
X106988300Y-110272898D01*
X106988300Y-110272901D01*
X106988300Y-110402299D01*
X106988300Y-110402301D01*
X106988299Y-110402301D01*
X102013249Y-110402301D01*
X102181959Y-110279727D01*
X102181964Y-110279723D01*
X102282560Y-110179128D01*
X102332223Y-110129464D01*
X102332227Y-110129459D01*
X102457120Y-109957557D01*
X102553595Y-109768217D01*
X102619257Y-109566129D01*
X102619257Y-109566126D01*
X102629731Y-109500000D01*
X101735512Y-109500000D01*
X101768425Y-109442993D01*
X101802500Y-109315826D01*
X101802500Y-109184174D01*
X101768425Y-109057007D01*
X101735512Y-109000000D01*
X102629731Y-109000000D01*
X102619257Y-108933873D01*
X102619257Y-108933870D01*
X102553595Y-108731782D01*
X102457120Y-108542442D01*
X102332227Y-108370540D01*
X102332223Y-108370535D01*
X102181964Y-108220276D01*
X102181959Y-108220272D01*
X102010057Y-108095379D01*
X101820717Y-107998904D01*
X101721787Y-107966760D01*
X101664111Y-107927323D01*
X101636913Y-107862964D01*
X101648828Y-107794118D01*
X101663804Y-107777801D01*
X110577799Y-107777801D01*
X110603043Y-107904705D01*
X110603046Y-107904715D01*
X110652560Y-108024254D01*
X110652561Y-108024256D01*
X110724452Y-108131848D01*
X110724455Y-108131852D01*
X110815947Y-108223344D01*
X110815951Y-108223347D01*
X110923541Y-108295237D01*
X110923542Y-108295237D01*
X110923543Y-108295238D01*
X110923545Y-108295239D01*
X111043084Y-108344753D01*
X111043089Y-108344755D01*
X111043093Y-108344755D01*
X111043094Y-108344756D01*
X111169998Y-108370000D01*
X111170001Y-108370000D01*
X111299401Y-108370000D01*
X111384778Y-108353016D01*
X111426311Y-108344755D01*
X111545859Y-108295237D01*
X111653449Y-108223347D01*
X111744947Y-108131849D01*
X111816837Y-108024259D01*
X111866355Y-107904711D01*
X111888354Y-107794118D01*
X111891600Y-107777801D01*
X111891600Y-107648398D01*
X111866356Y-107521494D01*
X111866355Y-107521493D01*
X111866355Y-107521489D01*
X111827188Y-107426930D01*
X111816839Y-107401945D01*
X111816838Y-107401943D01*
X111744947Y-107294351D01*
X111744944Y-107294347D01*
X111653452Y-107202855D01*
X111653448Y-107202852D01*
X111545856Y-107130961D01*
X111545854Y-107130960D01*
X111426315Y-107081446D01*
X111426305Y-107081443D01*
X111299401Y-107056200D01*
X111299399Y-107056200D01*
X111170001Y-107056200D01*
X111169999Y-107056200D01*
X111043094Y-107081443D01*
X111043084Y-107081446D01*
X110923545Y-107130960D01*
X110923543Y-107130961D01*
X110815951Y-107202852D01*
X110815947Y-107202855D01*
X110724455Y-107294347D01*
X110724452Y-107294351D01*
X110652561Y-107401943D01*
X110652560Y-107401945D01*
X110603046Y-107521484D01*
X110603043Y-107521494D01*
X110577800Y-107648398D01*
X110577800Y-107648401D01*
X110577800Y-107777799D01*
X110577800Y-107777801D01*
X110577799Y-107777801D01*
X101663804Y-107777801D01*
X101696072Y-107742642D01*
X101721790Y-107730897D01*
X101724945Y-107729873D01*
X101879288Y-107651232D01*
X102019428Y-107549414D01*
X102141914Y-107426928D01*
X102243732Y-107286788D01*
X102322373Y-107132445D01*
X102375902Y-106967701D01*
X102403000Y-106796611D01*
X102403000Y-106623389D01*
X102375902Y-106452299D01*
X102322373Y-106287555D01*
X102270578Y-106185901D01*
X107140699Y-106185901D01*
X107165943Y-106312805D01*
X107165946Y-106312815D01*
X107215460Y-106432354D01*
X107215461Y-106432356D01*
X107287352Y-106539948D01*
X107287355Y-106539952D01*
X107378847Y-106631444D01*
X107378851Y-106631447D01*
X107486441Y-106703337D01*
X107486442Y-106703337D01*
X107486443Y-106703338D01*
X107486445Y-106703339D01*
X107605984Y-106752853D01*
X107605989Y-106752855D01*
X107605993Y-106752855D01*
X107605994Y-106752856D01*
X107732898Y-106778100D01*
X107732901Y-106778100D01*
X107862301Y-106778100D01*
X107947678Y-106761116D01*
X107989211Y-106752855D01*
X108108759Y-106703337D01*
X108216349Y-106631447D01*
X108307847Y-106539949D01*
X108379737Y-106432359D01*
X108429255Y-106312811D01*
X108454500Y-106185899D01*
X108454500Y-106056501D01*
X108454500Y-106056498D01*
X108429256Y-105929594D01*
X108429255Y-105929593D01*
X108429255Y-105929589D01*
X108404816Y-105870588D01*
X108379739Y-105810045D01*
X108379738Y-105810043D01*
X108307847Y-105702451D01*
X108307844Y-105702447D01*
X108216352Y-105610955D01*
X108216348Y-105610952D01*
X108108756Y-105539061D01*
X108108754Y-105539060D01*
X107989215Y-105489546D01*
X107989205Y-105489543D01*
X107862301Y-105464300D01*
X107862299Y-105464300D01*
X107732901Y-105464300D01*
X107732899Y-105464300D01*
X107605994Y-105489543D01*
X107605984Y-105489546D01*
X107486445Y-105539060D01*
X107486443Y-105539061D01*
X107378851Y-105610952D01*
X107378847Y-105610955D01*
X107287355Y-105702447D01*
X107287352Y-105702451D01*
X107215461Y-105810043D01*
X107215460Y-105810045D01*
X107165946Y-105929584D01*
X107165943Y-105929594D01*
X107140700Y-106056498D01*
X107140700Y-106056501D01*
X107140700Y-106185899D01*
X107140700Y-106185901D01*
X107140699Y-106185901D01*
X102270578Y-106185901D01*
X102243732Y-106133212D01*
X102141914Y-105993072D01*
X102019428Y-105870586D01*
X101879288Y-105768768D01*
X101724946Y-105690127D01*
X101721784Y-105689100D01*
X101720736Y-105688383D01*
X101720452Y-105688266D01*
X101720476Y-105688206D01*
X101664109Y-105649661D01*
X101636913Y-105585302D01*
X101648829Y-105516456D01*
X101696074Y-105464981D01*
X101721788Y-105453239D01*
X101820715Y-105421096D01*
X102010057Y-105324620D01*
X102181959Y-105199727D01*
X102181964Y-105199723D01*
X102332223Y-105049464D01*
X102332227Y-105049459D01*
X102457120Y-104877557D01*
X102553595Y-104688217D01*
X102619257Y-104486129D01*
X102619257Y-104486126D01*
X102629731Y-104420000D01*
X101735512Y-104420000D01*
X101768425Y-104362993D01*
X101802500Y-104235826D01*
X101802500Y-104104174D01*
X101768425Y-103977007D01*
X101735512Y-103920000D01*
X102629731Y-103920000D01*
X102619257Y-103853873D01*
X102619257Y-103853870D01*
X102553595Y-103651782D01*
X102538930Y-103623001D01*
X110570299Y-103623001D01*
X110595543Y-103749905D01*
X110595546Y-103749915D01*
X110645060Y-103869454D01*
X110645061Y-103869456D01*
X110716952Y-103977048D01*
X110716955Y-103977052D01*
X110808447Y-104068544D01*
X110808451Y-104068547D01*
X110916041Y-104140437D01*
X110916042Y-104140437D01*
X110916043Y-104140438D01*
X110916045Y-104140439D01*
X111033288Y-104189002D01*
X111035589Y-104189955D01*
X111035593Y-104189955D01*
X111035594Y-104189956D01*
X111162498Y-104215200D01*
X111162501Y-104215200D01*
X111291901Y-104215200D01*
X111377278Y-104198216D01*
X111418811Y-104189955D01*
X111538359Y-104140437D01*
X111645949Y-104068547D01*
X111737447Y-103977049D01*
X111809337Y-103869459D01*
X111858855Y-103749911D01*
X111874751Y-103670000D01*
X111884100Y-103623001D01*
X111884100Y-103493598D01*
X111858856Y-103366694D01*
X111858855Y-103366693D01*
X111858855Y-103366689D01*
X111843076Y-103328594D01*
X111809339Y-103247145D01*
X111809338Y-103247143D01*
X111737447Y-103139551D01*
X111737444Y-103139547D01*
X111645952Y-103048055D01*
X111645948Y-103048052D01*
X111538356Y-102976161D01*
X111538354Y-102976160D01*
X111418815Y-102926646D01*
X111418805Y-102926643D01*
X111291901Y-102901400D01*
X111291899Y-102901400D01*
X111162501Y-102901400D01*
X111162499Y-102901400D01*
X111035594Y-102926643D01*
X111035584Y-102926646D01*
X110916045Y-102976160D01*
X110916043Y-102976161D01*
X110808451Y-103048052D01*
X110808447Y-103048055D01*
X110716955Y-103139547D01*
X110716952Y-103139551D01*
X110645061Y-103247143D01*
X110645060Y-103247145D01*
X110595546Y-103366684D01*
X110595543Y-103366694D01*
X110570300Y-103493598D01*
X110570300Y-103493601D01*
X110570300Y-103622999D01*
X110570300Y-103623001D01*
X110570299Y-103623001D01*
X102538930Y-103623001D01*
X102498577Y-103543804D01*
X102457120Y-103462442D01*
X102332227Y-103290540D01*
X102332223Y-103290535D01*
X102181964Y-103140276D01*
X102181959Y-103140272D01*
X102010057Y-103015379D01*
X101820717Y-102918904D01*
X101721787Y-102886760D01*
X101664111Y-102847323D01*
X101636913Y-102782964D01*
X101648828Y-102714118D01*
X101696072Y-102662642D01*
X101721790Y-102650897D01*
X101724945Y-102649873D01*
X101879288Y-102571232D01*
X102019428Y-102469414D01*
X102141914Y-102346928D01*
X102243732Y-102206788D01*
X102322373Y-102052445D01*
X102375902Y-101887701D01*
X102403000Y-101716611D01*
X102403000Y-101664701D01*
X107191499Y-101664701D01*
X107216743Y-101791605D01*
X107216746Y-101791615D01*
X107266260Y-101911154D01*
X107266261Y-101911156D01*
X107338152Y-102018748D01*
X107338155Y-102018752D01*
X107429647Y-102110244D01*
X107429651Y-102110247D01*
X107537241Y-102182137D01*
X107537242Y-102182137D01*
X107537243Y-102182138D01*
X107537245Y-102182139D01*
X107596754Y-102206788D01*
X107656789Y-102231655D01*
X107656793Y-102231655D01*
X107656794Y-102231656D01*
X107783698Y-102256900D01*
X107783701Y-102256900D01*
X107913101Y-102256900D01*
X107998478Y-102239916D01*
X108040011Y-102231655D01*
X108159559Y-102182137D01*
X108267149Y-102110247D01*
X108358647Y-102018749D01*
X108430537Y-101911159D01*
X108480055Y-101791611D01*
X108498558Y-101698592D01*
X108505300Y-101664701D01*
X108505300Y-101535298D01*
X108480056Y-101408394D01*
X108480055Y-101408393D01*
X108480055Y-101408389D01*
X108469496Y-101382898D01*
X108430539Y-101288845D01*
X108430538Y-101288843D01*
X108358647Y-101181251D01*
X108358644Y-101181247D01*
X108267152Y-101089755D01*
X108267148Y-101089752D01*
X108159556Y-101017861D01*
X108159554Y-101017860D01*
X108040015Y-100968346D01*
X108040005Y-100968343D01*
X107913101Y-100943100D01*
X107913099Y-100943100D01*
X107783701Y-100943100D01*
X107783699Y-100943100D01*
X107656794Y-100968343D01*
X107656784Y-100968346D01*
X107537245Y-101017860D01*
X107537243Y-101017861D01*
X107429651Y-101089752D01*
X107429647Y-101089755D01*
X107338155Y-101181247D01*
X107338152Y-101181251D01*
X107266261Y-101288843D01*
X107266260Y-101288845D01*
X107216746Y-101408384D01*
X107216743Y-101408394D01*
X107191500Y-101535298D01*
X107191500Y-101535301D01*
X107191500Y-101664699D01*
X107191500Y-101664701D01*
X107191499Y-101664701D01*
X102403000Y-101664701D01*
X102403000Y-101543389D01*
X102375902Y-101372299D01*
X102322373Y-101207555D01*
X102243732Y-101053212D01*
X102141914Y-100913072D01*
X102019428Y-100790586D01*
X101879288Y-100688768D01*
X101724945Y-100610127D01*
X101560201Y-100556598D01*
X101560199Y-100556597D01*
X101560198Y-100556597D01*
X101428771Y-100535781D01*
X101389111Y-100529500D01*
X101215889Y-100529500D01*
X101176228Y-100535781D01*
X101044802Y-100556597D01*
X101044799Y-100556598D01*
X100885423Y-100608383D01*
X100880052Y-100610128D01*
X100725711Y-100688768D01*
X100681446Y-100720929D01*
X100585572Y-100790586D01*
X100585570Y-100790588D01*
X100585569Y-100790588D01*
X100463088Y-100913069D01*
X100463088Y-100913070D01*
X100463086Y-100913072D01*
X100436575Y-100949561D01*
X100361268Y-101053211D01*
X100282628Y-101207552D01*
X100229097Y-101372302D01*
X100223381Y-101408394D01*
X100202000Y-101543389D01*
X100202000Y-101716611D01*
X100205723Y-101740117D01*
X100225716Y-101866352D01*
X100229098Y-101887701D01*
X100282627Y-102052445D01*
X100361268Y-102206788D01*
X100463086Y-102346928D01*
X100585572Y-102469414D01*
X100725712Y-102571232D01*
X100880055Y-102649873D01*
X100883208Y-102650897D01*
X100884252Y-102651611D01*
X100884548Y-102651734D01*
X100884522Y-102651795D01*
X100940883Y-102690330D01*
X100968085Y-102754688D01*
X100956174Y-102823535D01*
X100908933Y-102875013D01*
X100883212Y-102886760D01*
X100784283Y-102918904D01*
X100594942Y-103015379D01*
X100423040Y-103140272D01*
X100423035Y-103140276D01*
X100272776Y-103290535D01*
X100272772Y-103290540D01*
X100147879Y-103462442D01*
X100051404Y-103651783D01*
X100019260Y-103750712D01*
X99979822Y-103808388D01*
X99915464Y-103835586D01*
X99846617Y-103823671D01*
X99795142Y-103776427D01*
X99783398Y-103750712D01*
X99782373Y-103747555D01*
X99703732Y-103593212D01*
X99601914Y-103453072D01*
X99479428Y-103330586D01*
X99339288Y-103228768D01*
X99184945Y-103150127D01*
X99020201Y-103096598D01*
X99020199Y-103096597D01*
X99020198Y-103096597D01*
X98888771Y-103075781D01*
X98849111Y-103069500D01*
X98675889Y-103069500D01*
X98636228Y-103075781D01*
X98504802Y-103096597D01*
X98340052Y-103150128D01*
X98185711Y-103228768D01*
X98160418Y-103247145D01*
X98045572Y-103330586D01*
X98045570Y-103330588D01*
X98045569Y-103330588D01*
X97923088Y-103453069D01*
X97923088Y-103453070D01*
X97923086Y-103453072D01*
X97897560Y-103488206D01*
X97821268Y-103593211D01*
X97742628Y-103747552D01*
X97742627Y-103747554D01*
X97742627Y-103747555D01*
X97741860Y-103749915D01*
X97689097Y-103912302D01*
X97666474Y-104055140D01*
X97662000Y-104083389D01*
X67273435Y-104083389D01*
X67186493Y-104055140D01*
X66929902Y-104014500D01*
X66929897Y-104014500D01*
X66670103Y-104014500D01*
X66670098Y-104014500D01*
X66413506Y-104055140D01*
X66166423Y-104135422D01*
X65934945Y-104253368D01*
X65724774Y-104406066D01*
X65724768Y-104406071D01*
X65541071Y-104589768D01*
X65541066Y-104589774D01*
X65388368Y-104799945D01*
X65270422Y-105031423D01*
X65190140Y-105278506D01*
X65149500Y-105535097D01*
X63881500Y-105535097D01*
X63881500Y-96866982D01*
X68365499Y-96866982D01*
X68402948Y-97055244D01*
X68402950Y-97055252D01*
X68476406Y-97232594D01*
X68476407Y-97232595D01*
X68476409Y-97232599D01*
X68499348Y-97266929D01*
X68583056Y-97392206D01*
X68583059Y-97392210D01*
X68718789Y-97527940D01*
X68718793Y-97527943D01*
X68878401Y-97634591D01*
X68878404Y-97634592D01*
X68878405Y-97634593D01*
X68969774Y-97672439D01*
X69024178Y-97716280D01*
X69046243Y-97782574D01*
X69028964Y-97850273D01*
X68977827Y-97897884D01*
X68969774Y-97901561D01*
X68878405Y-97939406D01*
X68878404Y-97939407D01*
X68718793Y-98046056D01*
X68718789Y-98046059D01*
X68583059Y-98181789D01*
X68583056Y-98181793D01*
X68476407Y-98341404D01*
X68476406Y-98341405D01*
X68402950Y-98518747D01*
X68402948Y-98518755D01*
X68365500Y-98707017D01*
X68365500Y-98707018D01*
X68365500Y-98707020D01*
X68365500Y-98898980D01*
X68365500Y-98898982D01*
X68365499Y-98898982D01*
X68402948Y-99087244D01*
X68402950Y-99087252D01*
X68476406Y-99264594D01*
X68476407Y-99264595D01*
X68476409Y-99264599D01*
X68526791Y-99340000D01*
X68583056Y-99424206D01*
X68583059Y-99424210D01*
X68718789Y-99559940D01*
X68718793Y-99559943D01*
X68878401Y-99666591D01*
X68878404Y-99666592D01*
X68878405Y-99666593D01*
X68969774Y-99704439D01*
X69024178Y-99748280D01*
X69046243Y-99814574D01*
X69028964Y-99882273D01*
X68977827Y-99929884D01*
X68969774Y-99933561D01*
X68878405Y-99971406D01*
X68878404Y-99971407D01*
X68718793Y-100078056D01*
X68718789Y-100078059D01*
X68583059Y-100213789D01*
X68583056Y-100213793D01*
X68476407Y-100373404D01*
X68476406Y-100373405D01*
X68402950Y-100550747D01*
X68402948Y-100550755D01*
X68365500Y-100739017D01*
X68365500Y-100739018D01*
X68365500Y-100739020D01*
X68365500Y-100930980D01*
X68365500Y-100930982D01*
X68365499Y-100930982D01*
X68402948Y-101119244D01*
X68402950Y-101119252D01*
X68476406Y-101296594D01*
X68476407Y-101296595D01*
X68476409Y-101296599D01*
X68547829Y-101403485D01*
X68583056Y-101456206D01*
X68583059Y-101456210D01*
X68718789Y-101591940D01*
X68718793Y-101591943D01*
X68878401Y-101698591D01*
X68878404Y-101698592D01*
X68878405Y-101698593D01*
X68969774Y-101736439D01*
X69024178Y-101780280D01*
X69046243Y-101846574D01*
X69028964Y-101914273D01*
X68977827Y-101961884D01*
X68969774Y-101965561D01*
X68878405Y-102003406D01*
X68878404Y-102003407D01*
X68718793Y-102110056D01*
X68718789Y-102110059D01*
X68583059Y-102245789D01*
X68583056Y-102245793D01*
X68476407Y-102405404D01*
X68476406Y-102405405D01*
X68402950Y-102582747D01*
X68402948Y-102582755D01*
X68365500Y-102771017D01*
X68365500Y-102771018D01*
X68365500Y-102771020D01*
X68365500Y-102962980D01*
X68365500Y-102962982D01*
X68365499Y-102962982D01*
X68402948Y-103151244D01*
X68402950Y-103151252D01*
X68476406Y-103328594D01*
X68476407Y-103328595D01*
X68476409Y-103328599D01*
X68501864Y-103366694D01*
X68583056Y-103488206D01*
X68583059Y-103488210D01*
X68718789Y-103623940D01*
X68718793Y-103623943D01*
X68878401Y-103730591D01*
X68878404Y-103730592D01*
X68878405Y-103730593D01*
X68926978Y-103750712D01*
X69055749Y-103804050D01*
X69101851Y-103813220D01*
X69244017Y-103841500D01*
X69244020Y-103841500D01*
X69435982Y-103841500D01*
X69530758Y-103822647D01*
X69624251Y-103804050D01*
X69801599Y-103730591D01*
X69961207Y-103623943D01*
X70096943Y-103488207D01*
X70203591Y-103328599D01*
X70277050Y-103151251D01*
X70311878Y-102976161D01*
X70314500Y-102962982D01*
X70314500Y-102771018D01*
X70307244Y-102734543D01*
X70313471Y-102664951D01*
X70356333Y-102609773D01*
X70422222Y-102586528D01*
X70490220Y-102602595D01*
X70497752Y-102607248D01*
X70561540Y-102649870D01*
X70658401Y-102714591D01*
X70658402Y-102714591D01*
X70658403Y-102714592D01*
X70658405Y-102714593D01*
X70696809Y-102730500D01*
X70835749Y-102788050D01*
X70881851Y-102797220D01*
X71024017Y-102825500D01*
X71024020Y-102825500D01*
X71215982Y-102825500D01*
X71310758Y-102806647D01*
X71404251Y-102788050D01*
X71581599Y-102714591D01*
X71741207Y-102607943D01*
X71876943Y-102472207D01*
X71983591Y-102312599D01*
X72057050Y-102135251D01*
X72078038Y-102029737D01*
X72094500Y-101946982D01*
X72094500Y-101755017D01*
X72057051Y-101566755D01*
X72057050Y-101566749D01*
X72034497Y-101512301D01*
X74919529Y-101512301D01*
X74944773Y-101639205D01*
X74944776Y-101639215D01*
X74994290Y-101758754D01*
X74994291Y-101758756D01*
X75066182Y-101866348D01*
X75066185Y-101866352D01*
X75157677Y-101957844D01*
X75157681Y-101957847D01*
X75265271Y-102029737D01*
X75265272Y-102029737D01*
X75265273Y-102029738D01*
X75265275Y-102029739D01*
X75384814Y-102079253D01*
X75384819Y-102079255D01*
X75384823Y-102079255D01*
X75384824Y-102079256D01*
X75511728Y-102104500D01*
X75511731Y-102104500D01*
X75641131Y-102104500D01*
X75726508Y-102087516D01*
X75768041Y-102079255D01*
X75887589Y-102029737D01*
X75978709Y-101968851D01*
X76045387Y-101947974D01*
X76112767Y-101966458D01*
X76116490Y-101968851D01*
X76207611Y-102029737D01*
X76207612Y-102029737D01*
X76207613Y-102029738D01*
X76207615Y-102029739D01*
X76327154Y-102079253D01*
X76327159Y-102079255D01*
X76327163Y-102079255D01*
X76327164Y-102079256D01*
X76454068Y-102104500D01*
X76454071Y-102104500D01*
X76583471Y-102104500D01*
X76668848Y-102087516D01*
X76710381Y-102079255D01*
X76829929Y-102029737D01*
X76937519Y-101957847D01*
X77029017Y-101866349D01*
X77100907Y-101758759D01*
X77150425Y-101639211D01*
X77175670Y-101512299D01*
X77175670Y-101382901D01*
X77175670Y-101382898D01*
X77150426Y-101255994D01*
X77150425Y-101255993D01*
X77150425Y-101255989D01*
X77100907Y-101136441D01*
X77029017Y-101028851D01*
X77029014Y-101028847D01*
X76937522Y-100937355D01*
X76937518Y-100937352D01*
X76829926Y-100865461D01*
X76829924Y-100865460D01*
X76710385Y-100815946D01*
X76710375Y-100815943D01*
X76583471Y-100790700D01*
X76583469Y-100790700D01*
X76454071Y-100790700D01*
X76454069Y-100790700D01*
X76327164Y-100815943D01*
X76327154Y-100815946D01*
X76207615Y-100865460D01*
X76116490Y-100926348D01*
X76049813Y-100947225D01*
X75982433Y-100928740D01*
X75978710Y-100926348D01*
X75936692Y-100898273D01*
X75887589Y-100865463D01*
X75887585Y-100865461D01*
X75887583Y-100865460D01*
X75887584Y-100865460D01*
X75768045Y-100815946D01*
X75768035Y-100815943D01*
X75641131Y-100790700D01*
X75641129Y-100790700D01*
X75511731Y-100790700D01*
X75511729Y-100790700D01*
X75384824Y-100815943D01*
X75384814Y-100815946D01*
X75265275Y-100865460D01*
X75265273Y-100865461D01*
X75157681Y-100937352D01*
X75157677Y-100937355D01*
X75066185Y-101028847D01*
X75066182Y-101028851D01*
X74994291Y-101136443D01*
X74994290Y-101136445D01*
X74944776Y-101255984D01*
X74944773Y-101255994D01*
X74919530Y-101382898D01*
X74919530Y-101382901D01*
X74919530Y-101512299D01*
X74919530Y-101512301D01*
X74919529Y-101512301D01*
X72034497Y-101512301D01*
X71983591Y-101389401D01*
X71876943Y-101229793D01*
X71876940Y-101229789D01*
X71741210Y-101094059D01*
X71741206Y-101094056D01*
X71668036Y-101045165D01*
X71581599Y-100987409D01*
X71581596Y-100987407D01*
X71581595Y-100987407D01*
X71581594Y-100987406D01*
X71490225Y-100949561D01*
X71435821Y-100905721D01*
X71413756Y-100839427D01*
X71431035Y-100771727D01*
X71482172Y-100724117D01*
X71490225Y-100720439D01*
X71581594Y-100682593D01*
X71581593Y-100682593D01*
X71581599Y-100682591D01*
X71741207Y-100575943D01*
X71876943Y-100440207D01*
X71983591Y-100280599D01*
X72057050Y-100103251D01*
X72075647Y-100009758D01*
X72094500Y-99914982D01*
X72094500Y-99723017D01*
X72064111Y-99570247D01*
X72057050Y-99534749D01*
X71989290Y-99371159D01*
X71983593Y-99357405D01*
X71983592Y-99357404D01*
X71983591Y-99357401D01*
X71876943Y-99197793D01*
X71876940Y-99197789D01*
X71803852Y-99124701D01*
X86655599Y-99124701D01*
X86680843Y-99251605D01*
X86680846Y-99251615D01*
X86730360Y-99371154D01*
X86730361Y-99371156D01*
X86802252Y-99478748D01*
X86802255Y-99478752D01*
X86893747Y-99570244D01*
X86893751Y-99570247D01*
X87001341Y-99642137D01*
X87001342Y-99642137D01*
X87001343Y-99642138D01*
X87001345Y-99642139D01*
X87060381Y-99666592D01*
X87120889Y-99691655D01*
X87120893Y-99691655D01*
X87120894Y-99691656D01*
X87247798Y-99716900D01*
X87247801Y-99716900D01*
X87377201Y-99716900D01*
X87462578Y-99699916D01*
X87504111Y-99691655D01*
X87623659Y-99642137D01*
X87731249Y-99570247D01*
X87822747Y-99478749D01*
X87894637Y-99371159D01*
X87944155Y-99251611D01*
X87961095Y-99166451D01*
X87969400Y-99124701D01*
X87969400Y-98995298D01*
X87950693Y-98901256D01*
X87950693Y-98901255D01*
X87947468Y-98885045D01*
X87944155Y-98868389D01*
X87932396Y-98840000D01*
X97435269Y-98840000D01*
X98329488Y-98840000D01*
X98296575Y-98897007D01*
X98262500Y-99024174D01*
X98262500Y-99155826D01*
X98296575Y-99282993D01*
X98329488Y-99340000D01*
X97435269Y-99340000D01*
X97445742Y-99406126D01*
X97445742Y-99406129D01*
X97511404Y-99608217D01*
X97607879Y-99797557D01*
X97732772Y-99969459D01*
X97732776Y-99969464D01*
X97883035Y-100119723D01*
X97883040Y-100119727D01*
X98054942Y-100244620D01*
X98244284Y-100341096D01*
X98343211Y-100373239D01*
X98400887Y-100412676D01*
X98428086Y-100477034D01*
X98416172Y-100545881D01*
X98368928Y-100597357D01*
X98343222Y-100609097D01*
X98342022Y-100609487D01*
X98340050Y-100610128D01*
X98185711Y-100688768D01*
X98141446Y-100720929D01*
X98045572Y-100790586D01*
X98045570Y-100790588D01*
X98045569Y-100790588D01*
X97923088Y-100913069D01*
X97923088Y-100913070D01*
X97923086Y-100913072D01*
X97896575Y-100949561D01*
X97821268Y-101053211D01*
X97742628Y-101207552D01*
X97689097Y-101372302D01*
X97683381Y-101408394D01*
X97662000Y-101543389D01*
X97662000Y-101716611D01*
X97665723Y-101740117D01*
X97685716Y-101866352D01*
X97689098Y-101887701D01*
X97742627Y-102052445D01*
X97821268Y-102206788D01*
X97923086Y-102346928D01*
X98045572Y-102469414D01*
X98185712Y-102571232D01*
X98340055Y-102649873D01*
X98504799Y-102703402D01*
X98675889Y-102730500D01*
X98675890Y-102730500D01*
X98849110Y-102730500D01*
X98849111Y-102730500D01*
X99020201Y-102703402D01*
X99184945Y-102649873D01*
X99339288Y-102571232D01*
X99479428Y-102469414D01*
X99601914Y-102346928D01*
X99703732Y-102206788D01*
X99782373Y-102052445D01*
X99835902Y-101887701D01*
X99863000Y-101716611D01*
X99863000Y-101543389D01*
X99835902Y-101372299D01*
X99782373Y-101207555D01*
X99703732Y-101053212D01*
X99601914Y-100913072D01*
X99479428Y-100790586D01*
X99339288Y-100688768D01*
X99321187Y-100679545D01*
X99184946Y-100610127D01*
X99181784Y-100609100D01*
X99180736Y-100608383D01*
X99180452Y-100608266D01*
X99180476Y-100608206D01*
X99124109Y-100569661D01*
X99096913Y-100505302D01*
X99108829Y-100436456D01*
X99156074Y-100384981D01*
X99181788Y-100373239D01*
X99280715Y-100341096D01*
X99470057Y-100244620D01*
X99641959Y-100119727D01*
X99641964Y-100119723D01*
X99792223Y-99969464D01*
X99792227Y-99969459D01*
X99917120Y-99797557D01*
X100013596Y-99608215D01*
X100045739Y-99509288D01*
X100085176Y-99451612D01*
X100149534Y-99424413D01*
X100218380Y-99436327D01*
X100269857Y-99483571D01*
X100281600Y-99509284D01*
X100282627Y-99512446D01*
X100312078Y-99570247D01*
X100361268Y-99666788D01*
X100463086Y-99806928D01*
X100585572Y-99929414D01*
X100725712Y-100031232D01*
X100880055Y-100109873D01*
X101044799Y-100163402D01*
X101215889Y-100190500D01*
X101215890Y-100190500D01*
X101389110Y-100190500D01*
X101389111Y-100190500D01*
X101560201Y-100163402D01*
X101724945Y-100109873D01*
X101879288Y-100031232D01*
X102019428Y-99929414D01*
X102141914Y-99806928D01*
X102243732Y-99666788D01*
X102322373Y-99512445D01*
X102375902Y-99347701D01*
X102384114Y-99295851D01*
X110523149Y-99295851D01*
X110548393Y-99422755D01*
X110548396Y-99422765D01*
X110597910Y-99542304D01*
X110597911Y-99542306D01*
X110669802Y-99649898D01*
X110669805Y-99649902D01*
X110761297Y-99741394D01*
X110761301Y-99741397D01*
X110868891Y-99813287D01*
X110868892Y-99813287D01*
X110868893Y-99813288D01*
X110868895Y-99813289D01*
X110893371Y-99823427D01*
X110988439Y-99862805D01*
X110988443Y-99862805D01*
X110988444Y-99862806D01*
X111115348Y-99888050D01*
X111115351Y-99888050D01*
X111244751Y-99888050D01*
X111330128Y-99871066D01*
X111371661Y-99862805D01*
X111491209Y-99813287D01*
X111598799Y-99741397D01*
X111690297Y-99649899D01*
X111762187Y-99542309D01*
X111811705Y-99422761D01*
X111821971Y-99371154D01*
X111836950Y-99295851D01*
X111836950Y-99166448D01*
X111811706Y-99039544D01*
X111811705Y-99039543D01*
X111811705Y-99039539D01*
X111776858Y-98955410D01*
X111762189Y-98919995D01*
X111762188Y-98919993D01*
X111758480Y-98914444D01*
X111690297Y-98812401D01*
X111690294Y-98812397D01*
X111598802Y-98720905D01*
X111598798Y-98720902D01*
X111491206Y-98649011D01*
X111491204Y-98649010D01*
X111371665Y-98599496D01*
X111371655Y-98599493D01*
X111244751Y-98574250D01*
X111244749Y-98574250D01*
X111115351Y-98574250D01*
X111115349Y-98574250D01*
X110988444Y-98599493D01*
X110988434Y-98599496D01*
X110868895Y-98649010D01*
X110868893Y-98649011D01*
X110761301Y-98720902D01*
X110761297Y-98720905D01*
X110669805Y-98812397D01*
X110669802Y-98812401D01*
X110597911Y-98919993D01*
X110597910Y-98919995D01*
X110548396Y-99039534D01*
X110548393Y-99039544D01*
X110523150Y-99166448D01*
X110523150Y-99166451D01*
X110523150Y-99295849D01*
X110523150Y-99295851D01*
X110523149Y-99295851D01*
X102384114Y-99295851D01*
X102403000Y-99176611D01*
X102403000Y-99003389D01*
X102375902Y-98832299D01*
X102322373Y-98667555D01*
X102243732Y-98513212D01*
X102141914Y-98373072D01*
X102019428Y-98250586D01*
X101879288Y-98148768D01*
X101724945Y-98070127D01*
X101560201Y-98016598D01*
X101560199Y-98016597D01*
X101560198Y-98016597D01*
X101428771Y-97995781D01*
X101389111Y-97989500D01*
X101215889Y-97989500D01*
X101176228Y-97995781D01*
X101044802Y-98016597D01*
X100880052Y-98070128D01*
X100725711Y-98148768D01*
X100680257Y-98181793D01*
X100585572Y-98250586D01*
X100585570Y-98250588D01*
X100585569Y-98250588D01*
X100463088Y-98373069D01*
X100463088Y-98373070D01*
X100463086Y-98373072D01*
X100437560Y-98408206D01*
X100361268Y-98513211D01*
X100282628Y-98667550D01*
X100281599Y-98670720D01*
X100280881Y-98671769D01*
X100280766Y-98672048D01*
X100280707Y-98672023D01*
X100242157Y-98728393D01*
X100177797Y-98755587D01*
X100108951Y-98743668D01*
X100057479Y-98696420D01*
X100045739Y-98670711D01*
X100013596Y-98571784D01*
X99917120Y-98382442D01*
X99792227Y-98210540D01*
X99792223Y-98210535D01*
X99641964Y-98060276D01*
X99641959Y-98060272D01*
X99470057Y-97935379D01*
X99280717Y-97838904D01*
X99181787Y-97806760D01*
X99124111Y-97767323D01*
X99096913Y-97702964D01*
X99108828Y-97634118D01*
X99156072Y-97582642D01*
X99181790Y-97570897D01*
X99184945Y-97569873D01*
X99339288Y-97491232D01*
X99479428Y-97389414D01*
X99601914Y-97266928D01*
X99703732Y-97126788D01*
X99782373Y-96972445D01*
X99835902Y-96807701D01*
X99863000Y-96636611D01*
X99863000Y-96463389D01*
X100202000Y-96463389D01*
X100202000Y-96636611D01*
X100205218Y-96656929D01*
X100228040Y-96801026D01*
X100229098Y-96807701D01*
X100282627Y-96972445D01*
X100361268Y-97126788D01*
X100463086Y-97266928D01*
X100585572Y-97389414D01*
X100725712Y-97491232D01*
X100880055Y-97569873D01*
X101044799Y-97623402D01*
X101215889Y-97650500D01*
X101215890Y-97650500D01*
X101389110Y-97650500D01*
X101389111Y-97650500D01*
X101560201Y-97623402D01*
X101724945Y-97569873D01*
X101879288Y-97491232D01*
X102019428Y-97389414D01*
X102062141Y-97346701D01*
X107089899Y-97346701D01*
X107115143Y-97473605D01*
X107115146Y-97473615D01*
X107164660Y-97593154D01*
X107164661Y-97593156D01*
X107236552Y-97700748D01*
X107236555Y-97700752D01*
X107328047Y-97792244D01*
X107328051Y-97792247D01*
X107435641Y-97864137D01*
X107435642Y-97864137D01*
X107435643Y-97864138D01*
X107435645Y-97864139D01*
X107517114Y-97897884D01*
X107555189Y-97913655D01*
X107555193Y-97913655D01*
X107555194Y-97913656D01*
X107682098Y-97938900D01*
X107682101Y-97938900D01*
X107811501Y-97938900D01*
X107909238Y-97919458D01*
X107938411Y-97913655D01*
X108057959Y-97864137D01*
X108165549Y-97792247D01*
X108257047Y-97700749D01*
X108328937Y-97593159D01*
X108378455Y-97473611D01*
X108403700Y-97346699D01*
X108403700Y-97217301D01*
X108403700Y-97217298D01*
X108378456Y-97090394D01*
X108378455Y-97090393D01*
X108378455Y-97090389D01*
X108363901Y-97055252D01*
X108328939Y-96970845D01*
X108328938Y-96970843D01*
X108297243Y-96923409D01*
X108257047Y-96863251D01*
X108257044Y-96863247D01*
X108165552Y-96771755D01*
X108165548Y-96771752D01*
X108057956Y-96699861D01*
X108057954Y-96699860D01*
X107938415Y-96650346D01*
X107938405Y-96650343D01*
X107811501Y-96625100D01*
X107811499Y-96625100D01*
X107682101Y-96625100D01*
X107682099Y-96625100D01*
X107555194Y-96650343D01*
X107555184Y-96650346D01*
X107435645Y-96699860D01*
X107435643Y-96699861D01*
X107328051Y-96771752D01*
X107328047Y-96771755D01*
X107236555Y-96863247D01*
X107236552Y-96863251D01*
X107164661Y-96970843D01*
X107164660Y-96970845D01*
X107115146Y-97090384D01*
X107115143Y-97090394D01*
X107089900Y-97217298D01*
X107089900Y-97217301D01*
X107089900Y-97346699D01*
X107089900Y-97346701D01*
X107089899Y-97346701D01*
X102062141Y-97346701D01*
X102141914Y-97266928D01*
X102243732Y-97126788D01*
X102322373Y-96972445D01*
X102375902Y-96807701D01*
X102403000Y-96636611D01*
X102403000Y-96463389D01*
X102375902Y-96292299D01*
X102322373Y-96127555D01*
X102243732Y-95973212D01*
X102141914Y-95833072D01*
X102019428Y-95710586D01*
X101879288Y-95608768D01*
X101724945Y-95530127D01*
X101560201Y-95476598D01*
X101560199Y-95476597D01*
X101560198Y-95476597D01*
X101428771Y-95455781D01*
X101389111Y-95449500D01*
X101215889Y-95449500D01*
X101176228Y-95455781D01*
X101044802Y-95476597D01*
X100880052Y-95530128D01*
X100725711Y-95608768D01*
X100656550Y-95659017D01*
X100585572Y-95710586D01*
X100585570Y-95710588D01*
X100585569Y-95710588D01*
X100463088Y-95833069D01*
X100463088Y-95833070D01*
X100463086Y-95833072D01*
X100423572Y-95887458D01*
X100361268Y-95973211D01*
X100282628Y-96127552D01*
X100229097Y-96292302D01*
X100215808Y-96376206D01*
X100202000Y-96463389D01*
X99863000Y-96463389D01*
X99835902Y-96292299D01*
X99782373Y-96127555D01*
X99703732Y-95973212D01*
X99601914Y-95833072D01*
X99479428Y-95710586D01*
X99339288Y-95608768D01*
X99184945Y-95530127D01*
X99020201Y-95476598D01*
X99020199Y-95476597D01*
X99020198Y-95476597D01*
X98888771Y-95455781D01*
X98849111Y-95449500D01*
X98675889Y-95449500D01*
X98636228Y-95455781D01*
X98504802Y-95476597D01*
X98340052Y-95530128D01*
X98185711Y-95608768D01*
X98116550Y-95659017D01*
X98045572Y-95710586D01*
X98045570Y-95710588D01*
X98045569Y-95710588D01*
X97923088Y-95833069D01*
X97923088Y-95833070D01*
X97923086Y-95833072D01*
X97883572Y-95887458D01*
X97821268Y-95973211D01*
X97742628Y-96127552D01*
X97689097Y-96292302D01*
X97675808Y-96376206D01*
X97662000Y-96463389D01*
X97662000Y-96636611D01*
X97665218Y-96656929D01*
X97688040Y-96801026D01*
X97689098Y-96807701D01*
X97742627Y-96972445D01*
X97821268Y-97126788D01*
X97923086Y-97266928D01*
X98045572Y-97389414D01*
X98185712Y-97491232D01*
X98340055Y-97569873D01*
X98343208Y-97570897D01*
X98344252Y-97571611D01*
X98344548Y-97571734D01*
X98344522Y-97571795D01*
X98400883Y-97610330D01*
X98428085Y-97674688D01*
X98416174Y-97743535D01*
X98368933Y-97795013D01*
X98343212Y-97806760D01*
X98244283Y-97838904D01*
X98054942Y-97935379D01*
X97883040Y-98060272D01*
X97883035Y-98060276D01*
X97732776Y-98210535D01*
X97732772Y-98210540D01*
X97607879Y-98382442D01*
X97511404Y-98571782D01*
X97445742Y-98773870D01*
X97445742Y-98773873D01*
X97435269Y-98840000D01*
X87932396Y-98840000D01*
X87929507Y-98833026D01*
X87894639Y-98748845D01*
X87894638Y-98748843D01*
X87875970Y-98720905D01*
X87822747Y-98641251D01*
X87822744Y-98641247D01*
X87731252Y-98549755D01*
X87731248Y-98549752D01*
X87623656Y-98477861D01*
X87623654Y-98477860D01*
X87504115Y-98428346D01*
X87504105Y-98428343D01*
X87377201Y-98403100D01*
X87377199Y-98403100D01*
X87247801Y-98403100D01*
X87247799Y-98403100D01*
X87120894Y-98428343D01*
X87120884Y-98428346D01*
X87001345Y-98477860D01*
X87001343Y-98477861D01*
X86893751Y-98549752D01*
X86893747Y-98549755D01*
X86802255Y-98641247D01*
X86802252Y-98641251D01*
X86730361Y-98748843D01*
X86730360Y-98748845D01*
X86680846Y-98868384D01*
X86680843Y-98868394D01*
X86655600Y-98995298D01*
X86655600Y-98995301D01*
X86655600Y-99124699D01*
X86655600Y-99124701D01*
X86655599Y-99124701D01*
X71803852Y-99124701D01*
X71741210Y-99062059D01*
X71741206Y-99062056D01*
X71653405Y-99003389D01*
X71581599Y-98955409D01*
X71581596Y-98955407D01*
X71581595Y-98955407D01*
X71581594Y-98955406D01*
X71490225Y-98917561D01*
X71435821Y-98873721D01*
X71413756Y-98807427D01*
X71431035Y-98739727D01*
X71482172Y-98692117D01*
X71490225Y-98688439D01*
X71581594Y-98650593D01*
X71581593Y-98650593D01*
X71581599Y-98650591D01*
X71741207Y-98543943D01*
X71876943Y-98408207D01*
X71983591Y-98248599D01*
X72057050Y-98071251D01*
X72075647Y-97977758D01*
X72094500Y-97882982D01*
X72094500Y-97691017D01*
X72057051Y-97502755D01*
X72057050Y-97502749D01*
X72010106Y-97389414D01*
X71983593Y-97325405D01*
X71983592Y-97325404D01*
X71983591Y-97325401D01*
X71876943Y-97165793D01*
X71876940Y-97165789D01*
X71741210Y-97030059D01*
X71741206Y-97030056D01*
X71668036Y-96981165D01*
X71581599Y-96923409D01*
X71581596Y-96923407D01*
X71581595Y-96923407D01*
X71581594Y-96923406D01*
X71490225Y-96885561D01*
X71435821Y-96841721D01*
X71413756Y-96775427D01*
X71431035Y-96707727D01*
X71482172Y-96660117D01*
X71490225Y-96656439D01*
X71581594Y-96618593D01*
X71581593Y-96618593D01*
X71581599Y-96618591D01*
X71741207Y-96511943D01*
X71876943Y-96376207D01*
X71983591Y-96216599D01*
X72057050Y-96039251D01*
X72075647Y-95945758D01*
X72094500Y-95850982D01*
X72094500Y-95659017D01*
X72057051Y-95470755D01*
X72057050Y-95470749D01*
X71983591Y-95293401D01*
X71887506Y-95149601D01*
X110570299Y-95149601D01*
X110595543Y-95276505D01*
X110595546Y-95276515D01*
X110645060Y-95396054D01*
X110645061Y-95396056D01*
X110716952Y-95503648D01*
X110716955Y-95503652D01*
X110808447Y-95595144D01*
X110808451Y-95595147D01*
X110916041Y-95667037D01*
X110916042Y-95667037D01*
X110916043Y-95667038D01*
X110916045Y-95667039D01*
X111021178Y-95710586D01*
X111035589Y-95716555D01*
X111035593Y-95716555D01*
X111035594Y-95716556D01*
X111162498Y-95741800D01*
X111162501Y-95741800D01*
X111291901Y-95741800D01*
X111377278Y-95724816D01*
X111418811Y-95716555D01*
X111538359Y-95667037D01*
X111645949Y-95595147D01*
X111737447Y-95503649D01*
X111809337Y-95396059D01*
X111858855Y-95276511D01*
X111884100Y-95149599D01*
X111884100Y-95020201D01*
X111884100Y-95020198D01*
X111858856Y-94893294D01*
X111858855Y-94893293D01*
X111858855Y-94893289D01*
X111858076Y-94891409D01*
X111809339Y-94773745D01*
X111809338Y-94773743D01*
X111796381Y-94754352D01*
X111737447Y-94666151D01*
X111737444Y-94666147D01*
X111645952Y-94574655D01*
X111645948Y-94574652D01*
X111538356Y-94502761D01*
X111538354Y-94502760D01*
X111418815Y-94453246D01*
X111418805Y-94453243D01*
X111291901Y-94428000D01*
X111291899Y-94428000D01*
X111162501Y-94428000D01*
X111162499Y-94428000D01*
X111035594Y-94453243D01*
X111035584Y-94453246D01*
X110916045Y-94502760D01*
X110916043Y-94502761D01*
X110808451Y-94574652D01*
X110808447Y-94574655D01*
X110716955Y-94666147D01*
X110716952Y-94666151D01*
X110645061Y-94773743D01*
X110645060Y-94773745D01*
X110595546Y-94893284D01*
X110595543Y-94893294D01*
X110570300Y-95020198D01*
X110570300Y-95020201D01*
X110570300Y-95149599D01*
X110570300Y-95149601D01*
X110570299Y-95149601D01*
X71887506Y-95149601D01*
X71876943Y-95133793D01*
X71876940Y-95133789D01*
X71741210Y-94998059D01*
X71741206Y-94998056D01*
X71671125Y-94951229D01*
X71581599Y-94891409D01*
X71581596Y-94891407D01*
X71581595Y-94891407D01*
X71581594Y-94891406D01*
X71404252Y-94817950D01*
X71404244Y-94817948D01*
X71215982Y-94780500D01*
X71215980Y-94780500D01*
X71024020Y-94780500D01*
X71024018Y-94780500D01*
X70835755Y-94817948D01*
X70835747Y-94817950D01*
X70658405Y-94891406D01*
X70658404Y-94891407D01*
X70498793Y-94998056D01*
X70498789Y-94998059D01*
X70363059Y-95133789D01*
X70363056Y-95133793D01*
X70256407Y-95293404D01*
X70256406Y-95293405D01*
X70182950Y-95470747D01*
X70182948Y-95470755D01*
X70145500Y-95659017D01*
X70145500Y-95850984D01*
X70152755Y-95887458D01*
X70146528Y-95957050D01*
X70103664Y-96012227D01*
X70037774Y-96035471D01*
X69969777Y-96019403D01*
X69962247Y-96014751D01*
X69801596Y-95907407D01*
X69801594Y-95907406D01*
X69624252Y-95833950D01*
X69624244Y-95833948D01*
X69435982Y-95796500D01*
X69435980Y-95796500D01*
X69244020Y-95796500D01*
X69244018Y-95796500D01*
X69055755Y-95833948D01*
X69055747Y-95833950D01*
X68878405Y-95907406D01*
X68878404Y-95907407D01*
X68718793Y-96014056D01*
X68718789Y-96014059D01*
X68583059Y-96149789D01*
X68583056Y-96149793D01*
X68476407Y-96309404D01*
X68476406Y-96309405D01*
X68402950Y-96486747D01*
X68402948Y-96486755D01*
X68365500Y-96675017D01*
X68365500Y-96675018D01*
X68365500Y-96675020D01*
X68365500Y-96866980D01*
X68365500Y-96866982D01*
X68365499Y-96866982D01*
X63881500Y-96866982D01*
X63881500Y-94400301D01*
X87430299Y-94400301D01*
X87455543Y-94527205D01*
X87455546Y-94527215D01*
X87505060Y-94646754D01*
X87505061Y-94646756D01*
X87576952Y-94754348D01*
X87576955Y-94754352D01*
X87668447Y-94845844D01*
X87668451Y-94845847D01*
X87776041Y-94917737D01*
X87776042Y-94917737D01*
X87776043Y-94917738D01*
X87776045Y-94917739D01*
X87895584Y-94967253D01*
X87895589Y-94967255D01*
X87895593Y-94967255D01*
X87895594Y-94967256D01*
X88022498Y-94992500D01*
X88022501Y-94992500D01*
X88151901Y-94992500D01*
X88237278Y-94975516D01*
X88278811Y-94967255D01*
X88398359Y-94917737D01*
X88505949Y-94845847D01*
X88597447Y-94754349D01*
X88669337Y-94646759D01*
X88718855Y-94527211D01*
X88744100Y-94400299D01*
X88744100Y-94270901D01*
X88744100Y-94270898D01*
X88718856Y-94143994D01*
X88718855Y-94143993D01*
X88718855Y-94143989D01*
X88693944Y-94083847D01*
X88669339Y-94024445D01*
X88669338Y-94024443D01*
X88647895Y-93992352D01*
X88601816Y-93923389D01*
X97662000Y-93923389D01*
X97662000Y-94096610D01*
X97679207Y-94205255D01*
X97689098Y-94267701D01*
X97742627Y-94432445D01*
X97821268Y-94586788D01*
X97923086Y-94726928D01*
X98045572Y-94849414D01*
X98185712Y-94951232D01*
X98340055Y-95029873D01*
X98504799Y-95083402D01*
X98675889Y-95110500D01*
X98675890Y-95110500D01*
X98849110Y-95110500D01*
X98849111Y-95110500D01*
X99020201Y-95083402D01*
X99184945Y-95029873D01*
X99339288Y-94951232D01*
X99479428Y-94849414D01*
X99601914Y-94726928D01*
X99703732Y-94586788D01*
X99782373Y-94432445D01*
X99835902Y-94267701D01*
X99863000Y-94096611D01*
X99863000Y-93923389D01*
X99835902Y-93752299D01*
X99782373Y-93587555D01*
X99703732Y-93433212D01*
X99601914Y-93293072D01*
X99479428Y-93170586D01*
X99339288Y-93068768D01*
X99184945Y-92990127D01*
X99020201Y-92936598D01*
X99020199Y-92936597D01*
X99020198Y-92936597D01*
X98888771Y-92915781D01*
X98849111Y-92909500D01*
X98675889Y-92909500D01*
X98636228Y-92915781D01*
X98504802Y-92936597D01*
X98504799Y-92936598D01*
X98345423Y-92988383D01*
X98340052Y-92990128D01*
X98185711Y-93068768D01*
X98105756Y-93126859D01*
X98045572Y-93170586D01*
X98045570Y-93170588D01*
X98045569Y-93170588D01*
X97923088Y-93293069D01*
X97923088Y-93293070D01*
X97923086Y-93293072D01*
X97879359Y-93353256D01*
X97821268Y-93433211D01*
X97742628Y-93587552D01*
X97742627Y-93587554D01*
X97742627Y-93587555D01*
X97715862Y-93669927D01*
X97689097Y-93752302D01*
X97662000Y-93923389D01*
X88601816Y-93923389D01*
X88597447Y-93916851D01*
X88597444Y-93916847D01*
X88505952Y-93825355D01*
X88505948Y-93825352D01*
X88398356Y-93753461D01*
X88398354Y-93753460D01*
X88278815Y-93703946D01*
X88278805Y-93703943D01*
X88151901Y-93678700D01*
X88151899Y-93678700D01*
X88022501Y-93678700D01*
X88022499Y-93678700D01*
X87895594Y-93703943D01*
X87895584Y-93703946D01*
X87776045Y-93753460D01*
X87776043Y-93753461D01*
X87668451Y-93825352D01*
X87668447Y-93825355D01*
X87576955Y-93916847D01*
X87576952Y-93916851D01*
X87505061Y-94024443D01*
X87505060Y-94024445D01*
X87455546Y-94143984D01*
X87455543Y-94143994D01*
X87430300Y-94270898D01*
X87430300Y-94270901D01*
X87430300Y-94400299D01*
X87430300Y-94400301D01*
X87430299Y-94400301D01*
X63881500Y-94400301D01*
X63881500Y-91383389D01*
X97662000Y-91383389D01*
X97662000Y-91556610D01*
X97671462Y-91616355D01*
X97689098Y-91727701D01*
X97742627Y-91892445D01*
X97821268Y-92046788D01*
X97923086Y-92186928D01*
X98045572Y-92309414D01*
X98185712Y-92411232D01*
X98340055Y-92489873D01*
X98504799Y-92543402D01*
X98675889Y-92570500D01*
X98675890Y-92570500D01*
X98849110Y-92570500D01*
X98849111Y-92570500D01*
X99020201Y-92543402D01*
X99184945Y-92489873D01*
X99339288Y-92411232D01*
X99479428Y-92309414D01*
X99601914Y-92186928D01*
X99703732Y-92046788D01*
X99782373Y-91892445D01*
X99783396Y-91889294D01*
X99784110Y-91888250D01*
X99784234Y-91887952D01*
X99784296Y-91887977D01*
X99822827Y-91831618D01*
X99887183Y-91804415D01*
X99956030Y-91816323D01*
X100007511Y-91863562D01*
X100019260Y-91889287D01*
X100051404Y-91988217D01*
X100147879Y-92177557D01*
X100272772Y-92349459D01*
X100272776Y-92349464D01*
X100423035Y-92499723D01*
X100423040Y-92499727D01*
X100594942Y-92624620D01*
X100784284Y-92721096D01*
X100883211Y-92753239D01*
X100940887Y-92792676D01*
X100968086Y-92857034D01*
X100956172Y-92925881D01*
X100908928Y-92977357D01*
X100883222Y-92989097D01*
X100882022Y-92989487D01*
X100880050Y-92990128D01*
X100725711Y-93068768D01*
X100645756Y-93126859D01*
X100585572Y-93170586D01*
X100585570Y-93170588D01*
X100585569Y-93170588D01*
X100463088Y-93293069D01*
X100463088Y-93293070D01*
X100463086Y-93293072D01*
X100419359Y-93353256D01*
X100361268Y-93433211D01*
X100282628Y-93587552D01*
X100282627Y-93587554D01*
X100282627Y-93587555D01*
X100255862Y-93669927D01*
X100229097Y-93752302D01*
X100202000Y-93923389D01*
X100202000Y-94096610D01*
X100219207Y-94205255D01*
X100229098Y-94267701D01*
X100282627Y-94432445D01*
X100361268Y-94586788D01*
X100463086Y-94726928D01*
X100585572Y-94849414D01*
X100725712Y-94951232D01*
X100880055Y-95029873D01*
X101044799Y-95083402D01*
X101215889Y-95110500D01*
X101215890Y-95110500D01*
X101389110Y-95110500D01*
X101389111Y-95110500D01*
X101560201Y-95083402D01*
X101724945Y-95029873D01*
X101879288Y-94951232D01*
X102019428Y-94849414D01*
X102141914Y-94726928D01*
X102243732Y-94586788D01*
X102322373Y-94432445D01*
X102375902Y-94267701D01*
X102403000Y-94096611D01*
X102403000Y-93923389D01*
X102375902Y-93752299D01*
X102338862Y-93638301D01*
X106988299Y-93638301D01*
X107013543Y-93765205D01*
X107013546Y-93765215D01*
X107063060Y-93884754D01*
X107063061Y-93884756D01*
X107134952Y-93992348D01*
X107134955Y-93992352D01*
X107226447Y-94083844D01*
X107226451Y-94083847D01*
X107334041Y-94155737D01*
X107334042Y-94155737D01*
X107334043Y-94155738D01*
X107334045Y-94155739D01*
X107453584Y-94205253D01*
X107453589Y-94205255D01*
X107453593Y-94205255D01*
X107453594Y-94205256D01*
X107580498Y-94230500D01*
X107580501Y-94230500D01*
X107709901Y-94230500D01*
X107795278Y-94213516D01*
X107836811Y-94205255D01*
X107956359Y-94155737D01*
X108063949Y-94083847D01*
X108155447Y-93992349D01*
X108227337Y-93884759D01*
X108276855Y-93765211D01*
X108302100Y-93638299D01*
X108302100Y-93508901D01*
X108302100Y-93508898D01*
X108276856Y-93381994D01*
X108276855Y-93381993D01*
X108276855Y-93381989D01*
X108240024Y-93293070D01*
X108227339Y-93262445D01*
X108227338Y-93262443D01*
X108155447Y-93154851D01*
X108155444Y-93154847D01*
X108063952Y-93063355D01*
X108063948Y-93063352D01*
X107956356Y-92991461D01*
X107956354Y-92991460D01*
X107836815Y-92941946D01*
X107836805Y-92941943D01*
X107709901Y-92916700D01*
X107709899Y-92916700D01*
X107580501Y-92916700D01*
X107580499Y-92916700D01*
X107453594Y-92941943D01*
X107453584Y-92941946D01*
X107334045Y-92991460D01*
X107334043Y-92991461D01*
X107226451Y-93063352D01*
X107226447Y-93063355D01*
X107134955Y-93154847D01*
X107134952Y-93154851D01*
X107063061Y-93262443D01*
X107063060Y-93262445D01*
X107013546Y-93381984D01*
X107013543Y-93381994D01*
X106988300Y-93508898D01*
X106988300Y-93508901D01*
X106988300Y-93638299D01*
X106988300Y-93638301D01*
X106988299Y-93638301D01*
X102338862Y-93638301D01*
X102322373Y-93587555D01*
X102322370Y-93587549D01*
X102307878Y-93559105D01*
X102307877Y-93559104D01*
X102243731Y-93433211D01*
X102141914Y-93293072D01*
X102019428Y-93170586D01*
X101879288Y-93068768D01*
X101868658Y-93063352D01*
X101724946Y-92990127D01*
X101721784Y-92989100D01*
X101720736Y-92988383D01*
X101720452Y-92988266D01*
X101720476Y-92988206D01*
X101664109Y-92949661D01*
X101636913Y-92885302D01*
X101648829Y-92816456D01*
X101696074Y-92764981D01*
X101721788Y-92753239D01*
X101820715Y-92721096D01*
X102010057Y-92624620D01*
X102181959Y-92499727D01*
X102181964Y-92499723D01*
X102332223Y-92349464D01*
X102332227Y-92349459D01*
X102457120Y-92177557D01*
X102553595Y-91988217D01*
X102619257Y-91786129D01*
X102619257Y-91786126D01*
X102629731Y-91720000D01*
X101735512Y-91720000D01*
X101768425Y-91662993D01*
X101802500Y-91535826D01*
X101802500Y-91404174D01*
X101768425Y-91277007D01*
X101735512Y-91220000D01*
X102629731Y-91220000D01*
X102619257Y-91153873D01*
X102619257Y-91153870D01*
X102585313Y-91049401D01*
X110523149Y-91049401D01*
X110548393Y-91176305D01*
X110548396Y-91176315D01*
X110597910Y-91295854D01*
X110597911Y-91295856D01*
X110669802Y-91403448D01*
X110669805Y-91403452D01*
X110761297Y-91494944D01*
X110761301Y-91494947D01*
X110868891Y-91566837D01*
X110868892Y-91566837D01*
X110868893Y-91566838D01*
X110868895Y-91566839D01*
X110939297Y-91596000D01*
X110988439Y-91616355D01*
X110988443Y-91616355D01*
X110988444Y-91616356D01*
X111115348Y-91641600D01*
X111115351Y-91641600D01*
X111244751Y-91641600D01*
X111330128Y-91624616D01*
X111371661Y-91616355D01*
X111491209Y-91566837D01*
X111598799Y-91494947D01*
X111690297Y-91403449D01*
X111762187Y-91295859D01*
X111811705Y-91176311D01*
X111836950Y-91049399D01*
X111836950Y-90920001D01*
X111836950Y-90919998D01*
X111811706Y-90793094D01*
X111811705Y-90793093D01*
X111811705Y-90793089D01*
X111762187Y-90673541D01*
X111690297Y-90565951D01*
X111690294Y-90565947D01*
X111598802Y-90474455D01*
X111598798Y-90474452D01*
X111491206Y-90402561D01*
X111491204Y-90402560D01*
X111371665Y-90353046D01*
X111371655Y-90353043D01*
X111244751Y-90327800D01*
X111244749Y-90327800D01*
X111115351Y-90327800D01*
X111115349Y-90327800D01*
X110988444Y-90353043D01*
X110988434Y-90353046D01*
X110868895Y-90402560D01*
X110868893Y-90402561D01*
X110761301Y-90474452D01*
X110761297Y-90474455D01*
X110669805Y-90565947D01*
X110669802Y-90565951D01*
X110597911Y-90673543D01*
X110597910Y-90673545D01*
X110548396Y-90793084D01*
X110548393Y-90793094D01*
X110523150Y-90919998D01*
X110523150Y-90920001D01*
X110523150Y-91049399D01*
X110523150Y-91049401D01*
X110523149Y-91049401D01*
X102585313Y-91049401D01*
X102553740Y-90952227D01*
X102553739Y-90952225D01*
X102553596Y-90951785D01*
X102457120Y-90762442D01*
X102332227Y-90590540D01*
X102332223Y-90590535D01*
X102181964Y-90440276D01*
X102181959Y-90440272D01*
X102010057Y-90315379D01*
X101820717Y-90218904D01*
X101721787Y-90186760D01*
X101664111Y-90147323D01*
X101636913Y-90082964D01*
X101648828Y-90014118D01*
X101696072Y-89962642D01*
X101721790Y-89950897D01*
X101724945Y-89949873D01*
X101879288Y-89871232D01*
X102019428Y-89769414D01*
X102141914Y-89646928D01*
X102243732Y-89506788D01*
X102261100Y-89472701D01*
X107140699Y-89472701D01*
X107165943Y-89599605D01*
X107165946Y-89599615D01*
X107215460Y-89719154D01*
X107215461Y-89719156D01*
X107287352Y-89826748D01*
X107287355Y-89826752D01*
X107378847Y-89918244D01*
X107378851Y-89918247D01*
X107486441Y-89990137D01*
X107486442Y-89990137D01*
X107486443Y-89990138D01*
X107486445Y-89990139D01*
X107605984Y-90039653D01*
X107605989Y-90039655D01*
X107605993Y-90039655D01*
X107605994Y-90039656D01*
X107732898Y-90064900D01*
X107732901Y-90064900D01*
X107862301Y-90064900D01*
X107961114Y-90045244D01*
X107989211Y-90039655D01*
X108108759Y-89990137D01*
X108216349Y-89918247D01*
X108307847Y-89826749D01*
X108379737Y-89719159D01*
X108429255Y-89599611D01*
X108454500Y-89472699D01*
X108454500Y-89343301D01*
X108454500Y-89343298D01*
X108429256Y-89216394D01*
X108429255Y-89216393D01*
X108429255Y-89216389D01*
X108417371Y-89187698D01*
X108379739Y-89096845D01*
X108379738Y-89096843D01*
X108326128Y-89016611D01*
X108307847Y-88989251D01*
X108307844Y-88989247D01*
X108216352Y-88897755D01*
X108216348Y-88897752D01*
X108108756Y-88825861D01*
X108108754Y-88825860D01*
X107989215Y-88776346D01*
X107989205Y-88776343D01*
X107862301Y-88751100D01*
X107862299Y-88751100D01*
X107732901Y-88751100D01*
X107732899Y-88751100D01*
X107605994Y-88776343D01*
X107605984Y-88776346D01*
X107486445Y-88825860D01*
X107486443Y-88825861D01*
X107378851Y-88897752D01*
X107378847Y-88897755D01*
X107287355Y-88989247D01*
X107287352Y-88989251D01*
X107215461Y-89096843D01*
X107215460Y-89096845D01*
X107165946Y-89216384D01*
X107165943Y-89216394D01*
X107140700Y-89343298D01*
X107140700Y-89343301D01*
X107140700Y-89472699D01*
X107140700Y-89472701D01*
X107140699Y-89472701D01*
X102261100Y-89472701D01*
X102322373Y-89352445D01*
X102375902Y-89187701D01*
X102403000Y-89016611D01*
X102403000Y-88843389D01*
X102375902Y-88672299D01*
X102322373Y-88507555D01*
X102243732Y-88353212D01*
X102141914Y-88213072D01*
X102019428Y-88090586D01*
X101879288Y-87988768D01*
X101724945Y-87910127D01*
X101560201Y-87856598D01*
X101560199Y-87856597D01*
X101560198Y-87856597D01*
X101428771Y-87835781D01*
X101389111Y-87829500D01*
X101215889Y-87829500D01*
X101176228Y-87835781D01*
X101044802Y-87856597D01*
X100880052Y-87910128D01*
X100725711Y-87988768D01*
X100645756Y-88046859D01*
X100585572Y-88090586D01*
X100585570Y-88090588D01*
X100585569Y-88090588D01*
X100463088Y-88213069D01*
X100463088Y-88213070D01*
X100463086Y-88213072D01*
X100419359Y-88273256D01*
X100361268Y-88353211D01*
X100282628Y-88507552D01*
X100229097Y-88672302D01*
X100204776Y-88825860D01*
X100202000Y-88843389D01*
X100202000Y-89016611D01*
X100203290Y-89024753D01*
X100229097Y-89187697D01*
X100229097Y-89187699D01*
X100229098Y-89187701D01*
X100282627Y-89352445D01*
X100361268Y-89506788D01*
X100463086Y-89646928D01*
X100585572Y-89769414D01*
X100725712Y-89871232D01*
X100880055Y-89949873D01*
X100883208Y-89950897D01*
X100884252Y-89951611D01*
X100884548Y-89951734D01*
X100884522Y-89951795D01*
X100940883Y-89990330D01*
X100968085Y-90054688D01*
X100956174Y-90123535D01*
X100908933Y-90175013D01*
X100883212Y-90186760D01*
X100784283Y-90218904D01*
X100594942Y-90315379D01*
X100423040Y-90440272D01*
X100423035Y-90440276D01*
X100272776Y-90590535D01*
X100272772Y-90590540D01*
X100147879Y-90762442D01*
X100051404Y-90951783D01*
X100019260Y-91050712D01*
X99979822Y-91108388D01*
X99915464Y-91135586D01*
X99846617Y-91123671D01*
X99795142Y-91076427D01*
X99783398Y-91050712D01*
X99782373Y-91047555D01*
X99703732Y-90893212D01*
X99601914Y-90753072D01*
X99479428Y-90630586D01*
X99339288Y-90528768D01*
X99184945Y-90450127D01*
X99020201Y-90396598D01*
X99020199Y-90396597D01*
X99020198Y-90396597D01*
X98888771Y-90375781D01*
X98849111Y-90369500D01*
X98675889Y-90369500D01*
X98636228Y-90375781D01*
X98504802Y-90396597D01*
X98340052Y-90450128D01*
X98185711Y-90528768D01*
X98134534Y-90565951D01*
X98045572Y-90630586D01*
X98045570Y-90630588D01*
X98045569Y-90630588D01*
X97923088Y-90753069D01*
X97923088Y-90753070D01*
X97923086Y-90753072D01*
X97894012Y-90793089D01*
X97821268Y-90893211D01*
X97742628Y-91047552D01*
X97689097Y-91212302D01*
X97662000Y-91383389D01*
X63881500Y-91383389D01*
X63881500Y-89599701D01*
X80438101Y-89599701D01*
X80463345Y-89726605D01*
X80463348Y-89726615D01*
X80512862Y-89846154D01*
X80512863Y-89846156D01*
X80584754Y-89953748D01*
X80584757Y-89953752D01*
X80676249Y-90045244D01*
X80676253Y-90045247D01*
X80783843Y-90117137D01*
X80783844Y-90117137D01*
X80783845Y-90117138D01*
X80783847Y-90117139D01*
X80799289Y-90123535D01*
X80903391Y-90166655D01*
X80903395Y-90166655D01*
X80903396Y-90166656D01*
X81030300Y-90191900D01*
X81030303Y-90191900D01*
X81159703Y-90191900D01*
X81245080Y-90174916D01*
X81286613Y-90166655D01*
X81406161Y-90117137D01*
X81513751Y-90045247D01*
X81605249Y-89953749D01*
X81677139Y-89846159D01*
X81726657Y-89726611D01*
X81742507Y-89646929D01*
X81751902Y-89599701D01*
X81751902Y-89470298D01*
X81726658Y-89343394D01*
X81726657Y-89343393D01*
X81726657Y-89343389D01*
X81677139Y-89223841D01*
X81605249Y-89116251D01*
X81605246Y-89116247D01*
X81513754Y-89024755D01*
X81513750Y-89024752D01*
X81406158Y-88952861D01*
X81286617Y-88903346D01*
X81286607Y-88903343D01*
X81159703Y-88878100D01*
X81159701Y-88878100D01*
X81030303Y-88878100D01*
X81030301Y-88878100D01*
X80903396Y-88903343D01*
X80903386Y-88903346D01*
X80783847Y-88952860D01*
X80783845Y-88952861D01*
X80676253Y-89024752D01*
X80676249Y-89024755D01*
X80584757Y-89116247D01*
X80584754Y-89116251D01*
X80512863Y-89223843D01*
X80512862Y-89223845D01*
X80463348Y-89343384D01*
X80463345Y-89343394D01*
X80438102Y-89470298D01*
X80438102Y-89470301D01*
X80438102Y-89599699D01*
X80438102Y-89599701D01*
X80438101Y-89599701D01*
X63881500Y-89599701D01*
X63881500Y-88843389D01*
X97662000Y-88843389D01*
X97662000Y-89016611D01*
X97663290Y-89024753D01*
X97689097Y-89187697D01*
X97689097Y-89187699D01*
X97689098Y-89187701D01*
X97742627Y-89352445D01*
X97821268Y-89506788D01*
X97923086Y-89646928D01*
X98045572Y-89769414D01*
X98185712Y-89871232D01*
X98340055Y-89949873D01*
X98504799Y-90003402D01*
X98675889Y-90030500D01*
X98675890Y-90030500D01*
X98849110Y-90030500D01*
X98849111Y-90030500D01*
X99020201Y-90003402D01*
X99184945Y-89949873D01*
X99339288Y-89871232D01*
X99479428Y-89769414D01*
X99601914Y-89646928D01*
X99703732Y-89506788D01*
X99782373Y-89352445D01*
X99835902Y-89187701D01*
X99863000Y-89016611D01*
X99863000Y-88843389D01*
X99835902Y-88672299D01*
X99782373Y-88507555D01*
X99703732Y-88353212D01*
X99601914Y-88213072D01*
X99479428Y-88090586D01*
X99339288Y-87988768D01*
X99184945Y-87910127D01*
X99020201Y-87856598D01*
X99020199Y-87856597D01*
X99020198Y-87856597D01*
X98888771Y-87835781D01*
X98849111Y-87829500D01*
X98675889Y-87829500D01*
X98636228Y-87835781D01*
X98504802Y-87856597D01*
X98340052Y-87910128D01*
X98185711Y-87988768D01*
X98105756Y-88046859D01*
X98045572Y-88090586D01*
X98045570Y-88090588D01*
X98045569Y-88090588D01*
X97923088Y-88213069D01*
X97923088Y-88213070D01*
X97923086Y-88213072D01*
X97879359Y-88273256D01*
X97821268Y-88353211D01*
X97742628Y-88507552D01*
X97689097Y-88672302D01*
X97664776Y-88825860D01*
X97662000Y-88843389D01*
X63881500Y-88843389D01*
X63881500Y-81116982D01*
X68365499Y-81116982D01*
X68402948Y-81305244D01*
X68402950Y-81305252D01*
X68476406Y-81482594D01*
X68476407Y-81482595D01*
X68476409Y-81482599D01*
X68533273Y-81567701D01*
X68583056Y-81642206D01*
X68583059Y-81642210D01*
X68718789Y-81777940D01*
X68718793Y-81777943D01*
X68878401Y-81884591D01*
X68878404Y-81884592D01*
X68878405Y-81884593D01*
X68969774Y-81922439D01*
X69024178Y-81966280D01*
X69046243Y-82032574D01*
X69028964Y-82100273D01*
X68977827Y-82147884D01*
X68969774Y-82151561D01*
X68878405Y-82189406D01*
X68878404Y-82189407D01*
X68718793Y-82296056D01*
X68718789Y-82296059D01*
X68583059Y-82431789D01*
X68583056Y-82431793D01*
X68476407Y-82591404D01*
X68476406Y-82591405D01*
X68402950Y-82768747D01*
X68402948Y-82768755D01*
X68365500Y-82957017D01*
X68365500Y-82957018D01*
X68365500Y-82957020D01*
X68365500Y-83148980D01*
X68365500Y-83148982D01*
X68365499Y-83148982D01*
X68402948Y-83337244D01*
X68402950Y-83337252D01*
X68476406Y-83514594D01*
X68476407Y-83514595D01*
X68476409Y-83514599D01*
X68477069Y-83515586D01*
X68583056Y-83674206D01*
X68583059Y-83674210D01*
X68718789Y-83809940D01*
X68718793Y-83809943D01*
X68878401Y-83916591D01*
X68878404Y-83916592D01*
X68878405Y-83916593D01*
X68969774Y-83954439D01*
X69024178Y-83998280D01*
X69046243Y-84064574D01*
X69028964Y-84132273D01*
X68977827Y-84179884D01*
X68969774Y-84183561D01*
X68878405Y-84221406D01*
X68878404Y-84221407D01*
X68718793Y-84328056D01*
X68718789Y-84328059D01*
X68583059Y-84463789D01*
X68583056Y-84463793D01*
X68476407Y-84623404D01*
X68476406Y-84623405D01*
X68402950Y-84800747D01*
X68402948Y-84800755D01*
X68365500Y-84989017D01*
X68365500Y-84989018D01*
X68365500Y-84989020D01*
X68365500Y-85180980D01*
X68365500Y-85180982D01*
X68365499Y-85180982D01*
X68402948Y-85369244D01*
X68402950Y-85369252D01*
X68476406Y-85546594D01*
X68476407Y-85546595D01*
X68476409Y-85546599D01*
X68481058Y-85553556D01*
X68583056Y-85706206D01*
X68583059Y-85706210D01*
X68718789Y-85841940D01*
X68718793Y-85841943D01*
X68878401Y-85948591D01*
X68878404Y-85948592D01*
X68878405Y-85948593D01*
X68969774Y-85986439D01*
X69024178Y-86030280D01*
X69046243Y-86096574D01*
X69028964Y-86164273D01*
X68977827Y-86211884D01*
X68969774Y-86215561D01*
X68878405Y-86253406D01*
X68878404Y-86253407D01*
X68718793Y-86360056D01*
X68718789Y-86360059D01*
X68583059Y-86495789D01*
X68583056Y-86495793D01*
X68476407Y-86655404D01*
X68476406Y-86655405D01*
X68402950Y-86832747D01*
X68402948Y-86832755D01*
X68365500Y-87021017D01*
X68365500Y-87021018D01*
X68365500Y-87021020D01*
X68365500Y-87212980D01*
X68365500Y-87212982D01*
X68365499Y-87212982D01*
X68402948Y-87401244D01*
X68402950Y-87401252D01*
X68476406Y-87578594D01*
X68476407Y-87578595D01*
X68476409Y-87578599D01*
X68525492Y-87652056D01*
X68583056Y-87738206D01*
X68583059Y-87738210D01*
X68718789Y-87873940D01*
X68718793Y-87873943D01*
X68878401Y-87980591D01*
X68878404Y-87980592D01*
X68878405Y-87980593D01*
X68898142Y-87988768D01*
X69055749Y-88054050D01*
X69101851Y-88063220D01*
X69244017Y-88091500D01*
X69244020Y-88091500D01*
X69435982Y-88091500D01*
X69530758Y-88072647D01*
X69624251Y-88054050D01*
X69801599Y-87980591D01*
X69961207Y-87873943D01*
X70096943Y-87738207D01*
X70203591Y-87578599D01*
X70277050Y-87401251D01*
X70314500Y-87212980D01*
X70314500Y-87085101D01*
X84585499Y-87085101D01*
X84610743Y-87212005D01*
X84610746Y-87212015D01*
X84660260Y-87331554D01*
X84660261Y-87331556D01*
X84732152Y-87439148D01*
X84732155Y-87439152D01*
X84823647Y-87530644D01*
X84823651Y-87530647D01*
X84931241Y-87602537D01*
X84931242Y-87602537D01*
X84931243Y-87602538D01*
X84931245Y-87602539D01*
X85050784Y-87652053D01*
X85050789Y-87652055D01*
X85050793Y-87652055D01*
X85050794Y-87652056D01*
X85177698Y-87677300D01*
X85177701Y-87677300D01*
X85307101Y-87677300D01*
X85392478Y-87660316D01*
X85434011Y-87652055D01*
X85553559Y-87602537D01*
X85661149Y-87530647D01*
X85752647Y-87439149D01*
X85824537Y-87331559D01*
X85874055Y-87212011D01*
X85882316Y-87170478D01*
X85899300Y-87085101D01*
X85899300Y-86955698D01*
X85874056Y-86828794D01*
X85874055Y-86828793D01*
X85874055Y-86828789D01*
X85829908Y-86722207D01*
X85824539Y-86709245D01*
X85824538Y-86709243D01*
X85802181Y-86675784D01*
X85752647Y-86601651D01*
X85752644Y-86601647D01*
X85661152Y-86510155D01*
X85661148Y-86510152D01*
X85553556Y-86438261D01*
X85553554Y-86438260D01*
X85492758Y-86413078D01*
X85434015Y-86388746D01*
X85434005Y-86388743D01*
X85307101Y-86363500D01*
X85307099Y-86363500D01*
X85177701Y-86363500D01*
X85177699Y-86363500D01*
X85050794Y-86388743D01*
X85050784Y-86388746D01*
X84931245Y-86438260D01*
X84931243Y-86438261D01*
X84823651Y-86510152D01*
X84823647Y-86510155D01*
X84732155Y-86601647D01*
X84732152Y-86601651D01*
X84660261Y-86709243D01*
X84660260Y-86709245D01*
X84610746Y-86828784D01*
X84610743Y-86828794D01*
X84585500Y-86955698D01*
X84585500Y-86955701D01*
X84585500Y-87085099D01*
X84585500Y-87085101D01*
X84585499Y-87085101D01*
X70314500Y-87085101D01*
X70314500Y-87021020D01*
X70314499Y-87021017D01*
X70307244Y-86984543D01*
X70313471Y-86914951D01*
X70356333Y-86859773D01*
X70422222Y-86836528D01*
X70490220Y-86852595D01*
X70497752Y-86857248D01*
X70584110Y-86914951D01*
X70658401Y-86964591D01*
X70658402Y-86964591D01*
X70658403Y-86964592D01*
X70658405Y-86964593D01*
X70706570Y-86984543D01*
X70835749Y-87038050D01*
X70881851Y-87047220D01*
X71024017Y-87075500D01*
X71024020Y-87075500D01*
X71215982Y-87075500D01*
X71310758Y-87056647D01*
X71404251Y-87038050D01*
X71581599Y-86964591D01*
X71741207Y-86857943D01*
X71876943Y-86722207D01*
X71983591Y-86562599D01*
X72057050Y-86385251D01*
X72073334Y-86303389D01*
X97662000Y-86303389D01*
X97662000Y-86476611D01*
X97665038Y-86495793D01*
X97689097Y-86647697D01*
X97689097Y-86647699D01*
X97689098Y-86647701D01*
X97742627Y-86812445D01*
X97821268Y-86966788D01*
X97923086Y-87106928D01*
X98045572Y-87229414D01*
X98185712Y-87331232D01*
X98340055Y-87409873D01*
X98504799Y-87463402D01*
X98675889Y-87490500D01*
X98675890Y-87490500D01*
X98849110Y-87490500D01*
X98849111Y-87490500D01*
X99020201Y-87463402D01*
X99184945Y-87409873D01*
X99339288Y-87331232D01*
X99479428Y-87229414D01*
X99601914Y-87106928D01*
X99703732Y-86966788D01*
X99782373Y-86812445D01*
X99835902Y-86647701D01*
X99863000Y-86476611D01*
X99863000Y-86303389D01*
X99835902Y-86132299D01*
X99782373Y-85967555D01*
X99703732Y-85813212D01*
X99601914Y-85673072D01*
X99479428Y-85550586D01*
X99339288Y-85448768D01*
X99184945Y-85370127D01*
X99020201Y-85316598D01*
X99020199Y-85316597D01*
X99020198Y-85316597D01*
X98884878Y-85295165D01*
X98849111Y-85289500D01*
X98675889Y-85289500D01*
X98640122Y-85295165D01*
X98504802Y-85316597D01*
X98504799Y-85316598D01*
X98345423Y-85368383D01*
X98340052Y-85370128D01*
X98185711Y-85448768D01*
X98105756Y-85506859D01*
X98045572Y-85550586D01*
X98045570Y-85550588D01*
X98045569Y-85550588D01*
X97923088Y-85673069D01*
X97923088Y-85673070D01*
X97923086Y-85673072D01*
X97899013Y-85706206D01*
X97821268Y-85813211D01*
X97742628Y-85967552D01*
X97689097Y-86132302D01*
X97669916Y-86253407D01*
X97662000Y-86303389D01*
X72073334Y-86303389D01*
X72076940Y-86285260D01*
X72094500Y-86196982D01*
X72094500Y-86005017D01*
X72061447Y-85838854D01*
X72057050Y-85816749D01*
X71997537Y-85673069D01*
X71983593Y-85639405D01*
X71983592Y-85639404D01*
X71983591Y-85639401D01*
X71876943Y-85479793D01*
X71876940Y-85479789D01*
X71741210Y-85344059D01*
X71741206Y-85344056D01*
X71668036Y-85295165D01*
X71581599Y-85237409D01*
X71581596Y-85237407D01*
X71581595Y-85237407D01*
X71581594Y-85237406D01*
X71490225Y-85199561D01*
X71435821Y-85155721D01*
X71413756Y-85089427D01*
X71431035Y-85021727D01*
X71482172Y-84974117D01*
X71490225Y-84970439D01*
X71581594Y-84932593D01*
X71581593Y-84932593D01*
X71581599Y-84932591D01*
X71741207Y-84825943D01*
X71876943Y-84690207D01*
X71983591Y-84530599D01*
X72057050Y-84353251D01*
X72078869Y-84243562D01*
X72094500Y-84164982D01*
X72094500Y-83973017D01*
X72094499Y-83973015D01*
X72057053Y-83784761D01*
X72057049Y-83784747D01*
X72048202Y-83763389D01*
X97662000Y-83763389D01*
X97662000Y-83936610D01*
X97683669Y-84073427D01*
X97689098Y-84107701D01*
X97741175Y-84267977D01*
X97742628Y-84272447D01*
X97771316Y-84328751D01*
X97821268Y-84426788D01*
X97923086Y-84566928D01*
X98045572Y-84689414D01*
X98185712Y-84791232D01*
X98340055Y-84869873D01*
X98504799Y-84923402D01*
X98675889Y-84950500D01*
X98675890Y-84950500D01*
X98849110Y-84950500D01*
X98849111Y-84950500D01*
X99020201Y-84923402D01*
X99184945Y-84869873D01*
X99339288Y-84791232D01*
X99479428Y-84689414D01*
X99601914Y-84566928D01*
X99703732Y-84426788D01*
X99782373Y-84272445D01*
X99783396Y-84269294D01*
X99784110Y-84268250D01*
X99784234Y-84267952D01*
X99784296Y-84267977D01*
X99822827Y-84211618D01*
X99887183Y-84184415D01*
X99956030Y-84196323D01*
X100007511Y-84243562D01*
X100019260Y-84269287D01*
X100051404Y-84368217D01*
X100147879Y-84557557D01*
X100272772Y-84729459D01*
X100272776Y-84729464D01*
X100423035Y-84879723D01*
X100423040Y-84879727D01*
X100594942Y-85004620D01*
X100784284Y-85101096D01*
X100883211Y-85133239D01*
X100940887Y-85172676D01*
X100968086Y-85237034D01*
X100956172Y-85305881D01*
X100908928Y-85357357D01*
X100883222Y-85369097D01*
X100882022Y-85369487D01*
X100880050Y-85370128D01*
X100725711Y-85448768D01*
X100645756Y-85506859D01*
X100585572Y-85550586D01*
X100585570Y-85550588D01*
X100585569Y-85550588D01*
X100463088Y-85673069D01*
X100463088Y-85673070D01*
X100463086Y-85673072D01*
X100439013Y-85706206D01*
X100361268Y-85813211D01*
X100282628Y-85967552D01*
X100229097Y-86132302D01*
X100209916Y-86253407D01*
X100202000Y-86303389D01*
X100202000Y-86476611D01*
X100205038Y-86495793D01*
X100229097Y-86647697D01*
X100229097Y-86647699D01*
X100229098Y-86647701D01*
X100282627Y-86812445D01*
X100361268Y-86966788D01*
X100463086Y-87106928D01*
X100585572Y-87229414D01*
X100725712Y-87331232D01*
X100880055Y-87409873D01*
X101044799Y-87463402D01*
X101215889Y-87490500D01*
X101215890Y-87490500D01*
X101389110Y-87490500D01*
X101389111Y-87490500D01*
X101560201Y-87463402D01*
X101724945Y-87409873D01*
X101879288Y-87331232D01*
X102019428Y-87229414D01*
X102141914Y-87106928D01*
X102243732Y-86966788D01*
X102261406Y-86932101D01*
X110523149Y-86932101D01*
X110548393Y-87059005D01*
X110548396Y-87059015D01*
X110597910Y-87178554D01*
X110597911Y-87178556D01*
X110669802Y-87286148D01*
X110669805Y-87286152D01*
X110761297Y-87377644D01*
X110761301Y-87377647D01*
X110868891Y-87449537D01*
X110868892Y-87449537D01*
X110868893Y-87449538D01*
X110868895Y-87449539D01*
X110902364Y-87463402D01*
X110988439Y-87499055D01*
X110988443Y-87499055D01*
X110988444Y-87499056D01*
X111115348Y-87524300D01*
X111115351Y-87524300D01*
X111244751Y-87524300D01*
X111330128Y-87507316D01*
X111371661Y-87499055D01*
X111491209Y-87449537D01*
X111598799Y-87377647D01*
X111690297Y-87286149D01*
X111762187Y-87178559D01*
X111811705Y-87059011D01*
X111830050Y-86966788D01*
X111836950Y-86932101D01*
X111836950Y-86802698D01*
X111811706Y-86675794D01*
X111811705Y-86675793D01*
X111811705Y-86675789D01*
X111800071Y-86647701D01*
X111762189Y-86556245D01*
X111762188Y-86556243D01*
X111721796Y-86495793D01*
X111690297Y-86448651D01*
X111690294Y-86448647D01*
X111598802Y-86357155D01*
X111598798Y-86357152D01*
X111491206Y-86285261D01*
X111491204Y-86285260D01*
X111371665Y-86235746D01*
X111371655Y-86235743D01*
X111244751Y-86210500D01*
X111244749Y-86210500D01*
X111115351Y-86210500D01*
X111115349Y-86210500D01*
X110988444Y-86235743D01*
X110988434Y-86235746D01*
X110868895Y-86285260D01*
X110868893Y-86285261D01*
X110761301Y-86357152D01*
X110761297Y-86357155D01*
X110669805Y-86448647D01*
X110669802Y-86448651D01*
X110597911Y-86556243D01*
X110597910Y-86556245D01*
X110548396Y-86675784D01*
X110548393Y-86675794D01*
X110523150Y-86802698D01*
X110523150Y-86802701D01*
X110523150Y-86932099D01*
X110523150Y-86932101D01*
X110523149Y-86932101D01*
X102261406Y-86932101D01*
X102322373Y-86812445D01*
X102375902Y-86647701D01*
X102403000Y-86476611D01*
X102403000Y-86303389D01*
X102375902Y-86132299D01*
X102322373Y-85967555D01*
X102243732Y-85813212D01*
X102141914Y-85673072D01*
X102019428Y-85550586D01*
X101879288Y-85448768D01*
X101724946Y-85370127D01*
X101721784Y-85369100D01*
X101720736Y-85368383D01*
X101720452Y-85368266D01*
X101720476Y-85368206D01*
X101699327Y-85353744D01*
X101675071Y-85341421D01*
X101670909Y-85334311D01*
X101664109Y-85329661D01*
X101654576Y-85307101D01*
X107039099Y-85307101D01*
X107064343Y-85434005D01*
X107064346Y-85434015D01*
X107113860Y-85553554D01*
X107113861Y-85553556D01*
X107185752Y-85661148D01*
X107185755Y-85661152D01*
X107277247Y-85752644D01*
X107277251Y-85752647D01*
X107384841Y-85824537D01*
X107384842Y-85824537D01*
X107384843Y-85824538D01*
X107384845Y-85824539D01*
X107426863Y-85841943D01*
X107504389Y-85874055D01*
X107504393Y-85874055D01*
X107504394Y-85874056D01*
X107631298Y-85899300D01*
X107631301Y-85899300D01*
X107760701Y-85899300D01*
X107846078Y-85882316D01*
X107887611Y-85874055D01*
X108007159Y-85824537D01*
X108114749Y-85752647D01*
X108206247Y-85661149D01*
X108278137Y-85553559D01*
X108327655Y-85434011D01*
X108335916Y-85392478D01*
X108352900Y-85307101D01*
X108352900Y-85177698D01*
X108327656Y-85050794D01*
X108327655Y-85050793D01*
X108327655Y-85050789D01*
X108309124Y-85006050D01*
X108278139Y-84931245D01*
X108278138Y-84931243D01*
X108277003Y-84929545D01*
X108206247Y-84823651D01*
X108206244Y-84823647D01*
X108114752Y-84732155D01*
X108114748Y-84732152D01*
X108007156Y-84660261D01*
X108007154Y-84660260D01*
X107887615Y-84610746D01*
X107887605Y-84610743D01*
X107760701Y-84585500D01*
X107760699Y-84585500D01*
X107631301Y-84585500D01*
X107631299Y-84585500D01*
X107504394Y-84610743D01*
X107504384Y-84610746D01*
X107384845Y-84660260D01*
X107384843Y-84660261D01*
X107277251Y-84732152D01*
X107277247Y-84732155D01*
X107185755Y-84823647D01*
X107185752Y-84823651D01*
X107113861Y-84931243D01*
X107113860Y-84931245D01*
X107064346Y-85050784D01*
X107064343Y-85050794D01*
X107039100Y-85177698D01*
X107039100Y-85177701D01*
X107039100Y-85307099D01*
X107039100Y-85307101D01*
X107039099Y-85307101D01*
X101654576Y-85307101D01*
X101653518Y-85304597D01*
X101639777Y-85281121D01*
X101640119Y-85272891D01*
X101636913Y-85265302D01*
X101641553Y-85238491D01*
X101642686Y-85211312D01*
X101647423Y-85204573D01*
X101648829Y-85196456D01*
X101667224Y-85176413D01*
X101682874Y-85154157D01*
X101692305Y-85149087D01*
X101696074Y-85144981D01*
X101713334Y-85136329D01*
X101903831Y-85058746D01*
X102010057Y-85004620D01*
X102181959Y-84879727D01*
X102181964Y-84879723D01*
X102332223Y-84729464D01*
X102332227Y-84729459D01*
X102457120Y-84557557D01*
X102553595Y-84368217D01*
X102619257Y-84166129D01*
X102619257Y-84166126D01*
X102629731Y-84100000D01*
X101735512Y-84100000D01*
X101768425Y-84042993D01*
X101802500Y-83915826D01*
X101802500Y-83784174D01*
X101768425Y-83657007D01*
X101735512Y-83600000D01*
X102629731Y-83600000D01*
X102619257Y-83533873D01*
X102619257Y-83533870D01*
X102553595Y-83331782D01*
X102457120Y-83142442D01*
X102332227Y-82970540D01*
X102332223Y-82970535D01*
X102181964Y-82820276D01*
X102181959Y-82820272D01*
X102010057Y-82695379D01*
X101820717Y-82598904D01*
X101721787Y-82566760D01*
X101664111Y-82527323D01*
X101636913Y-82462964D01*
X101648828Y-82394118D01*
X101696072Y-82342642D01*
X101721790Y-82330897D01*
X101724945Y-82329873D01*
X101879288Y-82251232D01*
X102019428Y-82149414D01*
X102141914Y-82026928D01*
X102243732Y-81886788D01*
X102322373Y-81732445D01*
X102375902Y-81567701D01*
X102403000Y-81396611D01*
X102403000Y-81223389D01*
X102375902Y-81052299D01*
X102322373Y-80887555D01*
X102243732Y-80733212D01*
X102141914Y-80593072D01*
X102019428Y-80470586D01*
X101879288Y-80368768D01*
X101724945Y-80290127D01*
X101560201Y-80236598D01*
X101560199Y-80236597D01*
X101560198Y-80236597D01*
X101428771Y-80215781D01*
X101389111Y-80209500D01*
X101215889Y-80209500D01*
X101176228Y-80215781D01*
X101044802Y-80236597D01*
X101044799Y-80236598D01*
X100885423Y-80288383D01*
X100880052Y-80290128D01*
X100725711Y-80368768D01*
X100645756Y-80426859D01*
X100585572Y-80470586D01*
X100585570Y-80470588D01*
X100585569Y-80470588D01*
X100463088Y-80593069D01*
X100463088Y-80593070D01*
X100463086Y-80593072D01*
X100439013Y-80626206D01*
X100361268Y-80733211D01*
X100282628Y-80887552D01*
X100229097Y-81052302D01*
X100209916Y-81173407D01*
X100202000Y-81223389D01*
X100202000Y-81396611D01*
X100205038Y-81415793D01*
X100215618Y-81482595D01*
X100229098Y-81567701D01*
X100282627Y-81732445D01*
X100361268Y-81886788D01*
X100463086Y-82026928D01*
X100585572Y-82149414D01*
X100725712Y-82251232D01*
X100880055Y-82329873D01*
X100883208Y-82330897D01*
X100884252Y-82331611D01*
X100884548Y-82331734D01*
X100884522Y-82331795D01*
X100940883Y-82370330D01*
X100968085Y-82434688D01*
X100956174Y-82503535D01*
X100908933Y-82555013D01*
X100883212Y-82566760D01*
X100784283Y-82598904D01*
X100594942Y-82695379D01*
X100423040Y-82820272D01*
X100423035Y-82820276D01*
X100272776Y-82970535D01*
X100272772Y-82970540D01*
X100147879Y-83142442D01*
X100051404Y-83331783D01*
X100019260Y-83430712D01*
X99979822Y-83488388D01*
X99915464Y-83515586D01*
X99846617Y-83503671D01*
X99795142Y-83456427D01*
X99783398Y-83430712D01*
X99782373Y-83427555D01*
X99703732Y-83273212D01*
X99601914Y-83133072D01*
X99479428Y-83010586D01*
X99339288Y-82908768D01*
X99184945Y-82830127D01*
X99020201Y-82776598D01*
X99020199Y-82776597D01*
X99020198Y-82776597D01*
X98888771Y-82755781D01*
X98849111Y-82749500D01*
X98675889Y-82749500D01*
X98636228Y-82755781D01*
X98504802Y-82776597D01*
X98340052Y-82830128D01*
X98185711Y-82908768D01*
X98144199Y-82938929D01*
X98045572Y-83010586D01*
X98045570Y-83010588D01*
X98045569Y-83010588D01*
X97923088Y-83133069D01*
X97923088Y-83133070D01*
X97923086Y-83133072D01*
X97911527Y-83148982D01*
X97821268Y-83273211D01*
X97742628Y-83427552D01*
X97689097Y-83592302D01*
X97662000Y-83763389D01*
X72048202Y-83763389D01*
X71983591Y-83607401D01*
X71876943Y-83447793D01*
X71876940Y-83447789D01*
X71741210Y-83312059D01*
X71741206Y-83312056D01*
X71668036Y-83263165D01*
X71581599Y-83205409D01*
X71581596Y-83205407D01*
X71581595Y-83205407D01*
X71581594Y-83205406D01*
X71490225Y-83167561D01*
X71435821Y-83123721D01*
X71413756Y-83057427D01*
X71431035Y-82989727D01*
X71482172Y-82942117D01*
X71490225Y-82938439D01*
X71581594Y-82900593D01*
X71581593Y-82900593D01*
X71581599Y-82900591D01*
X71741207Y-82793943D01*
X71876943Y-82658207D01*
X71983591Y-82498599D01*
X72057050Y-82321251D01*
X72075647Y-82227758D01*
X72094500Y-82132982D01*
X72094500Y-81941017D01*
X72057051Y-81752755D01*
X72057050Y-81752749D01*
X71983591Y-81575401D01*
X71876943Y-81415793D01*
X71876940Y-81415789D01*
X71805852Y-81344701D01*
X80438101Y-81344701D01*
X80463345Y-81471605D01*
X80463348Y-81471615D01*
X80512862Y-81591154D01*
X80512863Y-81591156D01*
X80584754Y-81698748D01*
X80584757Y-81698752D01*
X80676249Y-81790244D01*
X80676253Y-81790247D01*
X80783843Y-81862137D01*
X80783844Y-81862137D01*
X80783845Y-81862138D01*
X80783847Y-81862139D01*
X80903386Y-81911653D01*
X80903391Y-81911655D01*
X80903395Y-81911655D01*
X80903396Y-81911656D01*
X81030300Y-81936900D01*
X81030303Y-81936900D01*
X81159703Y-81936900D01*
X81245080Y-81919916D01*
X81286613Y-81911655D01*
X81406161Y-81862137D01*
X81513751Y-81790247D01*
X81605249Y-81698749D01*
X81677139Y-81591159D01*
X81726657Y-81471611D01*
X81751902Y-81344699D01*
X81751902Y-81215301D01*
X81751902Y-81215298D01*
X81726658Y-81088394D01*
X81726657Y-81088393D01*
X81726657Y-81088389D01*
X81715934Y-81062500D01*
X81677141Y-80968845D01*
X81677140Y-80968843D01*
X81669712Y-80957727D01*
X81605249Y-80861251D01*
X81605246Y-80861247D01*
X81513754Y-80769755D01*
X81513750Y-80769752D01*
X81406158Y-80697861D01*
X81406156Y-80697860D01*
X81286617Y-80648346D01*
X81286607Y-80648343D01*
X81159703Y-80623100D01*
X81159701Y-80623100D01*
X81030303Y-80623100D01*
X81030301Y-80623100D01*
X80903396Y-80648343D01*
X80903386Y-80648346D01*
X80783847Y-80697860D01*
X80783845Y-80697861D01*
X80676253Y-80769752D01*
X80676249Y-80769755D01*
X80584757Y-80861247D01*
X80584754Y-80861251D01*
X80512863Y-80968843D01*
X80512862Y-80968845D01*
X80463348Y-81088384D01*
X80463345Y-81088394D01*
X80438102Y-81215298D01*
X80438102Y-81215301D01*
X80438102Y-81344699D01*
X80438102Y-81344701D01*
X80438101Y-81344701D01*
X71805852Y-81344701D01*
X71741210Y-81280059D01*
X71741206Y-81280056D01*
X71644294Y-81215301D01*
X71581599Y-81173409D01*
X71581596Y-81173407D01*
X71581595Y-81173407D01*
X71581594Y-81173406D01*
X71490225Y-81135561D01*
X71435821Y-81091721D01*
X71413756Y-81025427D01*
X71431035Y-80957727D01*
X71482172Y-80910117D01*
X71490225Y-80906439D01*
X71581594Y-80868593D01*
X71581593Y-80868593D01*
X71581599Y-80868591D01*
X71741207Y-80761943D01*
X71876943Y-80626207D01*
X71983591Y-80466599D01*
X72057050Y-80289251D01*
X72077727Y-80185302D01*
X72094500Y-80100982D01*
X72094500Y-79909017D01*
X72057051Y-79720755D01*
X72057050Y-79720749D01*
X71983591Y-79543401D01*
X71876943Y-79383793D01*
X71876940Y-79383789D01*
X71741210Y-79248059D01*
X71741206Y-79248056D01*
X71653248Y-79189284D01*
X71581599Y-79141409D01*
X71581596Y-79141407D01*
X71581595Y-79141407D01*
X71581594Y-79141406D01*
X71404252Y-79067950D01*
X71404244Y-79067948D01*
X71215982Y-79030500D01*
X71215980Y-79030500D01*
X71024020Y-79030500D01*
X71024018Y-79030500D01*
X70835755Y-79067948D01*
X70835747Y-79067950D01*
X70658405Y-79141406D01*
X70658404Y-79141407D01*
X70498793Y-79248056D01*
X70498789Y-79248059D01*
X70363059Y-79383789D01*
X70363056Y-79383793D01*
X70256407Y-79543404D01*
X70256406Y-79543405D01*
X70182950Y-79720747D01*
X70182948Y-79720755D01*
X70145500Y-79909017D01*
X70145500Y-80100984D01*
X70152755Y-80137458D01*
X70146528Y-80207050D01*
X70103664Y-80262227D01*
X70037774Y-80285471D01*
X69969777Y-80269403D01*
X69962247Y-80264751D01*
X69801596Y-80157407D01*
X69801594Y-80157406D01*
X69624252Y-80083950D01*
X69624244Y-80083948D01*
X69435982Y-80046500D01*
X69435980Y-80046500D01*
X69244020Y-80046500D01*
X69244018Y-80046500D01*
X69055755Y-80083948D01*
X69055747Y-80083950D01*
X68878405Y-80157406D01*
X68878404Y-80157407D01*
X68718793Y-80264056D01*
X68718789Y-80264059D01*
X68583059Y-80399789D01*
X68583056Y-80399793D01*
X68476407Y-80559404D01*
X68476406Y-80559405D01*
X68402950Y-80736747D01*
X68402948Y-80736755D01*
X68365500Y-80925017D01*
X68365500Y-80925018D01*
X68365500Y-80925020D01*
X68365500Y-81116980D01*
X68365500Y-81116982D01*
X68365499Y-81116982D01*
X63881500Y-81116982D01*
X63881500Y-77085097D01*
X65149500Y-77085097D01*
X65149500Y-77344902D01*
X65190140Y-77601493D01*
X65270422Y-77848576D01*
X65312209Y-77930586D01*
X65388366Y-78080051D01*
X65541069Y-78290229D01*
X65724771Y-78473931D01*
X65934949Y-78626634D01*
X66082445Y-78701787D01*
X66166423Y-78744577D01*
X66166425Y-78744577D01*
X66166428Y-78744579D01*
X66413507Y-78824860D01*
X66545706Y-78845797D01*
X66670098Y-78865500D01*
X66670103Y-78865500D01*
X66929902Y-78865500D01*
X67043298Y-78847539D01*
X67186493Y-78824860D01*
X67433572Y-78744579D01*
X67665051Y-78626634D01*
X67811820Y-78520000D01*
X97435269Y-78520000D01*
X98329488Y-78520000D01*
X98296575Y-78577007D01*
X98262500Y-78704174D01*
X98262500Y-78835826D01*
X98296575Y-78962993D01*
X98329488Y-79020000D01*
X97435269Y-79020000D01*
X97445742Y-79086126D01*
X97445742Y-79086129D01*
X97511404Y-79288217D01*
X97607879Y-79477557D01*
X97732772Y-79649459D01*
X97732776Y-79649464D01*
X97883035Y-79799723D01*
X97883040Y-79799727D01*
X98054942Y-79924620D01*
X98244284Y-80021096D01*
X98343211Y-80053239D01*
X98400887Y-80092676D01*
X98428086Y-80157034D01*
X98416172Y-80225881D01*
X98368928Y-80277357D01*
X98343222Y-80289097D01*
X98342022Y-80289487D01*
X98340050Y-80290128D01*
X98185711Y-80368768D01*
X98105756Y-80426859D01*
X98045572Y-80470586D01*
X98045570Y-80470588D01*
X98045569Y-80470588D01*
X97923088Y-80593069D01*
X97923088Y-80593070D01*
X97923086Y-80593072D01*
X97899013Y-80626206D01*
X97821268Y-80733211D01*
X97742628Y-80887552D01*
X97689097Y-81052302D01*
X97669916Y-81173407D01*
X97662000Y-81223389D01*
X97662000Y-81396611D01*
X97665038Y-81415793D01*
X97675618Y-81482595D01*
X97689098Y-81567701D01*
X97742627Y-81732445D01*
X97821268Y-81886788D01*
X97923086Y-82026928D01*
X98045572Y-82149414D01*
X98185712Y-82251232D01*
X98340055Y-82329873D01*
X98504799Y-82383402D01*
X98675889Y-82410500D01*
X98675890Y-82410500D01*
X98849110Y-82410500D01*
X98849111Y-82410500D01*
X99020201Y-82383402D01*
X99184945Y-82329873D01*
X99339288Y-82251232D01*
X99479428Y-82149414D01*
X99601914Y-82026928D01*
X99703732Y-81886788D01*
X99782373Y-81732445D01*
X99835902Y-81567701D01*
X99863000Y-81396611D01*
X99863000Y-81223389D01*
X99835902Y-81052299D01*
X99782373Y-80887555D01*
X99703732Y-80733212D01*
X99601914Y-80593072D01*
X99479428Y-80470586D01*
X99339288Y-80368768D01*
X99184946Y-80290127D01*
X99181784Y-80289100D01*
X99180736Y-80288383D01*
X99180452Y-80288266D01*
X99180476Y-80288206D01*
X99124109Y-80249661D01*
X99096913Y-80185302D01*
X99108829Y-80116456D01*
X99156074Y-80064981D01*
X99181788Y-80053239D01*
X99280715Y-80021096D01*
X99470057Y-79924620D01*
X99641959Y-79799727D01*
X99641964Y-79799723D01*
X99792223Y-79649464D01*
X99792227Y-79649459D01*
X99917120Y-79477557D01*
X100013596Y-79288215D01*
X100045739Y-79189288D01*
X100085176Y-79131612D01*
X100149534Y-79104413D01*
X100218380Y-79116327D01*
X100269857Y-79163571D01*
X100281600Y-79189284D01*
X100282627Y-79192446D01*
X100322143Y-79270000D01*
X100361268Y-79346788D01*
X100463086Y-79486928D01*
X100585572Y-79609414D01*
X100725712Y-79711232D01*
X100880055Y-79789873D01*
X101044799Y-79843402D01*
X101215889Y-79870500D01*
X101215890Y-79870500D01*
X101389110Y-79870500D01*
X101389111Y-79870500D01*
X101560201Y-79843402D01*
X101724945Y-79789873D01*
X101879288Y-79711232D01*
X102019428Y-79609414D01*
X102141914Y-79486928D01*
X102243732Y-79346788D01*
X102322373Y-79192445D01*
X102375902Y-79027701D01*
X102403000Y-78856611D01*
X102403000Y-78683389D01*
X102375902Y-78512299D01*
X102322373Y-78347555D01*
X102243732Y-78193212D01*
X102141914Y-78053072D01*
X102019428Y-77930586D01*
X101879288Y-77828768D01*
X101724945Y-77750127D01*
X101560201Y-77696598D01*
X101560199Y-77696597D01*
X101560198Y-77696597D01*
X101428771Y-77675781D01*
X101389111Y-77669500D01*
X101215889Y-77669500D01*
X101176228Y-77675781D01*
X101044802Y-77696597D01*
X100880052Y-77750128D01*
X100725711Y-77828768D01*
X100645756Y-77886859D01*
X100585572Y-77930586D01*
X100585570Y-77930588D01*
X100585569Y-77930588D01*
X100463088Y-78053069D01*
X100463088Y-78053070D01*
X100463086Y-78053072D01*
X100419359Y-78113256D01*
X100361268Y-78193211D01*
X100282628Y-78347550D01*
X100281599Y-78350720D01*
X100280881Y-78351769D01*
X100280766Y-78352048D01*
X100280707Y-78352023D01*
X100242157Y-78408393D01*
X100177797Y-78435587D01*
X100108951Y-78423668D01*
X100057479Y-78376420D01*
X100045739Y-78350711D01*
X100013596Y-78251784D01*
X99917120Y-78062442D01*
X99792227Y-77890540D01*
X99792223Y-77890535D01*
X99641964Y-77740276D01*
X99641959Y-77740272D01*
X99470057Y-77615379D01*
X99280717Y-77518904D01*
X99181787Y-77486760D01*
X99124111Y-77447323D01*
X99096913Y-77382964D01*
X99108828Y-77314118D01*
X99156072Y-77262642D01*
X99181790Y-77250897D01*
X99184945Y-77249873D01*
X99339288Y-77171232D01*
X99479428Y-77069414D01*
X99601914Y-76946928D01*
X99703732Y-76806788D01*
X99782373Y-76652445D01*
X99835902Y-76487701D01*
X99863000Y-76316611D01*
X99863000Y-76143389D01*
X99835902Y-75972299D01*
X99782373Y-75807555D01*
X99703732Y-75653212D01*
X99601914Y-75513072D01*
X99479428Y-75390586D01*
X99339288Y-75288768D01*
X99184945Y-75210127D01*
X99020201Y-75156598D01*
X99020199Y-75156597D01*
X99020198Y-75156597D01*
X98888771Y-75135781D01*
X98849111Y-75129500D01*
X98675889Y-75129500D01*
X98636228Y-75135781D01*
X98504802Y-75156597D01*
X98504799Y-75156598D01*
X98345423Y-75208383D01*
X98340052Y-75210128D01*
X98185711Y-75288768D01*
X98105756Y-75346859D01*
X98045572Y-75390586D01*
X98045570Y-75390588D01*
X98045569Y-75390588D01*
X97923088Y-75513069D01*
X97923088Y-75513070D01*
X97923086Y-75513072D01*
X97885721Y-75564500D01*
X97821268Y-75653211D01*
X97742628Y-75807552D01*
X97689097Y-75972302D01*
X97662573Y-76139771D01*
X97662000Y-76143389D01*
X97662000Y-76316611D01*
X97689098Y-76487701D01*
X97742627Y-76652445D01*
X97821268Y-76806788D01*
X97923086Y-76946928D01*
X98045572Y-77069414D01*
X98185712Y-77171232D01*
X98340055Y-77249873D01*
X98343208Y-77250897D01*
X98344252Y-77251611D01*
X98344548Y-77251734D01*
X98344522Y-77251795D01*
X98400883Y-77290330D01*
X98428085Y-77354688D01*
X98416174Y-77423535D01*
X98368933Y-77475013D01*
X98343212Y-77486760D01*
X98244283Y-77518904D01*
X98054942Y-77615379D01*
X97883040Y-77740272D01*
X97883035Y-77740276D01*
X97732776Y-77890535D01*
X97732772Y-77890540D01*
X97607879Y-78062442D01*
X97511404Y-78251782D01*
X97445742Y-78453870D01*
X97445742Y-78453873D01*
X97435269Y-78520000D01*
X67811820Y-78520000D01*
X67875229Y-78473931D01*
X68058931Y-78290229D01*
X68211634Y-78080051D01*
X68329579Y-77848572D01*
X68409860Y-77601493D01*
X68444471Y-77382964D01*
X68450500Y-77344902D01*
X68450500Y-77085097D01*
X68428616Y-76946928D01*
X68409860Y-76828507D01*
X68329579Y-76581428D01*
X68329577Y-76581425D01*
X68329577Y-76581423D01*
X68281820Y-76487697D01*
X68211634Y-76349949D01*
X68058931Y-76139771D01*
X67875229Y-75956069D01*
X67665051Y-75803366D01*
X67592764Y-75766534D01*
X67433576Y-75685422D01*
X67186493Y-75605140D01*
X66929902Y-75564500D01*
X66929897Y-75564500D01*
X66670103Y-75564500D01*
X66670098Y-75564500D01*
X66413506Y-75605140D01*
X66166423Y-75685422D01*
X65934945Y-75803368D01*
X65724774Y-75956066D01*
X65724768Y-75956071D01*
X65541071Y-76139768D01*
X65541066Y-76139774D01*
X65388368Y-76349945D01*
X65270422Y-76581423D01*
X65190140Y-76828506D01*
X65149500Y-77085097D01*
X63881500Y-77085097D01*
X63881500Y-73603389D01*
X97662000Y-73603389D01*
X97662000Y-73776611D01*
X97689098Y-73947701D01*
X97742627Y-74112445D01*
X97821268Y-74266788D01*
X97923086Y-74406928D01*
X98045572Y-74529414D01*
X98185712Y-74631232D01*
X98340055Y-74709873D01*
X98504799Y-74763402D01*
X98675889Y-74790500D01*
X98675890Y-74790500D01*
X98849110Y-74790500D01*
X98849111Y-74790500D01*
X99020201Y-74763402D01*
X99184945Y-74709873D01*
X99339288Y-74631232D01*
X99479428Y-74529414D01*
X99601914Y-74406928D01*
X99703732Y-74266788D01*
X99782373Y-74112445D01*
X99783396Y-74109294D01*
X99784110Y-74108250D01*
X99784234Y-74107952D01*
X99784296Y-74107977D01*
X99822827Y-74051618D01*
X99887183Y-74024415D01*
X99956030Y-74036323D01*
X100007511Y-74083562D01*
X100019260Y-74109287D01*
X100051404Y-74208217D01*
X100147879Y-74397557D01*
X100272772Y-74569459D01*
X100272776Y-74569464D01*
X100423035Y-74719723D01*
X100423040Y-74719727D01*
X100594942Y-74844620D01*
X100784284Y-74941096D01*
X100883211Y-74973239D01*
X100940887Y-75012676D01*
X100968086Y-75077034D01*
X100956172Y-75145881D01*
X100908928Y-75197357D01*
X100883222Y-75209097D01*
X100882022Y-75209487D01*
X100880050Y-75210128D01*
X100725711Y-75288768D01*
X100645756Y-75346859D01*
X100585572Y-75390586D01*
X100585570Y-75390588D01*
X100585569Y-75390588D01*
X100463088Y-75513069D01*
X100463088Y-75513070D01*
X100463086Y-75513072D01*
X100425721Y-75564500D01*
X100361268Y-75653211D01*
X100282628Y-75807552D01*
X100229097Y-75972302D01*
X100202573Y-76139771D01*
X100202000Y-76143389D01*
X100202000Y-76316611D01*
X100229098Y-76487701D01*
X100282627Y-76652445D01*
X100361268Y-76806788D01*
X100463086Y-76946928D01*
X100585572Y-77069414D01*
X100725712Y-77171232D01*
X100880055Y-77249873D01*
X101044799Y-77303402D01*
X101215889Y-77330500D01*
X101215890Y-77330500D01*
X101389110Y-77330500D01*
X101389111Y-77330500D01*
X101560201Y-77303402D01*
X101724945Y-77249873D01*
X101879288Y-77171232D01*
X102019428Y-77069414D01*
X102141914Y-76946928D01*
X102243732Y-76806788D01*
X102322373Y-76652445D01*
X102375902Y-76487701D01*
X102403000Y-76316611D01*
X102403000Y-76143389D01*
X102375902Y-75972299D01*
X102322373Y-75807555D01*
X102243732Y-75653212D01*
X102141914Y-75513072D01*
X102019428Y-75390586D01*
X101879288Y-75288768D01*
X101724946Y-75210127D01*
X101721784Y-75209100D01*
X101720736Y-75208383D01*
X101720452Y-75208266D01*
X101720476Y-75208206D01*
X101664109Y-75169661D01*
X101636913Y-75105302D01*
X101648829Y-75036456D01*
X101696074Y-74984981D01*
X101721788Y-74973239D01*
X101820715Y-74941096D01*
X102010057Y-74844620D01*
X102181959Y-74719727D01*
X102181964Y-74719723D01*
X102332223Y-74569464D01*
X102332227Y-74569459D01*
X102457120Y-74397557D01*
X102553595Y-74208217D01*
X102619257Y-74006129D01*
X102619257Y-74006126D01*
X102629731Y-73940000D01*
X101735512Y-73940000D01*
X101768425Y-73882993D01*
X101802500Y-73755826D01*
X101802500Y-73624174D01*
X101768425Y-73497007D01*
X101735512Y-73440000D01*
X102629731Y-73440000D01*
X102619257Y-73373873D01*
X102619257Y-73373870D01*
X102553595Y-73171782D01*
X102457120Y-72982442D01*
X102332227Y-72810540D01*
X102332223Y-72810535D01*
X102181964Y-72660276D01*
X102181959Y-72660272D01*
X102010057Y-72535379D01*
X101820717Y-72438904D01*
X101721787Y-72406760D01*
X101664111Y-72367323D01*
X101636913Y-72302964D01*
X101648828Y-72234118D01*
X101696072Y-72182642D01*
X101721790Y-72170897D01*
X101724945Y-72169873D01*
X101879288Y-72091232D01*
X102019428Y-71989414D01*
X102141914Y-71866928D01*
X102243732Y-71726788D01*
X102322373Y-71572445D01*
X102375902Y-71407701D01*
X102403000Y-71236611D01*
X102403000Y-71063389D01*
X102375902Y-70892299D01*
X102322373Y-70727555D01*
X102243732Y-70573212D01*
X102141914Y-70433072D01*
X102019428Y-70310586D01*
X101879288Y-70208768D01*
X101724945Y-70130127D01*
X101560201Y-70076598D01*
X101560199Y-70076597D01*
X101560198Y-70076597D01*
X101428771Y-70055781D01*
X101389111Y-70049500D01*
X101215889Y-70049500D01*
X101176228Y-70055781D01*
X101044802Y-70076597D01*
X100880052Y-70130128D01*
X100725711Y-70208768D01*
X100651407Y-70262754D01*
X100585572Y-70310586D01*
X100585570Y-70310588D01*
X100585569Y-70310588D01*
X100463088Y-70433069D01*
X100463088Y-70433070D01*
X100463086Y-70433072D01*
X100442182Y-70461844D01*
X100361268Y-70573211D01*
X100282628Y-70727552D01*
X100229097Y-70892302D01*
X100202000Y-71063389D01*
X100202000Y-71236611D01*
X100229098Y-71407701D01*
X100282627Y-71572445D01*
X100361268Y-71726788D01*
X100463086Y-71866928D01*
X100585572Y-71989414D01*
X100725712Y-72091232D01*
X100880055Y-72169873D01*
X100883208Y-72170897D01*
X100884252Y-72171611D01*
X100884548Y-72171734D01*
X100884522Y-72171795D01*
X100940883Y-72210330D01*
X100968085Y-72274688D01*
X100956174Y-72343535D01*
X100908933Y-72395013D01*
X100883212Y-72406760D01*
X100784283Y-72438904D01*
X100594942Y-72535379D01*
X100423040Y-72660272D01*
X100423035Y-72660276D01*
X100272776Y-72810535D01*
X100272772Y-72810540D01*
X100147879Y-72982442D01*
X100051404Y-73171783D01*
X100019260Y-73270712D01*
X99979822Y-73328388D01*
X99915464Y-73355586D01*
X99846617Y-73343671D01*
X99795142Y-73296427D01*
X99783398Y-73270712D01*
X99782373Y-73267555D01*
X99703732Y-73113212D01*
X99601914Y-72973072D01*
X99479428Y-72850586D01*
X99339288Y-72748768D01*
X99184945Y-72670127D01*
X99020201Y-72616598D01*
X99020199Y-72616597D01*
X99020198Y-72616597D01*
X98888771Y-72595781D01*
X98849111Y-72589500D01*
X98675889Y-72589500D01*
X98636228Y-72595781D01*
X98504802Y-72616597D01*
X98340052Y-72670128D01*
X98185711Y-72748768D01*
X98105756Y-72806859D01*
X98045572Y-72850586D01*
X98045570Y-72850588D01*
X98045569Y-72850588D01*
X97923088Y-72973069D01*
X97923088Y-72973070D01*
X97923086Y-72973072D01*
X97908065Y-72993747D01*
X97821268Y-73113211D01*
X97742628Y-73267552D01*
X97689097Y-73432302D01*
X97662000Y-73603389D01*
X63881500Y-73603389D01*
X63881500Y-72639699D01*
X71098099Y-72639699D01*
X71123343Y-72766603D01*
X71123346Y-72766613D01*
X71172860Y-72886152D01*
X71172861Y-72886154D01*
X71244752Y-72993746D01*
X71244755Y-72993750D01*
X71336247Y-73085242D01*
X71336251Y-73085245D01*
X71443841Y-73157135D01*
X71443842Y-73157135D01*
X71443843Y-73157136D01*
X71443845Y-73157137D01*
X71563384Y-73206651D01*
X71563389Y-73206653D01*
X71563393Y-73206653D01*
X71563394Y-73206654D01*
X71690298Y-73231898D01*
X71690301Y-73231898D01*
X71819701Y-73231898D01*
X71905078Y-73214914D01*
X71946611Y-73206653D01*
X72066159Y-73157135D01*
X72173749Y-73085245D01*
X72265247Y-72993747D01*
X72337137Y-72886157D01*
X72386655Y-72766609D01*
X72405847Y-72670127D01*
X72411900Y-72639699D01*
X78083099Y-72639699D01*
X78108343Y-72766603D01*
X78108346Y-72766613D01*
X78157860Y-72886152D01*
X78157861Y-72886154D01*
X78229752Y-72993746D01*
X78229755Y-72993750D01*
X78321247Y-73085242D01*
X78321251Y-73085245D01*
X78428841Y-73157135D01*
X78428842Y-73157135D01*
X78428843Y-73157136D01*
X78428845Y-73157137D01*
X78548384Y-73206651D01*
X78548389Y-73206653D01*
X78548393Y-73206653D01*
X78548394Y-73206654D01*
X78675298Y-73231898D01*
X78675301Y-73231898D01*
X78804701Y-73231898D01*
X78890078Y-73214914D01*
X78931611Y-73206653D01*
X79051159Y-73157135D01*
X79158749Y-73085245D01*
X79250247Y-72993747D01*
X79322137Y-72886157D01*
X79371655Y-72766609D01*
X79390847Y-72670127D01*
X79396900Y-72639699D01*
X79396900Y-72510296D01*
X79371656Y-72383392D01*
X79371655Y-72383391D01*
X79371655Y-72383387D01*
X79322137Y-72263839D01*
X79250247Y-72156249D01*
X79250244Y-72156245D01*
X79158752Y-72064753D01*
X79158748Y-72064750D01*
X79051156Y-71992859D01*
X79051154Y-71992858D01*
X78931615Y-71943344D01*
X78931605Y-71943341D01*
X78804701Y-71918098D01*
X78804699Y-71918098D01*
X78675301Y-71918098D01*
X78675299Y-71918098D01*
X78548394Y-71943341D01*
X78548384Y-71943344D01*
X78428845Y-71992858D01*
X78428843Y-71992859D01*
X78321251Y-72064750D01*
X78321247Y-72064753D01*
X78229755Y-72156245D01*
X78229752Y-72156249D01*
X78157861Y-72263841D01*
X78157860Y-72263843D01*
X78108346Y-72383382D01*
X78108343Y-72383392D01*
X78083100Y-72510296D01*
X78083100Y-72510299D01*
X78083100Y-72639697D01*
X78083100Y-72639699D01*
X78083099Y-72639699D01*
X72411900Y-72639699D01*
X72411900Y-72510296D01*
X72386656Y-72383392D01*
X72386655Y-72383391D01*
X72386655Y-72383387D01*
X72337137Y-72263839D01*
X72265247Y-72156249D01*
X72265244Y-72156245D01*
X72173752Y-72064753D01*
X72173748Y-72064750D01*
X72066156Y-71992859D01*
X72066154Y-71992858D01*
X71946615Y-71943344D01*
X71946605Y-71943341D01*
X71819701Y-71918098D01*
X71819699Y-71918098D01*
X71690301Y-71918098D01*
X71690299Y-71918098D01*
X71563394Y-71943341D01*
X71563384Y-71943344D01*
X71443845Y-71992858D01*
X71443843Y-71992859D01*
X71336251Y-72064750D01*
X71336247Y-72064753D01*
X71244755Y-72156245D01*
X71244752Y-72156249D01*
X71172861Y-72263841D01*
X71172860Y-72263843D01*
X71123346Y-72383382D01*
X71123343Y-72383392D01*
X71098100Y-72510296D01*
X71098100Y-72510299D01*
X71098100Y-72639697D01*
X71098100Y-72639699D01*
X71098099Y-72639699D01*
X63881500Y-72639699D01*
X63881500Y-71063389D01*
X97662000Y-71063389D01*
X97662000Y-71236611D01*
X97689098Y-71407701D01*
X97742627Y-71572445D01*
X97821268Y-71726788D01*
X97923086Y-71866928D01*
X98045572Y-71989414D01*
X98185712Y-72091232D01*
X98340055Y-72169873D01*
X98504799Y-72223402D01*
X98675889Y-72250500D01*
X98675890Y-72250500D01*
X98849110Y-72250500D01*
X98849111Y-72250500D01*
X99020201Y-72223402D01*
X99184945Y-72169873D01*
X99339288Y-72091232D01*
X99479428Y-71989414D01*
X99601914Y-71866928D01*
X99703732Y-71726788D01*
X99782373Y-71572445D01*
X99835902Y-71407701D01*
X99863000Y-71236611D01*
X99863000Y-71063389D01*
X99835902Y-70892299D01*
X99782373Y-70727555D01*
X99703732Y-70573212D01*
X99601914Y-70433072D01*
X99479428Y-70310586D01*
X99339288Y-70208768D01*
X99184945Y-70130127D01*
X99020201Y-70076598D01*
X99020199Y-70076597D01*
X99020198Y-70076597D01*
X98888771Y-70055781D01*
X98849111Y-70049500D01*
X98675889Y-70049500D01*
X98636228Y-70055781D01*
X98504802Y-70076597D01*
X98340052Y-70130128D01*
X98185711Y-70208768D01*
X98111407Y-70262754D01*
X98045572Y-70310586D01*
X98045570Y-70310588D01*
X98045569Y-70310588D01*
X97923088Y-70433069D01*
X97923088Y-70433070D01*
X97923086Y-70433072D01*
X97902182Y-70461844D01*
X97821268Y-70573211D01*
X97742628Y-70727552D01*
X97689097Y-70892302D01*
X97662000Y-71063389D01*
X63881500Y-71063389D01*
X63881500Y-70016301D01*
X81842299Y-70016301D01*
X81867543Y-70143205D01*
X81867546Y-70143215D01*
X81917060Y-70262754D01*
X81917061Y-70262756D01*
X81988952Y-70370348D01*
X81988955Y-70370352D01*
X82080447Y-70461844D01*
X82080451Y-70461847D01*
X82188041Y-70533737D01*
X82188042Y-70533737D01*
X82188043Y-70533738D01*
X82188045Y-70533739D01*
X82283340Y-70573211D01*
X82307589Y-70583255D01*
X82307593Y-70583255D01*
X82307594Y-70583256D01*
X82434498Y-70608500D01*
X82434501Y-70608500D01*
X82563901Y-70608500D01*
X82649278Y-70591516D01*
X82690811Y-70583255D01*
X82810359Y-70533737D01*
X82917949Y-70461847D01*
X83009447Y-70370349D01*
X83081337Y-70262759D01*
X83130855Y-70143211D01*
X83139116Y-70101678D01*
X83156100Y-70016301D01*
X83156100Y-69886898D01*
X83130856Y-69759994D01*
X83130855Y-69759993D01*
X83130855Y-69759989D01*
X83110356Y-69710499D01*
X83081339Y-69640445D01*
X83081338Y-69640443D01*
X83074275Y-69629873D01*
X83009447Y-69532851D01*
X83009444Y-69532847D01*
X82917952Y-69441355D01*
X82917948Y-69441352D01*
X82810356Y-69369461D01*
X82810354Y-69369460D01*
X82690815Y-69319946D01*
X82690805Y-69319943D01*
X82563901Y-69294700D01*
X82563899Y-69294700D01*
X82434501Y-69294700D01*
X82434499Y-69294700D01*
X82307594Y-69319943D01*
X82307584Y-69319946D01*
X82188045Y-69369460D01*
X82188043Y-69369461D01*
X82080451Y-69441352D01*
X82080447Y-69441355D01*
X81988955Y-69532847D01*
X81988952Y-69532851D01*
X81917061Y-69640443D01*
X81917060Y-69640445D01*
X81867546Y-69759984D01*
X81867543Y-69759994D01*
X81842300Y-69886898D01*
X81842300Y-69886901D01*
X81842300Y-70016299D01*
X81842300Y-70016301D01*
X81842299Y-70016301D01*
X63881500Y-70016301D01*
X63881500Y-68085901D01*
X68583499Y-68085901D01*
X68608743Y-68212805D01*
X68608746Y-68212815D01*
X68658260Y-68332354D01*
X68658261Y-68332356D01*
X68730152Y-68439948D01*
X68730155Y-68439952D01*
X68821647Y-68531444D01*
X68821651Y-68531447D01*
X68929241Y-68603337D01*
X68929242Y-68603337D01*
X68929243Y-68603338D01*
X68929245Y-68603339D01*
X69048784Y-68652853D01*
X69048789Y-68652855D01*
X69048793Y-68652855D01*
X69048794Y-68652856D01*
X69175698Y-68678100D01*
X69175701Y-68678100D01*
X69305101Y-68678100D01*
X69390478Y-68661116D01*
X69432011Y-68652855D01*
X69551559Y-68603337D01*
X69659149Y-68531447D01*
X69750647Y-68439949D01*
X69822537Y-68332359D01*
X69861497Y-68238301D01*
X75492299Y-68238301D01*
X75517543Y-68365205D01*
X75517546Y-68365215D01*
X75567060Y-68484754D01*
X75567061Y-68484756D01*
X75638952Y-68592348D01*
X75638955Y-68592352D01*
X75730447Y-68683844D01*
X75730451Y-68683847D01*
X75838041Y-68755737D01*
X75838042Y-68755737D01*
X75838043Y-68755738D01*
X75838045Y-68755739D01*
X75957584Y-68805253D01*
X75957589Y-68805255D01*
X75957593Y-68805255D01*
X75957594Y-68805256D01*
X76084498Y-68830500D01*
X76084501Y-68830500D01*
X76213901Y-68830500D01*
X76299278Y-68813516D01*
X76340811Y-68805255D01*
X76460359Y-68755737D01*
X76567949Y-68683847D01*
X76659447Y-68592349D01*
X76731337Y-68484759D01*
X76780855Y-68365211D01*
X76806100Y-68238299D01*
X76806100Y-68108901D01*
X76806100Y-68108898D01*
X76780856Y-67981994D01*
X76780855Y-67981993D01*
X76780855Y-67981989D01*
X76744024Y-67893070D01*
X76731339Y-67862445D01*
X76731338Y-67862443D01*
X76688362Y-67798125D01*
X76659447Y-67754850D01*
X76639918Y-67735321D01*
X97662000Y-67735321D01*
X97662000Y-69484678D01*
X97676532Y-69557735D01*
X97676533Y-69557739D01*
X97676534Y-69557740D01*
X97731899Y-69640601D01*
X97814760Y-69695966D01*
X97814764Y-69695967D01*
X97887821Y-69710499D01*
X97887824Y-69710500D01*
X97887826Y-69710500D01*
X99637176Y-69710500D01*
X99637177Y-69710499D01*
X99710240Y-69695966D01*
X99793101Y-69640601D01*
X99848466Y-69557740D01*
X99863000Y-69484674D01*
X99863000Y-68523389D01*
X100202000Y-68523389D01*
X100202000Y-68696610D01*
X100219207Y-68805255D01*
X100229098Y-68867701D01*
X100282627Y-69032445D01*
X100361268Y-69186788D01*
X100463086Y-69326928D01*
X100585572Y-69449414D01*
X100725712Y-69551232D01*
X100880055Y-69629873D01*
X101044799Y-69683402D01*
X101215889Y-69710500D01*
X101215890Y-69710500D01*
X101389110Y-69710500D01*
X101389111Y-69710500D01*
X101560201Y-69683402D01*
X101724945Y-69629873D01*
X101879288Y-69551232D01*
X102019428Y-69449414D01*
X102141914Y-69326928D01*
X102243732Y-69186788D01*
X102322373Y-69032445D01*
X102375902Y-68867701D01*
X102403000Y-68696611D01*
X102403000Y-68523389D01*
X102375902Y-68352299D01*
X102322373Y-68187555D01*
X102243732Y-68033212D01*
X102141914Y-67893072D01*
X102019428Y-67770586D01*
X101879288Y-67668768D01*
X101724945Y-67590127D01*
X101560201Y-67536598D01*
X101560199Y-67536597D01*
X101560198Y-67536597D01*
X101428771Y-67515781D01*
X101389111Y-67509500D01*
X101215889Y-67509500D01*
X101176228Y-67515781D01*
X101044802Y-67536597D01*
X100880052Y-67590128D01*
X100725711Y-67668768D01*
X100668902Y-67710043D01*
X100585572Y-67770586D01*
X100585570Y-67770588D01*
X100585569Y-67770588D01*
X100463088Y-67893069D01*
X100463088Y-67893070D01*
X100463086Y-67893072D01*
X100419359Y-67953256D01*
X100361268Y-68033211D01*
X100282628Y-68187552D01*
X100282627Y-68187554D01*
X100282627Y-68187555D01*
X100255862Y-68269927D01*
X100229097Y-68352302D01*
X100202000Y-68523389D01*
X99863000Y-68523389D01*
X99863000Y-67735326D01*
X99863000Y-67735323D01*
X99862999Y-67735321D01*
X99848467Y-67662264D01*
X99848466Y-67662260D01*
X99793101Y-67579399D01*
X99710240Y-67524034D01*
X99710239Y-67524033D01*
X99710235Y-67524032D01*
X99637177Y-67509500D01*
X99637174Y-67509500D01*
X97887826Y-67509500D01*
X97887823Y-67509500D01*
X97814764Y-67524032D01*
X97814760Y-67524033D01*
X97731899Y-67579399D01*
X97676533Y-67662260D01*
X97676532Y-67662264D01*
X97662000Y-67735321D01*
X76639918Y-67735321D01*
X76567952Y-67663355D01*
X76567948Y-67663352D01*
X76460356Y-67591461D01*
X76460354Y-67591460D01*
X76340815Y-67541946D01*
X76340805Y-67541943D01*
X76213901Y-67516700D01*
X76213899Y-67516700D01*
X76084501Y-67516700D01*
X76084499Y-67516700D01*
X75957594Y-67541943D01*
X75957584Y-67541946D01*
X75838045Y-67591460D01*
X75838043Y-67591461D01*
X75730451Y-67663352D01*
X75730447Y-67663355D01*
X75638955Y-67754847D01*
X75638952Y-67754851D01*
X75567061Y-67862443D01*
X75567060Y-67862445D01*
X75517546Y-67981984D01*
X75517543Y-67981994D01*
X75492300Y-68108898D01*
X75492300Y-68108901D01*
X75492300Y-68238299D01*
X75492300Y-68238301D01*
X75492299Y-68238301D01*
X69861497Y-68238301D01*
X69872055Y-68212811D01*
X69897300Y-68085899D01*
X69897300Y-67956501D01*
X69897300Y-67956498D01*
X69872056Y-67829594D01*
X69872055Y-67829593D01*
X69872055Y-67829589D01*
X69847616Y-67770588D01*
X69822539Y-67710045D01*
X69822538Y-67710043D01*
X69750647Y-67602451D01*
X69750644Y-67602447D01*
X69659152Y-67510955D01*
X69659148Y-67510952D01*
X69551556Y-67439061D01*
X69551554Y-67439060D01*
X69432015Y-67389546D01*
X69432005Y-67389543D01*
X69305101Y-67364300D01*
X69305099Y-67364300D01*
X69175701Y-67364300D01*
X69175699Y-67364300D01*
X69048794Y-67389543D01*
X69048784Y-67389546D01*
X68929245Y-67439060D01*
X68929243Y-67439061D01*
X68821651Y-67510952D01*
X68821647Y-67510955D01*
X68730155Y-67602447D01*
X68730152Y-67602451D01*
X68658261Y-67710043D01*
X68658260Y-67710045D01*
X68608746Y-67829584D01*
X68608743Y-67829594D01*
X68583500Y-67956498D01*
X68583500Y-67956501D01*
X68583500Y-68085899D01*
X68583500Y-68085901D01*
X68583499Y-68085901D01*
X63881500Y-68085901D01*
X63881500Y-64005500D01*
X63901185Y-63938461D01*
X63953989Y-63892706D01*
X64005500Y-63881500D01*
X113794500Y-63881500D01*
X113861539Y-63901185D01*
G37*
%TD.AperFunction*%
%TD*%
M02*
