M48
; DRILL file {KiCad 8.0.6} date 2025-01-14T13:25:41-0500
; FORMAT={-:-/ absolute / inch / decimal}
; #@! TF.CreationDate,2025-01-14T13:25:41-05:00
; #@! TF.GenerationSoftware,Kicad,Pcbnew,8.0.6
; #@! TF.FileFunction,Plated,1,2,PTH
FMAT,2
INCH
; #@! TA.AperFunction,Plated,PTH,ViaDrill
T1C0.0118
; #@! TA.AperFunction,Plated,PTH,ComponentDrill
T2C0.0370
; #@! TA.AperFunction,Plated,PTH,ComponentDrill
T3C0.0380
; #@! TA.AperFunction,Plated,PTH,ComponentDrill
T4C0.0394
; #@! TA.AperFunction,Plated,PTH,ComponentDrill
T5C0.0591
; #@! TA.AperFunction,Plated,PTH,ComponentDrill
T6C0.0669
%
G90
G05
T1
X1.2462Y-2.9921
X1.4529Y-1.3091
X1.4725Y-2.3031
X1.5119Y-2.0079
X1.5218Y-1.1024
X1.565Y-2.8346
X1.5878Y-2.7038
X1.63Y-3.1791
X1.7284Y-3.1988
X1.7461Y-3.1221
X1.7481Y-2.0571
X1.7698Y-3.0984
X1.8072Y-1.1319
X1.8269Y-3.2087
X1.8347Y-3.1418
X1.8564Y-2.5886
X1.8584Y-3.1181
X1.8761Y-2.8346
X1.8761Y-3.061
X1.9253Y-2.5
X1.9548Y-2.4213
X1.9647Y-2.6575
X2.0139Y-3.1496
X2.0177Y-2.8346
X2.0374Y-2.0472
X2.0956Y-1.2992
X2.129Y-1.2992
X2.1456Y-3.0807
X2.1615Y-2.8346
X2.1714Y-1.939
X2.179Y-3.0807
X2.1949Y-2.3244
X2.2206Y-2.687
X2.2206Y-3.1791
X2.2456Y-3.0807
X2.2599Y-1.752
X2.279Y-3.0807
X2.2933Y-2.6827
X2.3228Y-2.0472
X2.3228Y-2.2736
X2.3228Y-2.3917
X2.3425Y-2.8839
X2.3455Y-2.69
X2.3622Y-2.2343
X2.3682Y-1.9291
X2.3977Y-2.126
X2.4016Y-2.2835
X2.4016Y-2.3917
X2.4076Y-1.6732
X2.4273Y-3.1594
X2.4311Y-1.8307
X2.4336Y-2.7181
X2.4469Y-1.2825
X2.4469Y-1.3159
X2.4568Y-1.2008
X2.4568Y-1.5748
X2.4606Y-2.5
X2.4606Y-2.6575
X2.4666Y-1.9685
X2.47Y-1.9001
X2.4765Y-2.9232
X2.48Y-2.7095
X2.4803Y-2.8346
X2.5158Y-1.1122
X2.5209Y-1.6476
X2.5454Y-3.0807
X2.5492Y-1.7224
X2.5689Y-2.5
X2.5919Y-2.387
X2.5926Y-3.1082
X2.6163Y-3.1319
X2.6241Y-1.437
X2.6241Y-3.189
X2.6347Y-2.3257
X2.6347Y-2.596
X2.6438Y-1.2258
X2.6454Y-1.2569
X2.6517Y-2.6828
X2.6536Y-1.939
X2.6536Y-2.0669
X2.6647Y-3.0865
X2.6691Y-2.601
X2.6733Y-1.811
X2.675Y-2.6593
X2.6832Y-2.2244
X2.687Y-2.4508
X2.7029Y-1.1909
X2.7067Y-2.6772
X2.7082Y-3.1299
X2.7127Y-1.683
X2.7416Y-3.1299
X2.7485Y-2.6625
X2.7854Y-2.1555
X2.787Y-2.3866
X2.7888Y-2.2882
X2.7953Y-2.5098
X2.8013Y-2.7559
X2.8013Y-3.061
X2.8091Y-1.311
X2.8111Y-1.437
X2.8111Y-1.9291
X2.828Y-2.6892
X2.8328Y-1.2874
X2.8568Y-1.9689
X2.8624Y-2.692
X2.8702Y-1.7323
X2.8929Y-2.8411
X2.8997Y-3.189
X2.9377Y-1.9745
X2.9429Y-2.687
X2.9542Y-2.0722
X2.9568Y-1.3366
X2.9782Y-2.3371
X2.9804Y-1.3603
X2.9879Y-2.4508
X2.9883Y-2.2244
X2.9992Y-1.4142
X3.0336Y-2.5449
X3.0375Y-1.9882
X3.0375Y-2.0866
X3.0473Y-2.8346
X3.0552Y-3.1181
X3.0556Y-1.818
X3.0789Y-3.1418
X3.09Y-1.8304
X3.09Y-2.9155
X3.1004Y-2.1555
X3.1004Y-2.2876
X3.1016Y-2.3858
X3.1458Y-1.7323
X3.1496Y-2.8642
X3.1635Y-3.1378
X3.1717Y-2.6916
X3.1871Y-3.1614
X3.2038Y-1.7442
X3.2147Y-3.2382
X3.2245Y-1.5354
X3.2283Y-2.8543
X3.2457Y-2.511
X3.254Y-2.2244
X3.2639Y-2.0866
X3.2737Y-1.3878
X3.2737Y-2.7264
X3.2934Y-1.7323
X3.3028Y-2.302
X3.32Y-2.849
X3.3366Y-1.6043
X3.3918Y-1.5256
X3.3918Y-1.7421
X3.3918Y-2.0866
X3.3929Y-2.2923
X3.4115Y-2.7559
X3.4115Y-2.9921
X3.4214Y-2.2146
X3.4214Y-2.3327
X3.4312Y-2.5098
X3.4315Y-1.8793
X3.4315Y-2.5805
X3.4509Y-2.4213
X3.4567Y-1.6555
X3.4567Y-2.1358
X3.4607Y-1.3091
X3.4658Y-1.9126
X3.4706Y-1.5059
X3.4744Y-1.9497
X3.4744Y-2.874
X3.4804Y-2.2441
X3.4816Y-2.622
X3.4974Y-1.7543
X3.5001Y-1.6535
X3.5946Y-1.9488
X3.6913Y-2.8617
X3.7205Y-1.565
X3.7205Y-2.3917
X3.7303Y-1.2795
X3.7697Y-1.1614
T2
X2.1152Y-1.1138
X2.1552Y-1.1839
X2.1952Y-1.1138
X2.2352Y-1.1839
X2.2752Y-1.1138
X2.3152Y-1.1839
X2.3552Y-1.1138
X2.3952Y-1.1839
X2.7353Y-1.1138
X2.7753Y-1.1839
X2.8153Y-1.1138
X2.8553Y-1.1839
X2.8953Y-1.1138
X2.9353Y-1.1839
X2.9753Y-1.1138
X3.0153Y-1.1839
T3
X1.0674Y-1.4846
X1.0674Y-1.6846
X1.0674Y-2.4197
X1.0674Y-2.6197
X1.1674Y-1.5846
X1.1674Y-2.5197
X1.2674Y-1.4846
X1.2674Y-1.6846
X1.2674Y-2.4197
X1.2674Y-2.6197
T4
X1.5788Y-3.2874
X1.5788Y-3.3874
X1.6788Y-3.2874
X1.6788Y-3.3874
X1.7788Y-3.2874
X1.7788Y-3.3874
X1.8788Y-3.2874
X1.8788Y-3.3874
X1.9788Y-3.2874
X1.9788Y-3.3874
X2.0788Y-3.2874
X2.0788Y-3.3874
X2.1788Y-3.2874
X2.1788Y-3.3874
X2.2788Y-3.2874
X2.2788Y-3.3874
X2.3788Y-3.2874
X2.3788Y-3.3874
X2.4788Y-3.2874
X2.4788Y-3.3874
X2.5788Y-3.2874
X2.5788Y-3.3874
X2.6788Y-3.2874
X2.6788Y-3.3874
X2.7788Y-3.2874
X2.7788Y-3.3874
X2.8788Y-3.2874
X2.8788Y-3.3874
X2.9788Y-3.2874
X2.9788Y-3.3874
X3.0788Y-3.2874
X3.0788Y-3.3874
X3.5477Y-1.2043
X3.5477Y-1.3043
X3.5477Y-1.4043
X3.5477Y-1.5043
X3.5477Y-1.6043
X3.5477Y-1.7043
X3.5477Y-1.8043
X3.5477Y-1.9043
X3.5477Y-2.0043
X3.5477Y-2.1043
X3.5477Y-2.2043
X3.5477Y-2.3043
X3.5477Y-2.4043
X3.5477Y-2.5043
X3.5477Y-2.6043
X3.5477Y-2.7043
X3.5477Y-2.8043
X3.5477Y-2.9043
X3.5477Y-3.0043
X3.5477Y-3.1043
X3.6477Y-1.2043
X3.6477Y-1.3043
X3.6477Y-1.4043
X3.6477Y-1.5043
X3.6477Y-1.6043
X3.6477Y-1.7043
X3.6477Y-1.8043
X3.6477Y-1.9043
X3.6477Y-2.0043
X3.6477Y-2.1043
X3.6477Y-2.2043
X3.6477Y-2.3043
X3.6477Y-2.4043
X3.6477Y-2.5043
X3.6477Y-2.6043
X3.6477Y-2.7043
X3.6477Y-2.8043
X3.6477Y-2.9043
X3.6477Y-3.0043
X3.6477Y-3.1043
T5
X1.1674Y-1.1122
X1.1674Y-2.0571
T6
X1.0674Y-1.0122
X1.0674Y-1.2122
X1.0674Y-1.9571
X1.0674Y-2.1571
X1.2674Y-1.0122
X1.2674Y-1.2122
X1.2674Y-1.9571
X1.2674Y-2.1571
M30
