<?xml version="1.0" standalone="no"?>
 <!DOCTYPE svg PUBLIC "-//W3C//DTD SVG 1.1//EN" 
 "http://www.w3.org/Graphics/SVG/1.1/DTD/svg11.dtd"> 
<svg
  xmlns:svg="http://www.w3.org/2000/svg"
  xmlns="http://www.w3.org/2000/svg"
  xmlns:xlink="http://www.w3.org/1999/xlink"
  version="1.1"
  width="297.0022mm" height="210.0072mm" viewBox="0.0000 0.0000 297.0022 210.0072">
<title>SVG Image created as LVDS_RasPi_Hat-F_Cu.svg date 2025/03/20 03:38:31 </title>
  <desc>Image generated by PCBNEW </desc>
<g style="fill:#000000; fill-opacity:1.0000;stroke:#000000; stroke-opacity:1.0000;
stroke-linecap:round; stroke-linejoin:round;"
 transform="translate(0 0) scale(1 1)">
<path style="fill:#000000; fill-opacity:1.0000; stroke:none;fill-rule:evenodd;"
d="M 108.5107,114.5766
109.5267,114.5766
109.5267,114.9322
108.5107,114.9322
Z" /> 
<path style="fill:#000000; fill-opacity:1.0000; stroke:none;fill-rule:evenodd;"
d="M 108.5107,115.5766
109.5267,115.5766
109.5267,115.9322
108.5107,115.9322
Z" /> 
<path style="fill:#000000; fill-opacity:1.0000; stroke:none;fill-rule:evenodd;"
d="M 109.9585,115.0766
110.9745,115.0766
110.9745,115.4322
109.9585,115.4322
Z" /> 
<path style="fill:#000000; fill-opacity:1.0000; stroke:none;fill-rule:evenodd;"
d="M 108.4732,110.2316
109.4892,110.2316
109.4892,110.5872
108.4732,110.5872
Z" /> 
<path style="fill:#000000; fill-opacity:1.0000; stroke:none;fill-rule:evenodd;"
d="M 108.4732,111.2316
109.4892,111.2316
109.4892,111.5872
108.4732,111.5872
Z" /> 
<path style="fill:#000000; fill-opacity:1.0000; stroke:none;fill-rule:evenodd;"
d="M 109.9210,110.7316
110.9370,110.7316
110.9370,111.0872
109.9210,111.0872
Z" /> 
<path style="fill:#000000; fill-opacity:1.0000; stroke:none;fill-rule:evenodd;"
d="M 108.4732,105.9939
109.4892,105.9939
109.4892,106.3495
108.4732,106.3495
Z" /> 
<path style="fill:#000000; fill-opacity:1.0000; stroke:none;fill-rule:evenodd;"
d="M 108.4732,106.9939
109.4892,106.9939
109.4892,107.3495
108.4732,107.3495
Z" /> 
<path style="fill:#000000; fill-opacity:1.0000; stroke:none;fill-rule:evenodd;"
d="M 109.9210,106.4939
110.9370,106.4939
110.9370,106.8495
109.9210,106.8495
Z" /> 
<path style="fill:#000000; fill-opacity:1.0000; stroke:none;fill-rule:evenodd;"
d="M 108.4657,101.8391
109.4817,101.8391
109.4817,102.1947
108.4657,102.1947
Z" /> 
<path style="fill:#000000; fill-opacity:1.0000; stroke:none;fill-rule:evenodd;"
d="M 108.4657,102.8391
109.4817,102.8391
109.4817,103.1947
108.4657,103.1947
Z" /> 
<path style="fill:#000000; fill-opacity:1.0000; stroke:none;fill-rule:evenodd;"
d="M 109.9135,102.3391
110.9295,102.3391
110.9295,102.6947
109.9135,102.6947
Z" /> 
<path style="fill:#000000; fill-opacity:1.0000; stroke:none;fill-rule:evenodd;"
d="M 108.4185,97.5120
109.4346,97.5120
109.4346,97.8676
108.4185,97.8676
Z" /> 
<path style="fill:#000000; fill-opacity:1.0000; stroke:none;fill-rule:evenodd;"
d="M 108.4185,98.5119
109.4346,98.5119
109.4346,98.8675
108.4185,98.8675
Z" /> 
<path style="fill:#000000; fill-opacity:1.0000; stroke:none;fill-rule:evenodd;"
d="M 109.8663,98.0119
110.8823,98.0119
110.8823,98.3675
109.8663,98.3675
Z" /> 
<path style="fill:#000000; fill-opacity:1.0000; stroke:none;fill-rule:evenodd;"
d="M 108.4657,93.3657
109.4817,93.3657
109.4817,93.7213
108.4657,93.7213
Z" /> 
<path style="fill:#000000; fill-opacity:1.0000; stroke:none;fill-rule:evenodd;"
d="M 108.4657,94.3657
109.4817,94.3657
109.4817,94.7213
108.4657,94.7213
Z" /> 
<path style="fill:#000000; fill-opacity:1.0000; stroke:none;fill-rule:evenodd;"
d="M 109.9135,93.8657
110.9295,93.8657
110.9295,94.2213
109.9135,94.2213
Z" /> 
<path style="fill:#000000; fill-opacity:1.0000; stroke:none;fill-rule:evenodd;"
d="M 108.4185,89.2655
109.4346,89.2655
109.4346,89.6211
108.4185,89.6211
Z" /> 
<path style="fill:#000000; fill-opacity:1.0000; stroke:none;fill-rule:evenodd;"
d="M 108.4185,90.2655
109.4346,90.2655
109.4346,90.6211
108.4185,90.6211
Z" /> 
<path style="fill:#000000; fill-opacity:1.0000; stroke:none;fill-rule:evenodd;"
d="M 109.8663,89.7655
110.8823,89.7655
110.8823,90.1211
109.8663,90.1211
Z" /> 
<path style="fill:#000000; fill-opacity:1.0000; stroke:none;fill-rule:evenodd;"
d="M 108.4185,85.1482
109.4346,85.1482
109.4346,85.5038
108.4185,85.5038
Z" /> 
<path style="fill:#000000; fill-opacity:1.0000; stroke:none;fill-rule:evenodd;"
d="M 108.4185,86.1482
109.4346,86.1482
109.4346,86.5038
108.4185,86.5038
Z" /> 
<path style="fill:#000000; fill-opacity:1.0000; stroke:none;fill-rule:evenodd;"
d="M 109.8663,85.6482
110.8823,85.6482
110.8823,86.0038
109.8663,86.0038
Z" /> 
</g>
<g style="fill:none; 
stroke:#000000; stroke-width:0.6000; stroke-opacity:1; 
stroke-linecap:round; stroke-linejoin:round;">
<path d="M78.1050 66.7000
L78.1050 67.5500
" />
<path d="M76.8350 66.7000
L76.8350 67.5500
" />
<path d="M75.5650 66.7000
L75.5650 67.5500
" />
<path d="M74.2950 66.7000
L74.2950 67.5500
" />
<path d="M74.2950 72.1500
L74.2950 73.0000
" />
<path d="M75.5650 72.1500
L75.5650 73.0000
" />
<path d="M76.8350 72.1500
L76.8350 73.0000
" />
<path d="M78.1050 72.1500
L78.1050 73.0000
" />
<path d="M86.9700 80.6450
L86.1200 80.6450
" />
<path d="M86.9700 79.3750
L86.1200 79.3750
" />
<path d="M86.9700 78.1050
L86.1200 78.1050
" />
<path d="M86.9700 76.8350
L86.1200 76.8350
" />
<path d="M81.5200 76.8350
L80.6700 76.8350
" />
<path d="M81.5200 78.1050
L80.6700 78.1050
" />
<path d="M81.5200 79.3750
L80.6700 79.3750
" />
<path d="M81.5200 80.6450
L80.6700 80.6450
" />
<path d="M71.1200 66.7000
L71.1200 67.5500
" />
<path d="M69.8500 66.7000
L69.8500 67.5500
" />
<path d="M68.5800 66.7000
L68.5800 67.5500
" />
<path d="M67.3100 66.7000
L67.3100 67.5500
" />
<path d="M67.3100 72.1500
L67.3100 73.0000
" />
<path d="M68.5800 72.1500
L68.5800 73.0000
" />
<path d="M69.8500 72.1500
L69.8500 73.0000
" />
<path d="M71.1200 72.1500
L71.1200 73.0000
" />
<path d="M86.9700 88.9000
L86.1200 88.9000
" />
<path d="M86.9700 87.6300
L86.1200 87.6300
" />
<path d="M86.9700 86.3600
L86.1200 86.3600
" />
<path d="M86.9700 85.0900
L86.1200 85.0900
" />
<path d="M81.5200 85.0900
L80.6700 85.0900
" />
<path d="M81.5200 86.3600
L80.6700 86.3600
" />
<path d="M81.5200 87.6300
L80.6700 87.6300
" />
<path d="M81.5200 88.9000
L80.6700 88.9000
" />
<path style="fill:#000000; fill-opacity:1.0000; stroke:none;fill-rule:evenodd;"
d="M 99.6125,67.7600
99.6125,69.4600
97.9125,69.4600
97.9125,67.7600
Z" /> 
</g>
<g style="fill:#000000; fill-opacity:1.0000; stroke:none;">
<circle cx="101.3025" cy="68.6100" r="0.8500" /> 
<circle cx="98.7625" cy="71.1500" r="0.8500" /> 
<circle cx="101.3025" cy="71.1500" r="0.8500" /> 
<circle cx="98.7625" cy="73.6900" r="0.8500" /> 
<circle cx="101.3025" cy="73.6900" r="0.8500" /> 
<circle cx="98.7625" cy="76.2300" r="0.8500" /> 
<circle cx="101.3025" cy="76.2300" r="0.8500" /> 
<circle cx="98.7625" cy="78.7700" r="0.8500" /> 
<circle cx="101.3025" cy="78.7700" r="0.8500" /> 
<circle cx="98.7625" cy="81.3100" r="0.8500" /> 
<circle cx="101.3025" cy="81.3100" r="0.8500" /> 
<circle cx="98.7625" cy="83.8500" r="0.8500" /> 
<circle cx="101.3025" cy="83.8500" r="0.8500" /> 
<circle cx="98.7625" cy="86.3900" r="0.8500" /> 
<circle cx="101.3025" cy="86.3900" r="0.8500" /> 
<circle cx="98.7625" cy="88.9300" r="0.8500" /> 
<circle cx="101.3025" cy="88.9300" r="0.8500" /> 
<circle cx="98.7625" cy="91.4700" r="0.8500" /> 
<circle cx="101.3025" cy="91.4700" r="0.8500" /> 
<circle cx="98.7625" cy="94.0100" r="0.8500" /> 
<circle cx="101.3025" cy="94.0100" r="0.8500" /> 
<circle cx="98.7625" cy="96.5500" r="0.8500" /> 
<circle cx="101.3025" cy="96.5500" r="0.8500" /> 
<circle cx="98.7625" cy="99.0900" r="0.8500" /> 
<circle cx="101.3025" cy="99.0900" r="0.8500" /> 
<circle cx="98.7625" cy="101.6300" r="0.8500" /> 
<circle cx="101.3025" cy="101.6300" r="0.8500" /> 
<circle cx="98.7625" cy="104.1700" r="0.8500" /> 
<circle cx="101.3025" cy="104.1700" r="0.8500" /> 
<circle cx="98.7625" cy="106.7100" r="0.8500" /> 
<circle cx="101.3025" cy="106.7100" r="0.8500" /> 
<circle cx="98.7625" cy="109.2500" r="0.8500" /> 
<circle cx="101.3025" cy="109.2500" r="0.8500" /> 
<circle cx="98.7625" cy="111.7900" r="0.8500" /> 
<circle cx="101.3025" cy="111.7900" r="0.8500" /> 
<circle cx="98.7625" cy="114.3300" r="0.8500" /> 
<circle cx="101.3025" cy="114.3300" r="0.8500" /> 
<circle cx="98.7625" cy="116.8700" r="0.8500" /> 
<circle cx="101.3025" cy="116.8700" r="0.8500" /> 
<path style="fill:#000000; fill-opacity:1.0000; stroke:none;fill-rule:evenodd;"
d="M 110.6347,113.2783
110.6469,113.2171
110.6816,113.1652
110.7335,113.1305
110.7947,113.1183
111.1897,113.1183
111.2509,113.1305
111.3028,113.1652
111.3375,113.2171
111.3497,113.2783
111.3497,113.5983
111.3375,113.6595
111.3028,113.7114
111.2509,113.7461
111.1897,113.7583
110.7947,113.7583
110.7335,113.7461
110.6816,113.7114
110.6469,113.6595
110.6347,113.5983
Z" /> 
<path style="fill:#000000; fill-opacity:1.0000; stroke:none;fill-rule:evenodd;"
d="M 111.8297,113.2783
111.8419,113.2171
111.8766,113.1652
111.9285,113.1305
111.9897,113.1183
112.3847,113.1183
112.4459,113.1305
112.4978,113.1652
112.5325,113.2171
112.5447,113.2783
112.5447,113.5983
112.5325,113.6595
112.4978,113.7114
112.4459,113.7461
112.3847,113.7583
111.9897,113.7583
111.9285,113.7461
111.8766,113.7114
111.8419,113.6595
111.8297,113.5983
Z" /> 
<path style="fill:#000000; fill-opacity:1.0000; stroke:none;fill-rule:evenodd;"
d="M 110.5972,108.9333
110.6094,108.8721
110.6441,108.8202
110.6960,108.7855
110.7572,108.7733
111.1522,108.7733
111.2134,108.7855
111.2653,108.8202
111.3000,108.8721
111.3122,108.9333
111.3122,109.2533
111.3000,109.3145
111.2653,109.3664
111.2134,109.4011
111.1522,109.4133
110.7572,109.4133
110.6960,109.4011
110.6441,109.3664
110.6094,109.3145
110.5972,109.2533
Z" /> 
<path style="fill:#000000; fill-opacity:1.0000; stroke:none;fill-rule:evenodd;"
d="M 111.7922,108.9333
111.8044,108.8721
111.8391,108.8202
111.8910,108.7855
111.9522,108.7733
112.3472,108.7733
112.4084,108.7855
112.4603,108.8202
112.4950,108.8721
112.5072,108.9333
112.5072,109.2533
112.4950,109.3145
112.4603,109.3664
112.4084,109.4011
112.3472,109.4133
111.9522,109.4133
111.8910,109.4011
111.8391,109.3664
111.8044,109.3145
111.7922,109.2533
Z" /> 
<path style="fill:#000000; fill-opacity:1.0000; stroke:none;fill-rule:evenodd;"
d="M 110.5972,104.6956
110.6094,104.6344
110.6441,104.5825
110.6960,104.5478
110.7572,104.5356
111.1522,104.5356
111.2134,104.5478
111.2653,104.5825
111.3000,104.6344
111.3122,104.6956
111.3122,105.0156
111.3000,105.0768
111.2653,105.1287
111.2134,105.1634
111.1522,105.1756
110.7572,105.1756
110.6960,105.1634
110.6441,105.1287
110.6094,105.0768
110.5972,105.0156
Z" /> 
<path style="fill:#000000; fill-opacity:1.0000; stroke:none;fill-rule:evenodd;"
d="M 111.7922,104.6956
111.8044,104.6344
111.8391,104.5825
111.8910,104.5478
111.9522,104.5356
112.3472,104.5356
112.4084,104.5478
112.4603,104.5825
112.4950,104.6344
112.5072,104.6956
112.5072,105.0156
112.4950,105.0768
112.4603,105.1287
112.4084,105.1634
112.3472,105.1756
111.9522,105.1756
111.8910,105.1634
111.8391,105.1287
111.8044,105.0768
111.7922,105.0156
Z" /> 
<path style="fill:#000000; fill-opacity:1.0000; stroke:none;fill-rule:evenodd;"
d="M 110.5897,100.5408
110.6019,100.4796
110.6366,100.4277
110.6885,100.3930
110.7497,100.3808
111.1447,100.3808
111.2059,100.3930
111.2578,100.4277
111.2925,100.4796
111.3047,100.5408
111.3047,100.8608
111.2925,100.9220
111.2578,100.9739
111.2059,101.0086
111.1447,101.0208
110.7497,101.0208
110.6885,101.0086
110.6366,100.9739
110.6019,100.9220
110.5897,100.8608
Z" /> 
<path style="fill:#000000; fill-opacity:1.0000; stroke:none;fill-rule:evenodd;"
d="M 111.7847,100.5408
111.7969,100.4796
111.8316,100.4277
111.8835,100.3930
111.9447,100.3808
112.3397,100.3808
112.4009,100.3930
112.4528,100.4277
112.4875,100.4796
112.4997,100.5408
112.4997,100.8608
112.4875,100.9220
112.4528,100.9739
112.4009,101.0086
112.3397,101.0208
111.9447,101.0208
111.8835,101.0086
111.8316,100.9739
111.7969,100.9220
111.7847,100.8608
Z" /> 
<path style="fill:#000000; fill-opacity:1.0000; stroke:none;fill-rule:evenodd;"
d="M 110.5425,96.2137
110.5547,96.1524
110.5894,96.1005
110.6413,96.0658
110.7025,96.0536
111.0975,96.0536
111.1588,96.0658
111.2107,96.1005
111.2454,96.1524
111.2575,96.2137
111.2575,96.5336
111.2454,96.5949
111.2107,96.6468
111.1588,96.6815
111.0975,96.6936
110.7025,96.6936
110.6413,96.6815
110.5894,96.6468
110.5547,96.5949
110.5425,96.5336
Z" /> 
<path style="fill:#000000; fill-opacity:1.0000; stroke:none;fill-rule:evenodd;"
d="M 111.7375,96.2137
111.7497,96.1524
111.7844,96.1005
111.8363,96.0658
111.8975,96.0536
112.2925,96.0536
112.3538,96.0658
112.4057,96.1005
112.4404,96.1524
112.4525,96.2137
112.4525,96.5336
112.4404,96.5949
112.4057,96.6468
112.3538,96.6815
112.2925,96.6936
111.8975,96.6936
111.8363,96.6815
111.7844,96.6468
111.7497,96.5949
111.7375,96.5336
Z" /> 
<path style="fill:#000000; fill-opacity:1.0000; stroke:none;fill-rule:evenodd;"
d="M 110.5897,92.0674
110.6019,92.0062
110.6366,91.9543
110.6885,91.9196
110.7497,91.9074
111.1447,91.9074
111.2059,91.9196
111.2578,91.9543
111.2925,92.0062
111.3047,92.0674
111.3047,92.3874
111.2925,92.4486
111.2578,92.5005
111.2059,92.5352
111.1447,92.5474
110.7497,92.5474
110.6885,92.5352
110.6366,92.5005
110.6019,92.4486
110.5897,92.3874
Z" /> 
<path style="fill:#000000; fill-opacity:1.0000; stroke:none;fill-rule:evenodd;"
d="M 111.7847,92.0674
111.7969,92.0062
111.8316,91.9543
111.8835,91.9196
111.9447,91.9074
112.3397,91.9074
112.4009,91.9196
112.4528,91.9543
112.4875,92.0062
112.4997,92.0674
112.4997,92.3874
112.4875,92.4486
112.4528,92.5005
112.4009,92.5352
112.3397,92.5474
111.9447,92.5474
111.8835,92.5352
111.8316,92.5005
111.7969,92.4486
111.7847,92.3874
Z" /> 
<path style="fill:#000000; fill-opacity:1.0000; stroke:none;fill-rule:evenodd;"
d="M 110.5425,87.9672
110.5547,87.9060
110.5894,87.8541
110.6413,87.8194
110.7025,87.8072
111.0975,87.8072
111.1588,87.8194
111.2107,87.8541
111.2454,87.9060
111.2575,87.9672
111.2575,88.2872
111.2454,88.3484
111.2107,88.4003
111.1588,88.4350
111.0975,88.4472
110.7025,88.4472
110.6413,88.4350
110.5894,88.4003
110.5547,88.3484
110.5425,88.2872
Z" /> 
<path style="fill:#000000; fill-opacity:1.0000; stroke:none;fill-rule:evenodd;"
d="M 111.7375,87.9672
111.7497,87.9060
111.7844,87.8541
111.8363,87.8194
111.8975,87.8072
112.2925,87.8072
112.3538,87.8194
112.4057,87.8541
112.4404,87.9060
112.4525,87.9672
112.4525,88.2872
112.4404,88.3484
112.4057,88.4003
112.3538,88.4350
112.2925,88.4472
111.8975,88.4472
111.8363,88.4350
111.7844,88.4003
111.7497,88.3484
111.7375,88.2872
Z" /> 
<path style="fill:#000000; fill-opacity:1.0000; stroke:none;fill-rule:evenodd;"
d="M 110.5425,83.8499
110.5547,83.7887
110.5894,83.7368
110.6413,83.7021
110.7025,83.6899
111.0975,83.6899
111.1588,83.7021
111.2107,83.7368
111.2454,83.7887
111.2575,83.8499
111.2575,84.1699
111.2454,84.2311
111.2107,84.2830
111.1588,84.3177
111.0975,84.3299
110.7025,84.3299
110.6413,84.3177
110.5894,84.2830
110.5547,84.2311
110.5425,84.1699
Z" /> 
<path style="fill:#000000; fill-opacity:1.0000; stroke:none;fill-rule:evenodd;"
d="M 111.7375,83.8499
111.7497,83.7887
111.7844,83.7368
111.8363,83.7021
111.8975,83.6899
112.2925,83.6899
112.3538,83.7021
112.4057,83.7368
112.4404,83.7887
112.4525,83.8499
112.4525,84.1699
112.4404,84.2311
112.4057,84.2830
112.3538,84.3177
112.2925,84.3299
111.8975,84.3299
111.8363,84.3177
111.7844,84.2830
111.7497,84.2311
111.7375,84.1699
Z" /> 
<path style="fill:#000000; fill-opacity:1.0000; stroke:none;fill-rule:evenodd;"
d="M 112.3847,114.3883
112.4459,114.4005
112.4978,114.4352
112.5325,114.4871
112.5447,114.5483
112.5447,114.9933
112.5325,115.0545
112.4978,115.1064
112.4459,115.1411
112.3847,115.1533
112.0647,115.1533
112.0035,115.1411
111.9516,115.1064
111.9169,115.0545
111.9047,114.9933
111.9047,114.5483
111.9169,114.4871
111.9516,114.4352
112.0035,114.4005
112.0647,114.3883
Z" /> 
<path style="fill:#000000; fill-opacity:1.0000; stroke:none;fill-rule:evenodd;"
d="M 112.3847,115.5333
112.4459,115.5455
112.4978,115.5802
112.5325,115.6321
112.5447,115.6933
112.5447,116.1383
112.5325,116.1995
112.4978,116.2514
112.4459,116.2861
112.3847,116.2983
112.0647,116.2983
112.0035,116.2861
111.9516,116.2514
111.9169,116.1995
111.9047,116.1383
111.9047,115.6933
111.9169,115.6321
111.9516,115.5802
112.0035,115.5455
112.0647,115.5333
Z" /> 
<path style="fill:#000000; fill-opacity:1.0000; stroke:none;fill-rule:evenodd;"
d="M 112.3472,110.0433
112.4084,110.0555
112.4603,110.0902
112.4950,110.1421
112.5072,110.2033
112.5072,110.6483
112.4950,110.7095
112.4603,110.7614
112.4084,110.7961
112.3472,110.8083
112.0272,110.8083
111.9660,110.7961
111.9141,110.7614
111.8794,110.7095
111.8672,110.6483
111.8672,110.2033
111.8794,110.1421
111.9141,110.0902
111.9660,110.0555
112.0272,110.0433
Z" /> 
<path style="fill:#000000; fill-opacity:1.0000; stroke:none;fill-rule:evenodd;"
d="M 112.3472,111.1883
112.4084,111.2005
112.4603,111.2352
112.4950,111.2871
112.5072,111.3483
112.5072,111.7933
112.4950,111.8545
112.4603,111.9064
112.4084,111.9411
112.3472,111.9533
112.0272,111.9533
111.9660,111.9411
111.9141,111.9064
111.8794,111.8545
111.8672,111.7933
111.8672,111.3483
111.8794,111.2871
111.9141,111.2352
111.9660,111.2005
112.0272,111.1883
Z" /> 
<path style="fill:#000000; fill-opacity:1.0000; stroke:none;fill-rule:evenodd;"
d="M 112.3472,105.8056
112.4084,105.8178
112.4603,105.8525
112.4950,105.9044
112.5072,105.9656
112.5072,106.4106
112.4950,106.4718
112.4603,106.5237
112.4084,106.5584
112.3472,106.5706
112.0272,106.5706
111.9660,106.5584
111.9141,106.5237
111.8794,106.4718
111.8672,106.4106
111.8672,105.9656
111.8794,105.9044
111.9141,105.8525
111.9660,105.8178
112.0272,105.8056
Z" /> 
<path style="fill:#000000; fill-opacity:1.0000; stroke:none;fill-rule:evenodd;"
d="M 112.3472,106.9506
112.4084,106.9628
112.4603,106.9975
112.4950,107.0494
112.5072,107.1106
112.5072,107.5556
112.4950,107.6168
112.4603,107.6687
112.4084,107.7034
112.3472,107.7156
112.0272,107.7156
111.9660,107.7034
111.9141,107.6687
111.8794,107.6168
111.8672,107.5556
111.8672,107.1106
111.8794,107.0494
111.9141,106.9975
111.9660,106.9628
112.0272,106.9506
Z" /> 
<path style="fill:#000000; fill-opacity:1.0000; stroke:none;fill-rule:evenodd;"
d="M 112.3397,101.6508
112.4009,101.6630
112.4528,101.6977
112.4875,101.7496
112.4997,101.8108
112.4997,102.2558
112.4875,102.3170
112.4528,102.3689
112.4009,102.4036
112.3397,102.4158
112.0197,102.4158
111.9585,102.4036
111.9066,102.3689
111.8719,102.3170
111.8597,102.2558
111.8597,101.8108
111.8719,101.7496
111.9066,101.6977
111.9585,101.6630
112.0197,101.6508
Z" /> 
<path style="fill:#000000; fill-opacity:1.0000; stroke:none;fill-rule:evenodd;"
d="M 112.3397,102.7958
112.4009,102.8080
112.4528,102.8427
112.4875,102.8946
112.4997,102.9558
112.4997,103.4008
112.4875,103.4620
112.4528,103.5139
112.4009,103.5486
112.3397,103.5608
112.0197,103.5608
111.9585,103.5486
111.9066,103.5139
111.8719,103.4620
111.8597,103.4008
111.8597,102.9558
111.8719,102.8946
111.9066,102.8427
111.9585,102.8080
112.0197,102.7958
Z" /> 
<path style="fill:#000000; fill-opacity:1.0000; stroke:none;fill-rule:evenodd;"
d="M 112.2925,97.3237
112.3538,97.3358
112.4057,97.3705
112.4404,97.4224
112.4525,97.4836
112.4525,97.9286
112.4404,97.9899
112.4057,98.0418
112.3538,98.0765
112.2925,98.0887
111.9725,98.0887
111.9113,98.0765
111.8594,98.0418
111.8247,97.9899
111.8126,97.9286
111.8126,97.4836
111.8247,97.4224
111.8594,97.3705
111.9113,97.3358
111.9725,97.3237
Z" /> 
<path style="fill:#000000; fill-opacity:1.0000; stroke:none;fill-rule:evenodd;"
d="M 112.2925,98.4686
112.3538,98.4808
112.4057,98.5155
112.4404,98.5674
112.4525,98.6286
112.4525,99.0737
112.4404,99.1349
112.4057,99.1868
112.3538,99.2215
112.2925,99.2336
111.9725,99.2336
111.9113,99.2215
111.8594,99.1868
111.8247,99.1349
111.8126,99.0737
111.8126,98.6286
111.8247,98.5674
111.8594,98.5155
111.9113,98.4808
111.9725,98.4686
Z" /> 
<path style="fill:#000000; fill-opacity:1.0000; stroke:none;fill-rule:evenodd;"
d="M 112.3397,93.1774
112.4009,93.1896
112.4528,93.2243
112.4875,93.2762
112.4997,93.3374
112.4997,93.7824
112.4875,93.8436
112.4528,93.8955
112.4009,93.9302
112.3397,93.9424
112.0197,93.9424
111.9585,93.9302
111.9066,93.8955
111.8719,93.8436
111.8597,93.7824
111.8597,93.3374
111.8719,93.2762
111.9066,93.2243
111.9585,93.1896
112.0197,93.1774
Z" /> 
<path style="fill:#000000; fill-opacity:1.0000; stroke:none;fill-rule:evenodd;"
d="M 112.3397,94.3224
112.4009,94.3346
112.4528,94.3693
112.4875,94.4212
112.4997,94.4824
112.4997,94.9274
112.4875,94.9886
112.4528,95.0405
112.4009,95.0752
112.3397,95.0874
112.0197,95.0874
111.9585,95.0752
111.9066,95.0405
111.8719,94.9886
111.8597,94.9274
111.8597,94.4824
111.8719,94.4212
111.9066,94.3693
111.9585,94.3346
112.0197,94.3224
Z" /> 
<path style="fill:#000000; fill-opacity:1.0000; stroke:none;fill-rule:evenodd;"
d="M 112.2925,89.0772
112.3538,89.0894
112.4057,89.1241
112.4404,89.1760
112.4525,89.2372
112.4525,89.6822
112.4404,89.7434
112.4057,89.7953
112.3538,89.8300
112.2925,89.8422
111.9725,89.8422
111.9113,89.8300
111.8594,89.7953
111.8247,89.7434
111.8126,89.6822
111.8126,89.2372
111.8247,89.1760
111.8594,89.1241
111.9113,89.0894
111.9725,89.0772
Z" /> 
<path style="fill:#000000; fill-opacity:1.0000; stroke:none;fill-rule:evenodd;"
d="M 112.2925,90.2222
112.3538,90.2344
112.4057,90.2691
112.4404,90.3210
112.4525,90.3822
112.4525,90.8272
112.4404,90.8884
112.4057,90.9403
112.3538,90.9750
112.2925,90.9872
111.9725,90.9872
111.9113,90.9750
111.8594,90.9403
111.8247,90.8884
111.8126,90.8272
111.8126,90.3822
111.8247,90.3210
111.8594,90.2691
111.9113,90.2344
111.9725,90.2222
Z" /> 
<path style="fill:#000000; fill-opacity:1.0000; stroke:none;fill-rule:evenodd;"
d="M 112.2925,84.9599
112.3538,84.9721
112.4057,85.0068
112.4404,85.0587
112.4525,85.1199
112.4525,85.5649
112.4404,85.6261
112.4057,85.6780
112.3538,85.7127
112.2925,85.7249
111.9725,85.7249
111.9113,85.7127
111.8594,85.6780
111.8247,85.6261
111.8126,85.5649
111.8126,85.1199
111.8247,85.0587
111.8594,85.0068
111.9113,84.9721
111.9725,84.9599
Z" /> 
<path style="fill:#000000; fill-opacity:1.0000; stroke:none;fill-rule:evenodd;"
d="M 112.2925,86.1049
112.3538,86.1171
112.4057,86.1518
112.4404,86.2037
112.4525,86.2649
112.4525,86.7099
112.4404,86.7711
112.4057,86.8230
112.3538,86.8577
112.2925,86.8699
111.9725,86.8699
111.9113,86.8577
111.8594,86.8230
111.8247,86.7711
111.8126,86.7099
111.8126,86.2649
111.8247,86.2037
111.8594,86.1518
111.9113,86.1171
111.9725,86.1049
Z" /> 
<path style="fill:#000000; fill-opacity:1.0000; stroke:none;fill-rule:evenodd;"
d="M 68.9229,119.8499
68.2371,119.8499
68.2371,117.6909
68.9229,117.6909
Z" /> 
<path style="fill:#000000; fill-opacity:1.0000; stroke:none;fill-rule:evenodd;"
d="M 71.4629,119.8499
70.7771,119.8499
70.7771,117.6909
71.4629,117.6909
Z" /> 
<path style="fill:#000000; fill-opacity:1.0000; stroke:none;fill-rule:evenodd;"
d="M 74.0029,119.8499
73.3171,119.8499
73.3171,117.6909
74.0029,117.6909
Z" /> 
<path style="fill:#000000; fill-opacity:1.0000; stroke:none;fill-rule:evenodd;"
d="M 76.5429,119.8499
75.8571,119.8499
75.8571,117.6909
76.5429,117.6909
Z" /> 
<path style="fill:#000000; fill-opacity:1.0000; stroke:none;fill-rule:evenodd;"
d="M 79.0829,119.8499
78.3971,119.8499
78.3971,117.6909
79.0829,117.6909
Z" /> 
<path style="fill:#000000; fill-opacity:1.0000; stroke:none;fill-rule:evenodd;"
d="M 81.6229,119.8499
80.9371,119.8499
80.9371,117.6909
81.6229,117.6909
Z" /> 
<path style="fill:#000000; fill-opacity:1.0000; stroke:none;fill-rule:evenodd;"
d="M 84.1629,119.8499
83.4771,119.8499
83.4771,117.6909
84.1629,117.6909
Z" /> 
<path style="fill:#000000; fill-opacity:1.0000; stroke:none;fill-rule:evenodd;"
d="M 86.7029,119.8499
86.0171,119.8499
86.0171,117.6909
86.7029,117.6909
Z" /> 
<path style="fill:#000000; fill-opacity:1.0000; stroke:none;fill-rule:evenodd;"
d="M 86.7029,110.9091
86.0171,110.9091
86.0171,108.7501
86.7029,108.7501
Z" /> 
<path style="fill:#000000; fill-opacity:1.0000; stroke:none;fill-rule:evenodd;"
d="M 84.1629,110.9091
83.4771,110.9091
83.4771,108.7501
84.1629,108.7501
Z" /> 
<path style="fill:#000000; fill-opacity:1.0000; stroke:none;fill-rule:evenodd;"
d="M 81.6229,110.9091
80.9371,110.9091
80.9371,108.7501
81.6229,108.7501
Z" /> 
<path style="fill:#000000; fill-opacity:1.0000; stroke:none;fill-rule:evenodd;"
d="M 79.0829,110.9091
78.3971,110.9091
78.3971,108.7501
79.0829,108.7501
Z" /> 
<path style="fill:#000000; fill-opacity:1.0000; stroke:none;fill-rule:evenodd;"
d="M 76.5429,110.9091
75.8571,110.9091
75.8571,108.7501
76.5429,108.7501
Z" /> 
<path style="fill:#000000; fill-opacity:1.0000; stroke:none;fill-rule:evenodd;"
d="M 74.0029,110.9091
73.3171,110.9091
73.3171,108.7501
74.0029,108.7501
Z" /> 
<path style="fill:#000000; fill-opacity:1.0000; stroke:none;fill-rule:evenodd;"
d="M 71.4629,110.9091
70.7771,110.9091
70.7771,108.7501
71.4629,108.7501
Z" /> 
<path style="fill:#000000; fill-opacity:1.0000; stroke:none;fill-rule:evenodd;"
d="M 68.9229,110.9091
68.2371,110.9091
68.2371,108.7501
68.9229,108.7501
Z" /> 
<path style="fill:#000000; fill-opacity:1.0000; stroke:none;fill-rule:evenodd;"
d="M 66.9900,120.8075
67.0022,120.7463
67.0369,120.6944
67.0888,120.6597
67.1500,120.6475
67.5450,120.6475
67.6062,120.6597
67.6581,120.6944
67.6928,120.7463
67.7050,120.8075
67.7050,121.1275
67.6928,121.1887
67.6581,121.2406
67.6062,121.2753
67.5450,121.2875
67.1500,121.2875
67.0888,121.2753
67.0369,121.2406
67.0022,121.1887
66.9900,121.1275
Z" /> 
<path style="fill:#000000; fill-opacity:1.0000; stroke:none;fill-rule:evenodd;"
d="M 68.1850,120.8075
68.1972,120.7463
68.2319,120.6944
68.2838,120.6597
68.3450,120.6475
68.7400,120.6475
68.8012,120.6597
68.8531,120.6944
68.8878,120.7463
68.9000,120.8075
68.9000,121.1275
68.8878,121.1887
68.8531,121.2406
68.8012,121.2753
68.7400,121.2875
68.3450,121.2875
68.2838,121.2753
68.2319,121.2406
68.1972,121.1887
68.1850,121.1275
Z" /> 
<path style="fill:#000000; fill-opacity:1.0000; stroke:none;fill-rule:evenodd;"
d="M 69.5300,120.8075
69.5422,120.7463
69.5769,120.6944
69.6288,120.6597
69.6900,120.6475
70.0850,120.6475
70.1462,120.6597
70.1981,120.6944
70.2328,120.7463
70.2450,120.8075
70.2450,121.1275
70.2328,121.1887
70.1981,121.2406
70.1462,121.2753
70.0850,121.2875
69.6900,121.2875
69.6288,121.2753
69.5769,121.2406
69.5422,121.1887
69.5300,121.1275
Z" /> 
<path style="fill:#000000; fill-opacity:1.0000; stroke:none;fill-rule:evenodd;"
d="M 70.7250,120.8075
70.7372,120.7463
70.7719,120.6944
70.8238,120.6597
70.8850,120.6475
71.2800,120.6475
71.3412,120.6597
71.3931,120.6944
71.4278,120.7463
71.4400,120.8075
71.4400,121.1275
71.4278,121.1887
71.3931,121.2406
71.3412,121.2753
71.2800,121.2875
70.8850,121.2875
70.8238,121.2753
70.7719,121.2406
70.7372,121.1887
70.7250,121.1275
Z" /> 
<path style="fill:#000000; fill-opacity:1.0000; stroke:none;fill-rule:evenodd;"
d="M 72.0700,120.8075
72.0822,120.7463
72.1169,120.6944
72.1688,120.6597
72.2300,120.6475
72.6250,120.6475
72.6862,120.6597
72.7381,120.6944
72.7728,120.7463
72.7850,120.8075
72.7850,121.1275
72.7728,121.1887
72.7381,121.2406
72.6862,121.2753
72.6250,121.2875
72.2300,121.2875
72.1688,121.2753
72.1169,121.2406
72.0822,121.1887
72.0700,121.1275
Z" /> 
<path style="fill:#000000; fill-opacity:1.0000; stroke:none;fill-rule:evenodd;"
d="M 73.2650,120.8075
73.2772,120.7463
73.3119,120.6944
73.3638,120.6597
73.4250,120.6475
73.8200,120.6475
73.8812,120.6597
73.9331,120.6944
73.9678,120.7463
73.9800,120.8075
73.9800,121.1275
73.9678,121.1887
73.9331,121.2406
73.8812,121.2753
73.8200,121.2875
73.4250,121.2875
73.3638,121.2753
73.3119,121.2406
73.2772,121.1887
73.2650,121.1275
Z" /> 
<path style="fill:#000000; fill-opacity:1.0000; stroke:none;fill-rule:evenodd;"
d="M 74.6100,120.8075
74.6222,120.7463
74.6569,120.6944
74.7088,120.6597
74.7700,120.6475
75.1650,120.6475
75.2262,120.6597
75.2781,120.6944
75.3128,120.7463
75.3250,120.8075
75.3250,121.1275
75.3128,121.1887
75.2781,121.2406
75.2262,121.2753
75.1650,121.2875
74.7700,121.2875
74.7088,121.2753
74.6569,121.2406
74.6222,121.1887
74.6100,121.1275
Z" /> 
<path style="fill:#000000; fill-opacity:1.0000; stroke:none;fill-rule:evenodd;"
d="M 75.8050,120.8075
75.8172,120.7463
75.8519,120.6944
75.9038,120.6597
75.9650,120.6475
76.3600,120.6475
76.4212,120.6597
76.4731,120.6944
76.5078,120.7463
76.5200,120.8075
76.5200,121.1275
76.5078,121.1887
76.4731,121.2406
76.4212,121.2753
76.3600,121.2875
75.9650,121.2875
75.9038,121.2753
75.8519,121.2406
75.8172,121.1887
75.8050,121.1275
Z" /> 
<path style="fill:#000000; fill-opacity:1.0000; stroke:none;fill-rule:evenodd;"
d="M 77.1500,120.8075
77.1622,120.7463
77.1969,120.6944
77.2488,120.6597
77.3100,120.6475
77.7050,120.6475
77.7662,120.6597
77.8181,120.6944
77.8528,120.7463
77.8650,120.8075
77.8650,121.1275
77.8528,121.1887
77.8181,121.2406
77.7662,121.2753
77.7050,121.2875
77.3100,121.2875
77.2488,121.2753
77.1969,121.2406
77.1622,121.1887
77.1500,121.1275
Z" /> 
<path style="fill:#000000; fill-opacity:1.0000; stroke:none;fill-rule:evenodd;"
d="M 78.3450,120.8075
78.3572,120.7463
78.3919,120.6944
78.4438,120.6597
78.5050,120.6475
78.9000,120.6475
78.9612,120.6597
79.0131,120.6944
79.0478,120.7463
79.0600,120.8075
79.0600,121.1275
79.0478,121.1887
79.0131,121.2406
78.9612,121.2753
78.9000,121.2875
78.5050,121.2875
78.4438,121.2753
78.3919,121.2406
78.3572,121.1887
78.3450,121.1275
Z" /> 
<path style="fill:#000000; fill-opacity:1.0000; stroke:none;fill-rule:evenodd;"
d="M 79.6900,120.8075
79.7022,120.7463
79.7369,120.6944
79.7888,120.6597
79.8500,120.6475
80.2450,120.6475
80.3062,120.6597
80.3581,120.6944
80.3928,120.7463
80.4050,120.8075
80.4050,121.1275
80.3928,121.1887
80.3581,121.2406
80.3062,121.2753
80.2450,121.2875
79.8500,121.2875
79.7888,121.2753
79.7369,121.2406
79.7022,121.1887
79.6900,121.1275
Z" /> 
<path style="fill:#000000; fill-opacity:1.0000; stroke:none;fill-rule:evenodd;"
d="M 80.8850,120.8075
80.8972,120.7463
80.9319,120.6944
80.9838,120.6597
81.0450,120.6475
81.4400,120.6475
81.5012,120.6597
81.5531,120.6944
81.5878,120.7463
81.6000,120.8075
81.6000,121.1275
81.5878,121.1887
81.5531,121.2406
81.5012,121.2753
81.4400,121.2875
81.0450,121.2875
80.9838,121.2753
80.9319,121.2406
80.8972,121.1887
80.8850,121.1275
Z" /> 
<path style="fill:#000000; fill-opacity:1.0000; stroke:none;fill-rule:evenodd;"
d="M 82.2300,120.8075
82.2422,120.7463
82.2769,120.6944
82.3288,120.6597
82.3900,120.6475
82.7850,120.6475
82.8462,120.6597
82.8981,120.6944
82.9328,120.7463
82.9450,120.8075
82.9450,121.1275
82.9328,121.1887
82.8981,121.2406
82.8462,121.2753
82.7850,121.2875
82.3900,121.2875
82.3288,121.2753
82.2769,121.2406
82.2422,121.1887
82.2300,121.1275
Z" /> 
<path style="fill:#000000; fill-opacity:1.0000; stroke:none;fill-rule:evenodd;"
d="M 83.4250,120.8075
83.4372,120.7463
83.4719,120.6944
83.5238,120.6597
83.5850,120.6475
83.9800,120.6475
84.0412,120.6597
84.0931,120.6944
84.1278,120.7463
84.1400,120.8075
84.1400,121.1275
84.1278,121.1887
84.0931,121.2406
84.0412,121.2753
83.9800,121.2875
83.5850,121.2875
83.5238,121.2753
83.4719,121.2406
83.4372,121.1887
83.4250,121.1275
Z" /> 
<path style="fill:#000000; fill-opacity:1.0000; stroke:none;fill-rule:evenodd;"
d="M 84.7700,120.8075
84.7822,120.7463
84.8169,120.6944
84.8688,120.6597
84.9300,120.6475
85.3250,120.6475
85.3862,120.6597
85.4381,120.6944
85.4728,120.7463
85.4850,120.8075
85.4850,121.1275
85.4728,121.1887
85.4381,121.2406
85.3862,121.2753
85.3250,121.2875
84.9300,121.2875
84.8688,121.2753
84.8169,121.2406
84.7822,121.1887
84.7700,121.1275
Z" /> 
<path style="fill:#000000; fill-opacity:1.0000; stroke:none;fill-rule:evenodd;"
d="M 85.9650,120.8075
85.9772,120.7463
86.0119,120.6944
86.0638,120.6597
86.1250,120.6475
86.5200,120.6475
86.5812,120.6597
86.6331,120.6944
86.6678,120.7463
86.6800,120.8075
86.6800,121.1275
86.6678,121.1887
86.6331,121.2406
86.5812,121.2753
86.5200,121.2875
86.1250,121.2875
86.0638,121.2753
86.0119,121.2406
85.9772,121.1887
85.9650,121.1275
Z" /> 
<path style="fill:#000000; fill-opacity:1.0000; stroke:none;fill-rule:evenodd;"
d="M 80.1878,95.5294
80.1878,94.9706
82.3722,94.9706
82.3722,95.5294
Z" /> 
<path style="fill:#000000; fill-opacity:1.0000; stroke:none;fill-rule:evenodd;"
d="M 80.1878,96.7994
80.1878,96.2406
82.3722,96.2406
82.3722,96.7994
Z" /> 
<path style="fill:#000000; fill-opacity:1.0000; stroke:none;fill-rule:evenodd;"
d="M 80.1878,98.0694
80.1878,97.5106
82.3722,97.5106
82.3722,98.0694
Z" /> 
<path style="fill:#000000; fill-opacity:1.0000; stroke:none;fill-rule:evenodd;"
d="M 80.1878,99.3394
80.1878,98.7806
82.3722,98.7806
82.3722,99.3394
Z" /> 
<path style="fill:#000000; fill-opacity:1.0000; stroke:none;fill-rule:evenodd;"
d="M 80.1878,100.6094
80.1878,100.0506
82.3722,100.0506
82.3722,100.6094
Z" /> 
<path style="fill:#000000; fill-opacity:1.0000; stroke:none;fill-rule:evenodd;"
d="M 80.1878,101.8794
80.1878,101.3206
82.3722,101.3206
82.3722,101.8794
Z" /> 
<path style="fill:#000000; fill-opacity:1.0000; stroke:none;fill-rule:evenodd;"
d="M 80.1878,103.1494
80.1878,102.5906
82.3722,102.5906
82.3722,103.1494
Z" /> 
<path style="fill:#000000; fill-opacity:1.0000; stroke:none;fill-rule:evenodd;"
d="M 80.1878,104.4194
80.1878,103.8606
82.3722,103.8606
82.3722,104.4194
Z" /> 
<path style="fill:#000000; fill-opacity:1.0000; stroke:none;fill-rule:evenodd;"
d="M 84.9122,104.4194
84.9122,103.8606
87.0966,103.8606
87.0966,104.4194
Z" /> 
<path style="fill:#000000; fill-opacity:1.0000; stroke:none;fill-rule:evenodd;"
d="M 84.9122,103.1494
84.9122,102.5906
87.0966,102.5906
87.0966,103.1494
Z" /> 
<path style="fill:#000000; fill-opacity:1.0000; stroke:none;fill-rule:evenodd;"
d="M 84.9122,101.8794
84.9122,101.3206
87.0966,101.3206
87.0966,101.8794
Z" /> 
<path style="fill:#000000; fill-opacity:1.0000; stroke:none;fill-rule:evenodd;"
d="M 84.9122,100.6094
84.9122,100.0506
87.0966,100.0506
87.0966,100.6094
Z" /> 
<path style="fill:#000000; fill-opacity:1.0000; stroke:none;fill-rule:evenodd;"
d="M 84.9122,99.3394
84.9122,98.7806
87.0966,98.7806
87.0966,99.3394
Z" /> 
<path style="fill:#000000; fill-opacity:1.0000; stroke:none;fill-rule:evenodd;"
d="M 84.9122,98.0694
84.9122,97.5106
87.0966,97.5106
87.0966,98.0694
Z" /> 
<path style="fill:#000000; fill-opacity:1.0000; stroke:none;fill-rule:evenodd;"
d="M 84.9122,96.7994
84.9122,96.2406
87.0966,96.2406
87.0966,96.7994
Z" /> 
<path style="fill:#000000; fill-opacity:1.0000; stroke:none;fill-rule:evenodd;"
d="M 84.9122,95.5294
84.9122,94.9706
87.0966,94.9706
87.0966,95.5294
Z" /> 
<path style="fill:#000000; fill-opacity:1.0000; stroke:none;fill-rule:evenodd;"
d="M 79.5375,73.0075
79.4782,72.9957
79.4279,72.9621
79.3943,72.9118
79.3825,72.8525
79.3825,72.4275
79.3943,72.3682
79.4279,72.3179
79.4782,72.2843
79.5375,72.2725
79.8475,72.2725
79.9068,72.2843
79.9571,72.3179
79.9907,72.3682
80.0025,72.4275
80.0025,72.8525
79.9907,72.9118
79.9571,72.9621
79.9068,72.9957
79.8475,73.0075
Z" /> 
<path style="fill:#000000; fill-opacity:1.0000; stroke:none;fill-rule:evenodd;"
d="M 79.5375,71.8725
79.4782,71.8607
79.4279,71.8271
79.3943,71.7768
79.3825,71.7175
79.3825,71.2925
79.3943,71.2332
79.4279,71.1829
79.4782,71.1493
79.5375,71.1375
79.8475,71.1375
79.9068,71.1493
79.9571,71.1829
79.9907,71.2332
80.0025,71.2925
80.0025,71.7175
79.9907,71.7768
79.9571,71.8271
79.9068,71.8607
79.8475,71.8725
Z" /> 
<path style="fill:#000000; fill-opacity:1.0000; stroke:none;fill-rule:evenodd;"
d="M 72.5525,73.0075
72.4932,72.9957
72.4429,72.9621
72.4093,72.9118
72.3975,72.8525
72.3975,72.4275
72.4093,72.3682
72.4429,72.3179
72.4932,72.2843
72.5525,72.2725
72.8625,72.2725
72.9218,72.2843
72.9721,72.3179
73.0057,72.3682
73.0175,72.4275
73.0175,72.8525
73.0057,72.9118
72.9721,72.9621
72.9218,72.9957
72.8625,73.0075
Z" /> 
<path style="fill:#000000; fill-opacity:1.0000; stroke:none;fill-rule:evenodd;"
d="M 72.5525,71.8725
72.4932,71.8607
72.4429,71.8271
72.4093,71.7768
72.3975,71.7175
72.3975,71.2925
72.4093,71.2332
72.4429,71.1829
72.4932,71.1493
72.5525,71.1375
72.8625,71.1375
72.9218,71.1493
72.9721,71.1829
73.0057,71.2332
73.0175,71.2925
73.0175,71.7175
73.0057,71.7768
72.9721,71.8271
72.9218,71.8607
72.8625,71.8725
Z" /> 
<path style="fill:#000000; fill-opacity:1.0000; stroke:none;fill-rule:evenodd;"
d="M 80.6625,82.0775
80.6743,82.0182
80.7079,81.9679
80.7582,81.9343
80.8175,81.9225
81.2425,81.9225
81.3018,81.9343
81.3521,81.9679
81.3857,82.0182
81.3975,82.0775
81.3975,82.3875
81.3857,82.4468
81.3521,82.4971
81.3018,82.5307
81.2425,82.5425
80.8175,82.5425
80.7582,82.5307
80.7079,82.4971
80.6743,82.4468
80.6625,82.3875
Z" /> 
<path style="fill:#000000; fill-opacity:1.0000; stroke:none;fill-rule:evenodd;"
d="M 81.7975,82.0775
81.8093,82.0182
81.8429,81.9679
81.8932,81.9343
81.9525,81.9225
82.3775,81.9225
82.4368,81.9343
82.4871,81.9679
82.5207,82.0182
82.5325,82.0775
82.5325,82.3875
82.5207,82.4468
82.4871,82.4971
82.4368,82.5307
82.3775,82.5425
81.9525,82.5425
81.8932,82.5307
81.8429,82.4971
81.8093,82.4468
81.7975,82.3875
Z" /> 
<path style="fill:#000000; fill-opacity:1.0000; stroke:none;fill-rule:evenodd;"
d="M 80.6625,90.3325
80.6743,90.2732
80.7079,90.2229
80.7582,90.1893
80.8175,90.1775
81.2425,90.1775
81.3018,90.1893
81.3521,90.2229
81.3857,90.2732
81.3975,90.3325
81.3975,90.6425
81.3857,90.7018
81.3521,90.7521
81.3018,90.7857
81.2425,90.7975
80.8175,90.7975
80.7582,90.7857
80.7079,90.7521
80.6743,90.7018
80.6625,90.6425
Z" /> 
<path style="fill:#000000; fill-opacity:1.0000; stroke:none;fill-rule:evenodd;"
d="M 81.7975,90.3325
81.8093,90.2732
81.8429,90.2229
81.8932,90.1893
81.9525,90.1775
82.3775,90.1775
82.4368,90.1893
82.4871,90.2229
82.5207,90.2732
82.5325,90.3325
82.5325,90.6425
82.5207,90.7018
82.4871,90.7521
82.4368,90.7857
82.3775,90.7975
81.9525,90.7975
81.8932,90.7857
81.8429,90.7521
81.8093,90.7018
81.7975,90.6425
Z" /> 
<circle cx="69.3400" cy="87.1170" r="0.7240" /> 
</g>
<g style="fill:#000000; fill-opacity:1.0000; stroke:none;">
<circle cx="71.1200" cy="86.1010" r="0.7240" /> 
</g>
<g style="fill:#000000; fill-opacity:1.0000; stroke:none;">
<circle cx="69.3400" cy="85.0850" r="0.7240" /> 
</g>
<g style="fill:#000000; fill-opacity:1.0000; stroke:none;">
<circle cx="71.1200" cy="84.0690" r="0.7240" /> 
</g>
<g style="fill:#000000; fill-opacity:1.0000; stroke:none;">
<circle cx="69.3400" cy="83.0530" r="0.7240" /> 
</g>
<g style="fill:#000000; fill-opacity:1.0000; stroke:none;">
<circle cx="71.1200" cy="82.0370" r="0.7240" /> 
</g>
<g style="fill:#000000; fill-opacity:1.0000; stroke:none;">
<circle cx="69.3400" cy="81.0210" r="0.7240" /> 
</g>
<g style="fill:#000000; fill-opacity:1.0000; stroke:none;">
<circle cx="71.1200" cy="80.0050" r="0.7240" /> 
</g>
<g style="fill:#000000; fill-opacity:1.0000; stroke:none;">
<circle cx="69.3400" cy="102.8670" r="0.7240" /> 
</g>
<g style="fill:#000000; fill-opacity:1.0000; stroke:none;">
<circle cx="71.1200" cy="101.8510" r="0.7240" /> 
</g>
<g style="fill:#000000; fill-opacity:1.0000; stroke:none;">
<circle cx="69.3400" cy="100.8350" r="0.7240" /> 
</g>
<g style="fill:#000000; fill-opacity:1.0000; stroke:none;">
<circle cx="71.1200" cy="99.8190" r="0.7240" /> 
</g>
<g style="fill:#000000; fill-opacity:1.0000; stroke:none;">
<circle cx="69.3400" cy="98.8030" r="0.7240" /> 
</g>
<g style="fill:#000000; fill-opacity:1.0000; stroke:none;">
<circle cx="71.1200" cy="97.7870" r="0.7240" /> 
</g>
<g style="fill:#000000; fill-opacity:1.0000; stroke:none;">
<circle cx="69.3400" cy="96.7710" r="0.7240" /> 
</g>
<g style="fill:#000000; fill-opacity:1.0000; stroke:none;">
<circle cx="71.1200" cy="95.7550" r="0.7240" /> 
<path style="fill:#000000; fill-opacity:1.0000; stroke:none;fill-rule:evenodd;"
d="M 89.0550,98.7600
89.1143,98.7718
89.1646,98.8054
89.1982,98.8557
89.2100,98.9150
89.2100,99.3400
89.1982,99.3993
89.1646,99.4496
89.1143,99.4832
89.0550,99.4950
88.7450,99.4950
88.6857,99.4832
88.6354,99.4496
88.6018,99.3993
88.5900,99.3400
88.5900,98.9150
88.6018,98.8557
88.6354,98.8054
88.6857,98.7718
88.7450,98.7600
Z" /> 
<path style="fill:#000000; fill-opacity:1.0000; stroke:none;fill-rule:evenodd;"
d="M 89.0550,99.8950
89.1143,99.9068
89.1646,99.9404
89.1982,99.9907
89.2100,100.0500
89.2100,100.4750
89.1982,100.5343
89.1646,100.5846
89.1143,100.6182
89.0550,100.6300
88.7450,100.6300
88.6857,100.6182
88.6354,100.5846
88.6018,100.5343
88.5900,100.4750
88.5900,100.0500
88.6018,99.9907
88.6354,99.9404
88.6857,99.9068
88.7450,99.8950
Z" /> 
</g>
<g style="fill:#000000; fill-opacity:1.0000; stroke:none;">
<circle cx="85.2424" cy="87.0204" r="0.4064" /> 
</g>
<g style="fill:#000000; fill-opacity:1.0000; stroke:none;">
<circle cx="90.3732" cy="116.1288" r="0.4064" /> 
</g>
<g style="fill:#000000; fill-opacity:1.0000; stroke:none;">
<circle cx="79.7560" cy="117.2305" r="0.4064" /> 
</g>
<g style="fill:#000000; fill-opacity:1.0000; stroke:none;">
<circle cx="74.7268" cy="68.6308" r="0.4064" /> 
</g>
<g style="fill:#000000; fill-opacity:1.0000; stroke:none;">
<circle cx="70.4596" cy="69.2912" r="0.4064" /> 
</g>
<g style="fill:#000000; fill-opacity:1.0000; stroke:none;">
<circle cx="82.5500" cy="85.0900" r="0.4064" /> 
</g>
<g style="fill:#000000; fill-opacity:1.0000; stroke:none;">
<circle cx="82.5500" cy="76.8350" r="0.4064" /> 
</g>
<g style="fill:#000000; fill-opacity:1.0000; stroke:none;">
<circle cx="107.7976" cy="114.7064" r="0.4064" /> 
</g>
<g style="fill:#000000; fill-opacity:1.0000; stroke:none;">
<circle cx="107.6452" cy="110.3376" r="0.4064" /> 
</g>
<g style="fill:#000000; fill-opacity:1.0000; stroke:none;">
<circle cx="107.7976" cy="106.1212" r="0.4064" /> 
</g>
<g style="fill:#000000; fill-opacity:1.0000; stroke:none;">
<circle cx="107.8484" cy="101.6000" r="0.4064" /> 
</g>
<g style="fill:#000000; fill-opacity:1.0000; stroke:none;">
<circle cx="107.7468" cy="97.2820" r="0.4064" /> 
</g>
<g style="fill:#000000; fill-opacity:1.0000; stroke:none;">
<circle cx="76.1492" cy="117.0432" r="0.4064" /> 
</g>
<g style="fill:#000000; fill-opacity:1.0000; stroke:none;">
<circle cx="74.0156" cy="116.6876" r="0.4064" /> 
</g>
<g style="fill:#000000; fill-opacity:1.0000; stroke:none;">
<circle cx="107.6452" cy="93.5736" r="0.4064" /> 
</g>
<g style="fill:#000000; fill-opacity:1.0000; stroke:none;">
<circle cx="107.7976" cy="89.4080" r="0.4064" /> 
</g>
<g style="fill:#000000; fill-opacity:1.0000; stroke:none;">
<circle cx="107.6960" cy="85.2424" r="0.4064" /> 
</g>
<g style="fill:#000000; fill-opacity:1.0000; stroke:none;">
<circle cx="76.1492" cy="68.1736" r="0.4064" /> 
</g>
<g style="fill:#000000; fill-opacity:1.0000; stroke:none;">
<circle cx="69.2404" cy="68.0212" r="0.4064" /> 
</g>
<g style="fill:#000000; fill-opacity:1.0000; stroke:none;">
<circle cx="89.3064" cy="118.5672" r="0.4064" /> 
</g>
<g style="fill:#000000; fill-opacity:1.0000; stroke:none;">
<circle cx="88.3920" cy="120.2436" r="0.4064" /> 
</g>
<g style="fill:#000000; fill-opacity:1.0000; stroke:none;">
<circle cx="64.8208" cy="120.5992" r="0.4064" /> 
</g>
<g style="fill:#000000; fill-opacity:1.0000; stroke:none;">
<circle cx="113.1316" cy="120.7008" r="0.4064" /> 
</g>
<g style="fill:#000000; fill-opacity:1.0000; stroke:none;">
<circle cx="112.9792" cy="64.7192" r="0.4064" /> 
</g>
<g style="fill:#000000; fill-opacity:1.0000; stroke:none;">
<circle cx="64.6176" cy="64.6176" r="0.4064" /> 
</g>
<g style="fill:#000000; fill-opacity:1.0000; stroke:none;">
<circle cx="79.5528" cy="74.1172" r="0.4064" /> 
</g>
<g style="fill:#000000; fill-opacity:1.0000; stroke:none;">
<circle cx="85.2932" cy="106.9848" r="0.4064" /> 
</g>
<g style="fill:#000000; fill-opacity:1.0000; stroke:none;">
<circle cx="66.5480" cy="109.1184" r="0.4064" /> 
</g>
<g style="fill:#000000; fill-opacity:1.0000; stroke:none;">
<circle cx="65.3288" cy="74.7268" r="0.4064" /> 
</g>
<g style="fill:#000000; fill-opacity:1.0000; stroke:none;">
<circle cx="82.4992" cy="69.9516" r="0.4064" /> 
</g>
<g style="fill:#000000; fill-opacity:1.0000; stroke:none;">
<circle cx="71.6280" cy="116.6876" r="0.4064" /> 
</g>
<g style="fill:#000000; fill-opacity:1.0000; stroke:none;">
<circle cx="68.9356" cy="116.6876" r="0.4064" /> 
</g>
<g style="fill:#000000; fill-opacity:1.0000; stroke:none;">
<circle cx="75.5764" cy="101.4476" r="0.4064" /> 
</g>
<g style="fill:#000000; fill-opacity:1.0000; stroke:none;">
<circle cx="76.5188" cy="101.4476" r="0.4064" /> 
</g>
<g style="fill:#000000; fill-opacity:1.0000; stroke:none;">
<circle cx="85.0525" cy="120.0150" r="0.4064" /> 
</g>
<g style="fill:#000000; fill-opacity:1.0000; stroke:none;">
<circle cx="82.5125" cy="120.0150" r="0.4064" /> 
</g>
<g style="fill:#000000; fill-opacity:1.0000; stroke:none;">
<circle cx="79.9725" cy="120.0150" r="0.4064" /> 
</g>
<g style="fill:#000000; fill-opacity:1.0000; stroke:none;">
<circle cx="77.4325" cy="120.0150" r="0.4064" /> 
</g>
<g style="fill:#000000; fill-opacity:1.0000; stroke:none;">
<circle cx="74.8925" cy="120.0150" r="0.4064" /> 
</g>
<g style="fill:#000000; fill-opacity:1.0000; stroke:none;">
<circle cx="72.3525" cy="120.0150" r="0.4064" /> 
</g>
<g style="fill:#000000; fill-opacity:1.0000; stroke:none;">
<circle cx="69.8125" cy="120.0150" r="0.4064" /> 
</g>
<g style="fill:#000000; fill-opacity:1.0000; stroke:none;">
<circle cx="67.3100" cy="120.0150" r="0.4064" /> 
</g>
<g style="fill:#000000; fill-opacity:1.0000; stroke:none;">
<circle cx="111.1800" cy="90.9847" r="0.4064" /> 
</g>
<g style="fill:#000000; fill-opacity:1.0000; stroke:none;">
<circle cx="109.9100" cy="90.9847" r="0.4064" /> 
</g>
<g style="fill:#000000; fill-opacity:1.0000; stroke:none;">
<circle cx="111.2272" cy="95.0849" r="0.4064" /> 
</g>
<g style="fill:#000000; fill-opacity:1.0000; stroke:none;">
<circle cx="109.9572" cy="95.0849" r="0.4064" /> 
</g>
<g style="fill:#000000; fill-opacity:1.0000; stroke:none;">
<circle cx="111.1800" cy="99.2311" r="0.4064" /> 
</g>
<g style="fill:#000000; fill-opacity:1.0000; stroke:none;">
<circle cx="109.9100" cy="99.2311" r="0.4064" /> 
</g>
<g style="fill:#000000; fill-opacity:1.0000; stroke:none;">
<circle cx="111.2272" cy="103.5583" r="0.4064" /> 
</g>
<g style="fill:#000000; fill-opacity:1.0000; stroke:none;">
<circle cx="109.9572" cy="103.5583" r="0.4064" /> 
</g>
<g style="fill:#000000; fill-opacity:1.0000; stroke:none;">
<circle cx="111.2347" cy="107.7131" r="0.4064" /> 
</g>
<g style="fill:#000000; fill-opacity:1.0000; stroke:none;">
<circle cx="109.9647" cy="107.7131" r="0.4064" /> 
</g>
<g style="fill:#000000; fill-opacity:1.0000; stroke:none;">
<circle cx="111.2347" cy="111.9508" r="0.4064" /> 
</g>
<g style="fill:#000000; fill-opacity:1.0000; stroke:none;">
<circle cx="109.9647" cy="111.9508" r="0.4064" /> 
</g>
<g style="fill:#000000; fill-opacity:1.0000; stroke:none;">
<circle cx="111.2722" cy="116.2958" r="0.4064" /> 
</g>
<g style="fill:#000000; fill-opacity:1.0000; stroke:none;">
<circle cx="110.0022" cy="116.2958" r="0.4064" /> 
</g>
<g style="fill:#000000; fill-opacity:1.0000; stroke:none;">
<circle cx="109.9100" cy="86.8674" r="0.4064" /> 
</g>
<g style="fill:#000000; fill-opacity:1.0000; stroke:none;">
<circle cx="111.1800" cy="86.8674" r="0.4064" /> 
</g>
<g style="fill:#000000; fill-opacity:1.0000; stroke:none;">
<circle cx="74.2950" cy="71.1200" r="0.4064" /> 
</g>
<g style="fill:#000000; fill-opacity:1.0000; stroke:none;">
<circle cx="67.3100" cy="71.1200" r="0.4064" /> 
</g>
<g style="fill:#000000; fill-opacity:1.0000; stroke:none;">
<circle cx="71.7550" cy="72.5750" r="0.4064" /> 
</g>
<g style="fill:#000000; fill-opacity:1.0000; stroke:none;">
<circle cx="72.7075" cy="70.4850" r="0.4064" /> 
</g>
<g style="fill:#000000; fill-opacity:1.0000; stroke:none;">
<circle cx="79.6925" cy="70.4850" r="0.4064" /> 
</g>
<g style="fill:#000000; fill-opacity:1.0000; stroke:none;">
<circle cx="78.7400" cy="72.5750" r="0.4064" /> 
</g>
<g style="fill:#000000; fill-opacity:1.0000; stroke:none;">
<circle cx="81.0950" cy="81.2800" r="0.4064" /> 
</g>
<g style="fill:#000000; fill-opacity:1.0000; stroke:none;">
<circle cx="83.5025" cy="82.2325" r="0.4064" /> 
</g>
<g style="fill:#000000; fill-opacity:1.0000; stroke:none;">
<circle cx="83.5025" cy="90.4875" r="0.4064" /> 
</g>
<g style="fill:#000000; fill-opacity:1.0000; stroke:none;">
<circle cx="81.0950" cy="89.5350" r="0.4064" /> 
</g>
<g style="fill:#000000; fill-opacity:1.0000; stroke:none;">
<circle cx="88.0872" cy="94.3356" r="0.4064" /> 
</g>
<g style="fill:#000000; fill-opacity:1.0000; stroke:none;">
<circle cx="87.3125" cy="99.0600" r="0.4064" /> 
</g>
<g style="fill:#000000; fill-opacity:1.0000; stroke:none;">
<circle cx="87.3125" cy="100.3300" r="0.4064" /> 
</g>
<g style="fill:#000000; fill-opacity:1.0000; stroke:none;">
<circle cx="87.6808" cy="104.1400" r="0.4064" /> 
</g>
<g style="fill:#000000; fill-opacity:1.0000; stroke:none;">
<circle cx="68.5800" cy="111.7600" r="0.4064" /> 
</g>
<g style="fill:#000000; fill-opacity:1.0000; stroke:none;">
<circle cx="71.1200" cy="111.7600" r="0.4064" /> 
</g>
<g style="fill:#000000; fill-opacity:1.0000; stroke:none;">
<circle cx="73.6600" cy="111.7600" r="0.4064" /> 
</g>
<g style="fill:#000000; fill-opacity:1.0000; stroke:none;">
<circle cx="76.2000" cy="111.7600" r="0.4064" /> 
</g>
<g style="fill:#000000; fill-opacity:1.0000; stroke:none;">
<circle cx="78.7400" cy="111.7600" r="0.4064" /> 
</g>
<g style="fill:#000000; fill-opacity:1.0000; stroke:none;">
<circle cx="81.2800" cy="111.7600" r="0.4064" /> 
</g>
<g style="fill:#000000; fill-opacity:1.0000; stroke:none;">
<circle cx="83.8200" cy="111.7600" r="0.4064" /> 
</g>
<g style="fill:#000000; fill-opacity:1.0000; stroke:none;">
<circle cx="86.3600" cy="111.7600" r="0.4064" /> 
</g>
<g style="fill:none; 
stroke:#000000; stroke-width:0.3810; stroke-opacity:1; 
stroke-linecap:round; stroke-linejoin:round;">
<path d="M86.5450 76.8350
L87.1235 77.4135
" />
<path d="M87.6808 79.5092
L87.6615 79.5285
" />
<path d="M87.1235 77.4135
L87.2564 77.4135
" />
<path d="M87.6615 79.6614
L87.2564 80.0665
" />
<path d="M87.2564 77.4135
L87.5161 77.6732
" />
<path d="M87.6615 79.5285
L87.6615 79.6614
" />
<path d="M87.5161 77.6732
L87.6808 77.6732
" />
<path d="M87.6808 77.6732
L87.6808 79.5092
" />
<path d="M87.2564 80.0665
L87.1235 80.0665
" />
<path d="M87.1235 80.0665
L86.5450 80.6450
" />
<path d="M98.7625 111.7900
L94.9752 111.7900
" />
<path d="M94.9752 111.7900
L89.0016 105.8164
" />
<path d="M89.0016 105.8164
L84.6328 105.8164
" />
<path d="M84.6328 105.8164
L83.5660 104.7496
" />
<path d="M84.6836 93.2180
L84.6836 88.7476
" />
<path d="M83.5660 104.7496
L83.5660 94.3356
" />
<path d="M83.5660 94.3356
L84.6836 93.2180
" />
<path d="M83.9216 84.6328
L86.5450 82.0094
" />
<path d="M84.6836 88.7476
L83.9216 87.9856
" />
<path d="M83.9216 87.9856
L83.9216 84.6328
" />
<path d="M86.5450 82.0094
L86.5450 80.6450
" />
</g>
<g style="fill:none; 
stroke:#000000; stroke-width:0.6350; stroke-opacity:1; 
stroke-linecap:round; stroke-linejoin:round;">
<path d="M86.0044 95.2500
L87.1728 95.2500
" />
<path d="M87.1728 95.2500
L88.0872 94.3356
" />
</g>
<g style="fill:none; 
stroke:#000000; stroke-width:0.3810; stroke-opacity:1; 
stroke-linecap:round; stroke-linejoin:round;">
<path d="M98.7625 106.7100
L100.0610 105.4115
" />
<path d="M92.8639 87.6315
L92.3036 87.0712
" />
<path d="M100.0610 105.4115
L101.8167 105.4115
" />
<path d="M101.7597 87.6315
L92.8639 87.6315
" />
<path d="M101.8167 105.4115
L103.1260 104.1022
" />
<path d="M103.1260 88.9978
L101.7597 87.6315
" />
<path d="M103.1260 104.1022
L103.1260 88.9978
" />
<path d="M101.4984 65.3288
L104.0892 67.9196
" />
<path d="M83.2104 65.3288
L101.4984 65.3288
" />
<path d="M104.0892 67.9196
L104.0892 105.6790
" />
<path d="M104.0892 105.6790
L101.7597 108.0085
" />
<path d="M101.7597 108.0085
L100.0040 108.0085
" />
<path d="M100.0040 108.0085
L98.7625 109.2500
" />
<path d="M98.7625 114.3300
L100.0610 113.0315
" />
<path d="M100.0610 113.0315
L101.8167 113.0315
" />
<path d="M101.8167 113.0315
L105.5624 109.2858
" />
<path d="M105.5624 67.7672
L102.0064 64.2112
" />
<path d="M105.5624 109.2858
L105.5624 67.7672
" />
<path d="M102.0064 64.2112
L82.9056 64.2112
" />
<path d="M82.9056 64.2112
L79.9918 67.1250
" />
<path d="M79.9918 67.1250
L78.1050 67.1250
" />
<path d="M90.1192 116.3828
L90.3732 116.1288
" />
<path d="M81.2800 118.7704
L83.6676 116.3828
" />
<path d="M83.6676 116.3828
L90.1192 116.3828
" />
<path d="M78.7400 118.7704
L78.7400 118.2465
" />
<path d="M78.7400 118.2465
L79.7560 117.2305
" />
<path d="M82.4992 69.9516
L97.5641 69.9516
" />
<path d="M97.5641 69.9516
L98.7625 71.1500
" />
<path d="M98.7625 104.1700
L100.0040 102.9285
" />
<path d="M101.8090 95.3008
L90.5764 95.3008
" />
<path d="M100.0040 102.9285
L101.7597 102.9285
" />
<path d="M102.5440 102.1442
L102.5440 96.0358
" />
<path d="M101.7597 102.9285
L102.5440 102.1442
" />
<path d="M102.5440 96.0358
L101.8090 95.3008
" />
<path d="M101.3025 96.5500
L100.0625 97.7900
" />
<path d="M100.0625 97.7900
L86.0044 97.7900
" />
<path d="M93.7125 101.6000
L93.7425 101.6300
" />
<path d="M93.7425 101.6300
L98.7625 101.6300
" />
<path d="M86.0044 102.8700
L89.8425 102.8700
" />
<path d="M89.8425 102.8700
L97.5210 110.5485
" />
<path d="M97.5210 110.5485
L100.0610 110.5485
" />
<path d="M100.0610 110.5485
L101.3025 111.7900
" />
<path d="M101.3025 71.1500
L101.3025 68.6100
" />
<path d="M71.1200 67.1250
L73.6418 69.6468
" />
<path d="M73.6418 69.6468
L78.8924 69.6468
" />
<path d="M78.8924 69.6468
L83.2104 65.3288
" />
<path d="M109.0187 114.7544
L107.8456 114.7544
" />
<path d="M107.8456 114.7544
L107.7976 114.7064
" />
<path d="M107.7170 110.4094
L107.6452 110.3376
" />
<path d="M108.9812 110.4094
L107.7170 110.4094
" />
<path d="M107.8481 106.1717
L107.7976 106.1212
" />
<path d="M108.9812 106.1717
L107.8481 106.1717
" />
<path d="M108.9737 102.0169
L108.2653 102.0169
" />
<path d="M108.2653 102.0169
L107.8484 101.6000
" />
<path d="M108.1546 97.6898
L107.7468 97.2820
" />
<path d="M108.9265 97.6898
L108.1546 97.6898
" />
<path d="M76.2000 117.0940
L76.1492 117.0432
" />
<path d="M76.2000 118.7704
L76.2000 117.0940
" />
<path d="M74.0156 116.6876
L74.0156 116.8400
" />
<path d="M74.0156 116.8400
L73.6092 117.2464
" />
<path d="M73.6600 117.2972
L73.6600 118.7704
" />
<path d="M73.6092 117.2464
L73.6600 117.2972
" />
<path d="M108.9737 93.5435
L107.6753 93.5435
" />
<path d="M107.6753 93.5435
L107.6452 93.5736
" />
<path d="M107.8329 89.4433
L107.7976 89.4080
" />
<path d="M108.9265 89.4433
L107.8329 89.4433
" />
<path d="M108.9265 85.3260
L107.7796 85.3260
" />
<path d="M107.7796 85.3260
L107.6960 85.2424
" />
<path d="M87.6615 87.0712
L92.3036 87.0712
" />
<path d="M87.6615 87.0712
L87.6615 88.2895
" />
<path d="M86.5450 85.0900
L86.6779 85.0900
" />
<path d="M86.6779 85.0900
L87.6615 86.0736
" />
<path d="M87.6615 86.0736
L87.6615 87.0712
" />
<path d="M87.6615 88.2895
L87.0510 88.9000
" />
<path d="M87.0510 88.9000
L86.5450 88.9000
" />
<path d="M90.5764 95.3008
L89.3572 96.5200
" />
<path d="M89.3572 96.5200
L86.0044 96.5200
" />
<path d="M74.2950 67.1250
L74.2950 66.7000
" />
<path d="M78.1050 66.7000
L78.1050 67.1250
" />
<path d="M74.2950 66.7000
L74.9865 66.0085
" />
<path d="M74.9865 66.0085
L77.4135 66.0085
" />
<path d="M77.4135 66.0085
L78.1050 66.7000
" />
<path d="M68.0015 66.0085
L70.4285 66.0085
" />
<path d="M67.3100 67.1250
L67.3100 66.7000
" />
<path d="M67.3100 66.7000
L68.0015 66.0085
" />
<path d="M70.4285 66.0085
L71.1200 66.7000
" />
<path d="M71.1200 66.7000
L71.1200 67.1250
" />
</g>
<g style="fill:none; 
stroke:#000000; stroke-width:0.6350; stroke-opacity:1; 
stroke-linecap:round; stroke-linejoin:round;">
<path d="M86.0044 104.1400
L87.6808 104.1400
" />
</g>
<g style="fill:none; 
stroke:#000000; stroke-width:0.3810; stroke-opacity:1; 
stroke-linecap:round; stroke-linejoin:round;">
<path d="M86.0044 101.6000
L93.7125 101.6000
" />
<path d="M83.8200 118.7704
L83.8200 118.0592
" />
<path d="M83.8200 118.0592
L84.6836 117.1956
" />
<path d="M84.6836 117.1956
L87.1220 117.1956
" />
<path d="M87.1220 117.1956
L88.4936 118.5672
" />
<path d="M88.4936 118.5672
L89.3064 118.5672
" />
<path d="M87.6681 120.9675
L88.3920 120.2436
" />
<path d="M86.3225 120.9675
L87.6681 120.9675
" />
<path d="M82.4992 69.9516
L83.4644 70.9168
" />
<path d="M68.5800 67.1250
L68.8848 67.1250
" />
<path d="M71.1200 117.1956
L71.6280 116.6876
" />
<path d="M71.1200 118.7704
L71.1200 117.1956
" />
<path d="M68.5800 118.7704
L68.5800 117.0432
" />
<path d="M68.5800 117.0432
L68.9356 116.6876
" />
<path d="M86.3225 120.9675
L86.3225 118.8079
" />
<path d="M86.3225 118.8079
L86.3600 118.7704
" />
<path d="M83.7825 120.9675
L83.7825 118.8079
" />
<path d="M83.7825 118.8079
L83.8200 118.7704
" />
<path d="M86.5450 87.0204
L86.5450 87.6300
" />
<path d="M86.5450 87.0204
L85.2424 87.0204
" />
<path d="M86.5450 86.3600
L86.5450 87.0204
" />
<path d="M76.1492 67.1250
L76.8350 67.1250
" />
<path d="M76.1492 67.1250
L76.1492 68.1736
" />
<path d="M75.5650 67.1250
L76.1492 67.1250
" />
<path d="M68.8848 67.1250
L69.2404 67.1250
" />
<path d="M86.5450 78.1050
L86.5450 78.7908
" />
<path d="M69.2404 67.1250
L69.2404 68.0212
" />
<path d="M83.4644 76.9112
L85.3440 78.7908
" />
<path d="M83.4644 70.9168
L83.4644 76.9112
" />
<path d="M85.3440 78.7908
L86.5450 78.7908
" />
<path d="M69.2404 67.1250
L69.8500 67.1250
" />
</g>
<g style="fill:none; 
stroke:#000000; stroke-width:0.1753; stroke-opacity:1; 
stroke-linecap:round; stroke-linejoin:round;">
<path d="M74.6758 103.0802
L74.6758 103.1050
" />
<path d="M78.1234 104.1774 A0.2476 0.2476 0.0 0 0 78.3710 103.9298" />
<path d="M76.6758 103.0802
L76.6758 103.9298
" />
<path d="M77.1234 102.8326
L76.9234 102.8326
" />
<path d="M76.1234 104.1774
L75.9234 104.1774
" />
<path d="M78.6758 103.9050
L78.6758 103.9298
" />
<path d="M81.2800 104.1400
L79.6417 104.1400
" />
<path d="M75.1234 102.5278
L74.9234 102.5278
" />
<path d="M75.3710 103.0802 A0.2476 0.2476 0.0 0 0 75.1234 102.8326" />
<path d="M78.9234 103.3526 A0.5524 0.5524 0.0 0 0 78.3710 103.9050" />
<path d="M77.3710 103.0802 A0.2476 0.2476 0.0 0 0 77.1234 102.8326" />
<path d="M77.3710 103.9298 A0.5524 0.5524 0.0 0 0 77.9234 104.4822" />
<path d="M76.1234 104.4822
L75.9234 104.4822
" />
<path d="M75.3710 103.9298 A0.5524 0.5524 0.0 0 0 75.9234 104.4822" />
<path d="M78.1234 104.4822 A0.5524 0.5524 0.0 0 0 78.6758 103.9298" />
<path d="M78.9234 103.6574 A0.2476 0.2476 0.0 0 0 78.6758 103.9050" />
<path d="M79.6417 104.1400
L79.1591 103.6574
" />
<path d="M75.3710 103.9298
L75.3710 103.0802
" />
<path d="M79.1591 103.3526
L78.9234 103.3526
" />
<path d="M74.1234 103.3526 A0.2476 0.2476 0.0 0 0 74.3710 103.1050" />
<path d="M75.6758 103.0802 A0.5524 0.5524 0.0 0 0 75.1234 102.5278" />
<path d="M75.6758 103.9298 A0.2476 0.2476 0.0 0 0 75.9234 104.1774" />
<path d="M76.1234 104.1774 A0.2476 0.2476 0.0 0 0 76.3710 103.9298" />
<path d="M77.6758 103.9298 A0.2476 0.2476 0.0 0 0 77.9234 104.1774" />
<path d="M74.9234 102.5278 A0.5524 0.5524 0.0 0 0 74.3710 103.0802" />
<path d="M76.9234 102.5278 A0.5524 0.5524 0.0 0 0 76.3710 103.0802" />
<path d="M75.1234 102.8326
L74.9234 102.8326
" />
<path d="M74.9234 102.8326 A0.2476 0.2476 0.0 0 0 74.6758 103.0802" />
<path d="M74.3710 103.0802
L74.3710 103.1050
" />
<path d="M77.6758 103.0802 A0.5524 0.5524 0.0 0 0 77.1234 102.5278" />
<path d="M81.2800 102.8700
L79.6417 102.8700
" />
<path d="M76.9234 102.8326 A0.2476 0.2476 0.0 0 0 76.6758 103.0802" />
<path d="M78.1234 104.1774
L77.9234 104.1774
" />
<path d="M78.1234 104.4822
L77.9234 104.4822
" />
<path d="M77.1234 102.5278
L76.9234 102.5278
" />
<path d="M78.3710 103.9050
L78.3710 103.9298
" />
<path d="M76.3710 103.0802
L76.3710 103.9298
" />
<path d="M74.1234 103.6574 A0.5524 0.5524 0.0 0 0 74.6758 103.1050" />
<path d="M79.1591 103.6574
L78.9234 103.6574
" />
<path d="M75.6758 103.9298
L75.6758 103.0802
" />
<path d="M76.1234 104.4822 A0.5524 0.5524 0.0 0 0 76.6758 103.9298" />
<path d="M71.6949 103.6574
L70.9045 102.8670
" />
<path d="M71.6949 103.6574
L74.1234 103.6574
" />
<path d="M70.9045 102.8670
L69.3400 102.8670
" />
<path d="M79.6417 102.8700
L79.1591 103.3526
" />
<path d="M77.3710 103.9298
L77.3710 103.0802
" />
<path d="M77.6758 103.9298
L77.6758 103.0802
" />
<path d="M71.1200 101.8510
L71.1200 102.6515
" />
<path d="M71.8211 103.3526
L72.0852 103.3526
" />
<path d="M72.9252 102.8783
L72.9252 103.1126
" />
<path d="M72.5652 102.6383
L72.6852 102.6383
" />
<path d="M73.1652 103.3526
L74.1234 103.3526
" />
<path d="M72.9252 103.1126 A0.2400 0.2400 0.0 0 0 73.1652 103.3526" />
<path d="M71.1200 102.6515
L71.8211 103.3526
" />
<path d="M72.3252 103.1126
L72.3252 102.8783
" />
<path d="M72.0852 103.3526 A0.2400 0.2400 0.0 0 0 72.3252 103.1126" />
<path d="M72.5652 102.6383 A0.2400 0.2400 0.0 0 0 72.3252 102.8783" />
<path d="M72.9252 102.8783 A0.2400 0.2400 0.0 0 0 72.6852 102.6383" />
<path d="M79.6417 99.0600
L79.1591 98.5774
" />
<path d="M76.6067 98.8250 A0.2476 0.2476 0.0 0 0 76.3591 98.5774" />
<path d="M71.3242 100.7872
L71.2956 100.7586
" />
<path d="M76.6067 99.0677 A0.5524 0.5524 0.0 0 0 77.1591 99.6201" />
<path d="M78.1591 97.5347 A0.2476 0.2476 0.0 0 0 77.9115 97.7823" />
<path d="M78.9115 98.0250
L78.9115 97.7823
" />
<path d="M77.3591 99.6201 A0.5524 0.5524 0.0 0 0 77.9115 99.0677" />
<path d="M75.9591 98.2726
L76.3591 98.2726
" />
<path d="M76.9115 99.0677
L76.9115 98.8250
" />
<path d="M78.1591 97.2299 A0.5524 0.5524 0.0 0 0 77.6067 97.7823" />
<path d="M77.3591 99.6201
L77.1591 99.6201
" />
<path d="M78.9115 98.0250 A0.2476 0.2476 0.0 0 0 79.1591 98.2726" />
<path d="M78.3591 97.5347
L78.1591 97.5347
" />
<path d="M78.9115 97.7823 A0.5524 0.5524 0.0 0 0 78.3591 97.2299" />
<path d="M81.2800 99.0600
L79.6417 99.0600
" />
<path d="M77.3591 99.3153 A0.2476 0.2476 0.0 0 0 77.6067 99.0677" />
<path d="M76.9115 99.0677 A0.2476 0.2476 0.0 0 0 77.1591 99.3153" />
<path d="M78.6067 98.0250
L78.6067 97.7823
" />
<path d="M76.9115 98.8250 A0.5524 0.5524 0.0 0 0 76.3591 98.2726" />
<path d="M73.8755 100.7872
L71.3242 100.7872
" />
<path d="M78.6067 98.0250 A0.5524 0.5524 0.0 0 0 79.1591 98.5774" />
<path d="M81.2800 97.7900
L79.6417 97.7900
" />
<path d="M78.6067 97.7823 A0.2476 0.2476 0.0 0 0 78.3591 97.5347" />
<path d="M79.6417 97.7900
L79.1591 98.2726
" />
<path d="M78.3591 97.2299
L78.1591 97.2299
" />
<path d="M76.6067 99.0677
L76.6067 98.8250
" />
<path d="M77.3591 99.3153
L77.1591 99.3153
" />
<path d="M77.6067 97.7823
L77.6067 99.0677
" />
<path d="M77.9115 97.7823
L77.9115 99.0677
" />
<path d="M76.0853 98.5774
L76.3591 98.5774
" />
<path d="M76.0853 98.5774
L73.8755 100.7872
" />
<path d="M71.2956 100.7586
L70.7308 100.7586
" />
<path d="M70.7308 100.7586
L70.1804 100.2082
" />
<path d="M70.1804 100.2082
L70.1804 99.6434
" />
<path d="M70.1804 99.6434
L69.3400 98.8030
" />
<path d="M71.1200 100.1519
L71.4505 100.4824
" />
<path d="M71.1200 99.8190
L71.1200 100.1519
" />
<path d="M73.1666 99.8361
L73.1666 100.2424
" />
<path d="M74.6332 99.2591 A0.2400 0.2400 0.0 0 0 74.9726 99.2591" />
<path d="M73.1666 99.8361 A0.2400 0.2400 0.0 0 0 72.9266 99.5961" />
<path d="M73.9923 99.1274 A0.2400 0.2400 0.0 0 0 73.9924 99.4668" />
<path d="M74.2089 100.0228 A0.2400 0.2400 0.0 0 0 74.2089 99.6834" />
<path d="M72.8066 99.5961 A0.2400 0.2400 0.0 0 0 72.5666 99.8361" />
<path d="M71.4505 100.4824
L72.3266 100.4824
" />
<path d="M73.1666 100.2424 A0.2400 0.2400 0.0 0 0 73.4066 100.4824" />
<path d="M72.8066 99.5961
L72.9266 99.5961
" />
<path d="M74.4166 99.0426
L74.6332 99.2591
" />
<path d="M72.5666 100.2424
L72.5666 99.8361
" />
<path d="M74.4166 99.0426 A0.2400 0.2400 0.0 0 0 74.0772 99.0426" />
<path d="M73.4066 100.4824
L73.7493 100.4824
" />
<path d="M72.3266 100.4824 A0.2400 0.2400 0.0 0 0 72.5666 100.2424" />
<path d="M73.7493 100.4824
L74.2089 100.0228
" />
<path d="M74.2089 99.6834
L73.9924 99.4668
" />
<path d="M73.9924 99.1274
L74.0772 99.0426
" />
<path d="M74.9726 99.2591
L75.0574 99.1743
" />
<path d="M75.0574 99.1743
L75.9591 98.2726
" />
<path d="M70.1804 95.9306
L69.3400 96.7710
" />
<path d="M74.4851 93.8276
L72.2834 93.8276
" />
<path d="M77.6067 94.5069
L77.6067 95.4850
" />
<path d="M79.6417 95.2500
L79.1591 95.7326
" />
<path d="M78.6067 95.4850
L78.6067 94.5069
" />
<path d="M77.3591 95.7326 A0.2476 0.2476 0.0 0 0 77.6067 95.4850" />
<path d="M78.9115 94.5069 A0.5524 0.5524 0.0 0 0 78.3591 93.9545" />
<path d="M78.6067 95.4850 A0.5524 0.5524 0.0 0 0 79.1591 96.0374" />
<path d="M78.6067 94.5069 A0.2476 0.2476 0.0 0 0 78.3591 94.2593" />
<path d="M77.3591 96.0374 A0.5524 0.5524 0.0 0 0 77.9115 95.4850" />
<path d="M79.6417 96.5200
L79.1591 96.0374
" />
<path d="M78.1591 93.9545 A0.5524 0.5524 0.0 0 0 77.6067 94.5069" />
<path d="M78.1591 94.2593 A0.2476 0.2476 0.0 0 0 77.9115 94.5069" />
<path d="M72.2834 93.8276
L71.2956 94.8154
" />
<path d="M81.2800 96.5200
L79.6417 96.5200
" />
<path d="M76.3901 95.7326
L77.3591 95.7326
" />
<path d="M81.2800 95.2500
L79.6417 95.2500
" />
<path d="M71.2956 94.8154
L70.7308 94.8154
" />
<path d="M74.4851 93.8276
L76.3901 95.7326
" />
<path d="M78.3591 93.9545
L78.1591 93.9545
" />
<path d="M78.9115 95.4850
L78.9115 94.5069
" />
<path d="M78.9115 95.4850 A0.2476 0.2476 0.0 0 0 79.1591 95.7326" />
<path d="M77.9115 94.5069
L77.9115 95.4850
" />
<path d="M70.7308 94.8154
L70.1804 95.3658
" />
<path d="M78.3591 94.2593
L78.1591 94.2593
" />
<path d="M76.2639 96.0374
L77.3591 96.0374
" />
<path d="M70.1804 95.3658
L70.1804 95.9306
" />
<path d="M73.2764 94.9687
L73.3964 94.9687
" />
<path d="M73.0364 94.3724
L73.0364 94.7287
" />
<path d="M74.5666 95.1833 A0.2400 0.2400 0.0 0 0 74.5666 95.5227" />
<path d="M73.8764 94.1324 A0.2400 0.2400 0.0 0 0 73.6364 94.3724" />
<path d="M74.8185 94.9314
L74.5666 95.1833
" />
<path d="M71.1200 95.4221
L72.4097 94.1324
" />
<path d="M73.0364 94.3724 A0.2400 0.2400 0.0 0 0 72.7964 94.1324" />
<path d="M71.1200 95.7550
L71.1200 95.4221
" />
<path d="M75.5822 95.3557 A0.2400 0.2400 0.0 0 0 75.2428 95.3557" />
<path d="M72.4097 94.1324
L72.7964 94.1324
" />
<path d="M74.6514 95.6076 A0.2400 0.2400 0.0 0 0 74.9908 95.6076" />
<path d="M74.9908 95.6076
L75.2428 95.3557
" />
<path d="M74.8185 94.9314 A0.2400 0.2400 0.0 0 0 74.8185 94.5920" />
<path d="M73.6364 94.7287
L73.6364 94.3724
" />
<path d="M73.3964 94.9687 A0.2400 0.2400 0.0 0 0 73.6364 94.7287" />
<path d="M73.8764 94.1324
L74.3589 94.1324
" />
<path d="M73.0364 94.7287 A0.2400 0.2400 0.0 0 0 73.2764 94.9687" />
<path d="M75.5822 95.3557
L76.2639 96.0374
" />
<path d="M74.3589 94.1324
L74.8185 94.5920
" />
<path d="M74.5666 95.5228
L74.6514 95.6076
" />
<path d="M76.3810 100.4824
L77.7363 100.4824
" />
<path d="M79.1591 101.1174
L79.6417 101.6000
" />
<path d="M75.8952 100.9682
L76.3810 100.4824
" />
<path d="M76.5072 100.7872
L77.6101 100.7872
" />
<path d="M75.8952 101.1288
L75.8952 100.9682
" />
<path d="M75.5764 101.4476
L75.8952 101.1288
" />
<path d="M79.6417 101.6000
L81.2800 101.6000
" />
<path d="M77.9403 101.1174
L79.1591 101.1174
" />
<path d="M77.6101 100.7872
L77.9403 101.1174
" />
<path d="M76.2000 101.0944
L76.5072 100.7872
" />
<path d="M76.2000 101.1288
L76.2000 101.0944
" />
<path d="M76.5188 101.4476
L76.2000 101.1288
" />
<path d="M77.7363 100.4824
L78.0665 100.8126
" />
<path d="M79.6417 100.3300
L81.2800 100.3300
" />
<path d="M79.1591 100.8126
L79.6417 100.3300
" />
<path d="M78.0665 100.8126
L79.1591 100.8126
" />
<path d="M80.3700 87.6300
L79.8874 87.1474
" />
<path d="M79.2415 86.5950 A0.2476 0.2476 0.0 0 0 79.4891 86.8426" />
<path d="M79.8874 87.1474
L79.4891 87.1474
" />
<path d="M78.4891 86.2422 A0.2476 0.2476 0.0 0 0 78.2415 86.4898" />
<path d="M78.4891 85.9374 A0.5524 0.5524 0.0 0 0 77.9367 86.4898" />
<path d="M78.9367 86.4898 A0.2476 0.2476 0.0 0 0 78.6891 86.2422" />
<path d="M77.6891 87.1474 A0.5524 0.5524 0.0 0 0 78.2415 86.5950" />
<path d="M70.1804 86.2766
L69.3400 87.1170
" />
<path d="M80.3700 86.3600
L79.8874 86.8426
" />
<path d="M78.6891 86.2422
L78.4891 86.2422
" />
<path d="M79.2415 86.4898 A0.5524 0.5524 0.0 0 0 78.6891 85.9374" />
<path d="M70.1804 85.7118
L70.1804 86.2766
" />
<path d="M78.9367 86.5950
L78.9367 86.4898
" />
<path d="M81.0950 86.3600
L80.3700 86.3600
" />
<path d="M70.7308 85.1614
L70.1804 85.7118
" />
<path d="M71.2956 85.1614
L70.7308 85.1614
" />
<path d="M74.7899 85.0392
L71.4178 85.0392
" />
<path d="M76.5933 86.8426
L74.7899 85.0392
" />
<path d="M81.0950 87.6300
L80.3700 87.6300
" />
<path d="M71.4178 85.0392
L71.2956 85.1614
" />
<path d="M77.6891 86.8426 A0.2476 0.2476 0.0 0 0 77.9367 86.5950" />
<path d="M79.2415 86.5950
L79.2415 86.4898
" />
<path d="M78.6891 85.9374
L78.4891 85.9374
" />
<path d="M79.8874 86.8426
L79.4891 86.8426
" />
<path d="M77.9367 86.4898
L77.9367 86.5950
" />
<path d="M76.5933 86.8426
L77.6891 86.8426
" />
<path d="M78.2415 86.4898
L78.2415 86.5950
" />
<path d="M78.9367 86.5950 A0.5524 0.5524 0.0 0 0 79.4891 87.1474" />
<path d="M76.4671 87.1474
L77.6891 87.1474
" />
<path d="M77.0952 79.6860
L77.0952 79.6860
" />
<path d="M75.6068 80.7432
L75.4654 80.8847
" />
<path d="M76.3140 79.6860
L76.2081 79.5801
" />
<path d="M76.5295 79.4704 A0.2476 0.2476 0.0 0 0 76.8796 79.4704" />
<path d="M78.8107 78.9432
L77.8379 78.9432
" />
<path d="M79.8874 78.8924
L78.8615 78.8924
" />
<path d="M75.6068 80.7432 A0.2475 0.2475 0.0 0 0 75.6068 80.3931" />
<path d="M81.0950 79.3750
L80.3700 79.3750
" />
<path d="M77.8379 78.9432
L77.0952 79.6860
" />
<path d="M75.5010 80.2872
L75.6068 80.3931
" />
<path d="M76.2081 79.5801 A0.2476 0.2476 0.0 0 0 75.8579 79.5801" />
<path d="M75.8223 80.9587 A0.5523 0.5523 0.0 0 0 75.8224 80.1775" />
<path d="M76.3140 79.6860 A0.5524 0.5524 0.0 0 0 77.0952 79.6860" />
<path d="M73.2971 83.0530
L69.3400 83.0530
" />
<path d="M73.2971 83.0530
L75.4654 80.8847
" />
<path d="M75.5010 79.5060 A0.5524 0.5524 0.0 0 0 75.5009 80.2872" />
<path d="M78.6892 78.6384
L77.7117 78.6384
" />
<path d="M76.5295 79.4704
L76.4236 79.3646
" />
<path d="M77.7117 78.6384
L76.8796 79.4704
" />
<path d="M78.8615 78.8924
L78.8107 78.9432
" />
<path d="M81.0950 78.1050
L80.3700 78.1050
" />
<path d="M75.7165 79.7215 A0.2476 0.2476 0.0 0 0 75.7165 80.0717" />
<path d="M80.3700 78.1050
L79.8874 78.5876
" />
<path d="M80.3700 79.3750
L79.8874 78.8924
" />
<path d="M76.4236 79.3646 A0.5524 0.5524 0.0 0 0 75.6424 79.3646" />
<path d="M73.4233 83.3578
L75.1779 81.6032
" />
<path d="M75.1779 81.6032
L75.8224 80.9588
" />
<path d="M75.7165 80.0717
L75.8224 80.1775
" />
<path d="M75.8579 79.5801
L75.7165 79.7215
" />
<path d="M75.6424 79.3646
L75.5010 79.5060
" />
<path d="M78.7400 78.5876
L78.6892 78.6384
" />
<path d="M79.8874 78.5876
L78.7400 78.5876
" />
<path d="M68.4004 82.6638
L68.4004 83.4422
" />
<path d="M68.4004 83.4422
L68.9508 83.9926
" />
<path d="M68.3471 81.7880
L68.8117 82.2525
" />
<path d="M67.8383 81.7880
L68.3471 81.7880
" />
<path d="M67.4624 81.4121
L67.8383 81.7880
" />
<path d="M67.4624 80.0993
L67.4624 81.4121
" />
<path d="M69.0626 78.4991
L67.4624 80.0993
" />
<path d="M68.8117 82.2525
L68.4004 82.6638
" />
<path d="M69.0626 73.7826
L69.0626 78.4991
" />
<path d="M68.5800 73.3000
L69.0626 73.7826
" />
<path d="M68.5800 72.5750
L68.5800 73.3000
" />
<path d="M69.8500 72.5750
L69.8500 73.3000
" />
<path d="M69.8500 73.3000
L69.3674 73.7826
" />
<path d="M68.9508 83.9926
L69.3400 83.9926
" />
<path d="M69.3400 83.9926
L69.3400 85.0850
" />
<path d="M69.3674 73.7826
L69.3674 76.3453
" />
<path d="M74.5654 74.8689 A0.2476 0.2476 0.0 0 0 74.2153 74.8689" />
<path d="M76.4725 75.7119 A0.5524 0.5524 0.0 0 0 76.4725 74.9307" />
<path d="M70.7308 79.0654
L70.1804 79.6158
" />
<path d="M74.2832 76.3511 A0.5524 0.5524 0.0 0 0 74.2832 75.5699" />
<path d="M74.0677 76.1356
L73.9263 76.2770
" />
<path d="M74.0738 75.3605
L74.2832 75.5699
" />
<path d="M70.1804 79.6158
L70.1804 80.1806
" />
<path d="M70.1804 80.1806
L69.3400 81.0210
" />
<path d="M76.3524 74.2819
L76.2631 74.3712
" />
<path d="M73.8583 75.5760
L74.0677 75.7854
" />
<path d="M73.9997 74.6534
L73.8583 74.7948
" />
<path d="M75.5650 72.5750
L75.5650 73.3000
" />
<path d="M71.1379 79.0654
L70.7308 79.0654
" />
<path d="M76.0476 74.1557 A0.5524 0.5524 0.0 0 0 76.0476 74.9369" />
<path d="M76.4725 75.7119
L76.3311 75.8534
" />
<path d="M76.0476 74.9369
L76.2570 75.1463
" />
<path d="M75.5499 75.8534 A0.5524 0.5524 0.0 0 0 76.3311 75.8534" />
<path d="M74.7809 74.6534 A0.5524 0.5524 0.0 0 0 73.9997 74.6534" />
<path d="M76.2569 75.4964 A0.2476 0.2476 0.0 0 0 76.2570 75.1463" />
<path d="M71.1379 79.0654
L73.9263 76.2770
" />
<path d="M75.7654 75.6378 A0.2476 0.2476 0.0 0 0 76.1155 75.6378" />
<path d="M73.8583 74.7948 A0.5524 0.5524 0.0 0 0 73.8583 75.5760" />
<path d="M75.5650 73.3000
L76.0476 73.7826
" />
<path d="M74.0738 75.0103 A0.2476 0.2476 0.0 0 0 74.0738 75.3605" />
<path d="M76.2631 74.3712 A0.2476 0.2476 0.0 0 0 76.2631 74.7214" />
<path d="M74.0677 76.1356 A0.2476 0.2476 0.0 0 0 74.0677 75.7854" />
<path d="M74.7809 74.6534
L75.7654 75.6378
" />
<path d="M76.0476 73.7826
L76.0476 74.1557
" />
<path d="M76.2570 75.4964
L76.1155 75.6378
" />
<path d="M76.8350 72.5750
L76.8350 73.3000
" />
<path d="M76.8350 73.3000
L76.3524 73.7826
" />
<path d="M76.3524 73.7826
L76.3524 74.2819
" />
<path d="M76.2631 74.7214
L76.4725 74.9307
" />
<path d="M74.5654 74.8689
L75.5499 75.8534
" />
<path d="M74.2153 74.8689
L74.0738 75.0103
" />
<path d="M73.9807 76.6536
L74.2832 76.3511
" />
<path d="M72.6366 78.9682
L72.7214 78.8833
" />
<path d="M70.8904 79.7439
L71.8120 78.8224
" />
<path d="M70.8904 79.7754
L70.8904 79.7439
" />
<path d="M71.1200 80.0050
L70.8904 79.7754
" />
<path d="M72.1514 78.8224
L72.2972 78.9682
" />
<path d="M73.4242 77.2102 A0.2400 0.2400 0.0 0 0 73.4242 77.5496" />
<path d="M73.5090 77.1253
L73.9807 76.6536
" />
<path d="M73.5700 78.0348 A0.2399 0.2399 0.0 0 0 73.5699 77.6954" />
<path d="M72.9999 77.9738 A0.2400 0.2400 0.0 0 0 72.6605 77.9738" />
<path d="M72.5756 78.0587 A0.2400 0.2400 0.0 0 0 72.5756 78.3981" />
<path d="M72.7214 78.8833 A0.2400 0.2400 0.0 0 0 72.7214 78.5439" />
<path d="M73.1457 78.1196 A0.2400 0.2400 0.0 0 0 73.4851 78.1196" />
<path d="M72.2972 78.9682 A0.2400 0.2400 0.0 0 0 72.6366 78.9682" />
<path d="M72.7214 78.5439
L72.5756 78.3981
" />
<path d="M73.5700 77.6954
L73.4242 77.5496
" />
<path d="M73.4851 78.1196
L73.5700 78.0348
" />
<path d="M72.9999 77.9738
L73.1457 78.1196
" />
<path d="M73.4242 77.2102
L73.5090 77.1253
" />
<path d="M72.5756 78.0587
L72.6605 77.9738
" />
<path d="M72.1514 78.8224 A0.2400 0.2400 0.0 0 0 71.8120 78.8224" />
<path d="M68.4734 81.4832
L67.9646 81.4832
" />
<path d="M69.7783 76.5853
L69.6074 76.5853
" />
<path d="M68.9508 81.9606
L68.4734 81.4832
" />
<path d="M69.4792 81.9606
L68.9508 81.9606
" />
<path d="M69.5555 82.0370
L69.4792 81.9606
" />
<path d="M71.1200 82.0370
L69.5555 82.0370
" />
<path d="M69.6074 78.3853 A0.2400 0.2400 0.0 0 0 69.3674 78.6253" />
<path d="M69.7783 77.1853 A0.2400 0.2400 0.0 0 0 70.0183 76.9453" />
<path d="M69.7783 77.7853
L69.6074 77.7853
" />
<path d="M69.6074 77.1853 A0.2400 0.2400 0.0 0 0 69.3674 77.4253" />
<path d="M70.0183 78.1453
L70.0183 78.0253
" />
<path d="M69.3674 77.5453 A0.2400 0.2400 0.0 0 0 69.6074 77.7853" />
<path d="M67.9646 81.4832
L67.7672 81.2858
" />
<path d="M69.6074 78.3853
L69.7783 78.3853
" />
<path d="M70.0183 78.0253 A0.2400 0.2400 0.0 0 0 69.7783 77.7853" />
<path d="M69.3674 76.3453 A0.2400 0.2400 0.0 0 0 69.6074 76.5853" />
<path d="M69.6074 77.1853
L69.7783 77.1853
" />
<path d="M69.7783 78.3853 A0.2400 0.2400 0.0 0 0 70.0183 78.1453" />
<path d="M70.0183 76.8253 A0.2400 0.2400 0.0 0 0 69.7783 76.5853" />
<path d="M69.3674 77.5453
L69.3674 77.4253
" />
<path d="M67.7672 81.2858
L67.7672 80.2255
" />
<path d="M67.7672 80.2255
L69.3674 78.6253
" />
<path d="M70.0183 76.9453
L70.0183 76.8253
" />
<path d="M72.7236 85.5840
L72.7236 85.9402
" />
<path d="M75.4273 86.1077 A0.2400 0.2400 0.0 0 0 75.0879 86.1077" />
<path d="M73.0836 86.1802 A0.2400 0.2400 0.0 0 0 73.3236 85.9402" />
<path d="M74.6637 85.6834
L74.4117 85.9353
" />
<path d="M71.5441 85.3440
L72.4836 85.3440
" />
<path d="M74.8360 86.3596
L75.0879 86.1077
" />
<path d="M71.1200 85.7681
L71.5441 85.3440
" />
<path d="M71.1200 86.1010
L71.1200 85.7681
" />
<path d="M74.6637 85.6834 A0.2400 0.2400 0.0 0 0 74.6637 85.3440" />
<path d="M72.9636 86.1802
L73.0836 86.1802
" />
<path d="M73.5636 85.3440 A0.2400 0.2400 0.0 0 0 73.3236 85.5840" />
<path d="M74.4966 86.3596 A0.2400 0.2400 0.0 0 0 74.8360 86.3596" />
<path d="M72.7236 85.9402 A0.2400 0.2400 0.0 0 0 72.9636 86.1802" />
<path d="M74.4117 85.9353 A0.2400 0.2400 0.0 0 0 74.4118 86.2747" />
<path d="M72.7236 85.5840 A0.2400 0.2400 0.0 0 0 72.4836 85.3440" />
<path d="M73.3236 85.9402
L73.3236 85.5840
" />
<path d="M73.5636 85.3440
L74.6637 85.3440
" />
<path d="M74.4117 86.2747
L74.4966 86.3596
" />
<path d="M75.4273 86.1077
L76.4671 87.1474
" />
<path d="M73.2223 83.3578 A0.2400 0.2400 0.0 0 0 72.9823 83.5978" />
<path d="M72.9823 84.0665
L72.9823 83.5978
" />
<path d="M72.6223 84.3065
L72.7423 84.3065
" />
<path d="M71.8312 83.3578
L72.1423 83.3578
" />
<path d="M72.3823 83.5978
L72.3823 84.0665
" />
<path d="M71.1200 84.0690
L71.8312 83.3578
" />
<path d="M73.2223 83.3578
L73.4233 83.3578
" />
<path d="M72.3823 84.0665 A0.2400 0.2400 0.0 0 0 72.6223 84.3065" />
<path d="M72.7423 84.3065 A0.2400 0.2400 0.0 0 0 72.9823 84.0665" />
<path d="M72.3823 83.5978 A0.2400 0.2400 0.0 0 0 72.1423 83.3578" />
</g>
<g style="fill:none; 
stroke:#000000; stroke-width:0.3810; stroke-opacity:1; 
stroke-linecap:round; stroke-linejoin:round;">
<path d="M72.4275 120.9675
L72.3900 120.9300
" />
<path d="M72.3900 120.0525
L72.3525 120.0150
" />
<path d="M72.3900 120.9300
L72.3900 120.0525
" />
<path d="M69.8875 120.9675
L69.8500 120.9300
" />
<path d="M69.8500 120.9300
L69.8500 120.0525
" />
<path d="M69.8500 120.0525
L69.8125 120.0150
" />
<path d="M74.9675 120.9675
L74.9300 120.9300
" />
<path d="M74.9300 120.9300
L74.9300 120.0525
" />
<path d="M74.9300 120.0525
L74.8925 120.0150
" />
<path d="M77.5075 120.9675
L77.4700 120.9300
" />
<path d="M77.4700 120.9300
L77.4700 120.0525
" />
<path d="M77.4700 120.0525
L77.4325 120.0150
" />
<path d="M80.0475 120.9675
L80.0100 120.9300
" />
<path d="M80.0100 120.9300
L80.0100 120.0525
" />
<path d="M80.0100 120.0525
L79.9725 120.0150
" />
<path d="M82.5875 120.9675
L82.5500 120.9300
" />
<path d="M82.5500 120.9300
L82.5500 120.0525
" />
<path d="M82.5500 120.0525
L82.5125 120.0150
" />
<path d="M85.1275 120.0900
L85.0525 120.0150
" />
<path d="M85.1275 120.9300
L85.1275 120.0900
" />
<path d="M67.3475 120.0525
L67.3100 120.0150
" />
<path d="M67.3475 120.9675
L67.3475 120.0525
" />
<path d="M81.2425 120.9675
L81.2425 118.8079
" />
<path d="M81.2425 118.8079
L81.2800 118.7704
" />
<path d="M78.7025 120.9675
L78.7025 118.8079
" />
<path d="M78.7025 118.8079
L78.7400 118.7704
" />
<path d="M76.1625 120.9675
L76.1625 118.8079
" />
<path d="M76.1625 118.8079
L76.2000 118.7704
" />
<path d="M73.6225 120.9675
L73.6225 118.8079
" />
<path d="M73.6225 118.8079
L73.6600 118.7704
" />
<path d="M71.0825 120.9675
L71.0825 118.8079
" />
<path d="M71.0825 118.8079
L71.1200 118.7704
" />
<path d="M68.5425 120.9675
L68.5425 118.8079
" />
<path d="M68.5425 118.8079
L68.5800 118.7704
" />
<path d="M112.1325 90.6047
L111.5600 90.6047
" />
<path d="M111.5600 90.6047
L111.1800 90.9847
" />
<path d="M109.3686 90.4433
L109.9100 90.9847
" />
<path d="M110.9000 89.4176
L110.3743 89.9433
" />
<path d="M108.9265 90.4433
L109.3686 90.4433
" />
<path d="M112.1325 89.4597
L112.1325 88.1647
" />
<path d="M110.9000 88.1272
L110.9000 89.4176
" />
<path d="M112.1325 88.1647
L112.0951 88.1272
" />
<path d="M112.1797 94.7049
L111.6072 94.7049
" />
<path d="M111.6072 94.7049
L111.2272 95.0849
" />
<path d="M109.4158 94.5435
L109.9572 95.0849
" />
<path d="M110.9472 93.5178
L110.4215 94.0435
" />
<path d="M108.9737 94.5435
L109.4158 94.5435
" />
<path d="M112.1797 93.5599
L112.1797 92.2649
" />
<path d="M110.9472 92.2274
L110.9472 93.5178
" />
<path d="M112.1797 92.2649
L112.1422 92.2274
" />
<path d="M112.1325 98.8511
L111.5600 98.8511
" />
<path d="M111.5600 98.8511
L111.1800 99.2311
" />
<path d="M109.3686 98.6897
L109.9100 99.2311
" />
<path d="M110.9000 97.6640
L110.3743 98.1897
" />
<path d="M108.9265 98.6897
L109.3686 98.6897
" />
<path d="M112.1325 97.7061
L112.1325 96.4111
" />
<path d="M110.9000 96.3736
L110.9000 97.6640
" />
<path d="M112.1325 96.4111
L112.0951 96.3736
" />
<path d="M112.1797 103.1783
L111.6072 103.1783
" />
<path d="M111.6072 103.1783
L111.2272 103.5583
" />
<path d="M109.4158 103.0169
L109.9572 103.5583
" />
<path d="M110.9472 101.9912
L110.4215 102.5169
" />
<path d="M108.9737 103.0169
L109.4158 103.0169
" />
<path d="M112.1797 102.0333
L112.1797 100.7383
" />
<path d="M110.9472 100.7008
L110.9472 101.9912
" />
<path d="M112.1797 100.7383
L112.1422 100.7008
" />
<path d="M112.1872 107.3331
L111.6147 107.3331
" />
<path d="M111.6147 107.3331
L111.2347 107.7131
" />
<path d="M109.4233 107.1717
L109.9647 107.7131
" />
<path d="M110.9547 106.1460
L110.4290 106.6717
" />
<path d="M108.9812 107.1717
L109.4233 107.1717
" />
<path d="M112.1872 106.1881
L112.1872 104.8931
" />
<path d="M110.9547 104.8556
L110.9547 106.1460
" />
<path d="M112.1872 104.8931
L112.1497 104.8556
" />
<path d="M112.1872 111.5708
L111.6147 111.5708
" />
<path d="M111.6147 111.5708
L111.2347 111.9508
" />
<path d="M109.4233 111.4094
L109.9647 111.9508
" />
<path d="M110.9547 110.3837
L110.4290 110.9094
" />
<path d="M108.9812 111.4094
L109.4233 111.4094
" />
<path d="M112.1872 110.4258
L112.1872 109.1308
" />
<path d="M110.9547 109.0933
L110.9547 110.3837
" />
<path d="M112.1872 109.1308
L112.1497 109.0933
" />
<path d="M112.2247 115.9158
L111.6522 115.9158
" />
<path d="M111.6522 115.9158
L111.2722 116.2958
" />
<path d="M109.4608 115.7544
L110.0022 116.2958
" />
<path d="M110.9922 114.7287
L110.4665 115.2544
" />
<path d="M109.0187 115.7544
L109.4608 115.7544
" />
<path d="M112.2247 114.7708
L112.2247 113.4758
" />
<path d="M110.9922 113.4383
L110.9922 114.7287
" />
<path d="M112.2247 113.4758
L112.1872 113.4383
" />
<path d="M112.1325 86.4874
L111.5600 86.4874
" />
<path d="M111.5600 86.4874
L111.1800 86.8674
" />
<path d="M108.9265 86.3260
L109.3686 86.3260
" />
<path d="M109.3686 86.3260
L109.9100 86.8674
" />
<path d="M110.9000 84.0099
L110.9000 85.3003
" />
<path d="M110.9000 85.3003
L110.3743 85.8260
" />
<path d="M112.1325 85.3424
L112.1325 84.0474
" />
<path d="M112.1325 84.0474
L112.0951 84.0099
" />
<path d="M86.5450 78.7908
L86.5450 79.3750
" />
</g>
<g style="fill:none; 
stroke:#000000; stroke-width:0.6350; stroke-opacity:1; 
stroke-linecap:round; stroke-linejoin:round;">
<path d="M71.7550 72.5750
L72.6425 72.5750
" />
<path d="M78.7400 72.5750
L79.6275 72.5750
" />
<path d="M81.0950 81.2800
L81.0950 82.1675
" />
<path d="M81.0950 89.5350
L81.0950 90.4225
" />
<path d="M87.3125 99.0600
L88.8325 99.0600
" />
<path d="M87.3125 100.3300
L88.8325 100.3300
" />
<path d="M68.5800 109.8296
L68.5800 111.7600
" />
<path d="M71.1200 109.8296
L71.1200 111.7600
" />
<path d="M73.6600 109.8296
L73.6600 111.7600
" />
<path d="M76.2000 109.8296
L76.2000 111.7600
" />
<path d="M78.7400 109.8296
L78.7400 111.7600
" />
<path d="M81.2800 109.8296
L81.2800 111.7600
" />
<path d="M83.8200 109.8296
L83.8200 111.7600
" />
<path d="M86.3600 109.8296
L86.3600 111.7600
" />
<path d="M86.0044 100.3300
L87.3125 100.3300
" />
<path d="M88.8325 100.3300
L88.9000 100.2625
" />
<path d="M82.1650 90.4875
L83.5025 90.4875
" />
<path d="M81.0950 85.0900
L82.5500 85.0900
" />
<path d="M82.1650 82.2325
L83.5025 82.2325
" />
<path d="M81.0950 80.6450
L81.0950 81.2800
" />
<path d="M81.0950 82.1675
L81.0300 82.2325
" />
<path d="M81.0950 76.8350
L82.5500 76.8350
" />
<path d="M79.6925 71.5050
L79.6925 70.4850
" />
<path d="M74.2950 72.5750
L74.2950 71.1200
" />
<path d="M67.3100 72.5750
L67.3100 71.1200
" />
<path d="M72.7075 71.5050
L72.7075 70.4850
" />
<path d="M86.0044 99.0600
L87.3125 99.0600
" />
<path d="M88.8325 99.0600
L88.9000 99.1275
" />
<path d="M81.0950 88.9000
L81.0950 89.5350
" />
<path d="M81.0950 90.4225
L81.0300 90.4875
" />
<path d="M78.1050 72.5750
L78.7400 72.5750
" />
<path d="M79.6275 72.5750
L79.6925 72.6400
" />
<path d="M71.1200 72.5750
L71.7550 72.5750
" />
<path d="M72.6425 72.5750
L72.7075 72.6400
" />
</g> 
</svg>
