%TF.GenerationSoftware,KiCad,Pcbnew,9.0.0-9.0.0-2~ubuntu24.04.1*%
%TF.CreationDate,2025-03-20T03:38:19-04:00*%
%TF.ProjectId,LVDS_RasPi_Hat,4c564453-5f52-4617-9350-695f4861742e,2*%
%TF.SameCoordinates,Original*%
%TF.FileFunction,Copper,L1,Top*%
%TF.FilePolarity,Positive*%
%FSLAX46Y46*%
G04 Gerber Fmt 4.6, Leading zero omitted, Abs format (unit mm)*
G04 Created by KiCad (PCBNEW 9.0.0-9.0.0-2~ubuntu24.04.1) date 2025-03-20 03:38:19*
%MOMM*%
%LPD*%
G01*
G04 APERTURE LIST*
%TA.AperFunction,SMDPad,CuDef*%
%ADD10R,1.016000X0.355600*%
%TD*%
%TA.AperFunction,SMDPad,CuDef*%
%ADD11O,0.599999X1.450000*%
%TD*%
%TA.AperFunction,SMDPad,CuDef*%
%ADD12O,1.450000X0.599999*%
%TD*%
%TA.AperFunction,ComponentPad*%
%ADD13R,1.700000X1.700000*%
%TD*%
%TA.AperFunction,ComponentPad*%
%ADD14O,1.700000X1.700000*%
%TD*%
%TA.AperFunction,SMDPad,CuDef*%
%ADD15R,0.685800X2.159000*%
%TD*%
%TA.AperFunction,SMDPad,CuDef*%
%ADD16R,2.184400X0.558800*%
%TD*%
%TA.AperFunction,ComponentPad*%
%ADD17C,1.448000*%
%TD*%
%TA.AperFunction,ViaPad*%
%ADD18C,0.812800*%
%TD*%
%TA.AperFunction,Conductor*%
%ADD19C,0.381000*%
%TD*%
%TA.AperFunction,Conductor*%
%ADD20C,0.635000*%
%TD*%
%TA.AperFunction,Conductor*%
%ADD21C,0.175260*%
%TD*%
G04 APERTURE END LIST*
D10*
%TO.P,U13,1,1*%
%TO.N,/CONFIG15*%
X109018700Y-114754401D03*
%TO.P,U13,2,2*%
%TO.N,GND*%
X109018700Y-115754399D03*
%TO.P,U13,3,3*%
%TO.N,Net-(R16-Pad1)*%
X110466500Y-115254400D03*
%TD*%
%TO.P,U12,1,1*%
%TO.N,/CONFIG14*%
X108981200Y-110409401D03*
%TO.P,U12,2,2*%
%TO.N,GND*%
X108981200Y-111409399D03*
%TO.P,U12,3,3*%
%TO.N,Net-(R15-Pad1)*%
X110429000Y-110909400D03*
%TD*%
%TO.P,U11,1,1*%
%TO.N,/CONFIG13*%
X108981200Y-106171701D03*
%TO.P,U11,2,2*%
%TO.N,GND*%
X108981200Y-107171699D03*
%TO.P,U11,3,3*%
%TO.N,Net-(R14-Pad1)*%
X110429000Y-106671700D03*
%TD*%
%TO.P,U10,1,1*%
%TO.N,/CONFIG12*%
X108973700Y-102016901D03*
%TO.P,U10,2,2*%
%TO.N,GND*%
X108973700Y-103016899D03*
%TO.P,U10,3,3*%
%TO.N,Net-(R13-Pad1)*%
X110421500Y-102516900D03*
%TD*%
%TO.P,U9,1,1*%
%TO.N,/CONFIG11*%
X108926550Y-97689751D03*
%TO.P,U9,2,2*%
%TO.N,GND*%
X108926550Y-98689749D03*
%TO.P,U9,3,3*%
%TO.N,Net-(R12-Pad1)*%
X110374350Y-98189750D03*
%TD*%
%TO.P,U8,1,1*%
%TO.N,/CONFIG10*%
X108973700Y-93543501D03*
%TO.P,U8,2,2*%
%TO.N,GND*%
X108973700Y-94543499D03*
%TO.P,U8,3,3*%
%TO.N,Net-(R11-Pad1)*%
X110421500Y-94043500D03*
%TD*%
%TO.P,U7,1,1*%
%TO.N,/CONFIG9*%
X108926550Y-89443301D03*
%TO.P,U7,2,2*%
%TO.N,GND*%
X108926550Y-90443299D03*
%TO.P,U7,3,3*%
%TO.N,Net-(R10-Pad1)*%
X110374350Y-89943300D03*
%TD*%
%TO.P,U6,1,1*%
%TO.N,/CONFIG8*%
X108926550Y-85326001D03*
%TO.P,U6,2,2*%
%TO.N,GND*%
X108926550Y-86325999D03*
%TO.P,U6,3,3*%
%TO.N,Net-(R9-Pad1)*%
X110374350Y-85826000D03*
%TD*%
D11*
%TO.P,U5,1,R*%
%TO.N,/TS_BUS3*%
X78105000Y-67124999D03*
%TO.P,U5,2,RE_N*%
%TO.N,/TS_BUS_SEL*%
X76835000Y-67124999D03*
%TO.P,U5,3,DE*%
X75565000Y-67124999D03*
%TO.P,U5,4,D*%
%TO.N,/TS_BUS3*%
X74295000Y-67124999D03*
%TO.P,U5,5,GND*%
%TO.N,GND*%
X74295000Y-72574998D03*
%TO.P,U5,6,A*%
%TO.N,/Trigger Interface/D4+*%
X75565000Y-72574998D03*
%TO.P,U5,7,B*%
%TO.N,/Trigger Interface/D4-*%
X76835000Y-72574998D03*
%TO.P,U5,8,VCC*%
%TO.N,+3V3*%
X78105000Y-72574998D03*
%TD*%
D12*
%TO.P,U4,1,R*%
%TO.N,/TS_BUS2*%
X86545001Y-80645000D03*
%TO.P,U4,2,RE_N*%
%TO.N,/TS_BUS_SEL*%
X86545001Y-79375000D03*
%TO.P,U4,3,DE*%
X86545001Y-78105000D03*
%TO.P,U4,4,D*%
%TO.N,/TS_BUS2*%
X86545001Y-76835000D03*
%TO.P,U4,5,GND*%
%TO.N,GND*%
X81095002Y-76835000D03*
%TO.P,U4,6,A*%
%TO.N,/Trigger Interface/D3+*%
X81095002Y-78105000D03*
%TO.P,U4,7,B*%
%TO.N,/Trigger Interface/D3-*%
X81095002Y-79375000D03*
%TO.P,U4,8,VCC*%
%TO.N,+3V3*%
X81095002Y-80645000D03*
%TD*%
D11*
%TO.P,U3,1,R*%
%TO.N,/TS_BUS1*%
X71120000Y-67124999D03*
%TO.P,U3,2,RE_N*%
%TO.N,/TS_BUS_SEL*%
X69850000Y-67124999D03*
%TO.P,U3,3,DE*%
X68580000Y-67124999D03*
%TO.P,U3,4,D*%
%TO.N,/TS_BUS1*%
X67310000Y-67124999D03*
%TO.P,U3,5,GND*%
%TO.N,GND*%
X67310000Y-72574998D03*
%TO.P,U3,6,A*%
%TO.N,/Trigger Interface/D2+*%
X68580000Y-72574998D03*
%TO.P,U3,7,B*%
%TO.N,/Trigger Interface/D2-*%
X69850000Y-72574998D03*
%TO.P,U3,8,VCC*%
%TO.N,+3V3*%
X71120000Y-72574998D03*
%TD*%
D12*
%TO.P,U2,1,R*%
%TO.N,/TS_BUS0*%
X86545001Y-88900000D03*
%TO.P,U2,2,RE_N*%
%TO.N,/TS_BUS_SEL*%
X86545001Y-87630000D03*
%TO.P,U2,3,DE*%
X86545001Y-86360000D03*
%TO.P,U2,4,D*%
%TO.N,/TS_BUS0*%
X86545001Y-85090000D03*
%TO.P,U2,5,GND*%
%TO.N,GND*%
X81095002Y-85090000D03*
%TO.P,U2,6,A*%
%TO.N,/Trigger Interface/D1+*%
X81095002Y-86360000D03*
%TO.P,U2,7,B*%
%TO.N,/Trigger Interface/D1-*%
X81095002Y-87630000D03*
%TO.P,U2,8,VCC*%
%TO.N,+3V3*%
X81095002Y-88900000D03*
%TD*%
D13*
%TO.P,J1,1,3V3*%
%TO.N,+3V3*%
X98762500Y-68610000D03*
D14*
%TO.P,J1,2,5V*%
%TO.N,+5V*%
X101302500Y-68610000D03*
%TO.P,J1,3,SDA/GPIO2*%
%TO.N,/TS_BUS_SEL*%
X98762500Y-71150000D03*
%TO.P,J1,4,5V*%
%TO.N,+5V*%
X101302500Y-71150000D03*
%TO.P,J1,5,SCL/GPIO3*%
%TO.N,unconnected-(J1-SCL{slash}GPIO3-Pad5)*%
X98762500Y-73690000D03*
%TO.P,J1,6,GND*%
%TO.N,GND*%
X101302500Y-73690000D03*
%TO.P,J1,7,GCLK0/GPIO4*%
%TO.N,unconnected-(J1-GCLK0{slash}GPIO4-Pad7)*%
X98762500Y-76230000D03*
%TO.P,J1,8,GPIO14/TXD*%
%TO.N,/CONFIG8*%
X101302500Y-76230000D03*
%TO.P,J1,9,GND*%
%TO.N,GND*%
X98762500Y-78770000D03*
%TO.P,J1,10,GPIO15/RXD*%
%TO.N,/CONFIG12*%
X101302500Y-78770000D03*
%TO.P,J1,11,GPIO17*%
%TO.N,unconnected-(J1-GPIO17-Pad11)*%
X98762500Y-81310000D03*
%TO.P,J1,12,GPIO18/PWM0*%
%TO.N,/CONFIG9*%
X101302500Y-81310000D03*
%TO.P,J1,13,GPIO27*%
%TO.N,/CONFIG7*%
X98762500Y-83850000D03*
%TO.P,J1,14,GND*%
%TO.N,GND*%
X101302500Y-83850000D03*
%TO.P,J1,15,GPIO22*%
%TO.N,/CONFIG6*%
X98762500Y-86390000D03*
%TO.P,J1,16,GPIO23*%
%TO.N,/CONFIG11*%
X101302500Y-86390000D03*
%TO.P,J1,17,3V3*%
%TO.N,+3V3*%
X98762500Y-88930000D03*
%TO.P,J1,18,GPIO24*%
%TO.N,/CONFIG13*%
X101302500Y-88930000D03*
%TO.P,J1,19,MOSI0/GPIO10*%
%TO.N,/CONFIG5*%
X98762500Y-91470000D03*
%TO.P,J1,20,GND*%
%TO.N,GND*%
X101302500Y-91470000D03*
%TO.P,J1,21,MISO0/GPIO9*%
%TO.N,/CONFIG4*%
X98762500Y-94010000D03*
%TO.P,J1,22,GPIO25*%
%TO.N,/CONFIG14*%
X101302500Y-94010000D03*
%TO.P,J1,23,SCLK0/GPIO11*%
%TO.N,/CONFIG3*%
X98762500Y-96550000D03*
%TO.P,J1,24,~{CE0}/GPIO8*%
%TO.N,/NIM2*%
X101302500Y-96550000D03*
%TO.P,J1,25,GND*%
%TO.N,GND*%
X98762500Y-99090000D03*
%TO.P,J1,26,~{CE1}/GPIO7*%
%TO.N,/CONFIG15*%
X101302500Y-99090000D03*
%TO.P,J1,27,ID_SD/GPIO0*%
%TO.N,/NIM1*%
X98762500Y-101630000D03*
%TO.P,J1,28,ID_SC/GPIO1*%
%TO.N,/CONFIG2*%
X101302500Y-101630000D03*
%TO.P,J1,29,GCLK1/GPIO5*%
%TO.N,/NIM3*%
X98762500Y-104170000D03*
%TO.P,J1,30,GND*%
%TO.N,GND*%
X101302500Y-104170000D03*
%TO.P,J1,31,GCLK2/GPIO6*%
%TO.N,/TS_BUS0*%
X98762500Y-106710000D03*
%TO.P,J1,32,PWM0/GPIO12*%
%TO.N,/CONFIG1*%
X101302500Y-106710000D03*
%TO.P,J1,33,PWM1/GPIO13*%
%TO.N,/TS_BUS1*%
X98762500Y-109250000D03*
%TO.P,J1,34,GND*%
%TO.N,GND*%
X101302500Y-109250000D03*
%TO.P,J1,35,GPIO19/MISO1*%
%TO.N,/TS_BUS2*%
X98762500Y-111790000D03*
%TO.P,J1,36,GPIO16*%
%TO.N,/NIM0*%
X101302500Y-111790000D03*
%TO.P,J1,37,GPIO26*%
%TO.N,/TS_BUS3*%
X98762500Y-114330000D03*
%TO.P,J1,38,GPIO20/MOSI1*%
%TO.N,/CONFIG0*%
X101302500Y-114330000D03*
%TO.P,J1,39,GND*%
%TO.N,GND*%
X98762500Y-116870000D03*
%TO.P,J1,40,GPIO21/SCLK1*%
%TO.N,/CONFIG10*%
X101302500Y-116870000D03*
%TD*%
%TO.P,R16,1*%
%TO.N,Net-(R16-Pad1)*%
%TA.AperFunction,SMDPad,CuDef*%
G36*
G01*
X110634700Y-113598300D02*
X110634700Y-113278300D01*
G75*
G02*
X110794700Y-113118300I160000J0D01*
G01*
X111189700Y-113118300D01*
G75*
G02*
X111349700Y-113278300I0J-160000D01*
G01*
X111349700Y-113598300D01*
G75*
G02*
X111189700Y-113758300I-160000J0D01*
G01*
X110794700Y-113758300D01*
G75*
G02*
X110634700Y-113598300I0J160000D01*
G01*
G37*
%TD.AperFunction*%
%TO.P,R16,2*%
%TO.N,Net-(D8-K)*%
%TA.AperFunction,SMDPad,CuDef*%
G36*
G01*
X111829700Y-113598300D02*
X111829700Y-113278300D01*
G75*
G02*
X111989700Y-113118300I160000J0D01*
G01*
X112384700Y-113118300D01*
G75*
G02*
X112544700Y-113278300I0J-160000D01*
G01*
X112544700Y-113598300D01*
G75*
G02*
X112384700Y-113758300I-160000J0D01*
G01*
X111989700Y-113758300D01*
G75*
G02*
X111829700Y-113598300I0J160000D01*
G01*
G37*
%TD.AperFunction*%
%TD*%
%TO.P,R15,1*%
%TO.N,Net-(R15-Pad1)*%
%TA.AperFunction,SMDPad,CuDef*%
G36*
G01*
X110597200Y-109253300D02*
X110597200Y-108933300D01*
G75*
G02*
X110757200Y-108773300I160000J0D01*
G01*
X111152200Y-108773300D01*
G75*
G02*
X111312200Y-108933300I0J-160000D01*
G01*
X111312200Y-109253300D01*
G75*
G02*
X111152200Y-109413300I-160000J0D01*
G01*
X110757200Y-109413300D01*
G75*
G02*
X110597200Y-109253300I0J160000D01*
G01*
G37*
%TD.AperFunction*%
%TO.P,R15,2*%
%TO.N,Net-(D7-K)*%
%TA.AperFunction,SMDPad,CuDef*%
G36*
G01*
X111792200Y-109253300D02*
X111792200Y-108933300D01*
G75*
G02*
X111952200Y-108773300I160000J0D01*
G01*
X112347200Y-108773300D01*
G75*
G02*
X112507200Y-108933300I0J-160000D01*
G01*
X112507200Y-109253300D01*
G75*
G02*
X112347200Y-109413300I-160000J0D01*
G01*
X111952200Y-109413300D01*
G75*
G02*
X111792200Y-109253300I0J160000D01*
G01*
G37*
%TD.AperFunction*%
%TD*%
%TO.P,R14,1*%
%TO.N,Net-(R14-Pad1)*%
%TA.AperFunction,SMDPad,CuDef*%
G36*
G01*
X110597200Y-105015600D02*
X110597200Y-104695600D01*
G75*
G02*
X110757200Y-104535600I160000J0D01*
G01*
X111152200Y-104535600D01*
G75*
G02*
X111312200Y-104695600I0J-160000D01*
G01*
X111312200Y-105015600D01*
G75*
G02*
X111152200Y-105175600I-160000J0D01*
G01*
X110757200Y-105175600D01*
G75*
G02*
X110597200Y-105015600I0J160000D01*
G01*
G37*
%TD.AperFunction*%
%TO.P,R14,2*%
%TO.N,Net-(D6-K)*%
%TA.AperFunction,SMDPad,CuDef*%
G36*
G01*
X111792200Y-105015600D02*
X111792200Y-104695600D01*
G75*
G02*
X111952200Y-104535600I160000J0D01*
G01*
X112347200Y-104535600D01*
G75*
G02*
X112507200Y-104695600I0J-160000D01*
G01*
X112507200Y-105015600D01*
G75*
G02*
X112347200Y-105175600I-160000J0D01*
G01*
X111952200Y-105175600D01*
G75*
G02*
X111792200Y-105015600I0J160000D01*
G01*
G37*
%TD.AperFunction*%
%TD*%
%TO.P,R13,1*%
%TO.N,Net-(R13-Pad1)*%
%TA.AperFunction,SMDPad,CuDef*%
G36*
G01*
X110589700Y-100860800D02*
X110589700Y-100540800D01*
G75*
G02*
X110749700Y-100380800I160000J0D01*
G01*
X111144700Y-100380800D01*
G75*
G02*
X111304700Y-100540800I0J-160000D01*
G01*
X111304700Y-100860800D01*
G75*
G02*
X111144700Y-101020800I-160000J0D01*
G01*
X110749700Y-101020800D01*
G75*
G02*
X110589700Y-100860800I0J160000D01*
G01*
G37*
%TD.AperFunction*%
%TO.P,R13,2*%
%TO.N,Net-(D5-K)*%
%TA.AperFunction,SMDPad,CuDef*%
G36*
G01*
X111784700Y-100860800D02*
X111784700Y-100540800D01*
G75*
G02*
X111944700Y-100380800I160000J0D01*
G01*
X112339700Y-100380800D01*
G75*
G02*
X112499700Y-100540800I0J-160000D01*
G01*
X112499700Y-100860800D01*
G75*
G02*
X112339700Y-101020800I-160000J0D01*
G01*
X111944700Y-101020800D01*
G75*
G02*
X111784700Y-100860800I0J160000D01*
G01*
G37*
%TD.AperFunction*%
%TD*%
%TO.P,R12,1*%
%TO.N,Net-(R12-Pad1)*%
%TA.AperFunction,SMDPad,CuDef*%
G36*
G01*
X110542550Y-96533650D02*
X110542550Y-96213650D01*
G75*
G02*
X110702550Y-96053650I160000J0D01*
G01*
X111097550Y-96053650D01*
G75*
G02*
X111257550Y-96213650I0J-160000D01*
G01*
X111257550Y-96533650D01*
G75*
G02*
X111097550Y-96693650I-160000J0D01*
G01*
X110702550Y-96693650D01*
G75*
G02*
X110542550Y-96533650I0J160000D01*
G01*
G37*
%TD.AperFunction*%
%TO.P,R12,2*%
%TO.N,Net-(D4-K)*%
%TA.AperFunction,SMDPad,CuDef*%
G36*
G01*
X111737550Y-96533650D02*
X111737550Y-96213650D01*
G75*
G02*
X111897550Y-96053650I160000J0D01*
G01*
X112292550Y-96053650D01*
G75*
G02*
X112452550Y-96213650I0J-160000D01*
G01*
X112452550Y-96533650D01*
G75*
G02*
X112292550Y-96693650I-160000J0D01*
G01*
X111897550Y-96693650D01*
G75*
G02*
X111737550Y-96533650I0J160000D01*
G01*
G37*
%TD.AperFunction*%
%TD*%
%TO.P,R11,1*%
%TO.N,Net-(R11-Pad1)*%
%TA.AperFunction,SMDPad,CuDef*%
G36*
G01*
X110589700Y-92387400D02*
X110589700Y-92067400D01*
G75*
G02*
X110749700Y-91907400I160000J0D01*
G01*
X111144700Y-91907400D01*
G75*
G02*
X111304700Y-92067400I0J-160000D01*
G01*
X111304700Y-92387400D01*
G75*
G02*
X111144700Y-92547400I-160000J0D01*
G01*
X110749700Y-92547400D01*
G75*
G02*
X110589700Y-92387400I0J160000D01*
G01*
G37*
%TD.AperFunction*%
%TO.P,R11,2*%
%TO.N,Net-(D3-K)*%
%TA.AperFunction,SMDPad,CuDef*%
G36*
G01*
X111784700Y-92387400D02*
X111784700Y-92067400D01*
G75*
G02*
X111944700Y-91907400I160000J0D01*
G01*
X112339700Y-91907400D01*
G75*
G02*
X112499700Y-92067400I0J-160000D01*
G01*
X112499700Y-92387400D01*
G75*
G02*
X112339700Y-92547400I-160000J0D01*
G01*
X111944700Y-92547400D01*
G75*
G02*
X111784700Y-92387400I0J160000D01*
G01*
G37*
%TD.AperFunction*%
%TD*%
%TO.P,R10,1*%
%TO.N,Net-(R10-Pad1)*%
%TA.AperFunction,SMDPad,CuDef*%
G36*
G01*
X110542550Y-88287200D02*
X110542550Y-87967200D01*
G75*
G02*
X110702550Y-87807200I160000J0D01*
G01*
X111097550Y-87807200D01*
G75*
G02*
X111257550Y-87967200I0J-160000D01*
G01*
X111257550Y-88287200D01*
G75*
G02*
X111097550Y-88447200I-160000J0D01*
G01*
X110702550Y-88447200D01*
G75*
G02*
X110542550Y-88287200I0J160000D01*
G01*
G37*
%TD.AperFunction*%
%TO.P,R10,2*%
%TO.N,Net-(D2-K)*%
%TA.AperFunction,SMDPad,CuDef*%
G36*
G01*
X111737550Y-88287200D02*
X111737550Y-87967200D01*
G75*
G02*
X111897550Y-87807200I160000J0D01*
G01*
X112292550Y-87807200D01*
G75*
G02*
X112452550Y-87967200I0J-160000D01*
G01*
X112452550Y-88287200D01*
G75*
G02*
X112292550Y-88447200I-160000J0D01*
G01*
X111897550Y-88447200D01*
G75*
G02*
X111737550Y-88287200I0J160000D01*
G01*
G37*
%TD.AperFunction*%
%TD*%
%TO.P,R9,1*%
%TO.N,Net-(R9-Pad1)*%
%TA.AperFunction,SMDPad,CuDef*%
G36*
G01*
X110542550Y-84169900D02*
X110542550Y-83849900D01*
G75*
G02*
X110702550Y-83689900I160000J0D01*
G01*
X111097550Y-83689900D01*
G75*
G02*
X111257550Y-83849900I0J-160000D01*
G01*
X111257550Y-84169900D01*
G75*
G02*
X111097550Y-84329900I-160000J0D01*
G01*
X110702550Y-84329900D01*
G75*
G02*
X110542550Y-84169900I0J160000D01*
G01*
G37*
%TD.AperFunction*%
%TO.P,R9,2*%
%TO.N,Net-(D1-K)*%
%TA.AperFunction,SMDPad,CuDef*%
G36*
G01*
X111737550Y-84169900D02*
X111737550Y-83849900D01*
G75*
G02*
X111897550Y-83689900I160000J0D01*
G01*
X112292550Y-83689900D01*
G75*
G02*
X112452550Y-83849900I0J-160000D01*
G01*
X112452550Y-84169900D01*
G75*
G02*
X112292550Y-84329900I-160000J0D01*
G01*
X111897550Y-84329900D01*
G75*
G02*
X111737550Y-84169900I0J160000D01*
G01*
G37*
%TD.AperFunction*%
%TD*%
%TO.P,D8,1,K*%
%TO.N,Net-(D8-K)*%
%TA.AperFunction,SMDPad,CuDef*%
G36*
G01*
X112064700Y-114388300D02*
X112384700Y-114388300D01*
G75*
G02*
X112544700Y-114548300I0J-160000D01*
G01*
X112544700Y-114993300D01*
G75*
G02*
X112384700Y-115153300I-160000J0D01*
G01*
X112064700Y-115153300D01*
G75*
G02*
X111904700Y-114993300I0J160000D01*
G01*
X111904700Y-114548300D01*
G75*
G02*
X112064700Y-114388300I160000J0D01*
G01*
G37*
%TD.AperFunction*%
%TO.P,D8,2,A*%
%TO.N,+3V3*%
%TA.AperFunction,SMDPad,CuDef*%
G36*
G01*
X112064700Y-115533300D02*
X112384700Y-115533300D01*
G75*
G02*
X112544700Y-115693300I0J-160000D01*
G01*
X112544700Y-116138300D01*
G75*
G02*
X112384700Y-116298300I-160000J0D01*
G01*
X112064700Y-116298300D01*
G75*
G02*
X111904700Y-116138300I0J160000D01*
G01*
X111904700Y-115693300D01*
G75*
G02*
X112064700Y-115533300I160000J0D01*
G01*
G37*
%TD.AperFunction*%
%TD*%
%TO.P,D7,1,K*%
%TO.N,Net-(D7-K)*%
%TA.AperFunction,SMDPad,CuDef*%
G36*
G01*
X112027200Y-110043300D02*
X112347200Y-110043300D01*
G75*
G02*
X112507200Y-110203300I0J-160000D01*
G01*
X112507200Y-110648300D01*
G75*
G02*
X112347200Y-110808300I-160000J0D01*
G01*
X112027200Y-110808300D01*
G75*
G02*
X111867200Y-110648300I0J160000D01*
G01*
X111867200Y-110203300D01*
G75*
G02*
X112027200Y-110043300I160000J0D01*
G01*
G37*
%TD.AperFunction*%
%TO.P,D7,2,A*%
%TO.N,+3V3*%
%TA.AperFunction,SMDPad,CuDef*%
G36*
G01*
X112027200Y-111188300D02*
X112347200Y-111188300D01*
G75*
G02*
X112507200Y-111348300I0J-160000D01*
G01*
X112507200Y-111793300D01*
G75*
G02*
X112347200Y-111953300I-160000J0D01*
G01*
X112027200Y-111953300D01*
G75*
G02*
X111867200Y-111793300I0J160000D01*
G01*
X111867200Y-111348300D01*
G75*
G02*
X112027200Y-111188300I160000J0D01*
G01*
G37*
%TD.AperFunction*%
%TD*%
%TO.P,D6,1,K*%
%TO.N,Net-(D6-K)*%
%TA.AperFunction,SMDPad,CuDef*%
G36*
G01*
X112027200Y-105805600D02*
X112347200Y-105805600D01*
G75*
G02*
X112507200Y-105965600I0J-160000D01*
G01*
X112507200Y-106410600D01*
G75*
G02*
X112347200Y-106570600I-160000J0D01*
G01*
X112027200Y-106570600D01*
G75*
G02*
X111867200Y-106410600I0J160000D01*
G01*
X111867200Y-105965600D01*
G75*
G02*
X112027200Y-105805600I160000J0D01*
G01*
G37*
%TD.AperFunction*%
%TO.P,D6,2,A*%
%TO.N,+3V3*%
%TA.AperFunction,SMDPad,CuDef*%
G36*
G01*
X112027200Y-106950600D02*
X112347200Y-106950600D01*
G75*
G02*
X112507200Y-107110600I0J-160000D01*
G01*
X112507200Y-107555600D01*
G75*
G02*
X112347200Y-107715600I-160000J0D01*
G01*
X112027200Y-107715600D01*
G75*
G02*
X111867200Y-107555600I0J160000D01*
G01*
X111867200Y-107110600D01*
G75*
G02*
X112027200Y-106950600I160000J0D01*
G01*
G37*
%TD.AperFunction*%
%TD*%
%TO.P,D5,1,K*%
%TO.N,Net-(D5-K)*%
%TA.AperFunction,SMDPad,CuDef*%
G36*
G01*
X112019700Y-101650800D02*
X112339700Y-101650800D01*
G75*
G02*
X112499700Y-101810800I0J-160000D01*
G01*
X112499700Y-102255800D01*
G75*
G02*
X112339700Y-102415800I-160000J0D01*
G01*
X112019700Y-102415800D01*
G75*
G02*
X111859700Y-102255800I0J160000D01*
G01*
X111859700Y-101810800D01*
G75*
G02*
X112019700Y-101650800I160000J0D01*
G01*
G37*
%TD.AperFunction*%
%TO.P,D5,2,A*%
%TO.N,+3V3*%
%TA.AperFunction,SMDPad,CuDef*%
G36*
G01*
X112019700Y-102795800D02*
X112339700Y-102795800D01*
G75*
G02*
X112499700Y-102955800I0J-160000D01*
G01*
X112499700Y-103400800D01*
G75*
G02*
X112339700Y-103560800I-160000J0D01*
G01*
X112019700Y-103560800D01*
G75*
G02*
X111859700Y-103400800I0J160000D01*
G01*
X111859700Y-102955800D01*
G75*
G02*
X112019700Y-102795800I160000J0D01*
G01*
G37*
%TD.AperFunction*%
%TD*%
%TO.P,D4,1,K*%
%TO.N,Net-(D4-K)*%
%TA.AperFunction,SMDPad,CuDef*%
G36*
G01*
X111972550Y-97323650D02*
X112292550Y-97323650D01*
G75*
G02*
X112452550Y-97483650I0J-160000D01*
G01*
X112452550Y-97928650D01*
G75*
G02*
X112292550Y-98088650I-160000J0D01*
G01*
X111972550Y-98088650D01*
G75*
G02*
X111812550Y-97928650I0J160000D01*
G01*
X111812550Y-97483650D01*
G75*
G02*
X111972550Y-97323650I160000J0D01*
G01*
G37*
%TD.AperFunction*%
%TO.P,D4,2,A*%
%TO.N,+3V3*%
%TA.AperFunction,SMDPad,CuDef*%
G36*
G01*
X111972550Y-98468650D02*
X112292550Y-98468650D01*
G75*
G02*
X112452550Y-98628650I0J-160000D01*
G01*
X112452550Y-99073650D01*
G75*
G02*
X112292550Y-99233650I-160000J0D01*
G01*
X111972550Y-99233650D01*
G75*
G02*
X111812550Y-99073650I0J160000D01*
G01*
X111812550Y-98628650D01*
G75*
G02*
X111972550Y-98468650I160000J0D01*
G01*
G37*
%TD.AperFunction*%
%TD*%
%TO.P,D3,1,K*%
%TO.N,Net-(D3-K)*%
%TA.AperFunction,SMDPad,CuDef*%
G36*
G01*
X112019700Y-93177400D02*
X112339700Y-93177400D01*
G75*
G02*
X112499700Y-93337400I0J-160000D01*
G01*
X112499700Y-93782400D01*
G75*
G02*
X112339700Y-93942400I-160000J0D01*
G01*
X112019700Y-93942400D01*
G75*
G02*
X111859700Y-93782400I0J160000D01*
G01*
X111859700Y-93337400D01*
G75*
G02*
X112019700Y-93177400I160000J0D01*
G01*
G37*
%TD.AperFunction*%
%TO.P,D3,2,A*%
%TO.N,+3V3*%
%TA.AperFunction,SMDPad,CuDef*%
G36*
G01*
X112019700Y-94322400D02*
X112339700Y-94322400D01*
G75*
G02*
X112499700Y-94482400I0J-160000D01*
G01*
X112499700Y-94927400D01*
G75*
G02*
X112339700Y-95087400I-160000J0D01*
G01*
X112019700Y-95087400D01*
G75*
G02*
X111859700Y-94927400I0J160000D01*
G01*
X111859700Y-94482400D01*
G75*
G02*
X112019700Y-94322400I160000J0D01*
G01*
G37*
%TD.AperFunction*%
%TD*%
%TO.P,D2,1,K*%
%TO.N,Net-(D2-K)*%
%TA.AperFunction,SMDPad,CuDef*%
G36*
G01*
X111972550Y-89077200D02*
X112292550Y-89077200D01*
G75*
G02*
X112452550Y-89237200I0J-160000D01*
G01*
X112452550Y-89682200D01*
G75*
G02*
X112292550Y-89842200I-160000J0D01*
G01*
X111972550Y-89842200D01*
G75*
G02*
X111812550Y-89682200I0J160000D01*
G01*
X111812550Y-89237200D01*
G75*
G02*
X111972550Y-89077200I160000J0D01*
G01*
G37*
%TD.AperFunction*%
%TO.P,D2,2,A*%
%TO.N,+3V3*%
%TA.AperFunction,SMDPad,CuDef*%
G36*
G01*
X111972550Y-90222200D02*
X112292550Y-90222200D01*
G75*
G02*
X112452550Y-90382200I0J-160000D01*
G01*
X112452550Y-90827200D01*
G75*
G02*
X112292550Y-90987200I-160000J0D01*
G01*
X111972550Y-90987200D01*
G75*
G02*
X111812550Y-90827200I0J160000D01*
G01*
X111812550Y-90382200D01*
G75*
G02*
X111972550Y-90222200I160000J0D01*
G01*
G37*
%TD.AperFunction*%
%TD*%
%TO.P,D1,1,K*%
%TO.N,Net-(D1-K)*%
%TA.AperFunction,SMDPad,CuDef*%
G36*
G01*
X111972550Y-84959900D02*
X112292550Y-84959900D01*
G75*
G02*
X112452550Y-85119900I0J-160000D01*
G01*
X112452550Y-85564900D01*
G75*
G02*
X112292550Y-85724900I-160000J0D01*
G01*
X111972550Y-85724900D01*
G75*
G02*
X111812550Y-85564900I0J160000D01*
G01*
X111812550Y-85119900D01*
G75*
G02*
X111972550Y-84959900I160000J0D01*
G01*
G37*
%TD.AperFunction*%
%TO.P,D1,2,A*%
%TO.N,+3V3*%
%TA.AperFunction,SMDPad,CuDef*%
G36*
G01*
X111972550Y-86104900D02*
X112292550Y-86104900D01*
G75*
G02*
X112452550Y-86264900I0J-160000D01*
G01*
X112452550Y-86709900D01*
G75*
G02*
X112292550Y-86869900I-160000J0D01*
G01*
X111972550Y-86869900D01*
G75*
G02*
X111812550Y-86709900I0J160000D01*
G01*
X111812550Y-86264900D01*
G75*
G02*
X111972550Y-86104900I160000J0D01*
G01*
G37*
%TD.AperFunction*%
%TD*%
D15*
%TO.P,SW1,1*%
%TO.N,/CONFIG7*%
X68580000Y-118770400D03*
%TO.P,SW1,2*%
%TO.N,/CONFIG6*%
X71120000Y-118770400D03*
%TO.P,SW1,3*%
%TO.N,/CONFIG5*%
X73660000Y-118770400D03*
%TO.P,SW1,4*%
%TO.N,/CONFIG4*%
X76200000Y-118770400D03*
%TO.P,SW1,5*%
%TO.N,/CONFIG3*%
X78740000Y-118770400D03*
%TO.P,SW1,6*%
%TO.N,/CONFIG2*%
X81280000Y-118770400D03*
%TO.P,SW1,7*%
%TO.N,/CONFIG1*%
X83820000Y-118770400D03*
%TO.P,SW1,8*%
%TO.N,/CONFIG0*%
X86360000Y-118770400D03*
%TO.P,SW1,9*%
%TO.N,GND*%
X86360000Y-109829600D03*
%TO.P,SW1,10*%
X83820000Y-109829600D03*
%TO.P,SW1,11*%
X81280000Y-109829600D03*
%TO.P,SW1,12*%
X78740000Y-109829600D03*
%TO.P,SW1,13*%
X76200000Y-109829600D03*
%TO.P,SW1,14*%
X73660000Y-109829600D03*
%TO.P,SW1,15*%
X71120000Y-109829600D03*
%TO.P,SW1,16*%
X68580000Y-109829600D03*
%TD*%
%TO.P,R8,1*%
%TO.N,+3V3*%
%TA.AperFunction,SMDPad,CuDef*%
G36*
G01*
X66990000Y-121127500D02*
X66990000Y-120807500D01*
G75*
G02*
X67150000Y-120647500I160000J0D01*
G01*
X67545000Y-120647500D01*
G75*
G02*
X67705000Y-120807500I0J-160000D01*
G01*
X67705000Y-121127500D01*
G75*
G02*
X67545000Y-121287500I-160000J0D01*
G01*
X67150000Y-121287500D01*
G75*
G02*
X66990000Y-121127500I0J160000D01*
G01*
G37*
%TD.AperFunction*%
%TO.P,R8,2*%
%TO.N,/CONFIG7*%
%TA.AperFunction,SMDPad,CuDef*%
G36*
G01*
X68185000Y-121127500D02*
X68185000Y-120807500D01*
G75*
G02*
X68345000Y-120647500I160000J0D01*
G01*
X68740000Y-120647500D01*
G75*
G02*
X68900000Y-120807500I0J-160000D01*
G01*
X68900000Y-121127500D01*
G75*
G02*
X68740000Y-121287500I-160000J0D01*
G01*
X68345000Y-121287500D01*
G75*
G02*
X68185000Y-121127500I0J160000D01*
G01*
G37*
%TD.AperFunction*%
%TD*%
%TO.P,R7,1*%
%TO.N,+3V3*%
%TA.AperFunction,SMDPad,CuDef*%
G36*
G01*
X69530000Y-121127500D02*
X69530000Y-120807500D01*
G75*
G02*
X69690000Y-120647500I160000J0D01*
G01*
X70085000Y-120647500D01*
G75*
G02*
X70245000Y-120807500I0J-160000D01*
G01*
X70245000Y-121127500D01*
G75*
G02*
X70085000Y-121287500I-160000J0D01*
G01*
X69690000Y-121287500D01*
G75*
G02*
X69530000Y-121127500I0J160000D01*
G01*
G37*
%TD.AperFunction*%
%TO.P,R7,2*%
%TO.N,/CONFIG6*%
%TA.AperFunction,SMDPad,CuDef*%
G36*
G01*
X70725000Y-121127500D02*
X70725000Y-120807500D01*
G75*
G02*
X70885000Y-120647500I160000J0D01*
G01*
X71280000Y-120647500D01*
G75*
G02*
X71440000Y-120807500I0J-160000D01*
G01*
X71440000Y-121127500D01*
G75*
G02*
X71280000Y-121287500I-160000J0D01*
G01*
X70885000Y-121287500D01*
G75*
G02*
X70725000Y-121127500I0J160000D01*
G01*
G37*
%TD.AperFunction*%
%TD*%
%TO.P,R6,1*%
%TO.N,+3V3*%
%TA.AperFunction,SMDPad,CuDef*%
G36*
G01*
X72070000Y-121127500D02*
X72070000Y-120807500D01*
G75*
G02*
X72230000Y-120647500I160000J0D01*
G01*
X72625000Y-120647500D01*
G75*
G02*
X72785000Y-120807500I0J-160000D01*
G01*
X72785000Y-121127500D01*
G75*
G02*
X72625000Y-121287500I-160000J0D01*
G01*
X72230000Y-121287500D01*
G75*
G02*
X72070000Y-121127500I0J160000D01*
G01*
G37*
%TD.AperFunction*%
%TO.P,R6,2*%
%TO.N,/CONFIG5*%
%TA.AperFunction,SMDPad,CuDef*%
G36*
G01*
X73265000Y-121127500D02*
X73265000Y-120807500D01*
G75*
G02*
X73425000Y-120647500I160000J0D01*
G01*
X73820000Y-120647500D01*
G75*
G02*
X73980000Y-120807500I0J-160000D01*
G01*
X73980000Y-121127500D01*
G75*
G02*
X73820000Y-121287500I-160000J0D01*
G01*
X73425000Y-121287500D01*
G75*
G02*
X73265000Y-121127500I0J160000D01*
G01*
G37*
%TD.AperFunction*%
%TD*%
%TO.P,R5,1*%
%TO.N,+3V3*%
%TA.AperFunction,SMDPad,CuDef*%
G36*
G01*
X74610000Y-121127500D02*
X74610000Y-120807500D01*
G75*
G02*
X74770000Y-120647500I160000J0D01*
G01*
X75165000Y-120647500D01*
G75*
G02*
X75325000Y-120807500I0J-160000D01*
G01*
X75325000Y-121127500D01*
G75*
G02*
X75165000Y-121287500I-160000J0D01*
G01*
X74770000Y-121287500D01*
G75*
G02*
X74610000Y-121127500I0J160000D01*
G01*
G37*
%TD.AperFunction*%
%TO.P,R5,2*%
%TO.N,/CONFIG4*%
%TA.AperFunction,SMDPad,CuDef*%
G36*
G01*
X75805000Y-121127500D02*
X75805000Y-120807500D01*
G75*
G02*
X75965000Y-120647500I160000J0D01*
G01*
X76360000Y-120647500D01*
G75*
G02*
X76520000Y-120807500I0J-160000D01*
G01*
X76520000Y-121127500D01*
G75*
G02*
X76360000Y-121287500I-160000J0D01*
G01*
X75965000Y-121287500D01*
G75*
G02*
X75805000Y-121127500I0J160000D01*
G01*
G37*
%TD.AperFunction*%
%TD*%
%TO.P,R4,1*%
%TO.N,+3V3*%
%TA.AperFunction,SMDPad,CuDef*%
G36*
G01*
X77150000Y-121127500D02*
X77150000Y-120807500D01*
G75*
G02*
X77310000Y-120647500I160000J0D01*
G01*
X77705000Y-120647500D01*
G75*
G02*
X77865000Y-120807500I0J-160000D01*
G01*
X77865000Y-121127500D01*
G75*
G02*
X77705000Y-121287500I-160000J0D01*
G01*
X77310000Y-121287500D01*
G75*
G02*
X77150000Y-121127500I0J160000D01*
G01*
G37*
%TD.AperFunction*%
%TO.P,R4,2*%
%TO.N,/CONFIG3*%
%TA.AperFunction,SMDPad,CuDef*%
G36*
G01*
X78345000Y-121127500D02*
X78345000Y-120807500D01*
G75*
G02*
X78505000Y-120647500I160000J0D01*
G01*
X78900000Y-120647500D01*
G75*
G02*
X79060000Y-120807500I0J-160000D01*
G01*
X79060000Y-121127500D01*
G75*
G02*
X78900000Y-121287500I-160000J0D01*
G01*
X78505000Y-121287500D01*
G75*
G02*
X78345000Y-121127500I0J160000D01*
G01*
G37*
%TD.AperFunction*%
%TD*%
%TO.P,R3,1*%
%TO.N,+3V3*%
%TA.AperFunction,SMDPad,CuDef*%
G36*
G01*
X79690000Y-121127500D02*
X79690000Y-120807500D01*
G75*
G02*
X79850000Y-120647500I160000J0D01*
G01*
X80245000Y-120647500D01*
G75*
G02*
X80405000Y-120807500I0J-160000D01*
G01*
X80405000Y-121127500D01*
G75*
G02*
X80245000Y-121287500I-160000J0D01*
G01*
X79850000Y-121287500D01*
G75*
G02*
X79690000Y-121127500I0J160000D01*
G01*
G37*
%TD.AperFunction*%
%TO.P,R3,2*%
%TO.N,/CONFIG2*%
%TA.AperFunction,SMDPad,CuDef*%
G36*
G01*
X80885000Y-121127500D02*
X80885000Y-120807500D01*
G75*
G02*
X81045000Y-120647500I160000J0D01*
G01*
X81440000Y-120647500D01*
G75*
G02*
X81600000Y-120807500I0J-160000D01*
G01*
X81600000Y-121127500D01*
G75*
G02*
X81440000Y-121287500I-160000J0D01*
G01*
X81045000Y-121287500D01*
G75*
G02*
X80885000Y-121127500I0J160000D01*
G01*
G37*
%TD.AperFunction*%
%TD*%
%TO.P,R2,1*%
%TO.N,+3V3*%
%TA.AperFunction,SMDPad,CuDef*%
G36*
G01*
X82230000Y-121127500D02*
X82230000Y-120807500D01*
G75*
G02*
X82390000Y-120647500I160000J0D01*
G01*
X82785000Y-120647500D01*
G75*
G02*
X82945000Y-120807500I0J-160000D01*
G01*
X82945000Y-121127500D01*
G75*
G02*
X82785000Y-121287500I-160000J0D01*
G01*
X82390000Y-121287500D01*
G75*
G02*
X82230000Y-121127500I0J160000D01*
G01*
G37*
%TD.AperFunction*%
%TO.P,R2,2*%
%TO.N,/CONFIG1*%
%TA.AperFunction,SMDPad,CuDef*%
G36*
G01*
X83425000Y-121127500D02*
X83425000Y-120807500D01*
G75*
G02*
X83585000Y-120647500I160000J0D01*
G01*
X83980000Y-120647500D01*
G75*
G02*
X84140000Y-120807500I0J-160000D01*
G01*
X84140000Y-121127500D01*
G75*
G02*
X83980000Y-121287500I-160000J0D01*
G01*
X83585000Y-121287500D01*
G75*
G02*
X83425000Y-121127500I0J160000D01*
G01*
G37*
%TD.AperFunction*%
%TD*%
%TO.P,R1,1*%
%TO.N,+3V3*%
%TA.AperFunction,SMDPad,CuDef*%
G36*
G01*
X84770000Y-121127500D02*
X84770000Y-120807500D01*
G75*
G02*
X84930000Y-120647500I160000J0D01*
G01*
X85325000Y-120647500D01*
G75*
G02*
X85485000Y-120807500I0J-160000D01*
G01*
X85485000Y-121127500D01*
G75*
G02*
X85325000Y-121287500I-160000J0D01*
G01*
X84930000Y-121287500D01*
G75*
G02*
X84770000Y-121127500I0J160000D01*
G01*
G37*
%TD.AperFunction*%
%TO.P,R1,2*%
%TO.N,/CONFIG0*%
%TA.AperFunction,SMDPad,CuDef*%
G36*
G01*
X85965000Y-121127500D02*
X85965000Y-120807500D01*
G75*
G02*
X86125000Y-120647500I160000J0D01*
G01*
X86520000Y-120647500D01*
G75*
G02*
X86680000Y-120807500I0J-160000D01*
G01*
X86680000Y-121127500D01*
G75*
G02*
X86520000Y-121287500I-160000J0D01*
G01*
X86125000Y-121287500D01*
G75*
G02*
X85965000Y-121127500I0J160000D01*
G01*
G37*
%TD.AperFunction*%
%TD*%
D16*
%TO.P,U1,1*%
%TO.N,/Trigger Interface/S4-*%
X81280000Y-95250000D03*
%TO.P,U1,2,RIN1+*%
%TO.N,/Trigger Interface/S4+*%
X81280000Y-96520000D03*
%TO.P,U1,3,RIN2+*%
%TO.N,/Trigger Interface/S3+*%
X81280000Y-97790000D03*
%TO.P,U1,4*%
%TO.N,/Trigger Interface/S3-*%
X81280000Y-99060000D03*
%TO.P,U1,5*%
%TO.N,/Trigger Interface/S2-*%
X81280000Y-100330000D03*
%TO.P,U1,6,RIN3+*%
%TO.N,/Trigger Interface/S2+*%
X81280000Y-101600000D03*
%TO.P,U1,7,RIN4+*%
%TO.N,/Trigger Interface/S1+*%
X81280000Y-102870000D03*
%TO.P,U1,8*%
%TO.N,/Trigger Interface/S1-*%
X81280000Y-104140000D03*
%TO.P,U1,9,\u002AEN*%
%TO.N,GND*%
X86004400Y-104140000D03*
%TO.P,U1,10,ROUT4*%
%TO.N,/NIM0*%
X86004400Y-102870000D03*
%TO.P,U1,11,ROUT3*%
%TO.N,/NIM1*%
X86004400Y-101600000D03*
%TO.P,U1,12,GND*%
%TO.N,GND*%
X86004400Y-100330000D03*
%TO.P,U1,13,VCC*%
%TO.N,+3V3*%
X86004400Y-99060000D03*
%TO.P,U1,14,ROUT2*%
%TO.N,/NIM2*%
X86004400Y-97790000D03*
%TO.P,U1,15,ROUT1*%
%TO.N,/NIM3*%
X86004400Y-96520000D03*
%TO.P,U1,16,EN*%
%TO.N,+3V3*%
X86004400Y-95250000D03*
%TD*%
%TO.P,C5,1*%
%TO.N,+3V3*%
%TA.AperFunction,SMDPad,CuDef*%
G36*
G01*
X79847500Y-73007500D02*
X79537500Y-73007500D01*
G75*
G02*
X79382500Y-72852500I0J155000D01*
G01*
X79382500Y-72427500D01*
G75*
G02*
X79537500Y-72272500I155000J0D01*
G01*
X79847500Y-72272500D01*
G75*
G02*
X80002500Y-72427500I0J-155000D01*
G01*
X80002500Y-72852500D01*
G75*
G02*
X79847500Y-73007500I-155000J0D01*
G01*
G37*
%TD.AperFunction*%
%TO.P,C5,2*%
%TO.N,GND*%
%TA.AperFunction,SMDPad,CuDef*%
G36*
G01*
X79847500Y-71872500D02*
X79537500Y-71872500D01*
G75*
G02*
X79382500Y-71717500I0J155000D01*
G01*
X79382500Y-71292500D01*
G75*
G02*
X79537500Y-71137500I155000J0D01*
G01*
X79847500Y-71137500D01*
G75*
G02*
X80002500Y-71292500I0J-155000D01*
G01*
X80002500Y-71717500D01*
G75*
G02*
X79847500Y-71872500I-155000J0D01*
G01*
G37*
%TD.AperFunction*%
%TD*%
%TO.P,C4,1*%
%TO.N,+3V3*%
%TA.AperFunction,SMDPad,CuDef*%
G36*
G01*
X72862500Y-73007500D02*
X72552500Y-73007500D01*
G75*
G02*
X72397500Y-72852500I0J155000D01*
G01*
X72397500Y-72427500D01*
G75*
G02*
X72552500Y-72272500I155000J0D01*
G01*
X72862500Y-72272500D01*
G75*
G02*
X73017500Y-72427500I0J-155000D01*
G01*
X73017500Y-72852500D01*
G75*
G02*
X72862500Y-73007500I-155000J0D01*
G01*
G37*
%TD.AperFunction*%
%TO.P,C4,2*%
%TO.N,GND*%
%TA.AperFunction,SMDPad,CuDef*%
G36*
G01*
X72862500Y-71872500D02*
X72552500Y-71872500D01*
G75*
G02*
X72397500Y-71717500I0J155000D01*
G01*
X72397500Y-71292500D01*
G75*
G02*
X72552500Y-71137500I155000J0D01*
G01*
X72862500Y-71137500D01*
G75*
G02*
X73017500Y-71292500I0J-155000D01*
G01*
X73017500Y-71717500D01*
G75*
G02*
X72862500Y-71872500I-155000J0D01*
G01*
G37*
%TD.AperFunction*%
%TD*%
%TO.P,C3,1*%
%TO.N,+3V3*%
%TA.AperFunction,SMDPad,CuDef*%
G36*
G01*
X80662500Y-82387500D02*
X80662500Y-82077500D01*
G75*
G02*
X80817500Y-81922500I155000J0D01*
G01*
X81242500Y-81922500D01*
G75*
G02*
X81397500Y-82077500I0J-155000D01*
G01*
X81397500Y-82387500D01*
G75*
G02*
X81242500Y-82542500I-155000J0D01*
G01*
X80817500Y-82542500D01*
G75*
G02*
X80662500Y-82387500I0J155000D01*
G01*
G37*
%TD.AperFunction*%
%TO.P,C3,2*%
%TO.N,GND*%
%TA.AperFunction,SMDPad,CuDef*%
G36*
G01*
X81797500Y-82387500D02*
X81797500Y-82077500D01*
G75*
G02*
X81952500Y-81922500I155000J0D01*
G01*
X82377500Y-81922500D01*
G75*
G02*
X82532500Y-82077500I0J-155000D01*
G01*
X82532500Y-82387500D01*
G75*
G02*
X82377500Y-82542500I-155000J0D01*
G01*
X81952500Y-82542500D01*
G75*
G02*
X81797500Y-82387500I0J155000D01*
G01*
G37*
%TD.AperFunction*%
%TD*%
%TO.P,C2,1*%
%TO.N,+3V3*%
%TA.AperFunction,SMDPad,CuDef*%
G36*
G01*
X80662500Y-90642500D02*
X80662500Y-90332500D01*
G75*
G02*
X80817500Y-90177500I155000J0D01*
G01*
X81242500Y-90177500D01*
G75*
G02*
X81397500Y-90332500I0J-155000D01*
G01*
X81397500Y-90642500D01*
G75*
G02*
X81242500Y-90797500I-155000J0D01*
G01*
X80817500Y-90797500D01*
G75*
G02*
X80662500Y-90642500I0J155000D01*
G01*
G37*
%TD.AperFunction*%
%TO.P,C2,2*%
%TO.N,GND*%
%TA.AperFunction,SMDPad,CuDef*%
G36*
G01*
X81797500Y-90642500D02*
X81797500Y-90332500D01*
G75*
G02*
X81952500Y-90177500I155000J0D01*
G01*
X82377500Y-90177500D01*
G75*
G02*
X82532500Y-90332500I0J-155000D01*
G01*
X82532500Y-90642500D01*
G75*
G02*
X82377500Y-90797500I-155000J0D01*
G01*
X81952500Y-90797500D01*
G75*
G02*
X81797500Y-90642500I0J155000D01*
G01*
G37*
%TD.AperFunction*%
%TD*%
D17*
%TO.P,J2,1_1,1_1*%
%TO.N,/Trigger Interface/D1+*%
X69340000Y-87117000D03*
%TO.P,J2,1_2,1_2*%
%TO.N,/Trigger Interface/D1-*%
X71120000Y-86101000D03*
%TO.P,J2,1_3,1_3*%
%TO.N,/Trigger Interface/D2+*%
X69340000Y-85085000D03*
%TO.P,J2,1_4,1_4*%
%TO.N,/Trigger Interface/D3-*%
X71120000Y-84069000D03*
%TO.P,J2,1_5,1_5*%
%TO.N,/Trigger Interface/D3+*%
X69340000Y-83053000D03*
%TO.P,J2,1_6,1_6*%
%TO.N,/Trigger Interface/D2-*%
X71120000Y-82037000D03*
%TO.P,J2,1_7,1_7*%
%TO.N,/Trigger Interface/D4+*%
X69340000Y-81021000D03*
%TO.P,J2,1_8,1_8*%
%TO.N,/Trigger Interface/D4-*%
X71120000Y-80005000D03*
%TO.P,J2,2_1,2_1*%
%TO.N,/Trigger Interface/S1-*%
X69340000Y-102867000D03*
%TO.P,J2,2_2,2_2*%
%TO.N,/Trigger Interface/S1+*%
X71120000Y-101851000D03*
%TO.P,J2,2_3,2_3*%
%TO.N,/Trigger Interface/S2-*%
X69340000Y-100835000D03*
%TO.P,J2,2_4,2_4*%
%TO.N,/Trigger Interface/S3+*%
X71120000Y-99819000D03*
%TO.P,J2,2_5,2_5*%
%TO.N,/Trigger Interface/S3-*%
X69340000Y-98803000D03*
%TO.P,J2,2_6,2_6*%
%TO.N,/Trigger Interface/S2+*%
X71120000Y-97787000D03*
%TO.P,J2,2_7,2_7*%
%TO.N,/Trigger Interface/S4-*%
X69340000Y-96771000D03*
%TO.P,J2,2_8,2_8*%
%TO.N,/Trigger Interface/S4+*%
X71120000Y-95755000D03*
%TD*%
%TO.P,C1,1*%
%TO.N,+3V3*%
%TA.AperFunction,SMDPad,CuDef*%
G36*
G01*
X88745000Y-98760000D02*
X89055000Y-98760000D01*
G75*
G02*
X89210000Y-98915000I0J-155000D01*
G01*
X89210000Y-99340000D01*
G75*
G02*
X89055000Y-99495000I-155000J0D01*
G01*
X88745000Y-99495000D01*
G75*
G02*
X88590000Y-99340000I0J155000D01*
G01*
X88590000Y-98915000D01*
G75*
G02*
X88745000Y-98760000I155000J0D01*
G01*
G37*
%TD.AperFunction*%
%TO.P,C1,2*%
%TO.N,GND*%
%TA.AperFunction,SMDPad,CuDef*%
G36*
G01*
X88745000Y-99895000D02*
X89055000Y-99895000D01*
G75*
G02*
X89210000Y-100050000I0J-155000D01*
G01*
X89210000Y-100475000D01*
G75*
G02*
X89055000Y-100630000I-155000J0D01*
G01*
X88745000Y-100630000D01*
G75*
G02*
X88590000Y-100475000I0J155000D01*
G01*
X88590000Y-100050000D01*
G75*
G02*
X88745000Y-99895000I155000J0D01*
G01*
G37*
%TD.AperFunction*%
%TD*%
D18*
%TO.N,/TS_BUS_SEL*%
X85242400Y-87020400D03*
%TO.N,/CONFIG2*%
X90373200Y-116128800D03*
%TO.N,/CONFIG3*%
X79756000Y-117230500D03*
%TO.N,GND*%
X74726800Y-68630800D03*
X70459600Y-69291200D03*
X82550000Y-85090000D03*
X82550000Y-76835000D03*
%TO.N,/CONFIG15*%
X107797600Y-114706400D03*
%TO.N,/CONFIG14*%
X107645200Y-110337600D03*
%TO.N,/CONFIG13*%
X107797600Y-106121200D03*
%TO.N,/CONFIG12*%
X107848400Y-101600000D03*
%TO.N,/CONFIG11*%
X107746800Y-97282000D03*
%TO.N,/CONFIG4*%
X76149200Y-117043200D03*
%TO.N,/CONFIG5*%
X74015600Y-116687600D03*
%TO.N,/CONFIG10*%
X107645200Y-93573600D03*
%TO.N,/CONFIG9*%
X107797600Y-89408000D03*
%TO.N,/CONFIG8*%
X107696000Y-85242400D03*
%TO.N,/TS_BUS_SEL*%
X76149200Y-68173600D03*
X69240400Y-68021200D03*
%TO.N,/CONFIG1*%
X89306400Y-118567200D03*
%TO.N,/CONFIG0*%
X88392000Y-120243600D03*
%TO.N,GND*%
X64820800Y-120599200D03*
X113131600Y-120700800D03*
X112979200Y-64719200D03*
X64617600Y-64617600D03*
X79552800Y-74117200D03*
X85293200Y-106984800D03*
X66548000Y-109118400D03*
X65328800Y-74726800D03*
%TO.N,/TS_BUS_SEL*%
X82499200Y-69951600D03*
%TO.N,/CONFIG6*%
X71628000Y-116687600D03*
%TO.N,/CONFIG7*%
X68935600Y-116687600D03*
%TO.N,/Trigger Interface/S2-*%
X75576430Y-101447600D03*
%TO.N,/Trigger Interface/S2+*%
X76518770Y-101447600D03*
%TO.N,+3V3*%
X85052500Y-120015000D03*
X82512500Y-120015000D03*
X79972500Y-120015000D03*
X77432500Y-120015000D03*
X74892500Y-120015000D03*
X72352500Y-120015000D03*
X69812500Y-120015000D03*
X67310000Y-120015000D03*
X111180050Y-90984700D03*
%TO.N,GND*%
X109910050Y-90984700D03*
%TO.N,+3V3*%
X111227200Y-95084900D03*
%TO.N,GND*%
X109957200Y-95084900D03*
%TO.N,+3V3*%
X111180050Y-99231150D03*
%TO.N,GND*%
X109910050Y-99231150D03*
%TO.N,+3V3*%
X111227200Y-103558300D03*
%TO.N,GND*%
X109957200Y-103558300D03*
%TO.N,+3V3*%
X111234700Y-107713100D03*
%TO.N,GND*%
X109964700Y-107713100D03*
%TO.N,+3V3*%
X111234700Y-111950800D03*
%TO.N,GND*%
X109964700Y-111950800D03*
%TO.N,+3V3*%
X111272200Y-116295800D03*
%TO.N,GND*%
X110002200Y-116295800D03*
X109910050Y-86867400D03*
%TO.N,+3V3*%
X111180050Y-86867400D03*
%TO.N,GND*%
X74295000Y-71120000D03*
X67310000Y-71120000D03*
%TO.N,+3V3*%
X71755000Y-72574998D03*
%TO.N,GND*%
X72707500Y-70485000D03*
X79692500Y-70485000D03*
%TO.N,+3V3*%
X78740000Y-72574998D03*
X81095002Y-81280000D03*
%TO.N,GND*%
X83502500Y-82232500D03*
X83502500Y-90487500D03*
%TO.N,+3V3*%
X81095002Y-89535000D03*
X88087200Y-94335600D03*
X87312500Y-99060000D03*
%TO.N,GND*%
X87312500Y-100330000D03*
X87680800Y-104140000D03*
X68580000Y-111760000D03*
X71120000Y-111760000D03*
X73660000Y-111760000D03*
X76200000Y-111760000D03*
X78740000Y-111760000D03*
X81280000Y-111760000D03*
X83820000Y-111760000D03*
X86360000Y-111760000D03*
%TD*%
D19*
%TO.N,/TS_BUS2*%
X86545001Y-76835000D02*
X87123501Y-77413500D01*
X87680800Y-79509202D02*
X87661501Y-79528501D01*
X87123501Y-77413500D02*
X87256430Y-77413500D01*
X87661501Y-79661429D02*
X87256430Y-80066500D01*
X87256430Y-77413500D02*
X87516130Y-77673200D01*
X87661501Y-79528501D02*
X87661501Y-79661429D01*
X87516130Y-77673200D02*
X87680800Y-77673200D01*
X87680800Y-77673200D02*
X87680800Y-79509202D01*
X87256430Y-80066500D02*
X87123501Y-80066500D01*
X87123501Y-80066500D02*
X86545001Y-80645000D01*
X98762500Y-111790000D02*
X94975200Y-111790000D01*
X94975200Y-111790000D02*
X89001600Y-105816400D01*
X89001600Y-105816400D02*
X84632800Y-105816400D01*
X84632800Y-105816400D02*
X83566000Y-104749600D01*
X84683600Y-93218000D02*
X84683600Y-88747600D01*
X83566000Y-104749600D02*
X83566000Y-94335600D01*
X83566000Y-94335600D02*
X84683600Y-93218000D01*
X83921600Y-84632800D02*
X86545001Y-82009399D01*
X84683600Y-88747600D02*
X83921600Y-87985600D01*
X83921600Y-87985600D02*
X83921600Y-84632800D01*
X86545001Y-82009399D02*
X86545001Y-80645000D01*
D20*
%TO.N,+3V3*%
X86004400Y-95250000D02*
X87172800Y-95250000D01*
X87172800Y-95250000D02*
X88087200Y-94335600D01*
D19*
%TO.N,/TS_BUS0*%
X98762500Y-106710000D02*
X100061000Y-105411500D01*
X92863900Y-87631500D02*
X92303600Y-87071200D01*
X100061000Y-105411500D02*
X101816747Y-105411500D01*
X101759747Y-87631500D02*
X92863900Y-87631500D01*
X101816747Y-105411500D02*
X103126000Y-104102247D01*
X103126000Y-88997753D02*
X101759747Y-87631500D01*
X103126000Y-104102247D02*
X103126000Y-88997753D01*
%TO.N,/TS_BUS1*%
X101498400Y-65328800D02*
X104089200Y-67919600D01*
X83210400Y-65328800D02*
X101498400Y-65328800D01*
X104089200Y-67919600D02*
X104089200Y-105679047D01*
X104089200Y-105679047D02*
X101759747Y-108008500D01*
X101759747Y-108008500D02*
X100004000Y-108008500D01*
X100004000Y-108008500D02*
X98762500Y-109250000D01*
%TO.N,/TS_BUS3*%
X98762500Y-114330000D02*
X100061000Y-113031500D01*
X100061000Y-113031500D02*
X101816747Y-113031500D01*
X101816747Y-113031500D02*
X105562400Y-109285847D01*
X105562400Y-67767200D02*
X102006400Y-64211200D01*
X105562400Y-109285847D02*
X105562400Y-67767200D01*
X102006400Y-64211200D02*
X82905600Y-64211200D01*
X82905600Y-64211200D02*
X79991801Y-67124999D01*
X79991801Y-67124999D02*
X78105000Y-67124999D01*
%TO.N,/CONFIG2*%
X90119200Y-116382800D02*
X90373200Y-116128800D01*
X81280000Y-118770400D02*
X83667600Y-116382800D01*
X83667600Y-116382800D02*
X90119200Y-116382800D01*
%TO.N,/CONFIG3*%
X78740000Y-118770400D02*
X78740000Y-118246500D01*
X78740000Y-118246500D02*
X79756000Y-117230500D01*
%TO.N,/TS_BUS_SEL*%
X82499200Y-69951600D02*
X97564100Y-69951600D01*
X97564100Y-69951600D02*
X98762500Y-71150000D01*
%TO.N,/NIM3*%
X98762500Y-104170000D02*
X100004000Y-102928500D01*
X101809047Y-95300800D02*
X90576400Y-95300800D01*
X100004000Y-102928500D02*
X101759747Y-102928500D01*
X102544000Y-102144247D02*
X102544000Y-96035753D01*
X101759747Y-102928500D02*
X102544000Y-102144247D01*
X102544000Y-96035753D02*
X101809047Y-95300800D01*
%TO.N,/NIM2*%
X101302500Y-96550000D02*
X100062500Y-97790000D01*
X100062500Y-97790000D02*
X86004400Y-97790000D01*
%TO.N,/NIM1*%
X93712500Y-101600000D02*
X93742500Y-101630000D01*
X93742500Y-101630000D02*
X98762500Y-101630000D01*
%TO.N,/NIM0*%
X86004400Y-102870000D02*
X89842500Y-102870000D01*
X89842500Y-102870000D02*
X97521000Y-110548500D01*
X97521000Y-110548500D02*
X100061000Y-110548500D01*
X100061000Y-110548500D02*
X101302500Y-111790000D01*
%TO.N,+5V*%
X101302500Y-71150000D02*
X101302500Y-68610000D01*
%TO.N,/TS_BUS1*%
X71120000Y-67124999D02*
X73641801Y-69646800D01*
X73641801Y-69646800D02*
X78892400Y-69646800D01*
X78892400Y-69646800D02*
X83210400Y-65328800D01*
%TO.N,/CONFIG15*%
X109018700Y-114754401D02*
X107845601Y-114754401D01*
X107845601Y-114754401D02*
X107797600Y-114706400D01*
%TO.N,/CONFIG14*%
X107717001Y-110409401D02*
X107645200Y-110337600D01*
X108981200Y-110409401D02*
X107717001Y-110409401D01*
%TO.N,/CONFIG13*%
X107848101Y-106171701D02*
X107797600Y-106121200D01*
X108981200Y-106171701D02*
X107848101Y-106171701D01*
%TO.N,/CONFIG12*%
X108973700Y-102016901D02*
X108265301Y-102016901D01*
X108265301Y-102016901D02*
X107848400Y-101600000D01*
%TO.N,/CONFIG11*%
X108154551Y-97689751D02*
X107746800Y-97282000D01*
X108926550Y-97689751D02*
X108154551Y-97689751D01*
%TO.N,/CONFIG4*%
X76200000Y-117094000D02*
X76149200Y-117043200D01*
X76200000Y-118770400D02*
X76200000Y-117094000D01*
%TO.N,/CONFIG5*%
X74015600Y-116687600D02*
X74015600Y-116840000D01*
X74015600Y-116840000D02*
X73609200Y-117246400D01*
X73660000Y-117297200D02*
X73660000Y-118770400D01*
X73609200Y-117246400D02*
X73660000Y-117297200D01*
%TO.N,/CONFIG10*%
X108973700Y-93543501D02*
X107675299Y-93543501D01*
X107675299Y-93543501D02*
X107645200Y-93573600D01*
%TO.N,/CONFIG9*%
X107832901Y-89443301D02*
X107797600Y-89408000D01*
X108926550Y-89443301D02*
X107832901Y-89443301D01*
%TO.N,/CONFIG8*%
X108926550Y-85326001D02*
X107779601Y-85326001D01*
X107779601Y-85326001D02*
X107696000Y-85242400D01*
%TO.N,/TS_BUS0*%
X87661501Y-87071200D02*
X92303600Y-87071200D01*
X87661501Y-87071200D02*
X87661501Y-88289500D01*
X86545001Y-85090000D02*
X86677930Y-85090000D01*
X86677930Y-85090000D02*
X87661501Y-86073571D01*
X87661501Y-86073571D02*
X87661501Y-87071200D01*
X87661501Y-88289500D02*
X87051001Y-88900000D01*
X87051001Y-88900000D02*
X86545001Y-88900000D01*
%TO.N,/NIM3*%
X90576400Y-95300800D02*
X89357200Y-96520000D01*
X89357200Y-96520000D02*
X86004400Y-96520000D01*
%TO.N,/TS_BUS3*%
X74295000Y-67124999D02*
X74295000Y-66699999D01*
X78105000Y-66699999D02*
X78105000Y-67124999D01*
X74295000Y-66699999D02*
X74986500Y-66008499D01*
X74986500Y-66008499D02*
X77413500Y-66008499D01*
X77413500Y-66008499D02*
X78105000Y-66699999D01*
%TO.N,/TS_BUS1*%
X68001500Y-66008499D02*
X70428500Y-66008499D01*
X67310000Y-67124999D02*
X67310000Y-66699999D01*
X67310000Y-66699999D02*
X68001500Y-66008499D01*
X70428500Y-66008499D02*
X71120000Y-66699999D01*
X71120000Y-66699999D02*
X71120000Y-67124999D01*
D20*
%TO.N,GND*%
X86004400Y-104140000D02*
X87680800Y-104140000D01*
D19*
%TO.N,/NIM1*%
X86004400Y-101600000D02*
X93712500Y-101600000D01*
%TO.N,/CONFIG1*%
X83820000Y-118770400D02*
X83820000Y-118059200D01*
X83820000Y-118059200D02*
X84683600Y-117195600D01*
X84683600Y-117195600D02*
X87122000Y-117195600D01*
X87122000Y-117195600D02*
X88493600Y-118567200D01*
X88493600Y-118567200D02*
X89306400Y-118567200D01*
%TO.N,/CONFIG0*%
X87668100Y-120967500D02*
X88392000Y-120243600D01*
X86322500Y-120967500D02*
X87668100Y-120967500D01*
%TO.N,/TS_BUS_SEL*%
X82499200Y-69951600D02*
X83464400Y-70916800D01*
X68580000Y-67124999D02*
X68884800Y-67124999D01*
%TO.N,/CONFIG6*%
X71120000Y-117195600D02*
X71628000Y-116687600D01*
X71120000Y-118770400D02*
X71120000Y-117195600D01*
%TO.N,/CONFIG7*%
X68580000Y-118770400D02*
X68580000Y-117043200D01*
X68580000Y-117043200D02*
X68935600Y-116687600D01*
%TO.N,/CONFIG0*%
X86322500Y-120967500D02*
X86322500Y-118807900D01*
X86322500Y-118807900D02*
X86360000Y-118770400D01*
%TO.N,/CONFIG1*%
X83782500Y-120967500D02*
X83782500Y-118807900D01*
X83782500Y-118807900D02*
X83820000Y-118770400D01*
%TO.N,/TS_BUS_SEL*%
X86545001Y-87020400D02*
X86545001Y-87630000D01*
X86545001Y-87020400D02*
X85242400Y-87020400D01*
X86545001Y-86360000D02*
X86545001Y-87020400D01*
X76149200Y-67124999D02*
X76835000Y-67124999D01*
X76149200Y-67124999D02*
X76149200Y-68173600D01*
X75565000Y-67124999D02*
X76149200Y-67124999D01*
X68884800Y-67124999D02*
X69240400Y-67124999D01*
X86545001Y-78105000D02*
X86545001Y-78790800D01*
X69240400Y-67124999D02*
X69240400Y-68021200D01*
X83464400Y-76911200D02*
X85344000Y-78790800D01*
X83464400Y-70916800D02*
X83464400Y-76911200D01*
X85344000Y-78790800D02*
X86545001Y-78790800D01*
X69240400Y-67124999D02*
X69850000Y-67124999D01*
D21*
%TO.N,/Trigger Interface/S1-*%
X74675806Y-103080243D02*
X74675806Y-103105000D01*
%TO.N,/Trigger Interface/S1+*%
X78371006Y-103929757D02*
G75*
G02*
X78123406Y-104177406I-247606J-43D01*
G01*
%TO.N,/Trigger Interface/S1-*%
X76675806Y-103080243D02*
X76675806Y-103929757D01*
X77123406Y-102832643D02*
X76923406Y-102832643D01*
%TO.N,/Trigger Interface/S1+*%
X76123406Y-104177357D02*
X75923406Y-104177357D01*
%TO.N,/Trigger Interface/S1-*%
X78675806Y-103905000D02*
X78675806Y-103929757D01*
X81280000Y-104140000D02*
X79641699Y-104140000D01*
%TO.N,/Trigger Interface/S1+*%
X75123406Y-102527843D02*
X74923406Y-102527843D01*
%TO.N,/Trigger Interface/S1-*%
X75371006Y-103080243D02*
G75*
G03*
X75123406Y-102832594I-247606J43D01*
G01*
%TO.N,/Trigger Interface/S1+*%
X78923406Y-103352600D02*
G75*
G03*
X78371000Y-103905000I-6J-552400D01*
G01*
%TO.N,/Trigger Interface/S1-*%
X77371006Y-103080243D02*
G75*
G03*
X77123406Y-102832594I-247606J43D01*
G01*
X77923406Y-104482157D02*
G75*
G02*
X77371043Y-103929757I-6J552357D01*
G01*
X76123406Y-104482157D02*
X75923406Y-104482157D01*
X75923406Y-104482157D02*
G75*
G02*
X75371043Y-103929757I-6J552357D01*
G01*
X78675806Y-103929757D02*
G75*
G02*
X78123406Y-104482206I-552406J-43D01*
G01*
X78923406Y-103657400D02*
G75*
G03*
X78675800Y-103905000I-6J-247600D01*
G01*
X79641699Y-104140000D02*
X79159099Y-103657400D01*
X75371006Y-103929757D02*
X75371006Y-103080243D01*
%TO.N,/Trigger Interface/S1+*%
X79159099Y-103352600D02*
X78923406Y-103352600D01*
X74371006Y-103105000D02*
G75*
G02*
X74123406Y-103352606I-247606J0D01*
G01*
X75675806Y-103080243D02*
G75*
G03*
X75123406Y-102527794I-552406J43D01*
G01*
X75923406Y-104177357D02*
G75*
G02*
X75675843Y-103929757I-6J247557D01*
G01*
X76371006Y-103929757D02*
G75*
G02*
X76123406Y-104177406I-247606J-43D01*
G01*
X77923406Y-104177357D02*
G75*
G02*
X77675843Y-103929757I-6J247557D01*
G01*
X74923406Y-102527843D02*
G75*
G03*
X74371043Y-103080243I-6J-552357D01*
G01*
X76923406Y-102527843D02*
G75*
G03*
X76371043Y-103080243I-6J-552357D01*
G01*
%TO.N,/Trigger Interface/S1-*%
X75123406Y-102832643D02*
X74923406Y-102832643D01*
X74923406Y-102832643D02*
G75*
G03*
X74675843Y-103080243I-6J-247557D01*
G01*
%TO.N,/Trigger Interface/S1+*%
X74371006Y-103080243D02*
X74371006Y-103105000D01*
X77675806Y-103080243D02*
G75*
G03*
X77123406Y-102527794I-552406J43D01*
G01*
X81280000Y-102870000D02*
X79641699Y-102870000D01*
%TO.N,/Trigger Interface/S1-*%
X76923406Y-102832643D02*
G75*
G03*
X76675843Y-103080243I-6J-247557D01*
G01*
%TO.N,/Trigger Interface/S1+*%
X78123406Y-104177357D02*
X77923406Y-104177357D01*
%TO.N,/Trigger Interface/S1-*%
X78123406Y-104482157D02*
X77923406Y-104482157D01*
%TO.N,/Trigger Interface/S1+*%
X77123406Y-102527843D02*
X76923406Y-102527843D01*
X78371006Y-103905000D02*
X78371006Y-103929757D01*
X76371006Y-103080243D02*
X76371006Y-103929757D01*
%TO.N,/Trigger Interface/S1-*%
X74675806Y-103105000D02*
G75*
G02*
X74123406Y-103657406I-552406J0D01*
G01*
X79159099Y-103657400D02*
X78923406Y-103657400D01*
%TO.N,/Trigger Interface/S1+*%
X75675806Y-103929757D02*
X75675806Y-103080243D01*
%TO.N,/Trigger Interface/S1-*%
X76675806Y-103929757D02*
G75*
G02*
X76123406Y-104482206I-552406J-43D01*
G01*
X71694873Y-103657400D02*
X70904473Y-102867000D01*
X71694873Y-103657400D02*
X74123406Y-103657400D01*
X70904473Y-102867000D02*
X69340000Y-102867000D01*
%TO.N,/Trigger Interface/S1+*%
X79641699Y-102870000D02*
X79159099Y-103352600D01*
%TO.N,/Trigger Interface/S1-*%
X77371006Y-103929757D02*
X77371006Y-103080243D01*
%TO.N,/Trigger Interface/S1+*%
X77675806Y-103929757D02*
X77675806Y-103080243D01*
X71120000Y-101851000D02*
X71120000Y-102651473D01*
X71821127Y-103352600D02*
X72085200Y-103352600D01*
X72925200Y-102878295D02*
X72925200Y-103112600D01*
X72565200Y-102638295D02*
X72685200Y-102638295D01*
X73165200Y-103352600D02*
X74123406Y-103352600D01*
X72925200Y-103112600D02*
G75*
G03*
X73165200Y-103352600I240000J0D01*
G01*
X71120000Y-102651473D02*
X71821127Y-103352600D01*
X72325200Y-103112600D02*
X72325200Y-102878295D01*
X72085200Y-103352600D02*
G75*
G03*
X72325200Y-103112600I0J240000D01*
G01*
X72325200Y-102878295D02*
G75*
G02*
X72565200Y-102638300I240000J-5D01*
G01*
X72685200Y-102638295D02*
G75*
G02*
X72925205Y-102878295I0J-240005D01*
G01*
%TO.N,/Trigger Interface/S3-*%
X79641699Y-99060000D02*
X79159099Y-98577400D01*
X76606699Y-98825000D02*
G75*
G03*
X76359099Y-98577401I-247599J0D01*
G01*
X71324200Y-100787200D02*
X71295630Y-100758630D01*
X77159099Y-99620108D02*
G75*
G02*
X76606692Y-99067708I1J552408D01*
G01*
X78159099Y-97534692D02*
G75*
G03*
X77911492Y-97782292I1J-247608D01*
G01*
%TO.N,/Trigger Interface/S3+*%
X78911499Y-98025000D02*
X78911499Y-97782292D01*
%TO.N,/Trigger Interface/S3-*%
X77911499Y-99067708D02*
G75*
G02*
X77359099Y-99620099I-552399J8D01*
G01*
%TO.N,/Trigger Interface/S3+*%
X75959074Y-98272600D02*
X76359099Y-98272600D01*
X76911499Y-99067708D02*
X76911499Y-98825000D01*
X78159099Y-97229892D02*
G75*
G03*
X77606692Y-97782292I1J-552408D01*
G01*
%TO.N,/Trigger Interface/S3-*%
X77359099Y-99620108D02*
X77159099Y-99620108D01*
%TO.N,/Trigger Interface/S3+*%
X79159099Y-98272600D02*
G75*
G02*
X78911500Y-98025000I1J247600D01*
G01*
%TO.N,/Trigger Interface/S3-*%
X78359099Y-97534692D02*
X78159099Y-97534692D01*
%TO.N,/Trigger Interface/S3+*%
X78911499Y-97782292D02*
G75*
G03*
X78359099Y-97229901I-552399J-8D01*
G01*
%TO.N,/Trigger Interface/S3-*%
X81280000Y-99060000D02*
X79641699Y-99060000D01*
%TO.N,/Trigger Interface/S3+*%
X77606699Y-99067708D02*
G75*
G02*
X77359099Y-99315299I-247599J8D01*
G01*
X77159099Y-99315308D02*
G75*
G02*
X76911492Y-99067708I1J247608D01*
G01*
%TO.N,/Trigger Interface/S3-*%
X78606699Y-98025000D02*
X78606699Y-97782292D01*
%TO.N,/Trigger Interface/S3+*%
X76911499Y-98825000D02*
G75*
G03*
X76359099Y-98272601I-552399J0D01*
G01*
%TO.N,/Trigger Interface/S3-*%
X73875526Y-100787200D02*
X71324200Y-100787200D01*
X79159099Y-98577400D02*
G75*
G02*
X78606700Y-98025000I1J552400D01*
G01*
%TO.N,/Trigger Interface/S3+*%
X81280000Y-97790000D02*
X79641699Y-97790000D01*
%TO.N,/Trigger Interface/S3-*%
X78606699Y-97782292D02*
G75*
G03*
X78359099Y-97534701I-247599J-8D01*
G01*
%TO.N,/Trigger Interface/S3+*%
X79641699Y-97790000D02*
X79159099Y-98272600D01*
X78359099Y-97229892D02*
X78159099Y-97229892D01*
%TO.N,/Trigger Interface/S3-*%
X76606699Y-99067708D02*
X76606699Y-98825000D01*
%TO.N,/Trigger Interface/S3+*%
X77359099Y-99315308D02*
X77159099Y-99315308D01*
X77606699Y-97782292D02*
X77606699Y-99067708D01*
%TO.N,/Trigger Interface/S3-*%
X77911499Y-97782292D02*
X77911499Y-99067708D01*
X76085326Y-98577400D02*
X76359099Y-98577400D01*
X76085326Y-98577400D02*
X73875526Y-100787200D01*
X71295630Y-100758630D02*
X70730792Y-100758630D01*
X70730792Y-100758630D02*
X70180370Y-100208208D01*
X70180370Y-100208208D02*
X70180370Y-99643370D01*
X70180370Y-99643370D02*
X69340000Y-98803000D01*
%TO.N,/Trigger Interface/S3+*%
X71120000Y-100151947D02*
X71450453Y-100482400D01*
X71120000Y-99819000D02*
X71120000Y-100151947D01*
X73166590Y-99836147D02*
X73166590Y-100242400D01*
X74633160Y-99259106D02*
G75*
G03*
X74972604Y-99259142I169740J169706D01*
G01*
X72926590Y-99596147D02*
G75*
G02*
X73166553Y-99836147I10J-239953D01*
G01*
X73992362Y-99466836D02*
G75*
G02*
X73992330Y-99127396I169738J169736D01*
G01*
X74208893Y-100022780D02*
G75*
G03*
X74208868Y-99683395I-169693J169680D01*
G01*
X72566590Y-99836147D02*
G75*
G02*
X72806590Y-99596090I240010J47D01*
G01*
X71450453Y-100482400D02*
X72326590Y-100482400D01*
X73166590Y-100242400D02*
G75*
G03*
X73406590Y-100482410I240010J0D01*
G01*
X72806590Y-99596147D02*
X72926590Y-99596147D01*
X74416627Y-99042573D02*
X74633160Y-99259106D01*
X72566590Y-100242400D02*
X72566590Y-99836147D01*
X74077215Y-99042573D02*
G75*
G02*
X74416627Y-99042573I169706J-169708D01*
G01*
X73406590Y-100482400D02*
X73749274Y-100482400D01*
X72326590Y-100482400D02*
G75*
G03*
X72566600Y-100242400I10J240000D01*
G01*
X73749274Y-100482400D02*
X74208893Y-100022780D01*
X74208894Y-99683368D02*
X73992362Y-99466836D01*
X73992361Y-99127426D02*
X74077215Y-99042573D01*
X74972570Y-99259107D02*
X75057423Y-99174251D01*
X75057423Y-99174251D02*
X75959074Y-98272600D01*
%TO.N,/Trigger Interface/S4-*%
X70180370Y-95930630D02*
X69340000Y-96771000D01*
X74485126Y-93827600D02*
X72283400Y-93827600D01*
X77606699Y-94506857D02*
X77606699Y-95485000D01*
X79641699Y-95250000D02*
X79159099Y-95732600D01*
%TO.N,/Trigger Interface/S4+*%
X78606699Y-95485000D02*
X78606699Y-94506857D01*
%TO.N,/Trigger Interface/S4-*%
X77606699Y-95485000D02*
G75*
G02*
X77359099Y-95732599I-247599J0D01*
G01*
X78911499Y-94506857D02*
G75*
G03*
X78359099Y-93954501I-552399J-43D01*
G01*
%TO.N,/Trigger Interface/S4+*%
X79159099Y-96037400D02*
G75*
G02*
X78606700Y-95485000I1J552400D01*
G01*
X78606699Y-94506857D02*
G75*
G03*
X78359099Y-94259301I-247599J-43D01*
G01*
X77911499Y-95485000D02*
G75*
G02*
X77359099Y-96037399I-552399J0D01*
G01*
X79641699Y-96520000D02*
X79159099Y-96037400D01*
%TO.N,/Trigger Interface/S4-*%
X78159099Y-93954457D02*
G75*
G03*
X77606657Y-94506857I1J-552443D01*
G01*
%TO.N,/Trigger Interface/S4+*%
X78159099Y-94259257D02*
G75*
G03*
X77911457Y-94506857I1J-247643D01*
G01*
%TO.N,/Trigger Interface/S4-*%
X72283400Y-93827600D02*
X71295630Y-94815370D01*
%TO.N,/Trigger Interface/S4+*%
X81280000Y-96520000D02*
X79641699Y-96520000D01*
%TO.N,/Trigger Interface/S4-*%
X76390126Y-95732600D02*
X77359099Y-95732600D01*
X81280000Y-95250000D02*
X79641699Y-95250000D01*
X71295630Y-94815370D02*
X70730792Y-94815370D01*
X74485126Y-93827600D02*
X76390126Y-95732600D01*
X78359099Y-93954457D02*
X78159099Y-93954457D01*
X78911499Y-95485000D02*
X78911499Y-94506857D01*
X79159099Y-95732600D02*
G75*
G02*
X78911500Y-95485000I1J247600D01*
G01*
%TO.N,/Trigger Interface/S4+*%
X77911499Y-94506857D02*
X77911499Y-95485000D01*
%TO.N,/Trigger Interface/S4-*%
X70730792Y-94815370D02*
X70180370Y-95365792D01*
%TO.N,/Trigger Interface/S4+*%
X78359099Y-94259257D02*
X78159099Y-94259257D01*
X76263874Y-96037400D02*
X77359099Y-96037400D01*
%TO.N,/Trigger Interface/S4-*%
X70180370Y-95365792D02*
X70180370Y-95930630D01*
%TO.N,/Trigger Interface/S4+*%
X73276400Y-94968678D02*
X73396400Y-94968678D01*
X73036400Y-94372400D02*
X73036400Y-94728678D01*
X74566578Y-95183344D02*
G75*
G03*
X74566627Y-95522705I169722J-169656D01*
G01*
X73636400Y-94372400D02*
G75*
G02*
X73876400Y-94132400I240000J0D01*
G01*
X74818493Y-94931430D02*
X74566578Y-95183344D01*
X71120000Y-95422053D02*
X72409653Y-94132400D01*
X72796400Y-94132400D02*
G75*
G02*
X73036400Y-94372400I0J-240000D01*
G01*
X71120000Y-95755000D02*
X71120000Y-95422053D01*
X75242756Y-95355692D02*
G75*
G02*
X75582167Y-95355691I169706J-169707D01*
G01*
X72409653Y-94132400D02*
X72796400Y-94132400D01*
X74651430Y-95607607D02*
G75*
G03*
X74990842Y-95607607I169706J169704D01*
G01*
X74990842Y-95607607D02*
X75242756Y-95355692D01*
X74818493Y-94592019D02*
G75*
G02*
X74818469Y-94931405I-169693J-169681D01*
G01*
X73636400Y-94728678D02*
X73636400Y-94372400D01*
X73396400Y-94968678D02*
G75*
G03*
X73636378Y-94728678I0J239978D01*
G01*
X73876400Y-94132400D02*
X74358874Y-94132400D01*
X73036400Y-94728678D02*
G75*
G03*
X73276400Y-94968700I240000J-22D01*
G01*
X75582167Y-95355692D02*
X76263874Y-96037400D01*
X74358874Y-94132400D02*
X74818493Y-94592019D01*
X74566578Y-95522755D02*
X74651430Y-95607607D01*
%TO.N,/Trigger Interface/S2-*%
X76380969Y-100482400D02*
X77736326Y-100482400D01*
%TO.N,/Trigger Interface/S2+*%
X79159099Y-101117400D02*
X79641699Y-101600000D01*
%TO.N,/Trigger Interface/S2-*%
X75895199Y-100968170D02*
X76380969Y-100482400D01*
%TO.N,/Trigger Interface/S2+*%
X76507221Y-100787200D02*
X77610074Y-100787200D01*
%TO.N,/Trigger Interface/S2-*%
X75895199Y-101128831D02*
X75895199Y-100968170D01*
X75576430Y-101447600D02*
X75895199Y-101128831D01*
%TO.N,/Trigger Interface/S2+*%
X79641699Y-101600000D02*
X81280000Y-101600000D01*
X77940274Y-101117400D02*
X79159099Y-101117400D01*
X77610074Y-100787200D02*
X77940274Y-101117400D01*
X76200001Y-101094420D02*
X76507221Y-100787200D01*
X76200001Y-101128831D02*
X76200001Y-101094420D01*
X76518770Y-101447600D02*
X76200001Y-101128831D01*
%TO.N,/Trigger Interface/S2-*%
X77736326Y-100482400D02*
X78066526Y-100812600D01*
X79641699Y-100330000D02*
X81280000Y-100330000D01*
X79159099Y-100812600D02*
X79641699Y-100330000D01*
X78066526Y-100812600D02*
X79159099Y-100812600D01*
%TO.N,/Trigger Interface/D1-*%
X80370002Y-87630000D02*
X79887402Y-87147400D01*
%TO.N,/Trigger Interface/D1+*%
X79489122Y-86842600D02*
G75*
G02*
X79241500Y-86595000I-22J247600D01*
G01*
%TO.N,/Trigger Interface/D1-*%
X79887402Y-87147400D02*
X79489122Y-87147400D01*
X78489122Y-86242154D02*
G75*
G03*
X78241454Y-86489754I-22J-247646D01*
G01*
%TO.N,/Trigger Interface/D1+*%
X78489122Y-85937354D02*
G75*
G03*
X77936654Y-86489754I-22J-552446D01*
G01*
%TO.N,/Trigger Interface/D1-*%
X78936722Y-86489754D02*
G75*
G03*
X78689122Y-86242178I-247622J-46D01*
G01*
X78241522Y-86595000D02*
G75*
G02*
X77689122Y-87147422I-552422J0D01*
G01*
%TO.N,/Trigger Interface/D1+*%
X70180370Y-86276630D02*
X69340000Y-87117000D01*
X80370002Y-86360000D02*
X79887402Y-86842600D01*
%TO.N,/Trigger Interface/D1-*%
X78689122Y-86242154D02*
X78489122Y-86242154D01*
%TO.N,/Trigger Interface/D1+*%
X79241522Y-86489754D02*
G75*
G03*
X78689122Y-85937378I-552422J-46D01*
G01*
X70180370Y-85711792D02*
X70180370Y-86276630D01*
%TO.N,/Trigger Interface/D1-*%
X78936722Y-86595000D02*
X78936722Y-86489754D01*
%TO.N,/Trigger Interface/D1+*%
X81095002Y-86360000D02*
X80370002Y-86360000D01*
X70730792Y-85161370D02*
X70180370Y-85711792D01*
X71295630Y-85161370D02*
X70730792Y-85161370D01*
X74789926Y-85039200D02*
X71417800Y-85039200D01*
X76593326Y-86842600D02*
X74789926Y-85039200D01*
%TO.N,/Trigger Interface/D1-*%
X81095002Y-87630000D02*
X80370002Y-87630000D01*
%TO.N,/Trigger Interface/D1+*%
X71417800Y-85039200D02*
X71295630Y-85161370D01*
X77936722Y-86595000D02*
G75*
G02*
X77689122Y-86842622I-247622J0D01*
G01*
X79241522Y-86595000D02*
X79241522Y-86489754D01*
X78689122Y-85937354D02*
X78489122Y-85937354D01*
X79887402Y-86842600D02*
X79489122Y-86842600D01*
X77936722Y-86489754D02*
X77936722Y-86595000D01*
X76593326Y-86842600D02*
X77689122Y-86842600D01*
%TO.N,/Trigger Interface/D1-*%
X78241522Y-86489754D02*
X78241522Y-86595000D01*
X79489122Y-87147400D02*
G75*
G02*
X78936700Y-86595000I-22J552400D01*
G01*
X76467074Y-87147400D02*
X77689122Y-87147400D01*
%TO.N,/Trigger Interface/D3-*%
X77095163Y-79685963D02*
X77095162Y-79685962D01*
%TO.N,/Trigger Interface/D3+*%
X75606843Y-80743227D02*
X75465424Y-80884651D01*
%TO.N,/Trigger Interface/D3-*%
X76313952Y-79685962D02*
X76208071Y-79580081D01*
%TO.N,/Trigger Interface/D3+*%
X76879637Y-79470437D02*
G75*
G02*
X76529477Y-79470437I-175080J175080D01*
G01*
%TO.N,/Trigger Interface/D3-*%
X78810739Y-78943200D02*
X77837926Y-78943200D01*
X79887402Y-78892400D02*
X78861539Y-78892400D01*
%TO.N,/Trigger Interface/D3+*%
X75606843Y-80393067D02*
G75*
G02*
X75606796Y-80743180I-175043J-175033D01*
G01*
%TO.N,/Trigger Interface/D3-*%
X81095002Y-79375000D02*
X80370002Y-79375000D01*
X77837926Y-78943200D02*
X77095163Y-79685963D01*
%TO.N,/Trigger Interface/D3+*%
X75500963Y-80287187D02*
X75606843Y-80393067D01*
%TO.N,/Trigger Interface/D3-*%
X76208071Y-79580081D02*
G75*
G03*
X75857911Y-79580081I-175080J-175078D01*
G01*
X75822369Y-80177543D02*
G75*
G02*
X75822321Y-80958705I-390569J-390557D01*
G01*
X77095162Y-79685962D02*
G75*
G02*
X76313952Y-79685962I-390605J390605D01*
G01*
%TO.N,/Trigger Interface/D3+*%
X73297074Y-83053000D02*
X69340000Y-83053000D01*
X73297074Y-83053000D02*
X75465424Y-80884651D01*
X75500963Y-79505977D02*
G75*
G03*
X75500945Y-80287205I390637J-390623D01*
G01*
X78689200Y-78638400D02*
X77711674Y-78638400D01*
X76529476Y-79470437D02*
X76423595Y-79364556D01*
X77711674Y-78638400D02*
X76879637Y-79470437D01*
%TO.N,/Trigger Interface/D3-*%
X78861539Y-78892400D02*
X78810739Y-78943200D01*
%TO.N,/Trigger Interface/D3+*%
X81095002Y-78105000D02*
X80370002Y-78105000D01*
%TO.N,/Trigger Interface/D3-*%
X75716489Y-79721502D02*
G75*
G03*
X75716471Y-80071680I175111J-175098D01*
G01*
%TO.N,/Trigger Interface/D3+*%
X80370002Y-78105000D02*
X79887402Y-78587600D01*
%TO.N,/Trigger Interface/D3-*%
X80370002Y-79375000D02*
X79887402Y-78892400D01*
%TO.N,/Trigger Interface/D3+*%
X76423595Y-79364556D02*
G75*
G03*
X75642385Y-79364556I-390605J-390605D01*
G01*
%TO.N,/Trigger Interface/D3-*%
X73423326Y-83357800D02*
X75177941Y-81603185D01*
X75177941Y-81603185D02*
X75822369Y-80958753D01*
X75716489Y-80071663D02*
X75822369Y-80177543D01*
X75857911Y-79580081D02*
X75716489Y-79721502D01*
%TO.N,/Trigger Interface/D3+*%
X75642385Y-79364556D02*
X75500963Y-79505977D01*
X78740000Y-78587600D02*
X78689200Y-78638400D01*
X79887402Y-78587600D02*
X78740000Y-78587600D01*
%TO.N,/Trigger Interface/D2+*%
X68400370Y-82663792D02*
X68400370Y-83442208D01*
X68400370Y-83442208D02*
X68950792Y-83992630D01*
X68347138Y-81788000D02*
X68811650Y-82252512D01*
X67838346Y-81788000D02*
X68347138Y-81788000D01*
X67462400Y-81412054D02*
X67838346Y-81788000D01*
X67462400Y-80099274D02*
X67462400Y-81412054D01*
X69062600Y-78499074D02*
X67462400Y-80099274D01*
X68811650Y-82252512D02*
X68400370Y-82663792D01*
X69062600Y-73782598D02*
X69062600Y-78499074D01*
X68580000Y-73299998D02*
X69062600Y-73782598D01*
X68580000Y-72574998D02*
X68580000Y-73299998D01*
%TO.N,/Trigger Interface/D2-*%
X69850000Y-72574998D02*
X69850000Y-73299998D01*
X69850000Y-73299998D02*
X69367400Y-73782598D01*
%TO.N,/Trigger Interface/D2+*%
X68950792Y-83992630D02*
X69340000Y-83992630D01*
X69340000Y-83992630D02*
X69340000Y-85085000D01*
%TO.N,/Trigger Interface/D2-*%
X69367400Y-73782598D02*
X69367400Y-76345326D01*
%TO.N,/Trigger Interface/D4-*%
X74565415Y-74868914D02*
G75*
G03*
X74215255Y-74868914I-175080J-175078D01*
G01*
X76472496Y-74930733D02*
G75*
G02*
X76472458Y-75711905I-390596J-390567D01*
G01*
%TO.N,/Trigger Interface/D4+*%
X70730792Y-79065370D02*
X70180370Y-79615792D01*
%TO.N,/Trigger Interface/D4-*%
X74283224Y-75569887D02*
G75*
G02*
X74283232Y-76351105I-390624J-390613D01*
G01*
%TO.N,/Trigger Interface/D4+*%
X74067699Y-76135572D02*
X73926279Y-76276995D01*
%TO.N,/Trigger Interface/D4-*%
X74073833Y-75360496D02*
X74283224Y-75569887D01*
%TO.N,/Trigger Interface/D4+*%
X70180370Y-79615792D02*
X70180370Y-80180630D01*
X70180370Y-80180630D02*
X69340000Y-81021000D01*
%TO.N,/Trigger Interface/D4-*%
X76352400Y-74281926D02*
X76263126Y-74371200D01*
%TO.N,/Trigger Interface/D4+*%
X73858308Y-75576020D02*
X74067699Y-75785411D01*
X73999730Y-74653389D02*
X73858308Y-74794810D01*
X75565000Y-72574998D02*
X75565000Y-73299998D01*
X71137904Y-79065370D02*
X70730792Y-79065370D01*
X76047601Y-74155675D02*
G75*
G03*
X76047581Y-74936905I390599J-390625D01*
G01*
%TO.N,/Trigger Interface/D4-*%
X76472496Y-75711943D02*
X76331075Y-75853365D01*
%TO.N,/Trigger Interface/D4+*%
X76047601Y-74936885D02*
X76256972Y-75146256D01*
%TO.N,/Trigger Interface/D4-*%
X76331075Y-75853365D02*
G75*
G02*
X75549865Y-75853365I-390605J390601D01*
G01*
%TO.N,/Trigger Interface/D4+*%
X74780940Y-74653389D02*
G75*
G03*
X73999730Y-74653389I-390605J-390605D01*
G01*
X76256972Y-75146256D02*
G75*
G02*
X76256935Y-75496381I-175072J-175044D01*
G01*
X71137904Y-79065370D02*
X73926279Y-76276995D01*
X76115550Y-75637840D02*
G75*
G02*
X75765390Y-75637840I-175080J175075D01*
G01*
X73858308Y-74794810D02*
G75*
G03*
X73858323Y-75576005I390592J-390590D01*
G01*
X75565000Y-73299998D02*
X76047600Y-73782598D01*
%TO.N,/Trigger Interface/D4-*%
X74073833Y-75010335D02*
G75*
G03*
X74073848Y-75360480I175067J-175065D01*
G01*
X76263126Y-74371200D02*
G75*
G03*
X76263106Y-74721380I175074J-175100D01*
G01*
%TO.N,/Trigger Interface/D4+*%
X74067699Y-75785411D02*
G75*
G02*
X74067708Y-76135580I-175099J-175089D01*
G01*
X74780940Y-74653389D02*
X75765390Y-75637840D01*
X76047600Y-73782598D02*
X76047601Y-74155675D01*
X76256971Y-75496418D02*
X76115550Y-75637840D01*
%TO.N,/Trigger Interface/D4-*%
X76835000Y-72574998D02*
X76835000Y-73299998D01*
X76835000Y-73299998D02*
X76352400Y-73782598D01*
X76352400Y-73782598D02*
X76352400Y-74281926D01*
X76263125Y-74721362D02*
X76472496Y-74930733D01*
X74565415Y-74868914D02*
X75549865Y-75853365D01*
X74215255Y-74868914D02*
X74073833Y-75010335D01*
X73980725Y-76653601D02*
X74283224Y-76351098D01*
X72636585Y-78968162D02*
X72721437Y-78883309D01*
X70890401Y-79743925D02*
X71811963Y-78822363D01*
X70890401Y-79775401D02*
X70890401Y-79743925D01*
X71120000Y-80005000D02*
X70890401Y-79775401D01*
X72151374Y-78822363D02*
X72297173Y-78968162D01*
X73424165Y-77549568D02*
G75*
G02*
X73424202Y-77210194I169735J169668D01*
G01*
X73509020Y-77125305D02*
X73980725Y-76653601D01*
X73569957Y-78034772D02*
G75*
G03*
X73569923Y-77695394I-169657J169672D01*
G01*
X72660492Y-77973834D02*
G75*
G02*
X72999903Y-77973833I169706J-169707D01*
G01*
X72575637Y-78398097D02*
G75*
G02*
X72575646Y-78058694I169663J169697D01*
G01*
X72721437Y-78883309D02*
G75*
G03*
X72721440Y-78543894I-169737J169709D01*
G01*
X73145694Y-78119625D02*
G75*
G03*
X73485105Y-78119626I169706J169707D01*
G01*
X72297173Y-78968162D02*
G75*
G03*
X72636585Y-78968162I169706J169704D01*
G01*
X72721437Y-78543897D02*
X72575637Y-78398097D01*
X73569957Y-77695360D02*
X73424165Y-77549568D01*
X73485105Y-78119625D02*
X73569957Y-78034772D01*
X72999903Y-77973834D02*
X73145694Y-78119625D01*
X73424165Y-77210157D02*
X73509020Y-77125305D01*
X72575637Y-78058685D02*
X72660492Y-77973834D01*
X71811963Y-78822363D02*
G75*
G02*
X72151374Y-78822362I169706J-169707D01*
G01*
%TO.N,/Trigger Interface/D2-*%
X68473362Y-81483200D02*
X67964598Y-81483200D01*
X69778327Y-76585326D02*
X69607400Y-76585326D01*
X68950792Y-81960630D02*
X68473362Y-81483200D01*
X69479157Y-81960630D02*
X68950792Y-81960630D01*
X69555527Y-82037000D02*
X69479157Y-81960630D01*
X71120000Y-82037000D02*
X69555527Y-82037000D01*
X69367400Y-78625326D02*
G75*
G02*
X69607400Y-78385300I240000J26D01*
G01*
X69778327Y-77185326D02*
G75*
G03*
X70018326Y-76945326I-27J240026D01*
G01*
X69778302Y-77785326D02*
X69607400Y-77785326D01*
X69367400Y-77425326D02*
G75*
G02*
X69607400Y-77185300I240000J26D01*
G01*
X70018302Y-78145326D02*
X70018302Y-78025326D01*
X69607400Y-77785326D02*
G75*
G02*
X69367374Y-77545326I0J240026D01*
G01*
X67964598Y-81483200D02*
X67767200Y-81285802D01*
X69607400Y-78385326D02*
X69778302Y-78385326D01*
X70018302Y-78025326D02*
G75*
G03*
X69778302Y-77785298I-240002J26D01*
G01*
X69607400Y-76585326D02*
G75*
G02*
X69367374Y-76345326I0J240026D01*
G01*
X69607400Y-77185326D02*
X69778327Y-77185326D01*
X69778302Y-78385326D02*
G75*
G03*
X70018326Y-78145326I-2J240026D01*
G01*
X70018327Y-76825326D02*
G75*
G03*
X69778327Y-76585273I-240027J26D01*
G01*
X69367400Y-77545326D02*
X69367400Y-77425326D01*
X67767200Y-81285802D02*
X67767200Y-80225526D01*
X67767200Y-80225526D02*
X69367400Y-78625326D01*
X70018327Y-76945326D02*
X70018327Y-76825326D01*
%TO.N,/Trigger Interface/D1-*%
X72723571Y-85584000D02*
X72723571Y-85940247D01*
X75087937Y-86107673D02*
G75*
G02*
X75427348Y-86107672I169706J-169707D01*
G01*
X73083571Y-86180247D02*
G75*
G03*
X73323647Y-85940247I29J240047D01*
G01*
X74663674Y-85683411D02*
X74411747Y-85935337D01*
X71544053Y-85344000D02*
X72483571Y-85344000D01*
X74836011Y-86359600D02*
X75087937Y-86107673D01*
X71120000Y-85768053D02*
X71544053Y-85344000D01*
X71120000Y-86101000D02*
X71120000Y-85768053D01*
X74663674Y-85344000D02*
G75*
G02*
X74663669Y-85683405I-169674J-169700D01*
G01*
X72963571Y-86180247D02*
X73083571Y-86180247D01*
X73323571Y-85584000D02*
G75*
G02*
X73563571Y-85343971I240029J0D01*
G01*
X74496599Y-86359600D02*
G75*
G03*
X74836011Y-86359600I169706J169704D01*
G01*
X72723571Y-85940247D02*
G75*
G03*
X72963571Y-86180229I240029J47D01*
G01*
X74411747Y-85935337D02*
G75*
G03*
X74411789Y-86274706I169753J-169663D01*
G01*
X72483571Y-85344000D02*
G75*
G02*
X72723600Y-85584000I29J-240000D01*
G01*
X73323571Y-85940247D02*
X73323571Y-85584000D01*
X73563571Y-85344000D02*
X74663674Y-85344000D01*
X74411747Y-86274748D02*
X74496599Y-86359600D01*
X75427348Y-86107673D02*
X76467074Y-87147400D01*
%TO.N,/Trigger Interface/D3-*%
X72982303Y-83597800D02*
G75*
G02*
X73222303Y-83357803I239997J0D01*
G01*
X72982303Y-84066529D02*
X72982303Y-83597800D01*
X72622303Y-84306529D02*
X72742303Y-84306529D01*
X71831200Y-83357800D02*
X72142303Y-83357800D01*
X72382303Y-83597800D02*
X72382303Y-84066529D01*
X71120000Y-84069000D02*
X71831200Y-83357800D01*
X73222303Y-83357800D02*
X73423326Y-83357800D01*
X72382303Y-84066529D02*
G75*
G03*
X72622303Y-84306497I239997J29D01*
G01*
X72742303Y-84306529D02*
G75*
G03*
X72982329Y-84066529I-3J240029D01*
G01*
X72142303Y-83357800D02*
G75*
G02*
X72382300Y-83597800I-3J-240000D01*
G01*
D19*
%TO.N,+3V3*%
X72427500Y-120967500D02*
X72390000Y-120930000D01*
X72390000Y-120052500D02*
X72352500Y-120015000D01*
X72390000Y-120930000D02*
X72390000Y-120052500D01*
X69887500Y-120967500D02*
X69850000Y-120930000D01*
X69850000Y-120930000D02*
X69850000Y-120052500D01*
X69850000Y-120052500D02*
X69812500Y-120015000D01*
X74967500Y-120967500D02*
X74930000Y-120930000D01*
X74930000Y-120930000D02*
X74930000Y-120052500D01*
X74930000Y-120052500D02*
X74892500Y-120015000D01*
X77507500Y-120967500D02*
X77470000Y-120930000D01*
X77470000Y-120930000D02*
X77470000Y-120052500D01*
X77470000Y-120052500D02*
X77432500Y-120015000D01*
X80047500Y-120967500D02*
X80010000Y-120930000D01*
X80010000Y-120930000D02*
X80010000Y-120052500D01*
X80010000Y-120052500D02*
X79972500Y-120015000D01*
X82587500Y-120967500D02*
X82550000Y-120930000D01*
X82550000Y-120930000D02*
X82550000Y-120052500D01*
X82550000Y-120052500D02*
X82512500Y-120015000D01*
X85127500Y-120090000D02*
X85052500Y-120015000D01*
X85127500Y-120930000D02*
X85127500Y-120090000D01*
X67347500Y-120052500D02*
X67310000Y-120015000D01*
X67347500Y-120967500D02*
X67347500Y-120052500D01*
%TO.N,/CONFIG2*%
X81242500Y-120967500D02*
X81242500Y-118807900D01*
X81242500Y-118807900D02*
X81280000Y-118770400D01*
%TO.N,/CONFIG3*%
X78702500Y-120967500D02*
X78702500Y-118807900D01*
X78702500Y-118807900D02*
X78740000Y-118770400D01*
%TO.N,/CONFIG4*%
X76162500Y-120967500D02*
X76162500Y-118807900D01*
X76162500Y-118807900D02*
X76200000Y-118770400D01*
%TO.N,/CONFIG5*%
X73622500Y-120967500D02*
X73622500Y-118807900D01*
X73622500Y-118807900D02*
X73660000Y-118770400D01*
%TO.N,/CONFIG6*%
X71082500Y-120967500D02*
X71082500Y-118807900D01*
X71082500Y-118807900D02*
X71120000Y-118770400D01*
%TO.N,/CONFIG7*%
X68542500Y-120967500D02*
X68542500Y-118807900D01*
X68542500Y-118807900D02*
X68580000Y-118770400D01*
%TO.N,+3V3*%
X112132550Y-90604700D02*
X111560050Y-90604700D01*
X111560050Y-90604700D02*
X111180050Y-90984700D01*
%TO.N,GND*%
X109368649Y-90443299D02*
X109910050Y-90984700D01*
%TO.N,Net-(R10-Pad1)*%
X110900050Y-89417600D02*
X110374350Y-89943300D01*
%TO.N,GND*%
X108926550Y-90443299D02*
X109368649Y-90443299D01*
%TO.N,Net-(D2-K)*%
X112132550Y-89459700D02*
X112132550Y-88164700D01*
%TO.N,Net-(R10-Pad1)*%
X110900050Y-88127200D02*
X110900050Y-89417600D01*
%TO.N,Net-(D2-K)*%
X112132550Y-88164700D02*
X112095050Y-88127200D01*
%TO.N,+3V3*%
X112179700Y-94704900D02*
X111607200Y-94704900D01*
X111607200Y-94704900D02*
X111227200Y-95084900D01*
%TO.N,GND*%
X109415799Y-94543499D02*
X109957200Y-95084900D01*
%TO.N,Net-(R11-Pad1)*%
X110947200Y-93517800D02*
X110421500Y-94043500D01*
%TO.N,GND*%
X108973700Y-94543499D02*
X109415799Y-94543499D01*
%TO.N,Net-(D3-K)*%
X112179700Y-93559900D02*
X112179700Y-92264900D01*
%TO.N,Net-(R11-Pad1)*%
X110947200Y-92227400D02*
X110947200Y-93517800D01*
%TO.N,Net-(D3-K)*%
X112179700Y-92264900D02*
X112142200Y-92227400D01*
%TO.N,+3V3*%
X112132550Y-98851150D02*
X111560050Y-98851150D01*
X111560050Y-98851150D02*
X111180050Y-99231150D01*
%TO.N,GND*%
X109368649Y-98689749D02*
X109910050Y-99231150D01*
%TO.N,Net-(R12-Pad1)*%
X110900050Y-97664050D02*
X110374350Y-98189750D01*
%TO.N,GND*%
X108926550Y-98689749D02*
X109368649Y-98689749D01*
%TO.N,Net-(D4-K)*%
X112132550Y-97706150D02*
X112132550Y-96411150D01*
%TO.N,Net-(R12-Pad1)*%
X110900050Y-96373650D02*
X110900050Y-97664050D01*
%TO.N,Net-(D4-K)*%
X112132550Y-96411150D02*
X112095050Y-96373650D01*
%TO.N,+3V3*%
X112179700Y-103178300D02*
X111607200Y-103178300D01*
X111607200Y-103178300D02*
X111227200Y-103558300D01*
%TO.N,GND*%
X109415799Y-103016899D02*
X109957200Y-103558300D01*
%TO.N,Net-(R13-Pad1)*%
X110947200Y-101991200D02*
X110421500Y-102516900D01*
%TO.N,GND*%
X108973700Y-103016899D02*
X109415799Y-103016899D01*
%TO.N,Net-(D5-K)*%
X112179700Y-102033300D02*
X112179700Y-100738300D01*
%TO.N,Net-(R13-Pad1)*%
X110947200Y-100700800D02*
X110947200Y-101991200D01*
%TO.N,Net-(D5-K)*%
X112179700Y-100738300D02*
X112142200Y-100700800D01*
%TO.N,+3V3*%
X112187200Y-107333100D02*
X111614700Y-107333100D01*
X111614700Y-107333100D02*
X111234700Y-107713100D01*
%TO.N,GND*%
X109423299Y-107171699D02*
X109964700Y-107713100D01*
%TO.N,Net-(R14-Pad1)*%
X110954700Y-106146000D02*
X110429000Y-106671700D01*
%TO.N,GND*%
X108981200Y-107171699D02*
X109423299Y-107171699D01*
%TO.N,Net-(D6-K)*%
X112187200Y-106188100D02*
X112187200Y-104893100D01*
%TO.N,Net-(R14-Pad1)*%
X110954700Y-104855600D02*
X110954700Y-106146000D01*
%TO.N,Net-(D6-K)*%
X112187200Y-104893100D02*
X112149700Y-104855600D01*
%TO.N,+3V3*%
X112187200Y-111570800D02*
X111614700Y-111570800D01*
X111614700Y-111570800D02*
X111234700Y-111950800D01*
%TO.N,GND*%
X109423299Y-111409399D02*
X109964700Y-111950800D01*
%TO.N,Net-(R15-Pad1)*%
X110954700Y-110383700D02*
X110429000Y-110909400D01*
%TO.N,GND*%
X108981200Y-111409399D02*
X109423299Y-111409399D01*
%TO.N,Net-(D7-K)*%
X112187200Y-110425800D02*
X112187200Y-109130800D01*
%TO.N,Net-(R15-Pad1)*%
X110954700Y-109093300D02*
X110954700Y-110383700D01*
%TO.N,Net-(D7-K)*%
X112187200Y-109130800D02*
X112149700Y-109093300D01*
%TO.N,+3V3*%
X112224700Y-115915800D02*
X111652200Y-115915800D01*
X111652200Y-115915800D02*
X111272200Y-116295800D01*
%TO.N,GND*%
X109460799Y-115754399D02*
X110002200Y-116295800D01*
%TO.N,Net-(R16-Pad1)*%
X110992200Y-114728700D02*
X110466500Y-115254400D01*
%TO.N,GND*%
X109018700Y-115754399D02*
X109460799Y-115754399D01*
%TO.N,Net-(D8-K)*%
X112224700Y-114770800D02*
X112224700Y-113475800D01*
%TO.N,Net-(R16-Pad1)*%
X110992200Y-113438300D02*
X110992200Y-114728700D01*
%TO.N,Net-(D8-K)*%
X112224700Y-113475800D02*
X112187200Y-113438300D01*
%TO.N,+3V3*%
X112132550Y-86487400D02*
X111560050Y-86487400D01*
X111560050Y-86487400D02*
X111180050Y-86867400D01*
%TO.N,GND*%
X108926550Y-86325999D02*
X109368649Y-86325999D01*
X109368649Y-86325999D02*
X109910050Y-86867400D01*
%TO.N,Net-(R9-Pad1)*%
X110900050Y-84009900D02*
X110900050Y-85300300D01*
X110900050Y-85300300D02*
X110374350Y-85826000D01*
%TO.N,Net-(D1-K)*%
X112132550Y-85342400D02*
X112132550Y-84047400D01*
X112132550Y-84047400D02*
X112095050Y-84009900D01*
%TO.N,/TS_BUS_SEL*%
X86545001Y-78790800D02*
X86545001Y-79375000D01*
D20*
%TO.N,+3V3*%
X71755000Y-72574998D02*
X72642498Y-72574998D01*
X78740000Y-72574998D02*
X79627498Y-72574998D01*
X81095002Y-81280000D02*
X81095002Y-82167498D01*
X81095002Y-89535000D02*
X81095002Y-90422498D01*
X87312500Y-99060000D02*
X88832500Y-99060000D01*
%TO.N,GND*%
X87312500Y-100330000D02*
X88832500Y-100330000D01*
X68580000Y-109829600D02*
X68580000Y-111760000D01*
X71120000Y-109829600D02*
X71120000Y-111760000D01*
X73660000Y-109829600D02*
X73660000Y-111760000D01*
X76200000Y-109829600D02*
X76200000Y-111760000D01*
X78740000Y-109829600D02*
X78740000Y-111760000D01*
X81280000Y-109829600D02*
X81280000Y-111760000D01*
X83820000Y-109829600D02*
X83820000Y-111760000D01*
X86360000Y-109829600D02*
X86360000Y-111760000D01*
X86004400Y-100330000D02*
X87312500Y-100330000D01*
X88832500Y-100330000D02*
X88900000Y-100262500D01*
X82165000Y-90487500D02*
X83502500Y-90487500D01*
X81095002Y-85090000D02*
X82550000Y-85090000D01*
X82165000Y-82232500D02*
X83502500Y-82232500D01*
%TO.N,+3V3*%
X81095002Y-80645000D02*
X81095002Y-81280000D01*
X81095002Y-82167498D02*
X81030000Y-82232500D01*
%TO.N,GND*%
X81095002Y-76835000D02*
X82550000Y-76835000D01*
X79692500Y-71505000D02*
X79692500Y-70485000D01*
X74295000Y-72574998D02*
X74295000Y-71120000D01*
X67310000Y-72574998D02*
X67310000Y-71120000D01*
X72707500Y-71505000D02*
X72707500Y-70485000D01*
%TO.N,+3V3*%
X86004400Y-99060000D02*
X87312500Y-99060000D01*
X88832500Y-99060000D02*
X88900000Y-99127500D01*
X81095002Y-88900000D02*
X81095002Y-89535000D01*
X81095002Y-90422498D02*
X81030000Y-90487500D01*
X78105000Y-72574998D02*
X78740000Y-72574998D01*
X79627498Y-72574998D02*
X79692500Y-72640000D01*
X71120000Y-72574998D02*
X71755000Y-72574998D01*
X72642498Y-72574998D02*
X72707500Y-72640000D01*
%TD*%
M02*
