%TF.GenerationSoftware,KiCad,Pcbnew,9.0.0-9.0.0-2~ubuntu24.04.1*%
%TF.CreationDate,2025-03-20T03:38:20-04:00*%
%TF.ProjectId,LVDS_RasPi_Hat,4c564453-5f52-4617-9350-695f4861742e,2*%
%TF.SameCoordinates,Original*%
%TF.FileFunction,Soldermask,Top*%
%TF.FilePolarity,Negative*%
%FSLAX46Y46*%
G04 Gerber Fmt 4.6, Leading zero omitted, Abs format (unit mm)*
G04 Created by KiCad (PCBNEW 9.0.0-9.0.0-2~ubuntu24.04.1) date 2025-03-20 03:38:20*
%MOMM*%
%LPD*%
G01*
G04 APERTURE LIST*
%ADD10R,1.016000X0.355600*%
%ADD11O,0.599999X1.450000*%
%ADD12O,1.450000X0.599999*%
%ADD13R,1.700000X1.700000*%
%ADD14O,1.700000X1.700000*%
%ADD15R,0.685800X2.159000*%
%ADD16R,2.184400X0.558800*%
%ADD17C,3.300000*%
%ADD18C,1.652000*%
G04 APERTURE END LIST*
D10*
%TO.C,U13*%
X109018700Y-114754401D03*
X109018700Y-115754399D03*
X110466500Y-115254400D03*
%TD*%
%TO.C,U12*%
X108981200Y-110409401D03*
X108981200Y-111409399D03*
X110429000Y-110909400D03*
%TD*%
%TO.C,U11*%
X108981200Y-106171701D03*
X108981200Y-107171699D03*
X110429000Y-106671700D03*
%TD*%
%TO.C,U10*%
X108973700Y-102016901D03*
X108973700Y-103016899D03*
X110421500Y-102516900D03*
%TD*%
%TO.C,U9*%
X108926550Y-97689751D03*
X108926550Y-98689749D03*
X110374350Y-98189750D03*
%TD*%
%TO.C,U8*%
X108973700Y-93543501D03*
X108973700Y-94543499D03*
X110421500Y-94043500D03*
%TD*%
%TO.C,U7*%
X108926550Y-89443301D03*
X108926550Y-90443299D03*
X110374350Y-89943300D03*
%TD*%
%TO.C,U6*%
X108926550Y-85326001D03*
X108926550Y-86325999D03*
X110374350Y-85826000D03*
%TD*%
D11*
%TO.C,U5*%
X78105000Y-67124999D03*
X76835000Y-67124999D03*
X75565000Y-67124999D03*
X74295000Y-67124999D03*
X74295000Y-72574998D03*
X75565000Y-72574998D03*
X76835000Y-72574998D03*
X78105000Y-72574998D03*
%TD*%
D12*
%TO.C,U4*%
X86545001Y-80645000D03*
X86545001Y-79375000D03*
X86545001Y-78105000D03*
X86545001Y-76835000D03*
X81095002Y-76835000D03*
X81095002Y-78105000D03*
X81095002Y-79375000D03*
X81095002Y-80645000D03*
%TD*%
D11*
%TO.C,U3*%
X71120000Y-67124999D03*
X69850000Y-67124999D03*
X68580000Y-67124999D03*
X67310000Y-67124999D03*
X67310000Y-72574998D03*
X68580000Y-72574998D03*
X69850000Y-72574998D03*
X71120000Y-72574998D03*
%TD*%
D12*
%TO.C,U2*%
X86545001Y-88900000D03*
X86545001Y-87630000D03*
X86545001Y-86360000D03*
X86545001Y-85090000D03*
X81095002Y-85090000D03*
X81095002Y-86360000D03*
X81095002Y-87630000D03*
X81095002Y-88900000D03*
%TD*%
D13*
%TO.C,J1*%
X98762500Y-68610000D03*
D14*
X101302500Y-68610000D03*
X98762500Y-71150000D03*
X101302500Y-71150000D03*
X98762500Y-73690000D03*
X101302500Y-73690000D03*
X98762500Y-76230000D03*
X101302500Y-76230000D03*
X98762500Y-78770000D03*
X101302500Y-78770000D03*
X98762500Y-81310000D03*
X101302500Y-81310000D03*
X98762500Y-83850000D03*
X101302500Y-83850000D03*
X98762500Y-86390000D03*
X101302500Y-86390000D03*
X98762500Y-88930000D03*
X101302500Y-88930000D03*
X98762500Y-91470000D03*
X101302500Y-91470000D03*
X98762500Y-94010000D03*
X101302500Y-94010000D03*
X98762500Y-96550000D03*
X101302500Y-96550000D03*
X98762500Y-99090000D03*
X101302500Y-99090000D03*
X98762500Y-101630000D03*
X101302500Y-101630000D03*
X98762500Y-104170000D03*
X101302500Y-104170000D03*
X98762500Y-106710000D03*
X101302500Y-106710000D03*
X98762500Y-109250000D03*
X101302500Y-109250000D03*
X98762500Y-111790000D03*
X101302500Y-111790000D03*
X98762500Y-114330000D03*
X101302500Y-114330000D03*
X98762500Y-116870000D03*
X101302500Y-116870000D03*
%TD*%
%TO.C,R16*%
G36*
G01*
X110634700Y-113598300D02*
X110634700Y-113278300D01*
G75*
G02*
X110794700Y-113118300I160000J0D01*
G01*
X111189700Y-113118300D01*
G75*
G02*
X111349700Y-113278300I0J-160000D01*
G01*
X111349700Y-113598300D01*
G75*
G02*
X111189700Y-113758300I-160000J0D01*
G01*
X110794700Y-113758300D01*
G75*
G02*
X110634700Y-113598300I0J160000D01*
G01*
G37*
G36*
G01*
X111829700Y-113598300D02*
X111829700Y-113278300D01*
G75*
G02*
X111989700Y-113118300I160000J0D01*
G01*
X112384700Y-113118300D01*
G75*
G02*
X112544700Y-113278300I0J-160000D01*
G01*
X112544700Y-113598300D01*
G75*
G02*
X112384700Y-113758300I-160000J0D01*
G01*
X111989700Y-113758300D01*
G75*
G02*
X111829700Y-113598300I0J160000D01*
G01*
G37*
%TD*%
%TO.C,R15*%
G36*
G01*
X110597200Y-109253300D02*
X110597200Y-108933300D01*
G75*
G02*
X110757200Y-108773300I160000J0D01*
G01*
X111152200Y-108773300D01*
G75*
G02*
X111312200Y-108933300I0J-160000D01*
G01*
X111312200Y-109253300D01*
G75*
G02*
X111152200Y-109413300I-160000J0D01*
G01*
X110757200Y-109413300D01*
G75*
G02*
X110597200Y-109253300I0J160000D01*
G01*
G37*
G36*
G01*
X111792200Y-109253300D02*
X111792200Y-108933300D01*
G75*
G02*
X111952200Y-108773300I160000J0D01*
G01*
X112347200Y-108773300D01*
G75*
G02*
X112507200Y-108933300I0J-160000D01*
G01*
X112507200Y-109253300D01*
G75*
G02*
X112347200Y-109413300I-160000J0D01*
G01*
X111952200Y-109413300D01*
G75*
G02*
X111792200Y-109253300I0J160000D01*
G01*
G37*
%TD*%
%TO.C,R14*%
G36*
G01*
X110597200Y-105015600D02*
X110597200Y-104695600D01*
G75*
G02*
X110757200Y-104535600I160000J0D01*
G01*
X111152200Y-104535600D01*
G75*
G02*
X111312200Y-104695600I0J-160000D01*
G01*
X111312200Y-105015600D01*
G75*
G02*
X111152200Y-105175600I-160000J0D01*
G01*
X110757200Y-105175600D01*
G75*
G02*
X110597200Y-105015600I0J160000D01*
G01*
G37*
G36*
G01*
X111792200Y-105015600D02*
X111792200Y-104695600D01*
G75*
G02*
X111952200Y-104535600I160000J0D01*
G01*
X112347200Y-104535600D01*
G75*
G02*
X112507200Y-104695600I0J-160000D01*
G01*
X112507200Y-105015600D01*
G75*
G02*
X112347200Y-105175600I-160000J0D01*
G01*
X111952200Y-105175600D01*
G75*
G02*
X111792200Y-105015600I0J160000D01*
G01*
G37*
%TD*%
%TO.C,R13*%
G36*
G01*
X110589700Y-100860800D02*
X110589700Y-100540800D01*
G75*
G02*
X110749700Y-100380800I160000J0D01*
G01*
X111144700Y-100380800D01*
G75*
G02*
X111304700Y-100540800I0J-160000D01*
G01*
X111304700Y-100860800D01*
G75*
G02*
X111144700Y-101020800I-160000J0D01*
G01*
X110749700Y-101020800D01*
G75*
G02*
X110589700Y-100860800I0J160000D01*
G01*
G37*
G36*
G01*
X111784700Y-100860800D02*
X111784700Y-100540800D01*
G75*
G02*
X111944700Y-100380800I160000J0D01*
G01*
X112339700Y-100380800D01*
G75*
G02*
X112499700Y-100540800I0J-160000D01*
G01*
X112499700Y-100860800D01*
G75*
G02*
X112339700Y-101020800I-160000J0D01*
G01*
X111944700Y-101020800D01*
G75*
G02*
X111784700Y-100860800I0J160000D01*
G01*
G37*
%TD*%
%TO.C,R12*%
G36*
G01*
X110542550Y-96533650D02*
X110542550Y-96213650D01*
G75*
G02*
X110702550Y-96053650I160000J0D01*
G01*
X111097550Y-96053650D01*
G75*
G02*
X111257550Y-96213650I0J-160000D01*
G01*
X111257550Y-96533650D01*
G75*
G02*
X111097550Y-96693650I-160000J0D01*
G01*
X110702550Y-96693650D01*
G75*
G02*
X110542550Y-96533650I0J160000D01*
G01*
G37*
G36*
G01*
X111737550Y-96533650D02*
X111737550Y-96213650D01*
G75*
G02*
X111897550Y-96053650I160000J0D01*
G01*
X112292550Y-96053650D01*
G75*
G02*
X112452550Y-96213650I0J-160000D01*
G01*
X112452550Y-96533650D01*
G75*
G02*
X112292550Y-96693650I-160000J0D01*
G01*
X111897550Y-96693650D01*
G75*
G02*
X111737550Y-96533650I0J160000D01*
G01*
G37*
%TD*%
%TO.C,R11*%
G36*
G01*
X110589700Y-92387400D02*
X110589700Y-92067400D01*
G75*
G02*
X110749700Y-91907400I160000J0D01*
G01*
X111144700Y-91907400D01*
G75*
G02*
X111304700Y-92067400I0J-160000D01*
G01*
X111304700Y-92387400D01*
G75*
G02*
X111144700Y-92547400I-160000J0D01*
G01*
X110749700Y-92547400D01*
G75*
G02*
X110589700Y-92387400I0J160000D01*
G01*
G37*
G36*
G01*
X111784700Y-92387400D02*
X111784700Y-92067400D01*
G75*
G02*
X111944700Y-91907400I160000J0D01*
G01*
X112339700Y-91907400D01*
G75*
G02*
X112499700Y-92067400I0J-160000D01*
G01*
X112499700Y-92387400D01*
G75*
G02*
X112339700Y-92547400I-160000J0D01*
G01*
X111944700Y-92547400D01*
G75*
G02*
X111784700Y-92387400I0J160000D01*
G01*
G37*
%TD*%
%TO.C,R10*%
G36*
G01*
X110542550Y-88287200D02*
X110542550Y-87967200D01*
G75*
G02*
X110702550Y-87807200I160000J0D01*
G01*
X111097550Y-87807200D01*
G75*
G02*
X111257550Y-87967200I0J-160000D01*
G01*
X111257550Y-88287200D01*
G75*
G02*
X111097550Y-88447200I-160000J0D01*
G01*
X110702550Y-88447200D01*
G75*
G02*
X110542550Y-88287200I0J160000D01*
G01*
G37*
G36*
G01*
X111737550Y-88287200D02*
X111737550Y-87967200D01*
G75*
G02*
X111897550Y-87807200I160000J0D01*
G01*
X112292550Y-87807200D01*
G75*
G02*
X112452550Y-87967200I0J-160000D01*
G01*
X112452550Y-88287200D01*
G75*
G02*
X112292550Y-88447200I-160000J0D01*
G01*
X111897550Y-88447200D01*
G75*
G02*
X111737550Y-88287200I0J160000D01*
G01*
G37*
%TD*%
%TO.C,R9*%
G36*
G01*
X110542550Y-84169900D02*
X110542550Y-83849900D01*
G75*
G02*
X110702550Y-83689900I160000J0D01*
G01*
X111097550Y-83689900D01*
G75*
G02*
X111257550Y-83849900I0J-160000D01*
G01*
X111257550Y-84169900D01*
G75*
G02*
X111097550Y-84329900I-160000J0D01*
G01*
X110702550Y-84329900D01*
G75*
G02*
X110542550Y-84169900I0J160000D01*
G01*
G37*
G36*
G01*
X111737550Y-84169900D02*
X111737550Y-83849900D01*
G75*
G02*
X111897550Y-83689900I160000J0D01*
G01*
X112292550Y-83689900D01*
G75*
G02*
X112452550Y-83849900I0J-160000D01*
G01*
X112452550Y-84169900D01*
G75*
G02*
X112292550Y-84329900I-160000J0D01*
G01*
X111897550Y-84329900D01*
G75*
G02*
X111737550Y-84169900I0J160000D01*
G01*
G37*
%TD*%
%TO.C,D8*%
G36*
G01*
X112064700Y-114388300D02*
X112384700Y-114388300D01*
G75*
G02*
X112544700Y-114548300I0J-160000D01*
G01*
X112544700Y-114993300D01*
G75*
G02*
X112384700Y-115153300I-160000J0D01*
G01*
X112064700Y-115153300D01*
G75*
G02*
X111904700Y-114993300I0J160000D01*
G01*
X111904700Y-114548300D01*
G75*
G02*
X112064700Y-114388300I160000J0D01*
G01*
G37*
G36*
G01*
X112064700Y-115533300D02*
X112384700Y-115533300D01*
G75*
G02*
X112544700Y-115693300I0J-160000D01*
G01*
X112544700Y-116138300D01*
G75*
G02*
X112384700Y-116298300I-160000J0D01*
G01*
X112064700Y-116298300D01*
G75*
G02*
X111904700Y-116138300I0J160000D01*
G01*
X111904700Y-115693300D01*
G75*
G02*
X112064700Y-115533300I160000J0D01*
G01*
G37*
%TD*%
%TO.C,D7*%
G36*
G01*
X112027200Y-110043300D02*
X112347200Y-110043300D01*
G75*
G02*
X112507200Y-110203300I0J-160000D01*
G01*
X112507200Y-110648300D01*
G75*
G02*
X112347200Y-110808300I-160000J0D01*
G01*
X112027200Y-110808300D01*
G75*
G02*
X111867200Y-110648300I0J160000D01*
G01*
X111867200Y-110203300D01*
G75*
G02*
X112027200Y-110043300I160000J0D01*
G01*
G37*
G36*
G01*
X112027200Y-111188300D02*
X112347200Y-111188300D01*
G75*
G02*
X112507200Y-111348300I0J-160000D01*
G01*
X112507200Y-111793300D01*
G75*
G02*
X112347200Y-111953300I-160000J0D01*
G01*
X112027200Y-111953300D01*
G75*
G02*
X111867200Y-111793300I0J160000D01*
G01*
X111867200Y-111348300D01*
G75*
G02*
X112027200Y-111188300I160000J0D01*
G01*
G37*
%TD*%
%TO.C,D6*%
G36*
G01*
X112027200Y-105805600D02*
X112347200Y-105805600D01*
G75*
G02*
X112507200Y-105965600I0J-160000D01*
G01*
X112507200Y-106410600D01*
G75*
G02*
X112347200Y-106570600I-160000J0D01*
G01*
X112027200Y-106570600D01*
G75*
G02*
X111867200Y-106410600I0J160000D01*
G01*
X111867200Y-105965600D01*
G75*
G02*
X112027200Y-105805600I160000J0D01*
G01*
G37*
G36*
G01*
X112027200Y-106950600D02*
X112347200Y-106950600D01*
G75*
G02*
X112507200Y-107110600I0J-160000D01*
G01*
X112507200Y-107555600D01*
G75*
G02*
X112347200Y-107715600I-160000J0D01*
G01*
X112027200Y-107715600D01*
G75*
G02*
X111867200Y-107555600I0J160000D01*
G01*
X111867200Y-107110600D01*
G75*
G02*
X112027200Y-106950600I160000J0D01*
G01*
G37*
%TD*%
%TO.C,D5*%
G36*
G01*
X112019700Y-101650800D02*
X112339700Y-101650800D01*
G75*
G02*
X112499700Y-101810800I0J-160000D01*
G01*
X112499700Y-102255800D01*
G75*
G02*
X112339700Y-102415800I-160000J0D01*
G01*
X112019700Y-102415800D01*
G75*
G02*
X111859700Y-102255800I0J160000D01*
G01*
X111859700Y-101810800D01*
G75*
G02*
X112019700Y-101650800I160000J0D01*
G01*
G37*
G36*
G01*
X112019700Y-102795800D02*
X112339700Y-102795800D01*
G75*
G02*
X112499700Y-102955800I0J-160000D01*
G01*
X112499700Y-103400800D01*
G75*
G02*
X112339700Y-103560800I-160000J0D01*
G01*
X112019700Y-103560800D01*
G75*
G02*
X111859700Y-103400800I0J160000D01*
G01*
X111859700Y-102955800D01*
G75*
G02*
X112019700Y-102795800I160000J0D01*
G01*
G37*
%TD*%
%TO.C,D4*%
G36*
G01*
X111972550Y-97323650D02*
X112292550Y-97323650D01*
G75*
G02*
X112452550Y-97483650I0J-160000D01*
G01*
X112452550Y-97928650D01*
G75*
G02*
X112292550Y-98088650I-160000J0D01*
G01*
X111972550Y-98088650D01*
G75*
G02*
X111812550Y-97928650I0J160000D01*
G01*
X111812550Y-97483650D01*
G75*
G02*
X111972550Y-97323650I160000J0D01*
G01*
G37*
G36*
G01*
X111972550Y-98468650D02*
X112292550Y-98468650D01*
G75*
G02*
X112452550Y-98628650I0J-160000D01*
G01*
X112452550Y-99073650D01*
G75*
G02*
X112292550Y-99233650I-160000J0D01*
G01*
X111972550Y-99233650D01*
G75*
G02*
X111812550Y-99073650I0J160000D01*
G01*
X111812550Y-98628650D01*
G75*
G02*
X111972550Y-98468650I160000J0D01*
G01*
G37*
%TD*%
%TO.C,D3*%
G36*
G01*
X112019700Y-93177400D02*
X112339700Y-93177400D01*
G75*
G02*
X112499700Y-93337400I0J-160000D01*
G01*
X112499700Y-93782400D01*
G75*
G02*
X112339700Y-93942400I-160000J0D01*
G01*
X112019700Y-93942400D01*
G75*
G02*
X111859700Y-93782400I0J160000D01*
G01*
X111859700Y-93337400D01*
G75*
G02*
X112019700Y-93177400I160000J0D01*
G01*
G37*
G36*
G01*
X112019700Y-94322400D02*
X112339700Y-94322400D01*
G75*
G02*
X112499700Y-94482400I0J-160000D01*
G01*
X112499700Y-94927400D01*
G75*
G02*
X112339700Y-95087400I-160000J0D01*
G01*
X112019700Y-95087400D01*
G75*
G02*
X111859700Y-94927400I0J160000D01*
G01*
X111859700Y-94482400D01*
G75*
G02*
X112019700Y-94322400I160000J0D01*
G01*
G37*
%TD*%
%TO.C,D2*%
G36*
G01*
X111972550Y-89077200D02*
X112292550Y-89077200D01*
G75*
G02*
X112452550Y-89237200I0J-160000D01*
G01*
X112452550Y-89682200D01*
G75*
G02*
X112292550Y-89842200I-160000J0D01*
G01*
X111972550Y-89842200D01*
G75*
G02*
X111812550Y-89682200I0J160000D01*
G01*
X111812550Y-89237200D01*
G75*
G02*
X111972550Y-89077200I160000J0D01*
G01*
G37*
G36*
G01*
X111972550Y-90222200D02*
X112292550Y-90222200D01*
G75*
G02*
X112452550Y-90382200I0J-160000D01*
G01*
X112452550Y-90827200D01*
G75*
G02*
X112292550Y-90987200I-160000J0D01*
G01*
X111972550Y-90987200D01*
G75*
G02*
X111812550Y-90827200I0J160000D01*
G01*
X111812550Y-90382200D01*
G75*
G02*
X111972550Y-90222200I160000J0D01*
G01*
G37*
%TD*%
%TO.C,D1*%
G36*
G01*
X111972550Y-84959900D02*
X112292550Y-84959900D01*
G75*
G02*
X112452550Y-85119900I0J-160000D01*
G01*
X112452550Y-85564900D01*
G75*
G02*
X112292550Y-85724900I-160000J0D01*
G01*
X111972550Y-85724900D01*
G75*
G02*
X111812550Y-85564900I0J160000D01*
G01*
X111812550Y-85119900D01*
G75*
G02*
X111972550Y-84959900I160000J0D01*
G01*
G37*
G36*
G01*
X111972550Y-86104900D02*
X112292550Y-86104900D01*
G75*
G02*
X112452550Y-86264900I0J-160000D01*
G01*
X112452550Y-86709900D01*
G75*
G02*
X112292550Y-86869900I-160000J0D01*
G01*
X111972550Y-86869900D01*
G75*
G02*
X111812550Y-86709900I0J160000D01*
G01*
X111812550Y-86264900D01*
G75*
G02*
X111972550Y-86104900I160000J0D01*
G01*
G37*
%TD*%
D15*
%TO.C,SW1*%
X68580000Y-118770400D03*
X71120000Y-118770400D03*
X73660000Y-118770400D03*
X76200000Y-118770400D03*
X78740000Y-118770400D03*
X81280000Y-118770400D03*
X83820000Y-118770400D03*
X86360000Y-118770400D03*
X86360000Y-109829600D03*
X83820000Y-109829600D03*
X81280000Y-109829600D03*
X78740000Y-109829600D03*
X76200000Y-109829600D03*
X73660000Y-109829600D03*
X71120000Y-109829600D03*
X68580000Y-109829600D03*
%TD*%
%TO.C,R8*%
G36*
G01*
X66990000Y-121127500D02*
X66990000Y-120807500D01*
G75*
G02*
X67150000Y-120647500I160000J0D01*
G01*
X67545000Y-120647500D01*
G75*
G02*
X67705000Y-120807500I0J-160000D01*
G01*
X67705000Y-121127500D01*
G75*
G02*
X67545000Y-121287500I-160000J0D01*
G01*
X67150000Y-121287500D01*
G75*
G02*
X66990000Y-121127500I0J160000D01*
G01*
G37*
G36*
G01*
X68185000Y-121127500D02*
X68185000Y-120807500D01*
G75*
G02*
X68345000Y-120647500I160000J0D01*
G01*
X68740000Y-120647500D01*
G75*
G02*
X68900000Y-120807500I0J-160000D01*
G01*
X68900000Y-121127500D01*
G75*
G02*
X68740000Y-121287500I-160000J0D01*
G01*
X68345000Y-121287500D01*
G75*
G02*
X68185000Y-121127500I0J160000D01*
G01*
G37*
%TD*%
%TO.C,R7*%
G36*
G01*
X69530000Y-121127500D02*
X69530000Y-120807500D01*
G75*
G02*
X69690000Y-120647500I160000J0D01*
G01*
X70085000Y-120647500D01*
G75*
G02*
X70245000Y-120807500I0J-160000D01*
G01*
X70245000Y-121127500D01*
G75*
G02*
X70085000Y-121287500I-160000J0D01*
G01*
X69690000Y-121287500D01*
G75*
G02*
X69530000Y-121127500I0J160000D01*
G01*
G37*
G36*
G01*
X70725000Y-121127500D02*
X70725000Y-120807500D01*
G75*
G02*
X70885000Y-120647500I160000J0D01*
G01*
X71280000Y-120647500D01*
G75*
G02*
X71440000Y-120807500I0J-160000D01*
G01*
X71440000Y-121127500D01*
G75*
G02*
X71280000Y-121287500I-160000J0D01*
G01*
X70885000Y-121287500D01*
G75*
G02*
X70725000Y-121127500I0J160000D01*
G01*
G37*
%TD*%
%TO.C,R6*%
G36*
G01*
X72070000Y-121127500D02*
X72070000Y-120807500D01*
G75*
G02*
X72230000Y-120647500I160000J0D01*
G01*
X72625000Y-120647500D01*
G75*
G02*
X72785000Y-120807500I0J-160000D01*
G01*
X72785000Y-121127500D01*
G75*
G02*
X72625000Y-121287500I-160000J0D01*
G01*
X72230000Y-121287500D01*
G75*
G02*
X72070000Y-121127500I0J160000D01*
G01*
G37*
G36*
G01*
X73265000Y-121127500D02*
X73265000Y-120807500D01*
G75*
G02*
X73425000Y-120647500I160000J0D01*
G01*
X73820000Y-120647500D01*
G75*
G02*
X73980000Y-120807500I0J-160000D01*
G01*
X73980000Y-121127500D01*
G75*
G02*
X73820000Y-121287500I-160000J0D01*
G01*
X73425000Y-121287500D01*
G75*
G02*
X73265000Y-121127500I0J160000D01*
G01*
G37*
%TD*%
%TO.C,R5*%
G36*
G01*
X74610000Y-121127500D02*
X74610000Y-120807500D01*
G75*
G02*
X74770000Y-120647500I160000J0D01*
G01*
X75165000Y-120647500D01*
G75*
G02*
X75325000Y-120807500I0J-160000D01*
G01*
X75325000Y-121127500D01*
G75*
G02*
X75165000Y-121287500I-160000J0D01*
G01*
X74770000Y-121287500D01*
G75*
G02*
X74610000Y-121127500I0J160000D01*
G01*
G37*
G36*
G01*
X75805000Y-121127500D02*
X75805000Y-120807500D01*
G75*
G02*
X75965000Y-120647500I160000J0D01*
G01*
X76360000Y-120647500D01*
G75*
G02*
X76520000Y-120807500I0J-160000D01*
G01*
X76520000Y-121127500D01*
G75*
G02*
X76360000Y-121287500I-160000J0D01*
G01*
X75965000Y-121287500D01*
G75*
G02*
X75805000Y-121127500I0J160000D01*
G01*
G37*
%TD*%
%TO.C,R4*%
G36*
G01*
X77150000Y-121127500D02*
X77150000Y-120807500D01*
G75*
G02*
X77310000Y-120647500I160000J0D01*
G01*
X77705000Y-120647500D01*
G75*
G02*
X77865000Y-120807500I0J-160000D01*
G01*
X77865000Y-121127500D01*
G75*
G02*
X77705000Y-121287500I-160000J0D01*
G01*
X77310000Y-121287500D01*
G75*
G02*
X77150000Y-121127500I0J160000D01*
G01*
G37*
G36*
G01*
X78345000Y-121127500D02*
X78345000Y-120807500D01*
G75*
G02*
X78505000Y-120647500I160000J0D01*
G01*
X78900000Y-120647500D01*
G75*
G02*
X79060000Y-120807500I0J-160000D01*
G01*
X79060000Y-121127500D01*
G75*
G02*
X78900000Y-121287500I-160000J0D01*
G01*
X78505000Y-121287500D01*
G75*
G02*
X78345000Y-121127500I0J160000D01*
G01*
G37*
%TD*%
%TO.C,R3*%
G36*
G01*
X79690000Y-121127500D02*
X79690000Y-120807500D01*
G75*
G02*
X79850000Y-120647500I160000J0D01*
G01*
X80245000Y-120647500D01*
G75*
G02*
X80405000Y-120807500I0J-160000D01*
G01*
X80405000Y-121127500D01*
G75*
G02*
X80245000Y-121287500I-160000J0D01*
G01*
X79850000Y-121287500D01*
G75*
G02*
X79690000Y-121127500I0J160000D01*
G01*
G37*
G36*
G01*
X80885000Y-121127500D02*
X80885000Y-120807500D01*
G75*
G02*
X81045000Y-120647500I160000J0D01*
G01*
X81440000Y-120647500D01*
G75*
G02*
X81600000Y-120807500I0J-160000D01*
G01*
X81600000Y-121127500D01*
G75*
G02*
X81440000Y-121287500I-160000J0D01*
G01*
X81045000Y-121287500D01*
G75*
G02*
X80885000Y-121127500I0J160000D01*
G01*
G37*
%TD*%
%TO.C,R2*%
G36*
G01*
X82230000Y-121127500D02*
X82230000Y-120807500D01*
G75*
G02*
X82390000Y-120647500I160000J0D01*
G01*
X82785000Y-120647500D01*
G75*
G02*
X82945000Y-120807500I0J-160000D01*
G01*
X82945000Y-121127500D01*
G75*
G02*
X82785000Y-121287500I-160000J0D01*
G01*
X82390000Y-121287500D01*
G75*
G02*
X82230000Y-121127500I0J160000D01*
G01*
G37*
G36*
G01*
X83425000Y-121127500D02*
X83425000Y-120807500D01*
G75*
G02*
X83585000Y-120647500I160000J0D01*
G01*
X83980000Y-120647500D01*
G75*
G02*
X84140000Y-120807500I0J-160000D01*
G01*
X84140000Y-121127500D01*
G75*
G02*
X83980000Y-121287500I-160000J0D01*
G01*
X83585000Y-121287500D01*
G75*
G02*
X83425000Y-121127500I0J160000D01*
G01*
G37*
%TD*%
%TO.C,R1*%
G36*
G01*
X84770000Y-121127500D02*
X84770000Y-120807500D01*
G75*
G02*
X84930000Y-120647500I160000J0D01*
G01*
X85325000Y-120647500D01*
G75*
G02*
X85485000Y-120807500I0J-160000D01*
G01*
X85485000Y-121127500D01*
G75*
G02*
X85325000Y-121287500I-160000J0D01*
G01*
X84930000Y-121287500D01*
G75*
G02*
X84770000Y-121127500I0J160000D01*
G01*
G37*
G36*
G01*
X85965000Y-121127500D02*
X85965000Y-120807500D01*
G75*
G02*
X86125000Y-120647500I160000J0D01*
G01*
X86520000Y-120647500D01*
G75*
G02*
X86680000Y-120807500I0J-160000D01*
G01*
X86680000Y-121127500D01*
G75*
G02*
X86520000Y-121287500I-160000J0D01*
G01*
X86125000Y-121287500D01*
G75*
G02*
X85965000Y-121127500I0J160000D01*
G01*
G37*
%TD*%
D16*
%TO.C,U1*%
X81280000Y-95250000D03*
X81280000Y-96520000D03*
X81280000Y-97790000D03*
X81280000Y-99060000D03*
X81280000Y-100330000D03*
X81280000Y-101600000D03*
X81280000Y-102870000D03*
X81280000Y-104140000D03*
X86004400Y-104140000D03*
X86004400Y-102870000D03*
X86004400Y-101600000D03*
X86004400Y-100330000D03*
X86004400Y-99060000D03*
X86004400Y-97790000D03*
X86004400Y-96520000D03*
X86004400Y-95250000D03*
%TD*%
%TO.C,C5*%
G36*
G01*
X79847500Y-73007500D02*
X79537500Y-73007500D01*
G75*
G02*
X79382500Y-72852500I0J155000D01*
G01*
X79382500Y-72427500D01*
G75*
G02*
X79537500Y-72272500I155000J0D01*
G01*
X79847500Y-72272500D01*
G75*
G02*
X80002500Y-72427500I0J-155000D01*
G01*
X80002500Y-72852500D01*
G75*
G02*
X79847500Y-73007500I-155000J0D01*
G01*
G37*
G36*
G01*
X79847500Y-71872500D02*
X79537500Y-71872500D01*
G75*
G02*
X79382500Y-71717500I0J155000D01*
G01*
X79382500Y-71292500D01*
G75*
G02*
X79537500Y-71137500I155000J0D01*
G01*
X79847500Y-71137500D01*
G75*
G02*
X80002500Y-71292500I0J-155000D01*
G01*
X80002500Y-71717500D01*
G75*
G02*
X79847500Y-71872500I-155000J0D01*
G01*
G37*
%TD*%
%TO.C,C4*%
G36*
G01*
X72862500Y-73007500D02*
X72552500Y-73007500D01*
G75*
G02*
X72397500Y-72852500I0J155000D01*
G01*
X72397500Y-72427500D01*
G75*
G02*
X72552500Y-72272500I155000J0D01*
G01*
X72862500Y-72272500D01*
G75*
G02*
X73017500Y-72427500I0J-155000D01*
G01*
X73017500Y-72852500D01*
G75*
G02*
X72862500Y-73007500I-155000J0D01*
G01*
G37*
G36*
G01*
X72862500Y-71872500D02*
X72552500Y-71872500D01*
G75*
G02*
X72397500Y-71717500I0J155000D01*
G01*
X72397500Y-71292500D01*
G75*
G02*
X72552500Y-71137500I155000J0D01*
G01*
X72862500Y-71137500D01*
G75*
G02*
X73017500Y-71292500I0J-155000D01*
G01*
X73017500Y-71717500D01*
G75*
G02*
X72862500Y-71872500I-155000J0D01*
G01*
G37*
%TD*%
%TO.C,C3*%
G36*
G01*
X80662500Y-82387500D02*
X80662500Y-82077500D01*
G75*
G02*
X80817500Y-81922500I155000J0D01*
G01*
X81242500Y-81922500D01*
G75*
G02*
X81397500Y-82077500I0J-155000D01*
G01*
X81397500Y-82387500D01*
G75*
G02*
X81242500Y-82542500I-155000J0D01*
G01*
X80817500Y-82542500D01*
G75*
G02*
X80662500Y-82387500I0J155000D01*
G01*
G37*
G36*
G01*
X81797500Y-82387500D02*
X81797500Y-82077500D01*
G75*
G02*
X81952500Y-81922500I155000J0D01*
G01*
X82377500Y-81922500D01*
G75*
G02*
X82532500Y-82077500I0J-155000D01*
G01*
X82532500Y-82387500D01*
G75*
G02*
X82377500Y-82542500I-155000J0D01*
G01*
X81952500Y-82542500D01*
G75*
G02*
X81797500Y-82387500I0J155000D01*
G01*
G37*
%TD*%
%TO.C,C2*%
G36*
G01*
X80662500Y-90642500D02*
X80662500Y-90332500D01*
G75*
G02*
X80817500Y-90177500I155000J0D01*
G01*
X81242500Y-90177500D01*
G75*
G02*
X81397500Y-90332500I0J-155000D01*
G01*
X81397500Y-90642500D01*
G75*
G02*
X81242500Y-90797500I-155000J0D01*
G01*
X80817500Y-90797500D01*
G75*
G02*
X80662500Y-90642500I0J155000D01*
G01*
G37*
G36*
G01*
X81797500Y-90642500D02*
X81797500Y-90332500D01*
G75*
G02*
X81952500Y-90177500I155000J0D01*
G01*
X82377500Y-90177500D01*
G75*
G02*
X82532500Y-90332500I0J-155000D01*
G01*
X82532500Y-90642500D01*
G75*
G02*
X82377500Y-90797500I-155000J0D01*
G01*
X81952500Y-90797500D01*
G75*
G02*
X81797500Y-90642500I0J155000D01*
G01*
G37*
%TD*%
D17*
%TO.C,J2*%
X66800000Y-77215000D03*
X66800000Y-105665000D03*
D18*
X69340000Y-87117000D03*
X71120000Y-86101000D03*
X69340000Y-85085000D03*
X71120000Y-84069000D03*
X69340000Y-83053000D03*
X71120000Y-82037000D03*
X69340000Y-81021000D03*
X71120000Y-80005000D03*
X69340000Y-102867000D03*
X71120000Y-101851000D03*
X69340000Y-100835000D03*
X71120000Y-99819000D03*
X69340000Y-98803000D03*
X71120000Y-97787000D03*
X69340000Y-96771000D03*
X71120000Y-95755000D03*
%TD*%
%TO.C,C1*%
G36*
G01*
X88745000Y-98760000D02*
X89055000Y-98760000D01*
G75*
G02*
X89210000Y-98915000I0J-155000D01*
G01*
X89210000Y-99340000D01*
G75*
G02*
X89055000Y-99495000I-155000J0D01*
G01*
X88745000Y-99495000D01*
G75*
G02*
X88590000Y-99340000I0J155000D01*
G01*
X88590000Y-98915000D01*
G75*
G02*
X88745000Y-98760000I155000J0D01*
G01*
G37*
G36*
G01*
X88745000Y-99895000D02*
X89055000Y-99895000D01*
G75*
G02*
X89210000Y-100050000I0J-155000D01*
G01*
X89210000Y-100475000D01*
G75*
G02*
X89055000Y-100630000I-155000J0D01*
G01*
X88745000Y-100630000D01*
G75*
G02*
X88590000Y-100475000I0J155000D01*
G01*
X88590000Y-100050000D01*
G75*
G02*
X88745000Y-99895000I155000J0D01*
G01*
G37*
%TD*%
M02*
