%TF.GenerationSoftware,KiCad,Pcbnew,9.0.0-9.0.0-2~ubuntu24.04.1*%
%TF.CreationDate,2025-03-20T03:38:20-04:00*%
%TF.ProjectId,LVDS_RasPi_Hat,4c564453-5f52-4617-9350-695f4861742e,2*%
%TF.SameCoordinates,Original*%
%TF.FileFunction,Legend,Top*%
%TF.FilePolarity,Positive*%
%FSLAX46Y46*%
G04 Gerber Fmt 4.6, Leading zero omitted, Abs format (unit mm)*
G04 Created by KiCad (PCBNEW 9.0.0-9.0.0-2~ubuntu24.04.1) date 2025-03-20 03:38:20*
%MOMM*%
%LPD*%
G01*
G04 APERTURE LIST*
%ADD10C,0.300000*%
%ADD11C,0.150000*%
%ADD12C,0.152400*%
%ADD13C,0.200000*%
%ADD14C,0.120000*%
%ADD15C,0.100000*%
%ADD16C,0.000000*%
%ADD17C,0.127000*%
G04 APERTURE END LIST*
D10*
X92892070Y-107653657D02*
X91392070Y-107653657D01*
X91392070Y-107653657D02*
X92463499Y-107153657D01*
X92463499Y-107153657D02*
X91392070Y-106653657D01*
X91392070Y-106653657D02*
X92892070Y-106653657D01*
X92892070Y-105225085D02*
X92892070Y-105939371D01*
X92892070Y-105939371D02*
X91392070Y-105939371D01*
X91392070Y-104939370D02*
X92892070Y-104439370D01*
X92892070Y-104439370D02*
X91392070Y-103939370D01*
X92892070Y-103439371D02*
X91392070Y-103439371D01*
X91392070Y-103439371D02*
X91392070Y-103082228D01*
X91392070Y-103082228D02*
X91463499Y-102867942D01*
X91463499Y-102867942D02*
X91606356Y-102725085D01*
X91606356Y-102725085D02*
X91749213Y-102653656D01*
X91749213Y-102653656D02*
X92034927Y-102582228D01*
X92034927Y-102582228D02*
X92249213Y-102582228D01*
X92249213Y-102582228D02*
X92534927Y-102653656D01*
X92534927Y-102653656D02*
X92677784Y-102725085D01*
X92677784Y-102725085D02*
X92820642Y-102867942D01*
X92820642Y-102867942D02*
X92892070Y-103082228D01*
X92892070Y-103082228D02*
X92892070Y-103439371D01*
X92820642Y-102010799D02*
X92892070Y-101796514D01*
X92892070Y-101796514D02*
X92892070Y-101439371D01*
X92892070Y-101439371D02*
X92820642Y-101296514D01*
X92820642Y-101296514D02*
X92749213Y-101225085D01*
X92749213Y-101225085D02*
X92606356Y-101153656D01*
X92606356Y-101153656D02*
X92463499Y-101153656D01*
X92463499Y-101153656D02*
X92320642Y-101225085D01*
X92320642Y-101225085D02*
X92249213Y-101296514D01*
X92249213Y-101296514D02*
X92177784Y-101439371D01*
X92177784Y-101439371D02*
X92106356Y-101725085D01*
X92106356Y-101725085D02*
X92034927Y-101867942D01*
X92034927Y-101867942D02*
X91963499Y-101939371D01*
X91963499Y-101939371D02*
X91820642Y-102010799D01*
X91820642Y-102010799D02*
X91677784Y-102010799D01*
X91677784Y-102010799D02*
X91534927Y-101939371D01*
X91534927Y-101939371D02*
X91463499Y-101867942D01*
X91463499Y-101867942D02*
X91392070Y-101725085D01*
X91392070Y-101725085D02*
X91392070Y-101367942D01*
X91392070Y-101367942D02*
X91463499Y-101153656D01*
X92320642Y-100510800D02*
X92320642Y-99367943D01*
X92892070Y-99939371D02*
X91749213Y-99939371D01*
X92892070Y-97939371D02*
X92892070Y-98653657D01*
X92892070Y-98653657D02*
X91392070Y-98653657D01*
X91392070Y-97653656D02*
X92892070Y-97153656D01*
X92892070Y-97153656D02*
X91392070Y-96653656D01*
X92892070Y-96153657D02*
X91392070Y-96153657D01*
X91392070Y-96153657D02*
X91392070Y-95796514D01*
X91392070Y-95796514D02*
X91463499Y-95582228D01*
X91463499Y-95582228D02*
X91606356Y-95439371D01*
X91606356Y-95439371D02*
X91749213Y-95367942D01*
X91749213Y-95367942D02*
X92034927Y-95296514D01*
X92034927Y-95296514D02*
X92249213Y-95296514D01*
X92249213Y-95296514D02*
X92534927Y-95367942D01*
X92534927Y-95367942D02*
X92677784Y-95439371D01*
X92677784Y-95439371D02*
X92820642Y-95582228D01*
X92820642Y-95582228D02*
X92892070Y-95796514D01*
X92892070Y-95796514D02*
X92892070Y-96153657D01*
X92820642Y-94725085D02*
X92892070Y-94510800D01*
X92892070Y-94510800D02*
X92892070Y-94153657D01*
X92892070Y-94153657D02*
X92820642Y-94010800D01*
X92820642Y-94010800D02*
X92749213Y-93939371D01*
X92749213Y-93939371D02*
X92606356Y-93867942D01*
X92606356Y-93867942D02*
X92463499Y-93867942D01*
X92463499Y-93867942D02*
X92320642Y-93939371D01*
X92320642Y-93939371D02*
X92249213Y-94010800D01*
X92249213Y-94010800D02*
X92177784Y-94153657D01*
X92177784Y-94153657D02*
X92106356Y-94439371D01*
X92106356Y-94439371D02*
X92034927Y-94582228D01*
X92034927Y-94582228D02*
X91963499Y-94653657D01*
X91963499Y-94653657D02*
X91820642Y-94725085D01*
X91820642Y-94725085D02*
X91677784Y-94725085D01*
X91677784Y-94725085D02*
X91534927Y-94653657D01*
X91534927Y-94653657D02*
X91463499Y-94582228D01*
X91463499Y-94582228D02*
X91392070Y-94439371D01*
X91392070Y-94439371D02*
X91392070Y-94082228D01*
X91392070Y-94082228D02*
X91463499Y-93867942D01*
X92892070Y-91225086D02*
X92177784Y-91725086D01*
X92892070Y-92082229D02*
X91392070Y-92082229D01*
X91392070Y-92082229D02*
X91392070Y-91510800D01*
X91392070Y-91510800D02*
X91463499Y-91367943D01*
X91463499Y-91367943D02*
X91534927Y-91296514D01*
X91534927Y-91296514D02*
X91677784Y-91225086D01*
X91677784Y-91225086D02*
X91892070Y-91225086D01*
X91892070Y-91225086D02*
X92034927Y-91296514D01*
X92034927Y-91296514D02*
X92106356Y-91367943D01*
X92106356Y-91367943D02*
X92177784Y-91510800D01*
X92177784Y-91510800D02*
X92177784Y-92082229D01*
X92892070Y-89939372D02*
X92106356Y-89939372D01*
X92106356Y-89939372D02*
X91963499Y-90010800D01*
X91963499Y-90010800D02*
X91892070Y-90153657D01*
X91892070Y-90153657D02*
X91892070Y-90439372D01*
X91892070Y-90439372D02*
X91963499Y-90582229D01*
X92820642Y-89939372D02*
X92892070Y-90082229D01*
X92892070Y-90082229D02*
X92892070Y-90439372D01*
X92892070Y-90439372D02*
X92820642Y-90582229D01*
X92820642Y-90582229D02*
X92677784Y-90653657D01*
X92677784Y-90653657D02*
X92534927Y-90653657D01*
X92534927Y-90653657D02*
X92392070Y-90582229D01*
X92392070Y-90582229D02*
X92320642Y-90439372D01*
X92320642Y-90439372D02*
X92320642Y-90082229D01*
X92320642Y-90082229D02*
X92249213Y-89939372D01*
X92820642Y-89296514D02*
X92892070Y-89153657D01*
X92892070Y-89153657D02*
X92892070Y-88867943D01*
X92892070Y-88867943D02*
X92820642Y-88725086D01*
X92820642Y-88725086D02*
X92677784Y-88653657D01*
X92677784Y-88653657D02*
X92606356Y-88653657D01*
X92606356Y-88653657D02*
X92463499Y-88725086D01*
X92463499Y-88725086D02*
X92392070Y-88867943D01*
X92392070Y-88867943D02*
X92392070Y-89082229D01*
X92392070Y-89082229D02*
X92320642Y-89225086D01*
X92320642Y-89225086D02*
X92177784Y-89296514D01*
X92177784Y-89296514D02*
X92106356Y-89296514D01*
X92106356Y-89296514D02*
X91963499Y-89225086D01*
X91963499Y-89225086D02*
X91892070Y-89082229D01*
X91892070Y-89082229D02*
X91892070Y-88867943D01*
X91892070Y-88867943D02*
X91963499Y-88725086D01*
X92892070Y-88010800D02*
X91392070Y-88010800D01*
X91392070Y-88010800D02*
X91392070Y-87439371D01*
X91392070Y-87439371D02*
X91463499Y-87296514D01*
X91463499Y-87296514D02*
X91534927Y-87225085D01*
X91534927Y-87225085D02*
X91677784Y-87153657D01*
X91677784Y-87153657D02*
X91892070Y-87153657D01*
X91892070Y-87153657D02*
X92034927Y-87225085D01*
X92034927Y-87225085D02*
X92106356Y-87296514D01*
X92106356Y-87296514D02*
X92177784Y-87439371D01*
X92177784Y-87439371D02*
X92177784Y-88010800D01*
X92892070Y-86510800D02*
X91892070Y-86510800D01*
X91392070Y-86510800D02*
X91463499Y-86582228D01*
X91463499Y-86582228D02*
X91534927Y-86510800D01*
X91534927Y-86510800D02*
X91463499Y-86439371D01*
X91463499Y-86439371D02*
X91392070Y-86510800D01*
X91392070Y-86510800D02*
X91534927Y-86510800D01*
X92892070Y-84653657D02*
X91392070Y-84653657D01*
X92106356Y-84653657D02*
X92106356Y-83796514D01*
X92892070Y-83796514D02*
X91392070Y-83796514D01*
X92892070Y-82439371D02*
X92106356Y-82439371D01*
X92106356Y-82439371D02*
X91963499Y-82510799D01*
X91963499Y-82510799D02*
X91892070Y-82653656D01*
X91892070Y-82653656D02*
X91892070Y-82939371D01*
X91892070Y-82939371D02*
X91963499Y-83082228D01*
X92820642Y-82439371D02*
X92892070Y-82582228D01*
X92892070Y-82582228D02*
X92892070Y-82939371D01*
X92892070Y-82939371D02*
X92820642Y-83082228D01*
X92820642Y-83082228D02*
X92677784Y-83153656D01*
X92677784Y-83153656D02*
X92534927Y-83153656D01*
X92534927Y-83153656D02*
X92392070Y-83082228D01*
X92392070Y-83082228D02*
X92320642Y-82939371D01*
X92320642Y-82939371D02*
X92320642Y-82582228D01*
X92320642Y-82582228D02*
X92249213Y-82439371D01*
X91892070Y-81939370D02*
X91892070Y-81367942D01*
X91392070Y-81725085D02*
X92677784Y-81725085D01*
X92677784Y-81725085D02*
X92820642Y-81653656D01*
X92820642Y-81653656D02*
X92892070Y-81510799D01*
X92892070Y-81510799D02*
X92892070Y-81367942D01*
X91892070Y-79867942D02*
X92892070Y-79510799D01*
X92892070Y-79510799D02*
X91892070Y-79153656D01*
X91534927Y-78653656D02*
X91463499Y-78582228D01*
X91463499Y-78582228D02*
X91392070Y-78439371D01*
X91392070Y-78439371D02*
X91392070Y-78082228D01*
X91392070Y-78082228D02*
X91463499Y-77939371D01*
X91463499Y-77939371D02*
X91534927Y-77867942D01*
X91534927Y-77867942D02*
X91677784Y-77796513D01*
X91677784Y-77796513D02*
X91820642Y-77796513D01*
X91820642Y-77796513D02*
X92034927Y-77867942D01*
X92034927Y-77867942D02*
X92892070Y-78725085D01*
X92892070Y-78725085D02*
X92892070Y-77796513D01*
X95306986Y-100689372D02*
X93806986Y-100689372D01*
X93806986Y-100689372D02*
X95306986Y-99832229D01*
X95306986Y-99832229D02*
X93806986Y-99832229D01*
X95306986Y-98903657D02*
X95235558Y-99046514D01*
X95235558Y-99046514D02*
X95164129Y-99117943D01*
X95164129Y-99117943D02*
X95021272Y-99189371D01*
X95021272Y-99189371D02*
X94592700Y-99189371D01*
X94592700Y-99189371D02*
X94449843Y-99117943D01*
X94449843Y-99117943D02*
X94378415Y-99046514D01*
X94378415Y-99046514D02*
X94306986Y-98903657D01*
X94306986Y-98903657D02*
X94306986Y-98689371D01*
X94306986Y-98689371D02*
X94378415Y-98546514D01*
X94378415Y-98546514D02*
X94449843Y-98475086D01*
X94449843Y-98475086D02*
X94592700Y-98403657D01*
X94592700Y-98403657D02*
X95021272Y-98403657D01*
X95021272Y-98403657D02*
X95164129Y-98475086D01*
X95164129Y-98475086D02*
X95235558Y-98546514D01*
X95235558Y-98546514D02*
X95306986Y-98689371D01*
X95306986Y-98689371D02*
X95306986Y-98903657D01*
X95306986Y-97117943D02*
X94521272Y-97117943D01*
X94521272Y-97117943D02*
X94378415Y-97189371D01*
X94378415Y-97189371D02*
X94306986Y-97332228D01*
X94306986Y-97332228D02*
X94306986Y-97617943D01*
X94306986Y-97617943D02*
X94378415Y-97760800D01*
X95235558Y-97117943D02*
X95306986Y-97260800D01*
X95306986Y-97260800D02*
X95306986Y-97617943D01*
X95306986Y-97617943D02*
X95235558Y-97760800D01*
X95235558Y-97760800D02*
X95092700Y-97832228D01*
X95092700Y-97832228D02*
X94949843Y-97832228D01*
X94949843Y-97832228D02*
X94806986Y-97760800D01*
X94806986Y-97760800D02*
X94735558Y-97617943D01*
X94735558Y-97617943D02*
X94735558Y-97260800D01*
X94735558Y-97260800D02*
X94664129Y-97117943D01*
X95306986Y-96403657D02*
X93806986Y-96403657D01*
X95306986Y-95760800D02*
X94521272Y-95760800D01*
X94521272Y-95760800D02*
X94378415Y-95832228D01*
X94378415Y-95832228D02*
X94306986Y-95975085D01*
X94306986Y-95975085D02*
X94306986Y-96189371D01*
X94306986Y-96189371D02*
X94378415Y-96332228D01*
X94378415Y-96332228D02*
X94449843Y-96403657D01*
X95306986Y-93903657D02*
X93806986Y-93903657D01*
X93806986Y-93903657D02*
X93806986Y-93332228D01*
X93806986Y-93332228D02*
X93878415Y-93189371D01*
X93878415Y-93189371D02*
X93949843Y-93117942D01*
X93949843Y-93117942D02*
X94092700Y-93046514D01*
X94092700Y-93046514D02*
X94306986Y-93046514D01*
X94306986Y-93046514D02*
X94449843Y-93117942D01*
X94449843Y-93117942D02*
X94521272Y-93189371D01*
X94521272Y-93189371D02*
X94592700Y-93332228D01*
X94592700Y-93332228D02*
X94592700Y-93903657D01*
X95306986Y-91760800D02*
X94521272Y-91760800D01*
X94521272Y-91760800D02*
X94378415Y-91832228D01*
X94378415Y-91832228D02*
X94306986Y-91975085D01*
X94306986Y-91975085D02*
X94306986Y-92260800D01*
X94306986Y-92260800D02*
X94378415Y-92403657D01*
X95235558Y-91760800D02*
X95306986Y-91903657D01*
X95306986Y-91903657D02*
X95306986Y-92260800D01*
X95306986Y-92260800D02*
X95235558Y-92403657D01*
X95235558Y-92403657D02*
X95092700Y-92475085D01*
X95092700Y-92475085D02*
X94949843Y-92475085D01*
X94949843Y-92475085D02*
X94806986Y-92403657D01*
X94806986Y-92403657D02*
X94735558Y-92260800D01*
X94735558Y-92260800D02*
X94735558Y-91903657D01*
X94735558Y-91903657D02*
X94664129Y-91760800D01*
X95306986Y-90832228D02*
X95235558Y-90975085D01*
X95235558Y-90975085D02*
X95092700Y-91046514D01*
X95092700Y-91046514D02*
X93806986Y-91046514D01*
X95306986Y-89617943D02*
X94521272Y-89617943D01*
X94521272Y-89617943D02*
X94378415Y-89689371D01*
X94378415Y-89689371D02*
X94306986Y-89832228D01*
X94306986Y-89832228D02*
X94306986Y-90117943D01*
X94306986Y-90117943D02*
X94378415Y-90260800D01*
X95235558Y-89617943D02*
X95306986Y-89760800D01*
X95306986Y-89760800D02*
X95306986Y-90117943D01*
X95306986Y-90117943D02*
X95235558Y-90260800D01*
X95235558Y-90260800D02*
X95092700Y-90332228D01*
X95092700Y-90332228D02*
X94949843Y-90332228D01*
X94949843Y-90332228D02*
X94806986Y-90260800D01*
X94806986Y-90260800D02*
X94735558Y-90117943D01*
X94735558Y-90117943D02*
X94735558Y-89760800D01*
X94735558Y-89760800D02*
X94664129Y-89617943D01*
X95306986Y-88260800D02*
X93806986Y-88260800D01*
X95235558Y-88260800D02*
X95306986Y-88403657D01*
X95306986Y-88403657D02*
X95306986Y-88689371D01*
X95306986Y-88689371D02*
X95235558Y-88832228D01*
X95235558Y-88832228D02*
X95164129Y-88903657D01*
X95164129Y-88903657D02*
X95021272Y-88975085D01*
X95021272Y-88975085D02*
X94592700Y-88975085D01*
X94592700Y-88975085D02*
X94449843Y-88903657D01*
X94449843Y-88903657D02*
X94378415Y-88832228D01*
X94378415Y-88832228D02*
X94306986Y-88689371D01*
X94306986Y-88689371D02*
X94306986Y-88403657D01*
X94306986Y-88403657D02*
X94378415Y-88260800D01*
X95306986Y-87546514D02*
X94306986Y-87546514D01*
X93806986Y-87546514D02*
X93878415Y-87617942D01*
X93878415Y-87617942D02*
X93949843Y-87546514D01*
X93949843Y-87546514D02*
X93878415Y-87475085D01*
X93878415Y-87475085D02*
X93806986Y-87546514D01*
X93806986Y-87546514D02*
X93949843Y-87546514D01*
X94306986Y-86832228D02*
X95306986Y-86832228D01*
X94449843Y-86832228D02*
X94378415Y-86760799D01*
X94378415Y-86760799D02*
X94306986Y-86617942D01*
X94306986Y-86617942D02*
X94306986Y-86403656D01*
X94306986Y-86403656D02*
X94378415Y-86260799D01*
X94378415Y-86260799D02*
X94521272Y-86189371D01*
X94521272Y-86189371D02*
X95306986Y-86189371D01*
X95306986Y-85260799D02*
X95235558Y-85403656D01*
X95235558Y-85403656D02*
X95164129Y-85475085D01*
X95164129Y-85475085D02*
X95021272Y-85546513D01*
X95021272Y-85546513D02*
X94592700Y-85546513D01*
X94592700Y-85546513D02*
X94449843Y-85475085D01*
X94449843Y-85475085D02*
X94378415Y-85403656D01*
X94378415Y-85403656D02*
X94306986Y-85260799D01*
X94306986Y-85260799D02*
X94306986Y-85046513D01*
X94306986Y-85046513D02*
X94378415Y-84903656D01*
X94378415Y-84903656D02*
X94449843Y-84832228D01*
X94449843Y-84832228D02*
X94592700Y-84760799D01*
X94592700Y-84760799D02*
X95021272Y-84760799D01*
X95021272Y-84760799D02*
X95164129Y-84832228D01*
X95164129Y-84832228D02*
X95235558Y-84903656D01*
X95235558Y-84903656D02*
X95306986Y-85046513D01*
X95306986Y-85046513D02*
X95306986Y-85260799D01*
D11*
X108007380Y-114016305D02*
X107197857Y-114016305D01*
X107197857Y-114016305D02*
X107102619Y-114063924D01*
X107102619Y-114063924D02*
X107055000Y-114111543D01*
X107055000Y-114111543D02*
X107007380Y-114206781D01*
X107007380Y-114206781D02*
X107007380Y-114397257D01*
X107007380Y-114397257D02*
X107055000Y-114492495D01*
X107055000Y-114492495D02*
X107102619Y-114540114D01*
X107102619Y-114540114D02*
X107197857Y-114587733D01*
X107197857Y-114587733D02*
X108007380Y-114587733D01*
X107007380Y-115587733D02*
X107007380Y-115016305D01*
X107007380Y-115302019D02*
X108007380Y-115302019D01*
X108007380Y-115302019D02*
X107864523Y-115206781D01*
X107864523Y-115206781D02*
X107769285Y-115111543D01*
X107769285Y-115111543D02*
X107721666Y-115016305D01*
X108007380Y-115921067D02*
X108007380Y-116540114D01*
X108007380Y-116540114D02*
X107626428Y-116206781D01*
X107626428Y-116206781D02*
X107626428Y-116349638D01*
X107626428Y-116349638D02*
X107578809Y-116444876D01*
X107578809Y-116444876D02*
X107531190Y-116492495D01*
X107531190Y-116492495D02*
X107435952Y-116540114D01*
X107435952Y-116540114D02*
X107197857Y-116540114D01*
X107197857Y-116540114D02*
X107102619Y-116492495D01*
X107102619Y-116492495D02*
X107055000Y-116444876D01*
X107055000Y-116444876D02*
X107007380Y-116349638D01*
X107007380Y-116349638D02*
X107007380Y-116063924D01*
X107007380Y-116063924D02*
X107055000Y-115968686D01*
X107055000Y-115968686D02*
X107102619Y-115921067D01*
X107969880Y-109671305D02*
X107160357Y-109671305D01*
X107160357Y-109671305D02*
X107065119Y-109718924D01*
X107065119Y-109718924D02*
X107017500Y-109766543D01*
X107017500Y-109766543D02*
X106969880Y-109861781D01*
X106969880Y-109861781D02*
X106969880Y-110052257D01*
X106969880Y-110052257D02*
X107017500Y-110147495D01*
X107017500Y-110147495D02*
X107065119Y-110195114D01*
X107065119Y-110195114D02*
X107160357Y-110242733D01*
X107160357Y-110242733D02*
X107969880Y-110242733D01*
X106969880Y-111242733D02*
X106969880Y-110671305D01*
X106969880Y-110957019D02*
X107969880Y-110957019D01*
X107969880Y-110957019D02*
X107827023Y-110861781D01*
X107827023Y-110861781D02*
X107731785Y-110766543D01*
X107731785Y-110766543D02*
X107684166Y-110671305D01*
X107874642Y-111623686D02*
X107922261Y-111671305D01*
X107922261Y-111671305D02*
X107969880Y-111766543D01*
X107969880Y-111766543D02*
X107969880Y-112004638D01*
X107969880Y-112004638D02*
X107922261Y-112099876D01*
X107922261Y-112099876D02*
X107874642Y-112147495D01*
X107874642Y-112147495D02*
X107779404Y-112195114D01*
X107779404Y-112195114D02*
X107684166Y-112195114D01*
X107684166Y-112195114D02*
X107541309Y-112147495D01*
X107541309Y-112147495D02*
X106969880Y-111576067D01*
X106969880Y-111576067D02*
X106969880Y-112195114D01*
X107969880Y-105433605D02*
X107160357Y-105433605D01*
X107160357Y-105433605D02*
X107065119Y-105481224D01*
X107065119Y-105481224D02*
X107017500Y-105528843D01*
X107017500Y-105528843D02*
X106969880Y-105624081D01*
X106969880Y-105624081D02*
X106969880Y-105814557D01*
X106969880Y-105814557D02*
X107017500Y-105909795D01*
X107017500Y-105909795D02*
X107065119Y-105957414D01*
X107065119Y-105957414D02*
X107160357Y-106005033D01*
X107160357Y-106005033D02*
X107969880Y-106005033D01*
X106969880Y-107005033D02*
X106969880Y-106433605D01*
X106969880Y-106719319D02*
X107969880Y-106719319D01*
X107969880Y-106719319D02*
X107827023Y-106624081D01*
X107827023Y-106624081D02*
X107731785Y-106528843D01*
X107731785Y-106528843D02*
X107684166Y-106433605D01*
X106969880Y-107957414D02*
X106969880Y-107385986D01*
X106969880Y-107671700D02*
X107969880Y-107671700D01*
X107969880Y-107671700D02*
X107827023Y-107576462D01*
X107827023Y-107576462D02*
X107731785Y-107481224D01*
X107731785Y-107481224D02*
X107684166Y-107385986D01*
X107962380Y-101278805D02*
X107152857Y-101278805D01*
X107152857Y-101278805D02*
X107057619Y-101326424D01*
X107057619Y-101326424D02*
X107010000Y-101374043D01*
X107010000Y-101374043D02*
X106962380Y-101469281D01*
X106962380Y-101469281D02*
X106962380Y-101659757D01*
X106962380Y-101659757D02*
X107010000Y-101754995D01*
X107010000Y-101754995D02*
X107057619Y-101802614D01*
X107057619Y-101802614D02*
X107152857Y-101850233D01*
X107152857Y-101850233D02*
X107962380Y-101850233D01*
X106962380Y-102850233D02*
X106962380Y-102278805D01*
X106962380Y-102564519D02*
X107962380Y-102564519D01*
X107962380Y-102564519D02*
X107819523Y-102469281D01*
X107819523Y-102469281D02*
X107724285Y-102374043D01*
X107724285Y-102374043D02*
X107676666Y-102278805D01*
X107962380Y-103469281D02*
X107962380Y-103564519D01*
X107962380Y-103564519D02*
X107914761Y-103659757D01*
X107914761Y-103659757D02*
X107867142Y-103707376D01*
X107867142Y-103707376D02*
X107771904Y-103754995D01*
X107771904Y-103754995D02*
X107581428Y-103802614D01*
X107581428Y-103802614D02*
X107343333Y-103802614D01*
X107343333Y-103802614D02*
X107152857Y-103754995D01*
X107152857Y-103754995D02*
X107057619Y-103707376D01*
X107057619Y-103707376D02*
X107010000Y-103659757D01*
X107010000Y-103659757D02*
X106962380Y-103564519D01*
X106962380Y-103564519D02*
X106962380Y-103469281D01*
X106962380Y-103469281D02*
X107010000Y-103374043D01*
X107010000Y-103374043D02*
X107057619Y-103326424D01*
X107057619Y-103326424D02*
X107152857Y-103278805D01*
X107152857Y-103278805D02*
X107343333Y-103231186D01*
X107343333Y-103231186D02*
X107581428Y-103231186D01*
X107581428Y-103231186D02*
X107771904Y-103278805D01*
X107771904Y-103278805D02*
X107867142Y-103326424D01*
X107867142Y-103326424D02*
X107914761Y-103374043D01*
X107914761Y-103374043D02*
X107962380Y-103469281D01*
X107915230Y-97427845D02*
X107105707Y-97427845D01*
X107105707Y-97427845D02*
X107010469Y-97475464D01*
X107010469Y-97475464D02*
X106962850Y-97523083D01*
X106962850Y-97523083D02*
X106915230Y-97618321D01*
X106915230Y-97618321D02*
X106915230Y-97808797D01*
X106915230Y-97808797D02*
X106962850Y-97904035D01*
X106962850Y-97904035D02*
X107010469Y-97951654D01*
X107010469Y-97951654D02*
X107105707Y-97999273D01*
X107105707Y-97999273D02*
X107915230Y-97999273D01*
X106915230Y-98523083D02*
X106915230Y-98713559D01*
X106915230Y-98713559D02*
X106962850Y-98808797D01*
X106962850Y-98808797D02*
X107010469Y-98856416D01*
X107010469Y-98856416D02*
X107153326Y-98951654D01*
X107153326Y-98951654D02*
X107343802Y-98999273D01*
X107343802Y-98999273D02*
X107724754Y-98999273D01*
X107724754Y-98999273D02*
X107819992Y-98951654D01*
X107819992Y-98951654D02*
X107867611Y-98904035D01*
X107867611Y-98904035D02*
X107915230Y-98808797D01*
X107915230Y-98808797D02*
X107915230Y-98618321D01*
X107915230Y-98618321D02*
X107867611Y-98523083D01*
X107867611Y-98523083D02*
X107819992Y-98475464D01*
X107819992Y-98475464D02*
X107724754Y-98427845D01*
X107724754Y-98427845D02*
X107486659Y-98427845D01*
X107486659Y-98427845D02*
X107391421Y-98475464D01*
X107391421Y-98475464D02*
X107343802Y-98523083D01*
X107343802Y-98523083D02*
X107296183Y-98618321D01*
X107296183Y-98618321D02*
X107296183Y-98808797D01*
X107296183Y-98808797D02*
X107343802Y-98904035D01*
X107343802Y-98904035D02*
X107391421Y-98951654D01*
X107391421Y-98951654D02*
X107486659Y-98999273D01*
X107962380Y-93281595D02*
X107152857Y-93281595D01*
X107152857Y-93281595D02*
X107057619Y-93329214D01*
X107057619Y-93329214D02*
X107010000Y-93376833D01*
X107010000Y-93376833D02*
X106962380Y-93472071D01*
X106962380Y-93472071D02*
X106962380Y-93662547D01*
X106962380Y-93662547D02*
X107010000Y-93757785D01*
X107010000Y-93757785D02*
X107057619Y-93805404D01*
X107057619Y-93805404D02*
X107152857Y-93853023D01*
X107152857Y-93853023D02*
X107962380Y-93853023D01*
X107533809Y-94472071D02*
X107581428Y-94376833D01*
X107581428Y-94376833D02*
X107629047Y-94329214D01*
X107629047Y-94329214D02*
X107724285Y-94281595D01*
X107724285Y-94281595D02*
X107771904Y-94281595D01*
X107771904Y-94281595D02*
X107867142Y-94329214D01*
X107867142Y-94329214D02*
X107914761Y-94376833D01*
X107914761Y-94376833D02*
X107962380Y-94472071D01*
X107962380Y-94472071D02*
X107962380Y-94662547D01*
X107962380Y-94662547D02*
X107914761Y-94757785D01*
X107914761Y-94757785D02*
X107867142Y-94805404D01*
X107867142Y-94805404D02*
X107771904Y-94853023D01*
X107771904Y-94853023D02*
X107724285Y-94853023D01*
X107724285Y-94853023D02*
X107629047Y-94805404D01*
X107629047Y-94805404D02*
X107581428Y-94757785D01*
X107581428Y-94757785D02*
X107533809Y-94662547D01*
X107533809Y-94662547D02*
X107533809Y-94472071D01*
X107533809Y-94472071D02*
X107486190Y-94376833D01*
X107486190Y-94376833D02*
X107438571Y-94329214D01*
X107438571Y-94329214D02*
X107343333Y-94281595D01*
X107343333Y-94281595D02*
X107152857Y-94281595D01*
X107152857Y-94281595D02*
X107057619Y-94329214D01*
X107057619Y-94329214D02*
X107010000Y-94376833D01*
X107010000Y-94376833D02*
X106962380Y-94472071D01*
X106962380Y-94472071D02*
X106962380Y-94662547D01*
X106962380Y-94662547D02*
X107010000Y-94757785D01*
X107010000Y-94757785D02*
X107057619Y-94805404D01*
X107057619Y-94805404D02*
X107152857Y-94853023D01*
X107152857Y-94853023D02*
X107343333Y-94853023D01*
X107343333Y-94853023D02*
X107438571Y-94805404D01*
X107438571Y-94805404D02*
X107486190Y-94757785D01*
X107486190Y-94757785D02*
X107533809Y-94662547D01*
X107915230Y-89181395D02*
X107105707Y-89181395D01*
X107105707Y-89181395D02*
X107010469Y-89229014D01*
X107010469Y-89229014D02*
X106962850Y-89276633D01*
X106962850Y-89276633D02*
X106915230Y-89371871D01*
X106915230Y-89371871D02*
X106915230Y-89562347D01*
X106915230Y-89562347D02*
X106962850Y-89657585D01*
X106962850Y-89657585D02*
X107010469Y-89705204D01*
X107010469Y-89705204D02*
X107105707Y-89752823D01*
X107105707Y-89752823D02*
X107915230Y-89752823D01*
X107915230Y-90133776D02*
X107915230Y-90800442D01*
X107915230Y-90800442D02*
X106915230Y-90371871D01*
X107915230Y-85064095D02*
X107105707Y-85064095D01*
X107105707Y-85064095D02*
X107010469Y-85111714D01*
X107010469Y-85111714D02*
X106962850Y-85159333D01*
X106962850Y-85159333D02*
X106915230Y-85254571D01*
X106915230Y-85254571D02*
X106915230Y-85445047D01*
X106915230Y-85445047D02*
X106962850Y-85540285D01*
X106962850Y-85540285D02*
X107010469Y-85587904D01*
X107010469Y-85587904D02*
X107105707Y-85635523D01*
X107105707Y-85635523D02*
X107915230Y-85635523D01*
X107915230Y-86540285D02*
X107915230Y-86349809D01*
X107915230Y-86349809D02*
X107867611Y-86254571D01*
X107867611Y-86254571D02*
X107819992Y-86206952D01*
X107819992Y-86206952D02*
X107677135Y-86111714D01*
X107677135Y-86111714D02*
X107486659Y-86064095D01*
X107486659Y-86064095D02*
X107105707Y-86064095D01*
X107105707Y-86064095D02*
X107010469Y-86111714D01*
X107010469Y-86111714D02*
X106962850Y-86159333D01*
X106962850Y-86159333D02*
X106915230Y-86254571D01*
X106915230Y-86254571D02*
X106915230Y-86445047D01*
X106915230Y-86445047D02*
X106962850Y-86540285D01*
X106962850Y-86540285D02*
X107010469Y-86587904D01*
X107010469Y-86587904D02*
X107105707Y-86635523D01*
X107105707Y-86635523D02*
X107343802Y-86635523D01*
X107343802Y-86635523D02*
X107439040Y-86587904D01*
X107439040Y-86587904D02*
X107486659Y-86540285D01*
X107486659Y-86540285D02*
X107534278Y-86445047D01*
X107534278Y-86445047D02*
X107534278Y-86254571D01*
X107534278Y-86254571D02*
X107486659Y-86159333D01*
X107486659Y-86159333D02*
X107439040Y-86111714D01*
X107439040Y-86111714D02*
X107343802Y-86064095D01*
X79920180Y-65595595D02*
X79110657Y-65595595D01*
X79110657Y-65595595D02*
X79015419Y-65643214D01*
X79015419Y-65643214D02*
X78967800Y-65690833D01*
X78967800Y-65690833D02*
X78920180Y-65786071D01*
X78920180Y-65786071D02*
X78920180Y-65976547D01*
X78920180Y-65976547D02*
X78967800Y-66071785D01*
X78967800Y-66071785D02*
X79015419Y-66119404D01*
X79015419Y-66119404D02*
X79110657Y-66167023D01*
X79110657Y-66167023D02*
X79920180Y-66167023D01*
X79920180Y-67119404D02*
X79920180Y-66643214D01*
X79920180Y-66643214D02*
X79443990Y-66595595D01*
X79443990Y-66595595D02*
X79491609Y-66643214D01*
X79491609Y-66643214D02*
X79539228Y-66738452D01*
X79539228Y-66738452D02*
X79539228Y-66976547D01*
X79539228Y-66976547D02*
X79491609Y-67071785D01*
X79491609Y-67071785D02*
X79443990Y-67119404D01*
X79443990Y-67119404D02*
X79348752Y-67167023D01*
X79348752Y-67167023D02*
X79110657Y-67167023D01*
X79110657Y-67167023D02*
X79015419Y-67119404D01*
X79015419Y-67119404D02*
X78967800Y-67071785D01*
X78967800Y-67071785D02*
X78920180Y-66976547D01*
X78920180Y-66976547D02*
X78920180Y-66738452D01*
X78920180Y-66738452D02*
X78967800Y-66643214D01*
X78967800Y-66643214D02*
X79015419Y-66595595D01*
X87756904Y-82460180D02*
X87756904Y-81650657D01*
X87756904Y-81650657D02*
X87709285Y-81555419D01*
X87709285Y-81555419D02*
X87661666Y-81507800D01*
X87661666Y-81507800D02*
X87566428Y-81460180D01*
X87566428Y-81460180D02*
X87375952Y-81460180D01*
X87375952Y-81460180D02*
X87280714Y-81507800D01*
X87280714Y-81507800D02*
X87233095Y-81555419D01*
X87233095Y-81555419D02*
X87185476Y-81650657D01*
X87185476Y-81650657D02*
X87185476Y-82460180D01*
X86280714Y-82126847D02*
X86280714Y-81460180D01*
X86518809Y-82507800D02*
X86756904Y-81793514D01*
X86756904Y-81793514D02*
X86137857Y-81793514D01*
X72935180Y-65595595D02*
X72125657Y-65595595D01*
X72125657Y-65595595D02*
X72030419Y-65643214D01*
X72030419Y-65643214D02*
X71982800Y-65690833D01*
X71982800Y-65690833D02*
X71935180Y-65786071D01*
X71935180Y-65786071D02*
X71935180Y-65976547D01*
X71935180Y-65976547D02*
X71982800Y-66071785D01*
X71982800Y-66071785D02*
X72030419Y-66119404D01*
X72030419Y-66119404D02*
X72125657Y-66167023D01*
X72125657Y-66167023D02*
X72935180Y-66167023D01*
X72935180Y-66547976D02*
X72935180Y-67167023D01*
X72935180Y-67167023D02*
X72554228Y-66833690D01*
X72554228Y-66833690D02*
X72554228Y-66976547D01*
X72554228Y-66976547D02*
X72506609Y-67071785D01*
X72506609Y-67071785D02*
X72458990Y-67119404D01*
X72458990Y-67119404D02*
X72363752Y-67167023D01*
X72363752Y-67167023D02*
X72125657Y-67167023D01*
X72125657Y-67167023D02*
X72030419Y-67119404D01*
X72030419Y-67119404D02*
X71982800Y-67071785D01*
X71982800Y-67071785D02*
X71935180Y-66976547D01*
X71935180Y-66976547D02*
X71935180Y-66690833D01*
X71935180Y-66690833D02*
X71982800Y-66595595D01*
X71982800Y-66595595D02*
X72030419Y-66547976D01*
X87756904Y-90715180D02*
X87756904Y-89905657D01*
X87756904Y-89905657D02*
X87709285Y-89810419D01*
X87709285Y-89810419D02*
X87661666Y-89762800D01*
X87661666Y-89762800D02*
X87566428Y-89715180D01*
X87566428Y-89715180D02*
X87375952Y-89715180D01*
X87375952Y-89715180D02*
X87280714Y-89762800D01*
X87280714Y-89762800D02*
X87233095Y-89810419D01*
X87233095Y-89810419D02*
X87185476Y-89905657D01*
X87185476Y-89905657D02*
X87185476Y-90715180D01*
X86756904Y-90619942D02*
X86709285Y-90667561D01*
X86709285Y-90667561D02*
X86614047Y-90715180D01*
X86614047Y-90715180D02*
X86375952Y-90715180D01*
X86375952Y-90715180D02*
X86280714Y-90667561D01*
X86280714Y-90667561D02*
X86233095Y-90619942D01*
X86233095Y-90619942D02*
X86185476Y-90524704D01*
X86185476Y-90524704D02*
X86185476Y-90429466D01*
X86185476Y-90429466D02*
X86233095Y-90286609D01*
X86233095Y-90286609D02*
X86804523Y-89715180D01*
X86804523Y-89715180D02*
X86185476Y-89715180D01*
X108724342Y-113893119D02*
X108391009Y-113416928D01*
X108152914Y-113893119D02*
X108152914Y-112893119D01*
X108152914Y-112893119D02*
X108533866Y-112893119D01*
X108533866Y-112893119D02*
X108629104Y-112940738D01*
X108629104Y-112940738D02*
X108676723Y-112988357D01*
X108676723Y-112988357D02*
X108724342Y-113083595D01*
X108724342Y-113083595D02*
X108724342Y-113226452D01*
X108724342Y-113226452D02*
X108676723Y-113321690D01*
X108676723Y-113321690D02*
X108629104Y-113369309D01*
X108629104Y-113369309D02*
X108533866Y-113416928D01*
X108533866Y-113416928D02*
X108152914Y-113416928D01*
X109676723Y-113893119D02*
X109105295Y-113893119D01*
X109391009Y-113893119D02*
X109391009Y-112893119D01*
X109391009Y-112893119D02*
X109295771Y-113035976D01*
X109295771Y-113035976D02*
X109200533Y-113131214D01*
X109200533Y-113131214D02*
X109105295Y-113178833D01*
X110533866Y-112893119D02*
X110343390Y-112893119D01*
X110343390Y-112893119D02*
X110248152Y-112940738D01*
X110248152Y-112940738D02*
X110200533Y-112988357D01*
X110200533Y-112988357D02*
X110105295Y-113131214D01*
X110105295Y-113131214D02*
X110057676Y-113321690D01*
X110057676Y-113321690D02*
X110057676Y-113702642D01*
X110057676Y-113702642D02*
X110105295Y-113797880D01*
X110105295Y-113797880D02*
X110152914Y-113845500D01*
X110152914Y-113845500D02*
X110248152Y-113893119D01*
X110248152Y-113893119D02*
X110438628Y-113893119D01*
X110438628Y-113893119D02*
X110533866Y-113845500D01*
X110533866Y-113845500D02*
X110581485Y-113797880D01*
X110581485Y-113797880D02*
X110629104Y-113702642D01*
X110629104Y-113702642D02*
X110629104Y-113464547D01*
X110629104Y-113464547D02*
X110581485Y-113369309D01*
X110581485Y-113369309D02*
X110533866Y-113321690D01*
X110533866Y-113321690D02*
X110438628Y-113274071D01*
X110438628Y-113274071D02*
X110248152Y-113274071D01*
X110248152Y-113274071D02*
X110152914Y-113321690D01*
X110152914Y-113321690D02*
X110105295Y-113369309D01*
X110105295Y-113369309D02*
X110057676Y-113464547D01*
X108686842Y-109548119D02*
X108353509Y-109071928D01*
X108115414Y-109548119D02*
X108115414Y-108548119D01*
X108115414Y-108548119D02*
X108496366Y-108548119D01*
X108496366Y-108548119D02*
X108591604Y-108595738D01*
X108591604Y-108595738D02*
X108639223Y-108643357D01*
X108639223Y-108643357D02*
X108686842Y-108738595D01*
X108686842Y-108738595D02*
X108686842Y-108881452D01*
X108686842Y-108881452D02*
X108639223Y-108976690D01*
X108639223Y-108976690D02*
X108591604Y-109024309D01*
X108591604Y-109024309D02*
X108496366Y-109071928D01*
X108496366Y-109071928D02*
X108115414Y-109071928D01*
X109639223Y-109548119D02*
X109067795Y-109548119D01*
X109353509Y-109548119D02*
X109353509Y-108548119D01*
X109353509Y-108548119D02*
X109258271Y-108690976D01*
X109258271Y-108690976D02*
X109163033Y-108786214D01*
X109163033Y-108786214D02*
X109067795Y-108833833D01*
X110543985Y-108548119D02*
X110067795Y-108548119D01*
X110067795Y-108548119D02*
X110020176Y-109024309D01*
X110020176Y-109024309D02*
X110067795Y-108976690D01*
X110067795Y-108976690D02*
X110163033Y-108929071D01*
X110163033Y-108929071D02*
X110401128Y-108929071D01*
X110401128Y-108929071D02*
X110496366Y-108976690D01*
X110496366Y-108976690D02*
X110543985Y-109024309D01*
X110543985Y-109024309D02*
X110591604Y-109119547D01*
X110591604Y-109119547D02*
X110591604Y-109357642D01*
X110591604Y-109357642D02*
X110543985Y-109452880D01*
X110543985Y-109452880D02*
X110496366Y-109500500D01*
X110496366Y-109500500D02*
X110401128Y-109548119D01*
X110401128Y-109548119D02*
X110163033Y-109548119D01*
X110163033Y-109548119D02*
X110067795Y-109500500D01*
X110067795Y-109500500D02*
X110020176Y-109452880D01*
X108686842Y-105310419D02*
X108353509Y-104834228D01*
X108115414Y-105310419D02*
X108115414Y-104310419D01*
X108115414Y-104310419D02*
X108496366Y-104310419D01*
X108496366Y-104310419D02*
X108591604Y-104358038D01*
X108591604Y-104358038D02*
X108639223Y-104405657D01*
X108639223Y-104405657D02*
X108686842Y-104500895D01*
X108686842Y-104500895D02*
X108686842Y-104643752D01*
X108686842Y-104643752D02*
X108639223Y-104738990D01*
X108639223Y-104738990D02*
X108591604Y-104786609D01*
X108591604Y-104786609D02*
X108496366Y-104834228D01*
X108496366Y-104834228D02*
X108115414Y-104834228D01*
X109639223Y-105310419D02*
X109067795Y-105310419D01*
X109353509Y-105310419D02*
X109353509Y-104310419D01*
X109353509Y-104310419D02*
X109258271Y-104453276D01*
X109258271Y-104453276D02*
X109163033Y-104548514D01*
X109163033Y-104548514D02*
X109067795Y-104596133D01*
X110496366Y-104643752D02*
X110496366Y-105310419D01*
X110258271Y-104262800D02*
X110020176Y-104977085D01*
X110020176Y-104977085D02*
X110639223Y-104977085D01*
X108679342Y-101155619D02*
X108346009Y-100679428D01*
X108107914Y-101155619D02*
X108107914Y-100155619D01*
X108107914Y-100155619D02*
X108488866Y-100155619D01*
X108488866Y-100155619D02*
X108584104Y-100203238D01*
X108584104Y-100203238D02*
X108631723Y-100250857D01*
X108631723Y-100250857D02*
X108679342Y-100346095D01*
X108679342Y-100346095D02*
X108679342Y-100488952D01*
X108679342Y-100488952D02*
X108631723Y-100584190D01*
X108631723Y-100584190D02*
X108584104Y-100631809D01*
X108584104Y-100631809D02*
X108488866Y-100679428D01*
X108488866Y-100679428D02*
X108107914Y-100679428D01*
X109631723Y-101155619D02*
X109060295Y-101155619D01*
X109346009Y-101155619D02*
X109346009Y-100155619D01*
X109346009Y-100155619D02*
X109250771Y-100298476D01*
X109250771Y-100298476D02*
X109155533Y-100393714D01*
X109155533Y-100393714D02*
X109060295Y-100441333D01*
X109965057Y-100155619D02*
X110584104Y-100155619D01*
X110584104Y-100155619D02*
X110250771Y-100536571D01*
X110250771Y-100536571D02*
X110393628Y-100536571D01*
X110393628Y-100536571D02*
X110488866Y-100584190D01*
X110488866Y-100584190D02*
X110536485Y-100631809D01*
X110536485Y-100631809D02*
X110584104Y-100727047D01*
X110584104Y-100727047D02*
X110584104Y-100965142D01*
X110584104Y-100965142D02*
X110536485Y-101060380D01*
X110536485Y-101060380D02*
X110488866Y-101108000D01*
X110488866Y-101108000D02*
X110393628Y-101155619D01*
X110393628Y-101155619D02*
X110107914Y-101155619D01*
X110107914Y-101155619D02*
X110012676Y-101108000D01*
X110012676Y-101108000D02*
X109965057Y-101060380D01*
X108632192Y-96828469D02*
X108298859Y-96352278D01*
X108060764Y-96828469D02*
X108060764Y-95828469D01*
X108060764Y-95828469D02*
X108441716Y-95828469D01*
X108441716Y-95828469D02*
X108536954Y-95876088D01*
X108536954Y-95876088D02*
X108584573Y-95923707D01*
X108584573Y-95923707D02*
X108632192Y-96018945D01*
X108632192Y-96018945D02*
X108632192Y-96161802D01*
X108632192Y-96161802D02*
X108584573Y-96257040D01*
X108584573Y-96257040D02*
X108536954Y-96304659D01*
X108536954Y-96304659D02*
X108441716Y-96352278D01*
X108441716Y-96352278D02*
X108060764Y-96352278D01*
X109584573Y-96828469D02*
X109013145Y-96828469D01*
X109298859Y-96828469D02*
X109298859Y-95828469D01*
X109298859Y-95828469D02*
X109203621Y-95971326D01*
X109203621Y-95971326D02*
X109108383Y-96066564D01*
X109108383Y-96066564D02*
X109013145Y-96114183D01*
X109965526Y-95923707D02*
X110013145Y-95876088D01*
X110013145Y-95876088D02*
X110108383Y-95828469D01*
X110108383Y-95828469D02*
X110346478Y-95828469D01*
X110346478Y-95828469D02*
X110441716Y-95876088D01*
X110441716Y-95876088D02*
X110489335Y-95923707D01*
X110489335Y-95923707D02*
X110536954Y-96018945D01*
X110536954Y-96018945D02*
X110536954Y-96114183D01*
X110536954Y-96114183D02*
X110489335Y-96257040D01*
X110489335Y-96257040D02*
X109917907Y-96828469D01*
X109917907Y-96828469D02*
X110536954Y-96828469D01*
X108679342Y-92682219D02*
X108346009Y-92206028D01*
X108107914Y-92682219D02*
X108107914Y-91682219D01*
X108107914Y-91682219D02*
X108488866Y-91682219D01*
X108488866Y-91682219D02*
X108584104Y-91729838D01*
X108584104Y-91729838D02*
X108631723Y-91777457D01*
X108631723Y-91777457D02*
X108679342Y-91872695D01*
X108679342Y-91872695D02*
X108679342Y-92015552D01*
X108679342Y-92015552D02*
X108631723Y-92110790D01*
X108631723Y-92110790D02*
X108584104Y-92158409D01*
X108584104Y-92158409D02*
X108488866Y-92206028D01*
X108488866Y-92206028D02*
X108107914Y-92206028D01*
X109631723Y-92682219D02*
X109060295Y-92682219D01*
X109346009Y-92682219D02*
X109346009Y-91682219D01*
X109346009Y-91682219D02*
X109250771Y-91825076D01*
X109250771Y-91825076D02*
X109155533Y-91920314D01*
X109155533Y-91920314D02*
X109060295Y-91967933D01*
X110584104Y-92682219D02*
X110012676Y-92682219D01*
X110298390Y-92682219D02*
X110298390Y-91682219D01*
X110298390Y-91682219D02*
X110203152Y-91825076D01*
X110203152Y-91825076D02*
X110107914Y-91920314D01*
X110107914Y-91920314D02*
X110012676Y-91967933D01*
X108632192Y-88582019D02*
X108298859Y-88105828D01*
X108060764Y-88582019D02*
X108060764Y-87582019D01*
X108060764Y-87582019D02*
X108441716Y-87582019D01*
X108441716Y-87582019D02*
X108536954Y-87629638D01*
X108536954Y-87629638D02*
X108584573Y-87677257D01*
X108584573Y-87677257D02*
X108632192Y-87772495D01*
X108632192Y-87772495D02*
X108632192Y-87915352D01*
X108632192Y-87915352D02*
X108584573Y-88010590D01*
X108584573Y-88010590D02*
X108536954Y-88058209D01*
X108536954Y-88058209D02*
X108441716Y-88105828D01*
X108441716Y-88105828D02*
X108060764Y-88105828D01*
X109584573Y-88582019D02*
X109013145Y-88582019D01*
X109298859Y-88582019D02*
X109298859Y-87582019D01*
X109298859Y-87582019D02*
X109203621Y-87724876D01*
X109203621Y-87724876D02*
X109108383Y-87820114D01*
X109108383Y-87820114D02*
X109013145Y-87867733D01*
X110203621Y-87582019D02*
X110298859Y-87582019D01*
X110298859Y-87582019D02*
X110394097Y-87629638D01*
X110394097Y-87629638D02*
X110441716Y-87677257D01*
X110441716Y-87677257D02*
X110489335Y-87772495D01*
X110489335Y-87772495D02*
X110536954Y-87962971D01*
X110536954Y-87962971D02*
X110536954Y-88201066D01*
X110536954Y-88201066D02*
X110489335Y-88391542D01*
X110489335Y-88391542D02*
X110441716Y-88486780D01*
X110441716Y-88486780D02*
X110394097Y-88534400D01*
X110394097Y-88534400D02*
X110298859Y-88582019D01*
X110298859Y-88582019D02*
X110203621Y-88582019D01*
X110203621Y-88582019D02*
X110108383Y-88534400D01*
X110108383Y-88534400D02*
X110060764Y-88486780D01*
X110060764Y-88486780D02*
X110013145Y-88391542D01*
X110013145Y-88391542D02*
X109965526Y-88201066D01*
X109965526Y-88201066D02*
X109965526Y-87962971D01*
X109965526Y-87962971D02*
X110013145Y-87772495D01*
X110013145Y-87772495D02*
X110060764Y-87677257D01*
X110060764Y-87677257D02*
X110108383Y-87629638D01*
X110108383Y-87629638D02*
X110203621Y-87582019D01*
X109108383Y-84464719D02*
X108775050Y-83988528D01*
X108536955Y-84464719D02*
X108536955Y-83464719D01*
X108536955Y-83464719D02*
X108917907Y-83464719D01*
X108917907Y-83464719D02*
X109013145Y-83512338D01*
X109013145Y-83512338D02*
X109060764Y-83559957D01*
X109060764Y-83559957D02*
X109108383Y-83655195D01*
X109108383Y-83655195D02*
X109108383Y-83798052D01*
X109108383Y-83798052D02*
X109060764Y-83893290D01*
X109060764Y-83893290D02*
X109013145Y-83940909D01*
X109013145Y-83940909D02*
X108917907Y-83988528D01*
X108917907Y-83988528D02*
X108536955Y-83988528D01*
X109584574Y-84464719D02*
X109775050Y-84464719D01*
X109775050Y-84464719D02*
X109870288Y-84417100D01*
X109870288Y-84417100D02*
X109917907Y-84369480D01*
X109917907Y-84369480D02*
X110013145Y-84226623D01*
X110013145Y-84226623D02*
X110060764Y-84036147D01*
X110060764Y-84036147D02*
X110060764Y-83655195D01*
X110060764Y-83655195D02*
X110013145Y-83559957D01*
X110013145Y-83559957D02*
X109965526Y-83512338D01*
X109965526Y-83512338D02*
X109870288Y-83464719D01*
X109870288Y-83464719D02*
X109679812Y-83464719D01*
X109679812Y-83464719D02*
X109584574Y-83512338D01*
X109584574Y-83512338D02*
X109536955Y-83559957D01*
X109536955Y-83559957D02*
X109489336Y-83655195D01*
X109489336Y-83655195D02*
X109489336Y-83893290D01*
X109489336Y-83893290D02*
X109536955Y-83988528D01*
X109536955Y-83988528D02*
X109584574Y-84036147D01*
X109584574Y-84036147D02*
X109679812Y-84083766D01*
X109679812Y-84083766D02*
X109870288Y-84083766D01*
X109870288Y-84083766D02*
X109965526Y-84036147D01*
X109965526Y-84036147D02*
X110013145Y-83988528D01*
X110013145Y-83988528D02*
X110060764Y-83893290D01*
X113849519Y-116081394D02*
X112849519Y-116081394D01*
X112849519Y-116081394D02*
X112849519Y-115843299D01*
X112849519Y-115843299D02*
X112897138Y-115700442D01*
X112897138Y-115700442D02*
X112992376Y-115605204D01*
X112992376Y-115605204D02*
X113087614Y-115557585D01*
X113087614Y-115557585D02*
X113278090Y-115509966D01*
X113278090Y-115509966D02*
X113420947Y-115509966D01*
X113420947Y-115509966D02*
X113611423Y-115557585D01*
X113611423Y-115557585D02*
X113706661Y-115605204D01*
X113706661Y-115605204D02*
X113801900Y-115700442D01*
X113801900Y-115700442D02*
X113849519Y-115843299D01*
X113849519Y-115843299D02*
X113849519Y-116081394D01*
X113278090Y-114938537D02*
X113230471Y-115033775D01*
X113230471Y-115033775D02*
X113182852Y-115081394D01*
X113182852Y-115081394D02*
X113087614Y-115129013D01*
X113087614Y-115129013D02*
X113039995Y-115129013D01*
X113039995Y-115129013D02*
X112944757Y-115081394D01*
X112944757Y-115081394D02*
X112897138Y-115033775D01*
X112897138Y-115033775D02*
X112849519Y-114938537D01*
X112849519Y-114938537D02*
X112849519Y-114748061D01*
X112849519Y-114748061D02*
X112897138Y-114652823D01*
X112897138Y-114652823D02*
X112944757Y-114605204D01*
X112944757Y-114605204D02*
X113039995Y-114557585D01*
X113039995Y-114557585D02*
X113087614Y-114557585D01*
X113087614Y-114557585D02*
X113182852Y-114605204D01*
X113182852Y-114605204D02*
X113230471Y-114652823D01*
X113230471Y-114652823D02*
X113278090Y-114748061D01*
X113278090Y-114748061D02*
X113278090Y-114938537D01*
X113278090Y-114938537D02*
X113325709Y-115033775D01*
X113325709Y-115033775D02*
X113373328Y-115081394D01*
X113373328Y-115081394D02*
X113468566Y-115129013D01*
X113468566Y-115129013D02*
X113659042Y-115129013D01*
X113659042Y-115129013D02*
X113754280Y-115081394D01*
X113754280Y-115081394D02*
X113801900Y-115033775D01*
X113801900Y-115033775D02*
X113849519Y-114938537D01*
X113849519Y-114938537D02*
X113849519Y-114748061D01*
X113849519Y-114748061D02*
X113801900Y-114652823D01*
X113801900Y-114652823D02*
X113754280Y-114605204D01*
X113754280Y-114605204D02*
X113659042Y-114557585D01*
X113659042Y-114557585D02*
X113468566Y-114557585D01*
X113468566Y-114557585D02*
X113373328Y-114605204D01*
X113373328Y-114605204D02*
X113325709Y-114652823D01*
X113325709Y-114652823D02*
X113278090Y-114748061D01*
X113812019Y-111736394D02*
X112812019Y-111736394D01*
X112812019Y-111736394D02*
X112812019Y-111498299D01*
X112812019Y-111498299D02*
X112859638Y-111355442D01*
X112859638Y-111355442D02*
X112954876Y-111260204D01*
X112954876Y-111260204D02*
X113050114Y-111212585D01*
X113050114Y-111212585D02*
X113240590Y-111164966D01*
X113240590Y-111164966D02*
X113383447Y-111164966D01*
X113383447Y-111164966D02*
X113573923Y-111212585D01*
X113573923Y-111212585D02*
X113669161Y-111260204D01*
X113669161Y-111260204D02*
X113764400Y-111355442D01*
X113764400Y-111355442D02*
X113812019Y-111498299D01*
X113812019Y-111498299D02*
X113812019Y-111736394D01*
X112812019Y-110831632D02*
X112812019Y-110164966D01*
X112812019Y-110164966D02*
X113812019Y-110593537D01*
X113812019Y-107498694D02*
X112812019Y-107498694D01*
X112812019Y-107498694D02*
X112812019Y-107260599D01*
X112812019Y-107260599D02*
X112859638Y-107117742D01*
X112859638Y-107117742D02*
X112954876Y-107022504D01*
X112954876Y-107022504D02*
X113050114Y-106974885D01*
X113050114Y-106974885D02*
X113240590Y-106927266D01*
X113240590Y-106927266D02*
X113383447Y-106927266D01*
X113383447Y-106927266D02*
X113573923Y-106974885D01*
X113573923Y-106974885D02*
X113669161Y-107022504D01*
X113669161Y-107022504D02*
X113764400Y-107117742D01*
X113764400Y-107117742D02*
X113812019Y-107260599D01*
X113812019Y-107260599D02*
X113812019Y-107498694D01*
X112812019Y-106070123D02*
X112812019Y-106260599D01*
X112812019Y-106260599D02*
X112859638Y-106355837D01*
X112859638Y-106355837D02*
X112907257Y-106403456D01*
X112907257Y-106403456D02*
X113050114Y-106498694D01*
X113050114Y-106498694D02*
X113240590Y-106546313D01*
X113240590Y-106546313D02*
X113621542Y-106546313D01*
X113621542Y-106546313D02*
X113716780Y-106498694D01*
X113716780Y-106498694D02*
X113764400Y-106451075D01*
X113764400Y-106451075D02*
X113812019Y-106355837D01*
X113812019Y-106355837D02*
X113812019Y-106165361D01*
X113812019Y-106165361D02*
X113764400Y-106070123D01*
X113764400Y-106070123D02*
X113716780Y-106022504D01*
X113716780Y-106022504D02*
X113621542Y-105974885D01*
X113621542Y-105974885D02*
X113383447Y-105974885D01*
X113383447Y-105974885D02*
X113288209Y-106022504D01*
X113288209Y-106022504D02*
X113240590Y-106070123D01*
X113240590Y-106070123D02*
X113192971Y-106165361D01*
X113192971Y-106165361D02*
X113192971Y-106355837D01*
X113192971Y-106355837D02*
X113240590Y-106451075D01*
X113240590Y-106451075D02*
X113288209Y-106498694D01*
X113288209Y-106498694D02*
X113383447Y-106546313D01*
X113804519Y-103343894D02*
X112804519Y-103343894D01*
X112804519Y-103343894D02*
X112804519Y-103105799D01*
X112804519Y-103105799D02*
X112852138Y-102962942D01*
X112852138Y-102962942D02*
X112947376Y-102867704D01*
X112947376Y-102867704D02*
X113042614Y-102820085D01*
X113042614Y-102820085D02*
X113233090Y-102772466D01*
X113233090Y-102772466D02*
X113375947Y-102772466D01*
X113375947Y-102772466D02*
X113566423Y-102820085D01*
X113566423Y-102820085D02*
X113661661Y-102867704D01*
X113661661Y-102867704D02*
X113756900Y-102962942D01*
X113756900Y-102962942D02*
X113804519Y-103105799D01*
X113804519Y-103105799D02*
X113804519Y-103343894D01*
X112804519Y-101867704D02*
X112804519Y-102343894D01*
X112804519Y-102343894D02*
X113280709Y-102391513D01*
X113280709Y-102391513D02*
X113233090Y-102343894D01*
X113233090Y-102343894D02*
X113185471Y-102248656D01*
X113185471Y-102248656D02*
X113185471Y-102010561D01*
X113185471Y-102010561D02*
X113233090Y-101915323D01*
X113233090Y-101915323D02*
X113280709Y-101867704D01*
X113280709Y-101867704D02*
X113375947Y-101820085D01*
X113375947Y-101820085D02*
X113614042Y-101820085D01*
X113614042Y-101820085D02*
X113709280Y-101867704D01*
X113709280Y-101867704D02*
X113756900Y-101915323D01*
X113756900Y-101915323D02*
X113804519Y-102010561D01*
X113804519Y-102010561D02*
X113804519Y-102248656D01*
X113804519Y-102248656D02*
X113756900Y-102343894D01*
X113756900Y-102343894D02*
X113709280Y-102391513D01*
X113757369Y-99016744D02*
X112757369Y-99016744D01*
X112757369Y-99016744D02*
X112757369Y-98778649D01*
X112757369Y-98778649D02*
X112804988Y-98635792D01*
X112804988Y-98635792D02*
X112900226Y-98540554D01*
X112900226Y-98540554D02*
X112995464Y-98492935D01*
X112995464Y-98492935D02*
X113185940Y-98445316D01*
X113185940Y-98445316D02*
X113328797Y-98445316D01*
X113328797Y-98445316D02*
X113519273Y-98492935D01*
X113519273Y-98492935D02*
X113614511Y-98540554D01*
X113614511Y-98540554D02*
X113709750Y-98635792D01*
X113709750Y-98635792D02*
X113757369Y-98778649D01*
X113757369Y-98778649D02*
X113757369Y-99016744D01*
X113090702Y-97588173D02*
X113757369Y-97588173D01*
X112709750Y-97826268D02*
X113424035Y-98064363D01*
X113424035Y-98064363D02*
X113424035Y-97445316D01*
X113804519Y-94870494D02*
X112804519Y-94870494D01*
X112804519Y-94870494D02*
X112804519Y-94632399D01*
X112804519Y-94632399D02*
X112852138Y-94489542D01*
X112852138Y-94489542D02*
X112947376Y-94394304D01*
X112947376Y-94394304D02*
X113042614Y-94346685D01*
X113042614Y-94346685D02*
X113233090Y-94299066D01*
X113233090Y-94299066D02*
X113375947Y-94299066D01*
X113375947Y-94299066D02*
X113566423Y-94346685D01*
X113566423Y-94346685D02*
X113661661Y-94394304D01*
X113661661Y-94394304D02*
X113756900Y-94489542D01*
X113756900Y-94489542D02*
X113804519Y-94632399D01*
X113804519Y-94632399D02*
X113804519Y-94870494D01*
X112804519Y-93965732D02*
X112804519Y-93346685D01*
X112804519Y-93346685D02*
X113185471Y-93680018D01*
X113185471Y-93680018D02*
X113185471Y-93537161D01*
X113185471Y-93537161D02*
X113233090Y-93441923D01*
X113233090Y-93441923D02*
X113280709Y-93394304D01*
X113280709Y-93394304D02*
X113375947Y-93346685D01*
X113375947Y-93346685D02*
X113614042Y-93346685D01*
X113614042Y-93346685D02*
X113709280Y-93394304D01*
X113709280Y-93394304D02*
X113756900Y-93441923D01*
X113756900Y-93441923D02*
X113804519Y-93537161D01*
X113804519Y-93537161D02*
X113804519Y-93822875D01*
X113804519Y-93822875D02*
X113756900Y-93918113D01*
X113756900Y-93918113D02*
X113709280Y-93965732D01*
X113757369Y-90770294D02*
X112757369Y-90770294D01*
X112757369Y-90770294D02*
X112757369Y-90532199D01*
X112757369Y-90532199D02*
X112804988Y-90389342D01*
X112804988Y-90389342D02*
X112900226Y-90294104D01*
X112900226Y-90294104D02*
X112995464Y-90246485D01*
X112995464Y-90246485D02*
X113185940Y-90198866D01*
X113185940Y-90198866D02*
X113328797Y-90198866D01*
X113328797Y-90198866D02*
X113519273Y-90246485D01*
X113519273Y-90246485D02*
X113614511Y-90294104D01*
X113614511Y-90294104D02*
X113709750Y-90389342D01*
X113709750Y-90389342D02*
X113757369Y-90532199D01*
X113757369Y-90532199D02*
X113757369Y-90770294D01*
X112852607Y-89817913D02*
X112804988Y-89770294D01*
X112804988Y-89770294D02*
X112757369Y-89675056D01*
X112757369Y-89675056D02*
X112757369Y-89436961D01*
X112757369Y-89436961D02*
X112804988Y-89341723D01*
X112804988Y-89341723D02*
X112852607Y-89294104D01*
X112852607Y-89294104D02*
X112947845Y-89246485D01*
X112947845Y-89246485D02*
X113043083Y-89246485D01*
X113043083Y-89246485D02*
X113185940Y-89294104D01*
X113185940Y-89294104D02*
X113757369Y-89865532D01*
X113757369Y-89865532D02*
X113757369Y-89246485D01*
X113757369Y-86652994D02*
X112757369Y-86652994D01*
X112757369Y-86652994D02*
X112757369Y-86414899D01*
X112757369Y-86414899D02*
X112804988Y-86272042D01*
X112804988Y-86272042D02*
X112900226Y-86176804D01*
X112900226Y-86176804D02*
X112995464Y-86129185D01*
X112995464Y-86129185D02*
X113185940Y-86081566D01*
X113185940Y-86081566D02*
X113328797Y-86081566D01*
X113328797Y-86081566D02*
X113519273Y-86129185D01*
X113519273Y-86129185D02*
X113614511Y-86176804D01*
X113614511Y-86176804D02*
X113709750Y-86272042D01*
X113709750Y-86272042D02*
X113757369Y-86414899D01*
X113757369Y-86414899D02*
X113757369Y-86652994D01*
X113757369Y-85129185D02*
X113757369Y-85700613D01*
X113757369Y-85414899D02*
X112757369Y-85414899D01*
X112757369Y-85414899D02*
X112900226Y-85510137D01*
X112900226Y-85510137D02*
X112995464Y-85605375D01*
X112995464Y-85605375D02*
X113043083Y-85700613D01*
X77877200Y-115633332D02*
X77924819Y-115490475D01*
X77924819Y-115490475D02*
X77924819Y-115252380D01*
X77924819Y-115252380D02*
X77877200Y-115157142D01*
X77877200Y-115157142D02*
X77829580Y-115109523D01*
X77829580Y-115109523D02*
X77734342Y-115061904D01*
X77734342Y-115061904D02*
X77639104Y-115061904D01*
X77639104Y-115061904D02*
X77543866Y-115109523D01*
X77543866Y-115109523D02*
X77496247Y-115157142D01*
X77496247Y-115157142D02*
X77448628Y-115252380D01*
X77448628Y-115252380D02*
X77401009Y-115442856D01*
X77401009Y-115442856D02*
X77353390Y-115538094D01*
X77353390Y-115538094D02*
X77305771Y-115585713D01*
X77305771Y-115585713D02*
X77210533Y-115633332D01*
X77210533Y-115633332D02*
X77115295Y-115633332D01*
X77115295Y-115633332D02*
X77020057Y-115585713D01*
X77020057Y-115585713D02*
X76972438Y-115538094D01*
X76972438Y-115538094D02*
X76924819Y-115442856D01*
X76924819Y-115442856D02*
X76924819Y-115204761D01*
X76924819Y-115204761D02*
X76972438Y-115061904D01*
X76924819Y-114728570D02*
X77924819Y-114490475D01*
X77924819Y-114490475D02*
X77210533Y-114299999D01*
X77210533Y-114299999D02*
X77924819Y-114109523D01*
X77924819Y-114109523D02*
X76924819Y-113871428D01*
X77924819Y-112966666D02*
X77924819Y-113538094D01*
X77924819Y-113252380D02*
X76924819Y-113252380D01*
X76924819Y-113252380D02*
X77067676Y-113347618D01*
X77067676Y-113347618D02*
X77162914Y-113442856D01*
X77162914Y-113442856D02*
X77210533Y-113538094D01*
X65812319Y-119062499D02*
X66050414Y-119062499D01*
X65955176Y-119300594D02*
X66050414Y-119062499D01*
X66050414Y-119062499D02*
X65955176Y-118824404D01*
X66240890Y-119205356D02*
X66050414Y-119062499D01*
X66050414Y-119062499D02*
X66240890Y-118919642D01*
X65812319Y-119024399D02*
X66050414Y-119024399D01*
X65955176Y-119262494D02*
X66050414Y-119024399D01*
X66050414Y-119024399D02*
X65955176Y-118786304D01*
X66240890Y-119167256D02*
X66050414Y-119024399D01*
X66050414Y-119024399D02*
X66240890Y-118881542D01*
X64351819Y-111439247D02*
X64351819Y-111248771D01*
X64351819Y-111248771D02*
X64399438Y-111153533D01*
X64399438Y-111153533D02*
X64494676Y-111058295D01*
X64494676Y-111058295D02*
X64685152Y-111010676D01*
X64685152Y-111010676D02*
X65018485Y-111010676D01*
X65018485Y-111010676D02*
X65208961Y-111058295D01*
X65208961Y-111058295D02*
X65304200Y-111153533D01*
X65304200Y-111153533D02*
X65351819Y-111248771D01*
X65351819Y-111248771D02*
X65351819Y-111439247D01*
X65351819Y-111439247D02*
X65304200Y-111534485D01*
X65304200Y-111534485D02*
X65208961Y-111629723D01*
X65208961Y-111629723D02*
X65018485Y-111677342D01*
X65018485Y-111677342D02*
X64685152Y-111677342D01*
X64685152Y-111677342D02*
X64494676Y-111629723D01*
X64494676Y-111629723D02*
X64399438Y-111534485D01*
X64399438Y-111534485D02*
X64351819Y-111439247D01*
X65351819Y-110582104D02*
X64351819Y-110582104D01*
X64351819Y-110582104D02*
X65351819Y-110010676D01*
X65351819Y-110010676D02*
X64351819Y-110010676D01*
X64351819Y-118732180D02*
X64351819Y-118541704D01*
X64351819Y-118541704D02*
X64399438Y-118446466D01*
X64399438Y-118446466D02*
X64494676Y-118351228D01*
X64494676Y-118351228D02*
X64685152Y-118303609D01*
X64685152Y-118303609D02*
X65018485Y-118303609D01*
X65018485Y-118303609D02*
X65208961Y-118351228D01*
X65208961Y-118351228D02*
X65304200Y-118446466D01*
X65304200Y-118446466D02*
X65351819Y-118541704D01*
X65351819Y-118541704D02*
X65351819Y-118732180D01*
X65351819Y-118732180D02*
X65304200Y-118827418D01*
X65304200Y-118827418D02*
X65208961Y-118922656D01*
X65208961Y-118922656D02*
X65018485Y-118970275D01*
X65018485Y-118970275D02*
X64685152Y-118970275D01*
X64685152Y-118970275D02*
X64494676Y-118922656D01*
X64494676Y-118922656D02*
X64399438Y-118827418D01*
X64399438Y-118827418D02*
X64351819Y-118732180D01*
X64828009Y-117541704D02*
X64828009Y-117875037D01*
X65351819Y-117875037D02*
X64351819Y-117875037D01*
X64351819Y-117875037D02*
X64351819Y-117398847D01*
X64828009Y-116684561D02*
X64828009Y-117017894D01*
X65351819Y-117017894D02*
X64351819Y-117017894D01*
X64351819Y-117017894D02*
X64351819Y-116541704D01*
X67764819Y-119546666D02*
X67288628Y-119879999D01*
X67764819Y-120118094D02*
X66764819Y-120118094D01*
X66764819Y-120118094D02*
X66764819Y-119737142D01*
X66764819Y-119737142D02*
X66812438Y-119641904D01*
X66812438Y-119641904D02*
X66860057Y-119594285D01*
X66860057Y-119594285D02*
X66955295Y-119546666D01*
X66955295Y-119546666D02*
X67098152Y-119546666D01*
X67098152Y-119546666D02*
X67193390Y-119594285D01*
X67193390Y-119594285D02*
X67241009Y-119641904D01*
X67241009Y-119641904D02*
X67288628Y-119737142D01*
X67288628Y-119737142D02*
X67288628Y-120118094D01*
X67193390Y-118975237D02*
X67145771Y-119070475D01*
X67145771Y-119070475D02*
X67098152Y-119118094D01*
X67098152Y-119118094D02*
X67002914Y-119165713D01*
X67002914Y-119165713D02*
X66955295Y-119165713D01*
X66955295Y-119165713D02*
X66860057Y-119118094D01*
X66860057Y-119118094D02*
X66812438Y-119070475D01*
X66812438Y-119070475D02*
X66764819Y-118975237D01*
X66764819Y-118975237D02*
X66764819Y-118784761D01*
X66764819Y-118784761D02*
X66812438Y-118689523D01*
X66812438Y-118689523D02*
X66860057Y-118641904D01*
X66860057Y-118641904D02*
X66955295Y-118594285D01*
X66955295Y-118594285D02*
X67002914Y-118594285D01*
X67002914Y-118594285D02*
X67098152Y-118641904D01*
X67098152Y-118641904D02*
X67145771Y-118689523D01*
X67145771Y-118689523D02*
X67193390Y-118784761D01*
X67193390Y-118784761D02*
X67193390Y-118975237D01*
X67193390Y-118975237D02*
X67241009Y-119070475D01*
X67241009Y-119070475D02*
X67288628Y-119118094D01*
X67288628Y-119118094D02*
X67383866Y-119165713D01*
X67383866Y-119165713D02*
X67574342Y-119165713D01*
X67574342Y-119165713D02*
X67669580Y-119118094D01*
X67669580Y-119118094D02*
X67717200Y-119070475D01*
X67717200Y-119070475D02*
X67764819Y-118975237D01*
X67764819Y-118975237D02*
X67764819Y-118784761D01*
X67764819Y-118784761D02*
X67717200Y-118689523D01*
X67717200Y-118689523D02*
X67669580Y-118641904D01*
X67669580Y-118641904D02*
X67574342Y-118594285D01*
X67574342Y-118594285D02*
X67383866Y-118594285D01*
X67383866Y-118594285D02*
X67288628Y-118641904D01*
X67288628Y-118641904D02*
X67241009Y-118689523D01*
X67241009Y-118689523D02*
X67193390Y-118784761D01*
X70304819Y-119546666D02*
X69828628Y-119879999D01*
X70304819Y-120118094D02*
X69304819Y-120118094D01*
X69304819Y-120118094D02*
X69304819Y-119737142D01*
X69304819Y-119737142D02*
X69352438Y-119641904D01*
X69352438Y-119641904D02*
X69400057Y-119594285D01*
X69400057Y-119594285D02*
X69495295Y-119546666D01*
X69495295Y-119546666D02*
X69638152Y-119546666D01*
X69638152Y-119546666D02*
X69733390Y-119594285D01*
X69733390Y-119594285D02*
X69781009Y-119641904D01*
X69781009Y-119641904D02*
X69828628Y-119737142D01*
X69828628Y-119737142D02*
X69828628Y-120118094D01*
X69304819Y-119213332D02*
X69304819Y-118546666D01*
X69304819Y-118546666D02*
X70304819Y-118975237D01*
X72844819Y-119546666D02*
X72368628Y-119879999D01*
X72844819Y-120118094D02*
X71844819Y-120118094D01*
X71844819Y-120118094D02*
X71844819Y-119737142D01*
X71844819Y-119737142D02*
X71892438Y-119641904D01*
X71892438Y-119641904D02*
X71940057Y-119594285D01*
X71940057Y-119594285D02*
X72035295Y-119546666D01*
X72035295Y-119546666D02*
X72178152Y-119546666D01*
X72178152Y-119546666D02*
X72273390Y-119594285D01*
X72273390Y-119594285D02*
X72321009Y-119641904D01*
X72321009Y-119641904D02*
X72368628Y-119737142D01*
X72368628Y-119737142D02*
X72368628Y-120118094D01*
X71844819Y-118689523D02*
X71844819Y-118879999D01*
X71844819Y-118879999D02*
X71892438Y-118975237D01*
X71892438Y-118975237D02*
X71940057Y-119022856D01*
X71940057Y-119022856D02*
X72082914Y-119118094D01*
X72082914Y-119118094D02*
X72273390Y-119165713D01*
X72273390Y-119165713D02*
X72654342Y-119165713D01*
X72654342Y-119165713D02*
X72749580Y-119118094D01*
X72749580Y-119118094D02*
X72797200Y-119070475D01*
X72797200Y-119070475D02*
X72844819Y-118975237D01*
X72844819Y-118975237D02*
X72844819Y-118784761D01*
X72844819Y-118784761D02*
X72797200Y-118689523D01*
X72797200Y-118689523D02*
X72749580Y-118641904D01*
X72749580Y-118641904D02*
X72654342Y-118594285D01*
X72654342Y-118594285D02*
X72416247Y-118594285D01*
X72416247Y-118594285D02*
X72321009Y-118641904D01*
X72321009Y-118641904D02*
X72273390Y-118689523D01*
X72273390Y-118689523D02*
X72225771Y-118784761D01*
X72225771Y-118784761D02*
X72225771Y-118975237D01*
X72225771Y-118975237D02*
X72273390Y-119070475D01*
X72273390Y-119070475D02*
X72321009Y-119118094D01*
X72321009Y-119118094D02*
X72416247Y-119165713D01*
X75384819Y-119546666D02*
X74908628Y-119879999D01*
X75384819Y-120118094D02*
X74384819Y-120118094D01*
X74384819Y-120118094D02*
X74384819Y-119737142D01*
X74384819Y-119737142D02*
X74432438Y-119641904D01*
X74432438Y-119641904D02*
X74480057Y-119594285D01*
X74480057Y-119594285D02*
X74575295Y-119546666D01*
X74575295Y-119546666D02*
X74718152Y-119546666D01*
X74718152Y-119546666D02*
X74813390Y-119594285D01*
X74813390Y-119594285D02*
X74861009Y-119641904D01*
X74861009Y-119641904D02*
X74908628Y-119737142D01*
X74908628Y-119737142D02*
X74908628Y-120118094D01*
X74384819Y-118641904D02*
X74384819Y-119118094D01*
X74384819Y-119118094D02*
X74861009Y-119165713D01*
X74861009Y-119165713D02*
X74813390Y-119118094D01*
X74813390Y-119118094D02*
X74765771Y-119022856D01*
X74765771Y-119022856D02*
X74765771Y-118784761D01*
X74765771Y-118784761D02*
X74813390Y-118689523D01*
X74813390Y-118689523D02*
X74861009Y-118641904D01*
X74861009Y-118641904D02*
X74956247Y-118594285D01*
X74956247Y-118594285D02*
X75194342Y-118594285D01*
X75194342Y-118594285D02*
X75289580Y-118641904D01*
X75289580Y-118641904D02*
X75337200Y-118689523D01*
X75337200Y-118689523D02*
X75384819Y-118784761D01*
X75384819Y-118784761D02*
X75384819Y-119022856D01*
X75384819Y-119022856D02*
X75337200Y-119118094D01*
X75337200Y-119118094D02*
X75289580Y-119165713D01*
X77924819Y-119546666D02*
X77448628Y-119879999D01*
X77924819Y-120118094D02*
X76924819Y-120118094D01*
X76924819Y-120118094D02*
X76924819Y-119737142D01*
X76924819Y-119737142D02*
X76972438Y-119641904D01*
X76972438Y-119641904D02*
X77020057Y-119594285D01*
X77020057Y-119594285D02*
X77115295Y-119546666D01*
X77115295Y-119546666D02*
X77258152Y-119546666D01*
X77258152Y-119546666D02*
X77353390Y-119594285D01*
X77353390Y-119594285D02*
X77401009Y-119641904D01*
X77401009Y-119641904D02*
X77448628Y-119737142D01*
X77448628Y-119737142D02*
X77448628Y-120118094D01*
X77258152Y-118689523D02*
X77924819Y-118689523D01*
X76877200Y-118927618D02*
X77591485Y-119165713D01*
X77591485Y-119165713D02*
X77591485Y-118546666D01*
X80464819Y-119546666D02*
X79988628Y-119879999D01*
X80464819Y-120118094D02*
X79464819Y-120118094D01*
X79464819Y-120118094D02*
X79464819Y-119737142D01*
X79464819Y-119737142D02*
X79512438Y-119641904D01*
X79512438Y-119641904D02*
X79560057Y-119594285D01*
X79560057Y-119594285D02*
X79655295Y-119546666D01*
X79655295Y-119546666D02*
X79798152Y-119546666D01*
X79798152Y-119546666D02*
X79893390Y-119594285D01*
X79893390Y-119594285D02*
X79941009Y-119641904D01*
X79941009Y-119641904D02*
X79988628Y-119737142D01*
X79988628Y-119737142D02*
X79988628Y-120118094D01*
X79464819Y-119213332D02*
X79464819Y-118594285D01*
X79464819Y-118594285D02*
X79845771Y-118927618D01*
X79845771Y-118927618D02*
X79845771Y-118784761D01*
X79845771Y-118784761D02*
X79893390Y-118689523D01*
X79893390Y-118689523D02*
X79941009Y-118641904D01*
X79941009Y-118641904D02*
X80036247Y-118594285D01*
X80036247Y-118594285D02*
X80274342Y-118594285D01*
X80274342Y-118594285D02*
X80369580Y-118641904D01*
X80369580Y-118641904D02*
X80417200Y-118689523D01*
X80417200Y-118689523D02*
X80464819Y-118784761D01*
X80464819Y-118784761D02*
X80464819Y-119070475D01*
X80464819Y-119070475D02*
X80417200Y-119165713D01*
X80417200Y-119165713D02*
X80369580Y-119213332D01*
X83004819Y-119546666D02*
X82528628Y-119879999D01*
X83004819Y-120118094D02*
X82004819Y-120118094D01*
X82004819Y-120118094D02*
X82004819Y-119737142D01*
X82004819Y-119737142D02*
X82052438Y-119641904D01*
X82052438Y-119641904D02*
X82100057Y-119594285D01*
X82100057Y-119594285D02*
X82195295Y-119546666D01*
X82195295Y-119546666D02*
X82338152Y-119546666D01*
X82338152Y-119546666D02*
X82433390Y-119594285D01*
X82433390Y-119594285D02*
X82481009Y-119641904D01*
X82481009Y-119641904D02*
X82528628Y-119737142D01*
X82528628Y-119737142D02*
X82528628Y-120118094D01*
X82100057Y-119165713D02*
X82052438Y-119118094D01*
X82052438Y-119118094D02*
X82004819Y-119022856D01*
X82004819Y-119022856D02*
X82004819Y-118784761D01*
X82004819Y-118784761D02*
X82052438Y-118689523D01*
X82052438Y-118689523D02*
X82100057Y-118641904D01*
X82100057Y-118641904D02*
X82195295Y-118594285D01*
X82195295Y-118594285D02*
X82290533Y-118594285D01*
X82290533Y-118594285D02*
X82433390Y-118641904D01*
X82433390Y-118641904D02*
X83004819Y-119213332D01*
X83004819Y-119213332D02*
X83004819Y-118594285D01*
X85544819Y-119546666D02*
X85068628Y-119879999D01*
X85544819Y-120118094D02*
X84544819Y-120118094D01*
X84544819Y-120118094D02*
X84544819Y-119737142D01*
X84544819Y-119737142D02*
X84592438Y-119641904D01*
X84592438Y-119641904D02*
X84640057Y-119594285D01*
X84640057Y-119594285D02*
X84735295Y-119546666D01*
X84735295Y-119546666D02*
X84878152Y-119546666D01*
X84878152Y-119546666D02*
X84973390Y-119594285D01*
X84973390Y-119594285D02*
X85021009Y-119641904D01*
X85021009Y-119641904D02*
X85068628Y-119737142D01*
X85068628Y-119737142D02*
X85068628Y-120118094D01*
X85544819Y-118594285D02*
X85544819Y-119165713D01*
X85544819Y-118879999D02*
X84544819Y-118879999D01*
X84544819Y-118879999D02*
X84687676Y-118975237D01*
X84687676Y-118975237D02*
X84782914Y-119070475D01*
X84782914Y-119070475D02*
X84830533Y-119165713D01*
X83058095Y-92799819D02*
X83058095Y-93609342D01*
X83058095Y-93609342D02*
X83105714Y-93704580D01*
X83105714Y-93704580D02*
X83153333Y-93752200D01*
X83153333Y-93752200D02*
X83248571Y-93799819D01*
X83248571Y-93799819D02*
X83439047Y-93799819D01*
X83439047Y-93799819D02*
X83534285Y-93752200D01*
X83534285Y-93752200D02*
X83581904Y-93704580D01*
X83581904Y-93704580D02*
X83629523Y-93609342D01*
X83629523Y-93609342D02*
X83629523Y-92799819D01*
X84629523Y-93799819D02*
X84058095Y-93799819D01*
X84343809Y-93799819D02*
X84343809Y-92799819D01*
X84343809Y-92799819D02*
X84248571Y-92942676D01*
X84248571Y-92942676D02*
X84153333Y-93037914D01*
X84153333Y-93037914D02*
X84058095Y-93085533D01*
X81026000Y-93003019D02*
X81026000Y-93241114D01*
X80787905Y-93145876D02*
X81026000Y-93241114D01*
X81026000Y-93241114D02*
X81264095Y-93145876D01*
X80883143Y-93431590D02*
X81026000Y-93241114D01*
X81026000Y-93241114D02*
X81168857Y-93431590D01*
X81026000Y-93003019D02*
X81026000Y-93241114D01*
X80787905Y-93145876D02*
X81026000Y-93241114D01*
X81026000Y-93241114D02*
X81264095Y-93145876D01*
X80883143Y-93431590D02*
X81026000Y-93241114D01*
X81026000Y-93241114D02*
X81168857Y-93431590D01*
X80052080Y-70016666D02*
X80099700Y-70064285D01*
X80099700Y-70064285D02*
X80147319Y-70207142D01*
X80147319Y-70207142D02*
X80147319Y-70302380D01*
X80147319Y-70302380D02*
X80099700Y-70445237D01*
X80099700Y-70445237D02*
X80004461Y-70540475D01*
X80004461Y-70540475D02*
X79909223Y-70588094D01*
X79909223Y-70588094D02*
X79718747Y-70635713D01*
X79718747Y-70635713D02*
X79575890Y-70635713D01*
X79575890Y-70635713D02*
X79385414Y-70588094D01*
X79385414Y-70588094D02*
X79290176Y-70540475D01*
X79290176Y-70540475D02*
X79194938Y-70445237D01*
X79194938Y-70445237D02*
X79147319Y-70302380D01*
X79147319Y-70302380D02*
X79147319Y-70207142D01*
X79147319Y-70207142D02*
X79194938Y-70064285D01*
X79194938Y-70064285D02*
X79242557Y-70016666D01*
X79147319Y-69111904D02*
X79147319Y-69588094D01*
X79147319Y-69588094D02*
X79623509Y-69635713D01*
X79623509Y-69635713D02*
X79575890Y-69588094D01*
X79575890Y-69588094D02*
X79528271Y-69492856D01*
X79528271Y-69492856D02*
X79528271Y-69254761D01*
X79528271Y-69254761D02*
X79575890Y-69159523D01*
X79575890Y-69159523D02*
X79623509Y-69111904D01*
X79623509Y-69111904D02*
X79718747Y-69064285D01*
X79718747Y-69064285D02*
X79956842Y-69064285D01*
X79956842Y-69064285D02*
X80052080Y-69111904D01*
X80052080Y-69111904D02*
X80099700Y-69159523D01*
X80099700Y-69159523D02*
X80147319Y-69254761D01*
X80147319Y-69254761D02*
X80147319Y-69492856D01*
X80147319Y-69492856D02*
X80099700Y-69588094D01*
X80099700Y-69588094D02*
X80052080Y-69635713D01*
X73067080Y-70016666D02*
X73114700Y-70064285D01*
X73114700Y-70064285D02*
X73162319Y-70207142D01*
X73162319Y-70207142D02*
X73162319Y-70302380D01*
X73162319Y-70302380D02*
X73114700Y-70445237D01*
X73114700Y-70445237D02*
X73019461Y-70540475D01*
X73019461Y-70540475D02*
X72924223Y-70588094D01*
X72924223Y-70588094D02*
X72733747Y-70635713D01*
X72733747Y-70635713D02*
X72590890Y-70635713D01*
X72590890Y-70635713D02*
X72400414Y-70588094D01*
X72400414Y-70588094D02*
X72305176Y-70540475D01*
X72305176Y-70540475D02*
X72209938Y-70445237D01*
X72209938Y-70445237D02*
X72162319Y-70302380D01*
X72162319Y-70302380D02*
X72162319Y-70207142D01*
X72162319Y-70207142D02*
X72209938Y-70064285D01*
X72209938Y-70064285D02*
X72257557Y-70016666D01*
X72495652Y-69159523D02*
X73162319Y-69159523D01*
X72114700Y-69397618D02*
X72828985Y-69635713D01*
X72828985Y-69635713D02*
X72828985Y-69016666D01*
X83653333Y-82592080D02*
X83605714Y-82639700D01*
X83605714Y-82639700D02*
X83462857Y-82687319D01*
X83462857Y-82687319D02*
X83367619Y-82687319D01*
X83367619Y-82687319D02*
X83224762Y-82639700D01*
X83224762Y-82639700D02*
X83129524Y-82544461D01*
X83129524Y-82544461D02*
X83081905Y-82449223D01*
X83081905Y-82449223D02*
X83034286Y-82258747D01*
X83034286Y-82258747D02*
X83034286Y-82115890D01*
X83034286Y-82115890D02*
X83081905Y-81925414D01*
X83081905Y-81925414D02*
X83129524Y-81830176D01*
X83129524Y-81830176D02*
X83224762Y-81734938D01*
X83224762Y-81734938D02*
X83367619Y-81687319D01*
X83367619Y-81687319D02*
X83462857Y-81687319D01*
X83462857Y-81687319D02*
X83605714Y-81734938D01*
X83605714Y-81734938D02*
X83653333Y-81782557D01*
X83986667Y-81687319D02*
X84605714Y-81687319D01*
X84605714Y-81687319D02*
X84272381Y-82068271D01*
X84272381Y-82068271D02*
X84415238Y-82068271D01*
X84415238Y-82068271D02*
X84510476Y-82115890D01*
X84510476Y-82115890D02*
X84558095Y-82163509D01*
X84558095Y-82163509D02*
X84605714Y-82258747D01*
X84605714Y-82258747D02*
X84605714Y-82496842D01*
X84605714Y-82496842D02*
X84558095Y-82592080D01*
X84558095Y-82592080D02*
X84510476Y-82639700D01*
X84510476Y-82639700D02*
X84415238Y-82687319D01*
X84415238Y-82687319D02*
X84129524Y-82687319D01*
X84129524Y-82687319D02*
X84034286Y-82639700D01*
X84034286Y-82639700D02*
X83986667Y-82592080D01*
X83653333Y-90847080D02*
X83605714Y-90894700D01*
X83605714Y-90894700D02*
X83462857Y-90942319D01*
X83462857Y-90942319D02*
X83367619Y-90942319D01*
X83367619Y-90942319D02*
X83224762Y-90894700D01*
X83224762Y-90894700D02*
X83129524Y-90799461D01*
X83129524Y-90799461D02*
X83081905Y-90704223D01*
X83081905Y-90704223D02*
X83034286Y-90513747D01*
X83034286Y-90513747D02*
X83034286Y-90370890D01*
X83034286Y-90370890D02*
X83081905Y-90180414D01*
X83081905Y-90180414D02*
X83129524Y-90085176D01*
X83129524Y-90085176D02*
X83224762Y-89989938D01*
X83224762Y-89989938D02*
X83367619Y-89942319D01*
X83367619Y-89942319D02*
X83462857Y-89942319D01*
X83462857Y-89942319D02*
X83605714Y-89989938D01*
X83605714Y-89989938D02*
X83653333Y-90037557D01*
X84034286Y-90037557D02*
X84081905Y-89989938D01*
X84081905Y-89989938D02*
X84177143Y-89942319D01*
X84177143Y-89942319D02*
X84415238Y-89942319D01*
X84415238Y-89942319D02*
X84510476Y-89989938D01*
X84510476Y-89989938D02*
X84558095Y-90037557D01*
X84558095Y-90037557D02*
X84605714Y-90132795D01*
X84605714Y-90132795D02*
X84605714Y-90228033D01*
X84605714Y-90228033D02*
X84558095Y-90370890D01*
X84558095Y-90370890D02*
X83986667Y-90942319D01*
X83986667Y-90942319D02*
X84605714Y-90942319D01*
X78719819Y-78823333D02*
X79434104Y-78823333D01*
X79434104Y-78823333D02*
X79576961Y-78870952D01*
X79576961Y-78870952D02*
X79672200Y-78966190D01*
X79672200Y-78966190D02*
X79719819Y-79109047D01*
X79719819Y-79109047D02*
X79719819Y-79204285D01*
X78815057Y-78394761D02*
X78767438Y-78347142D01*
X78767438Y-78347142D02*
X78719819Y-78251904D01*
X78719819Y-78251904D02*
X78719819Y-78013809D01*
X78719819Y-78013809D02*
X78767438Y-77918571D01*
X78767438Y-77918571D02*
X78815057Y-77870952D01*
X78815057Y-77870952D02*
X78910295Y-77823333D01*
X78910295Y-77823333D02*
X79005533Y-77823333D01*
X79005533Y-77823333D02*
X79148390Y-77870952D01*
X79148390Y-77870952D02*
X79719819Y-78442380D01*
X79719819Y-78442380D02*
X79719819Y-77823333D01*
X90419580Y-99861666D02*
X90467200Y-99909285D01*
X90467200Y-99909285D02*
X90514819Y-100052142D01*
X90514819Y-100052142D02*
X90514819Y-100147380D01*
X90514819Y-100147380D02*
X90467200Y-100290237D01*
X90467200Y-100290237D02*
X90371961Y-100385475D01*
X90371961Y-100385475D02*
X90276723Y-100433094D01*
X90276723Y-100433094D02*
X90086247Y-100480713D01*
X90086247Y-100480713D02*
X89943390Y-100480713D01*
X89943390Y-100480713D02*
X89752914Y-100433094D01*
X89752914Y-100433094D02*
X89657676Y-100385475D01*
X89657676Y-100385475D02*
X89562438Y-100290237D01*
X89562438Y-100290237D02*
X89514819Y-100147380D01*
X89514819Y-100147380D02*
X89514819Y-100052142D01*
X89514819Y-100052142D02*
X89562438Y-99909285D01*
X89562438Y-99909285D02*
X89610057Y-99861666D01*
X90514819Y-98909285D02*
X90514819Y-99480713D01*
X90514819Y-99194999D02*
X89514819Y-99194999D01*
X89514819Y-99194999D02*
X89657676Y-99290237D01*
X89657676Y-99290237D02*
X89752914Y-99385475D01*
X89752914Y-99385475D02*
X89800533Y-99480713D01*
D12*
%TO.C,U13*%
X110288700Y-114276500D02*
X109670420Y-114276500D01*
X110288700Y-114743860D02*
X110288700Y-114276500D01*
X110288700Y-116232300D02*
X110288700Y-115764940D01*
X109670420Y-116232300D02*
X110288700Y-116232300D01*
%TO.C,U12*%
X110251200Y-109931500D02*
X109632920Y-109931500D01*
X110251200Y-110398860D02*
X110251200Y-109931500D01*
X110251200Y-111887300D02*
X110251200Y-111419940D01*
X109632920Y-111887300D02*
X110251200Y-111887300D01*
%TO.C,U11*%
X110251200Y-105693800D02*
X109632920Y-105693800D01*
X110251200Y-106161160D02*
X110251200Y-105693800D01*
X110251200Y-107649600D02*
X110251200Y-107182240D01*
X109632920Y-107649600D02*
X110251200Y-107649600D01*
%TO.C,U10*%
X110243700Y-101539000D02*
X109625420Y-101539000D01*
X110243700Y-102006360D02*
X110243700Y-101539000D01*
X110243700Y-103494800D02*
X110243700Y-103027440D01*
X109625420Y-103494800D02*
X110243700Y-103494800D01*
%TO.C,U9*%
X110196550Y-97211850D02*
X109578270Y-97211850D01*
X110196550Y-97679210D02*
X110196550Y-97211850D01*
X110196550Y-99167650D02*
X110196550Y-98700290D01*
X109578270Y-99167650D02*
X110196550Y-99167650D01*
%TO.C,U8*%
X110243700Y-93065600D02*
X109625420Y-93065600D01*
X110243700Y-93532960D02*
X110243700Y-93065600D01*
X110243700Y-95021400D02*
X110243700Y-94554040D01*
X109625420Y-95021400D02*
X110243700Y-95021400D01*
%TO.C,U7*%
X110196550Y-88965400D02*
X109578270Y-88965400D01*
X110196550Y-89432760D02*
X110196550Y-88965400D01*
X110196550Y-90921200D02*
X110196550Y-90453840D01*
X109578270Y-90921200D02*
X110196550Y-90921200D01*
%TO.C,U6*%
X110196550Y-84848100D02*
X109578270Y-84848100D01*
X110196550Y-85315460D02*
X110196550Y-84848100D01*
X110196550Y-86803900D02*
X110196550Y-86336540D01*
X109578270Y-86803900D02*
X110196550Y-86803900D01*
D13*
%TO.C,U5*%
X78700000Y-66549999D02*
X78700000Y-70750001D01*
X73700000Y-68949999D02*
X73700000Y-70750001D01*
%TO.C,U4*%
X87120001Y-81240000D02*
X82919999Y-81240000D01*
X84720001Y-76240000D02*
X82919999Y-76240000D01*
%TO.C,U3*%
X71715000Y-66549999D02*
X71715000Y-70750001D01*
X66715000Y-68949999D02*
X66715000Y-70750001D01*
%TO.C,U2*%
X87120001Y-89495000D02*
X82919999Y-89495000D01*
X84720001Y-84495000D02*
X82919999Y-84495000D01*
D14*
%TO.C,R16*%
X111422079Y-113058300D02*
X111757321Y-113058300D01*
X111422079Y-113818300D02*
X111757321Y-113818300D01*
%TO.C,R15*%
X111384579Y-108713300D02*
X111719821Y-108713300D01*
X111384579Y-109473300D02*
X111719821Y-109473300D01*
%TO.C,R14*%
X111384579Y-104475600D02*
X111719821Y-104475600D01*
X111384579Y-105235600D02*
X111719821Y-105235600D01*
%TO.C,R13*%
X111377079Y-100320800D02*
X111712321Y-100320800D01*
X111377079Y-101080800D02*
X111712321Y-101080800D01*
%TO.C,R12*%
X111329929Y-95993650D02*
X111665171Y-95993650D01*
X111329929Y-96753650D02*
X111665171Y-96753650D01*
%TO.C,R11*%
X111377079Y-91847400D02*
X111712321Y-91847400D01*
X111377079Y-92607400D02*
X111712321Y-92607400D01*
%TO.C,R10*%
X111329929Y-87747200D02*
X111665171Y-87747200D01*
X111329929Y-88507200D02*
X111665171Y-88507200D01*
%TO.C,R9*%
X111329929Y-83629900D02*
X111665171Y-83629900D01*
X111329929Y-84389900D02*
X111665171Y-84389900D01*
D15*
%TO.C,D8*%
X112274700Y-114078300D02*
G75*
G02*
X112174700Y-114078300I-50000J0D01*
G01*
X112174700Y-114078300D02*
G75*
G02*
X112274700Y-114078300I50000J0D01*
G01*
%TO.C,D7*%
X112237200Y-109733300D02*
G75*
G02*
X112137200Y-109733300I-50000J0D01*
G01*
X112137200Y-109733300D02*
G75*
G02*
X112237200Y-109733300I50000J0D01*
G01*
%TO.C,D6*%
X112237200Y-105495600D02*
G75*
G02*
X112137200Y-105495600I-50000J0D01*
G01*
X112137200Y-105495600D02*
G75*
G02*
X112237200Y-105495600I50000J0D01*
G01*
%TO.C,D5*%
X112229700Y-101340800D02*
G75*
G02*
X112129700Y-101340800I-50000J0D01*
G01*
X112129700Y-101340800D02*
G75*
G02*
X112229700Y-101340800I50000J0D01*
G01*
%TO.C,D4*%
X112182550Y-97013650D02*
G75*
G02*
X112082550Y-97013650I-50000J0D01*
G01*
X112082550Y-97013650D02*
G75*
G02*
X112182550Y-97013650I50000J0D01*
G01*
%TO.C,D3*%
X112229700Y-92867400D02*
G75*
G02*
X112129700Y-92867400I-50000J0D01*
G01*
X112129700Y-92867400D02*
G75*
G02*
X112229700Y-92867400I50000J0D01*
G01*
%TO.C,D2*%
X112182550Y-88767200D02*
G75*
G02*
X112082550Y-88767200I-50000J0D01*
G01*
X112082550Y-88767200D02*
G75*
G02*
X112182550Y-88767200I50000J0D01*
G01*
%TO.C,D1*%
X112182550Y-84649900D02*
G75*
G02*
X112082550Y-84649900I-50000J0D01*
G01*
X112082550Y-84649900D02*
G75*
G02*
X112182550Y-84649900I50000J0D01*
G01*
D16*
%TO.C,SW1*%
G36*
X84010500Y-108496100D02*
G01*
X83629500Y-108496100D01*
X83629500Y-108242100D01*
X84010500Y-108242100D01*
X84010500Y-108496100D01*
G37*
D12*
X88646000Y-117906800D02*
X88646000Y-110693200D01*
X88646000Y-110693200D02*
X87035640Y-110693200D01*
X66294000Y-110693200D02*
X66294000Y-117906800D01*
X66294000Y-117906800D02*
X67904360Y-117906800D01*
X69255640Y-117906800D02*
X70444360Y-117906800D01*
X71795640Y-117906800D02*
X72984360Y-117906800D01*
X74335640Y-117906800D02*
X75524360Y-117906800D01*
X76875640Y-117906800D02*
X78064360Y-117906800D01*
X79415640Y-117906800D02*
X80604360Y-117906800D01*
X81955640Y-117906800D02*
X83144360Y-117906800D01*
X84495640Y-117906800D02*
X85684360Y-117906800D01*
X87035640Y-117906800D02*
X88646000Y-117906800D01*
X85684360Y-110693200D02*
X84495640Y-110693200D01*
X83144360Y-110693200D02*
X81955640Y-110693200D01*
X80604360Y-110693200D02*
X79415640Y-110693200D01*
X78064360Y-110693200D02*
X76875640Y-110693200D01*
X75524360Y-110693200D02*
X74335640Y-110693200D01*
X72984360Y-110693200D02*
X71795640Y-110693200D01*
X70444360Y-110693200D02*
X69255640Y-110693200D01*
X67904360Y-110693200D02*
X66294000Y-110693200D01*
D14*
%TO.C,R8*%
X67777379Y-120587500D02*
X68112621Y-120587500D01*
X67777379Y-121347500D02*
X68112621Y-121347500D01*
%TO.C,R7*%
X70317379Y-120587500D02*
X70652621Y-120587500D01*
X70317379Y-121347500D02*
X70652621Y-121347500D01*
%TO.C,R6*%
X72857379Y-120587500D02*
X73192621Y-120587500D01*
X72857379Y-121347500D02*
X73192621Y-121347500D01*
%TO.C,R5*%
X75397379Y-120587500D02*
X75732621Y-120587500D01*
X75397379Y-121347500D02*
X75732621Y-121347500D01*
%TO.C,R4*%
X77937379Y-120587500D02*
X78272621Y-120587500D01*
X77937379Y-121347500D02*
X78272621Y-121347500D01*
%TO.C,R3*%
X80477379Y-120587500D02*
X80812621Y-120587500D01*
X80477379Y-121347500D02*
X80812621Y-121347500D01*
%TO.C,R2*%
X83017379Y-120587500D02*
X83352621Y-120587500D01*
X83017379Y-121347500D02*
X83352621Y-121347500D01*
%TO.C,R1*%
X85557379Y-120587500D02*
X85892621Y-120587500D01*
X85557379Y-121347500D02*
X85892621Y-121347500D01*
D16*
%TO.C,U1*%
G36*
X87604600Y-103060500D02*
G01*
X87350600Y-103060500D01*
X87350600Y-102679500D01*
X87604600Y-102679500D01*
X87604600Y-103060500D01*
G37*
D12*
X82552897Y-104698800D02*
X84731503Y-104698800D01*
X84731503Y-94691200D02*
X82552897Y-94691200D01*
X83947000Y-94691200D02*
G75*
G02*
X83337400Y-94691200I-304800J0D01*
G01*
D14*
%TO.C,C5*%
X79332500Y-72188335D02*
X79332500Y-71956665D01*
X80052500Y-72188335D02*
X80052500Y-71956665D01*
%TO.C,C4*%
X72347500Y-72188335D02*
X72347500Y-71956665D01*
X73067500Y-72188335D02*
X73067500Y-71956665D01*
%TO.C,C3*%
X81481665Y-81872500D02*
X81713335Y-81872500D01*
X81481665Y-82592500D02*
X81713335Y-82592500D01*
%TO.C,C2*%
X81481665Y-90127500D02*
X81713335Y-90127500D01*
X81481665Y-90847500D02*
X81713335Y-90847500D01*
D17*
%TO.C,J2*%
X76710000Y-75690000D02*
X76710000Y-107190000D01*
X68770000Y-75690000D02*
X76710000Y-75690000D01*
X61720000Y-75690000D02*
X64830000Y-75690000D01*
X76710000Y-107190000D02*
X68770000Y-107190000D01*
X64830000Y-107190000D02*
X61720000Y-107190000D01*
X61720000Y-107190000D02*
X61720000Y-75690000D01*
D14*
%TO.C,C1*%
X89260000Y-99579165D02*
X89260000Y-99810835D01*
X88540000Y-99579165D02*
X88540000Y-99810835D01*
%TD*%
M02*
